<?xml version="1.0" encoding="utf-8"?>
<!-- Generator: Adobe Illustrator 22.0.1, SVG Export Plug-In . SVG Version: 6.00 Build 0)  -->
<svg version="1.1" id="Layer_1" xmlns="http://www.w3.org/2000/svg" xmlns:xlink="http://www.w3.org/1999/xlink" x="0px" y="0px"
	 viewBox="0 0 677.2 102.6" style="enable-background:new 0 0 677.2 102.6;" xml:space="preserve">
<style type="text/css">
	.st0{fill:#0089CF;}
</style>
<g>
	<g>
		<g>
			<path class="st0" d="M55.9,34l-23.7,66.3c0,0,0,0,0,0c20.7,0,37.4-16.7,37.4-37.4C69.6,51.3,64.2,40.8,55.9,34z"/>
			<path class="st0" d="M66.8,3.4l-8,22.4H77c12.4,0,22.4-10,22.4-22.4H66.8z"/>
		</g>
		<path class="st0" d="M24.5,3.4C12.1,3.4,2,13.4,2,25.9h25.7c-2,4.6-3.1,9.6-3.1,14.9c0,10.7,4.5,20.4,11.8,27.2L59.4,3.4H24.5z"/>
		<path class="st0" d="M277.6,71.9c-3.9,0-7.5-1-10.6-2.9c-3.1-2-5.6-4.8-7.4-8.4c-1.8-3.6-2.7-7.8-2.7-12.6c0-4.5,0.9-8.5,2.6-12.2
			c1.8-3.7,4.3-6.6,7.5-8.8c3.2-2.2,6.9-3.3,11-3.3c2.5,0,4.8,0.5,6.9,1.5c2.1,1,3.9,2.3,5.3,4.1V3.3h15.8v67.2h-14.9l-0.2-5.2
			c-1.4,2.1-3.2,3.7-5.5,4.9C283.2,71.4,280.6,71.9,277.6,71.9z M281.9,57.8c2.7,0,4.9-0.9,6.6-2.8c1.7-1.9,2.6-4.3,2.6-7.2
			c0-2.9-0.9-5.3-2.6-7.2c-1.7-1.9-3.9-2.8-6.6-2.8c-2.7,0-4.9,0.9-6.6,2.8c-1.7,1.9-2.6,4.3-2.6,7.2c0,2.9,0.9,5.3,2.6,7.2
			C277,56.9,279.2,57.8,281.9,57.8z"/>
		<path class="st0" d="M548,18c-2.5,0-4.6-0.8-6.3-2.4c-1.7-1.6-2.6-3.6-2.6-6c0-2.4,0.9-4.4,2.6-6.1c1.7-1.6,3.8-2.5,6.3-2.5
			c2.5,0,4.6,0.8,6.3,2.5s2.6,3.7,2.6,6.1c0,2.4-0.9,4.4-2.6,6C552.6,17.2,550.5,18,548,18z M540.1,25.1h15.8v45.4h-15.8V25.1z"/>
		<path class="st0" d="M585.8,71.9c-4.6,0-8.8-1-12.5-3c-3.8-2-6.8-4.8-9.1-8.5c-2.3-3.7-3.4-7.9-3.4-12.6c0-4.4,1-8.4,3.1-12.1
			c2.1-3.7,5-6.6,8.8-8.8c3.8-2.2,8.2-3.3,13-3.3c4.6,0,8.8,1,12.5,3c3.8,2,6.8,4.8,9,8.5c2.2,3.7,3.3,7.9,3.3,12.6
			c0,4.4-1,8.4-3.1,12.1c-2.1,3.6-5,6.6-8.8,8.8C595,70.8,590.7,71.9,585.8,71.9z M585.8,57.8c2.7,0,4.9-0.9,6.6-2.8
			c1.7-1.9,2.6-4.3,2.6-7.2c0-2.9-0.8-5.3-2.6-7.2c-1.7-1.9-3.9-2.8-6.6-2.8c-2.7,0-4.9,0.9-6.6,2.8c-1.7,1.9-2.6,4.3-2.6,7.2
			c0,2.9,0.9,5.3,2.6,7.2C580.9,56.9,583.1,57.8,585.8,57.8z"/>
		<path class="st0" d="M615.2,25.1h15.5l0.2,5.6c1.1-2.2,2.8-4,5.1-5.2c2.3-1.2,4.9-1.8,7.9-1.8c5.2,0,9.2,1.6,11.8,4.9
			c2.7,3.3,4,8,4,14.3v27.6h-15.8V45.9c0-5.4-2-8.1-6.1-8.1c-2.2,0-3.8,0.7-5,2.2c-1.2,1.5-1.8,3.7-1.8,6.5v24h-15.8V25.1z"/>
		<path class="st0" d="M407.3,37.6c-3.4-3.4-9.1-6.2-17-8.5c-4-1.2-6.7-2.2-8.1-3.2c-1.4-0.9-2.1-2.2-2.1-3.8c0-3.9,3-5.8,9.2-5.8
			c2.9,0,6,0.5,9.3,1.4c2.3,0.6,4.4,1.4,6.3,2.3l4.5-12.6c-2.6-1.6-5.7-2.8-9.5-3.8c-3.8-0.9-7.6-1.4-11.3-1.4
			c-7.9,0-14.1,1.8-18.6,5.5c-4.5,3.6-6.8,8.6-6.8,14.9c0,5.5,1.6,10,4.8,13.3c3.2,3.4,8.4,6.1,15.6,8.1c2.9,0.8,5.2,1.6,6.8,2.3
			c1.6,0.7,2.8,1.5,3.5,2.3c0.7,0.8,1.1,1.8,1.1,3c0,2-0.9,3.5-2.6,4.6c-1.8,1.1-4.3,1.6-7.6,1.6c-3.6,0-7.4-0.5-11.3-1.6
			c-2.5-0.7-4.8-1.6-6.9-2.6l-4.5,12.7c1.6,1.1,3.7,2.1,6.3,2.9c2.6,0.9,5.4,1.6,8.4,2c3,0.5,5.9,0.7,8.8,0.7c8.4,0,15-1.8,19.8-5.5
			c4.7-3.7,7.1-8.9,7.1-15.5C412.5,45.4,410.8,40.9,407.3,37.6z"/>
		<path class="st0" d="M355.5,57.9l-0.2-1.3c-2,0.9-4.3,1.7-6.9,2.2c-2.6,0.5-5.1,0.8-7.7,0.8c-3.9,0-7-0.6-9.3-1.9
			c-2.3-1.3-3.8-3.2-4.6-5.9h29.9c0.4-1.6,0.5-3.4,0.5-5.5c0-7-2-12.5-6-16.6c-4-4.1-9.4-6.1-16.2-6.1c-4.8,0-8.9,1.1-12.5,3.2
			c-3.6,2.1-6.4,5-8.3,8.6c-1.9,3.6-2.9,7.7-2.9,12.3c0,5,1.1,9.4,3.4,13c2.3,3.6,5.4,6.4,9.5,8.3c4.1,1.9,8.9,2.9,14.4,2.9
			c3.3,0,6.6-0.3,9.7-0.9c2.6-0.5,5-1.2,7.1-2V57.9z M334.9,34.8c2.2,0,3.9,0.7,5.3,2c1.4,1.3,2.2,3.2,2.4,5.5h-15.9
			C327.7,37.3,330.4,34.8,334.9,34.8z"/>
		<path class="st0" d="M245.8,29.2c-3.9-3.7-9.5-5.5-17-5.5c-3.1,0-6.3,0.4-9.5,1.2c-2.5,0.7-4.7,1.5-6.5,2.4v12.8
			c4.2-2.7,8.7-4.1,13.6-4.1c3.3,0,5.9,0.7,7.6,2.1c1.7,1.4,2.6,3.6,2.8,6.5c-1.5-0.6-3.2-1.2-5.1-1.5c-1.9-0.4-3.7-0.6-5.4-0.6
			c-5.3,0-9.5,1.4-12.8,4.2c-3.3,2.8-4.9,6.4-4.9,11c0,4.4,1.4,7.9,4.1,10.4c2.7,2.6,6.4,3.8,11.1,3.8c5.9,0,10.3-1.9,13.3-5.8
			l0.2,4.4h14.3V45.2C251.6,38.2,249.7,32.9,245.8,29.2z M234.3,59.2c-1.4,1.5-3.3,2.2-5.5,2.2c-1.7,0-3.1-0.4-4.1-1.3
			c-1-0.9-1.5-2.1-1.5-3.5c0-1.5,0.6-2.6,1.8-3.5c1.2-0.9,2.8-1.3,4.9-1.3c2.5,0,4.8,0.4,7,1.3C236.5,55.7,235.7,57.7,234.3,59.2z"
			/>
		<path class="st0" d="M490.8,29.2c-3.9-3.7-9.5-5.5-17-5.5c-3.1,0-6.3,0.4-9.5,1.2c-2.5,0.7-4.7,1.5-6.5,2.4v12.8
			c4.2-2.7,8.7-4.1,13.6-4.1c3.3,0,5.9,0.7,7.6,2.1c1.7,1.4,2.6,3.6,2.8,6.5c-1.5-0.6-3.2-1.2-5.1-1.5c-1.9-0.4-3.7-0.6-5.4-0.6
			c-5.3,0-9.6,1.4-12.8,4.2c-3.3,2.8-4.9,6.4-4.9,11c0,4.4,1.4,7.9,4.1,10.4c2.7,2.6,6.4,3.8,11.1,3.8c5.9,0,10.3-1.9,13.3-5.8
			l0.2,4.4h14.3V45.2C496.6,38.2,494.7,32.9,490.8,29.2z M479.3,59.2c-1.4,1.5-3.3,2.2-5.5,2.2c-1.7,0-3.1-0.4-4.1-1.3
			c-1-0.9-1.5-2.1-1.5-3.5c0-1.5,0.6-2.6,1.8-3.5c1.2-0.9,2.8-1.3,4.9-1.3c2.5,0,4.8,0.4,7,1.3C481.5,55.7,480.7,57.7,479.3,59.2z"
			/>
		<path class="st0" d="M448.3,56.2c-2.1,1.1-4.5,1.7-7.4,1.7c-2.2,0-3.7-0.6-4.6-1.7c-0.9-1.1-1.3-3-1.3-5.7V37.9h-0.2v-0.2h2.3
			c6.9,0,12.5-5.6,12.5-12.5H435V13.4h-15.8v11.7h-4.6v12.5h5l0,0.2h-0.4v16.2c0,6,1.4,10.5,4.3,13.5c2.8,2.9,7.1,4.4,12.9,4.4
			c2.7,0,5.2-0.2,7.6-0.7c2.4-0.5,4.3-1.1,5.9-1.9L448.3,56.2z"/>
		<path class="st0" d="M533.2,56.2c-2.1,1.1-4.5,1.7-7.4,1.7c-2.2,0-3.7-0.6-4.6-1.7c-0.9-1.1-1.3-3-1.3-5.7V37.9h-0.2v-0.2h2.3
			c6.9,0,12.5-5.6,12.5-12.5h-14.6V13.4h-15.8v11.7h-4.6v12.5h5l0,0.2h-0.4v16.2c0,6,1.4,10.5,4.3,13.5c2.8,2.9,7.1,4.4,12.9,4.4
			c2.7,0,5.2-0.2,7.6-0.7c2.4-0.5,4.3-1.1,5.9-1.9L533.2,56.2z"/>
		<path class="st0" d="M165.5,3.6h-11h-5.3h-2H138c-8,0-14.4,6.5-14.4,14.4h18.5h2.1v52.4H162V18.1h7.6c8,0,14.4-6.5,14.4-14.4
			H165.5z"/>
		<path class="st0" d="M206.9,24.7c-1.1-0.3-2.4-0.5-3.8-0.5c-2.6,0-4.8,0.7-6.8,2c-1.9,1.3-3.5,3.2-4.6,5.7l-0.2-6.8h-15.4v45.4
			H192V51.1c0-4,0.8-7,2.3-9c1.6-2,3.9-3,6.9-3c2,0,3.9,0.4,5.7,1.1V24.7z"/>
	</g>
	<g>
		<path class="st0" d="M667.2,17.1c-1.3,0-2.5-0.3-3.7-0.9c-1.1-0.6-2-1.5-2.7-2.7c-0.7-1.1-1-2.4-1-3.8c0-1.3,0.3-2.6,0.9-3.7
			c0.6-1.1,1.5-2,2.7-2.7c1.2-0.7,2.4-1,3.8-1c1.3,0,2.6,0.3,3.7,1c1.1,0.6,2,1.5,2.7,2.7c0.7,1.1,1,2.4,1,3.8c0,1.3-0.3,2.5-1,3.7
			c-0.6,1.1-1.5,2-2.7,2.7C669.9,16.7,668.6,17.1,667.2,17.1z M667.2,15.8c1.1,0,2.1-0.3,3-0.8c0.9-0.5,1.7-1.2,2.2-2.2
			c0.6-0.9,0.8-2,0.8-3.2c0-1.1-0.3-2.1-0.8-3c-0.5-0.9-1.2-1.7-2.2-2.2c-0.9-0.6-2-0.8-3.1-0.8c-1.1,0-2.1,0.3-3,0.8
			c-0.9,0.5-1.7,1.2-2.2,2.2c-0.6,0.9-0.8,2-0.8,3.2c0,1.1,0.3,2.1,0.8,3.1c0.5,0.9,1.2,1.7,2.2,2.2C665,15.5,666,15.8,667.2,15.8z
			 M664.7,5.9h2.4c0.9,0,1.6,0.2,2,0.6c0.5,0.4,0.7,1,0.7,1.7c0,1-0.4,1.7-1.3,2l1.8,2.8h-1.5l-1.6-2.6h-1.4V13h-1.3V5.9z
			 M665.9,9.3h1c0.6,0,1-0.1,1.2-0.3c0.2-0.2,0.4-0.5,0.4-0.9c0-0.8-0.5-1.1-1.6-1.1h-1V9.3z"/>
	</g>
</g>
</svg>
