<?xml version="1.0" standalone="no"?>
<!DOCTYPE svg PUBLIC "-//W3C//DTD SVG 1.1//EN" "http://www.w3.org/Graphics/SVG/1.1/DTD/svg11.dtd" >
<svg>
<metadata>
Created by FontForge 20120731 at Fri Jul  7 16:33:54 2017
 By www-data
Copyright \(c\) 2015 by Indian Type Foundry. All rights reserved.
</metadata>
<defs>
<font id="Diodrum-Bold" horiz-adv-x="500" >
  <font-face 
    font-family="Diodrum"
    font-weight="700"
    font-stretch="normal"
    units-per-em="1000"
    panose-1="2 0 0 0 0 0 0 0 0 0"
    ascent="798"
    descent="-202"
    x-height="515"
    cap-height="700"
    bbox="-210 -247 1579 1015"
    underline-thickness="50"
    underline-position="-50"
    unicode-range="U+0020-FB02"
  />
<missing-glyph horiz-adv-x="756" 
d="M160 0v701h436v-701h-436zM241 625v-549h275v549h-275z" />
    <glyph glyph-name="fi" unicode="fi" horiz-adv-x="616" 
d="M15 515h65v3c0 66 17 118 50 157s81 58 144 58c34 0 63 -3 88 -10l-22 -133c-10 2 -22 3 -35 3c-21 0 -35 -6 -43 -18s-12 -30 -12 -53v-7h311v-515h-170v380h-141v-380h-170v380h-65v135zM382 656h-2c0 28 9 50 26 66s41 24 71 24s53 -8 70 -24s25 -38 25 -66
s-8 -50 -25 -67s-40 -25 -70 -25s-53 8 -70 25s-25 39 -25 67z" />
    <glyph glyph-name="fl" unicode="fl" horiz-adv-x="665" 
d="M15 515h65v3c0 67 20 120 60 158s99 57 177 57c86 0 167 -10 243 -30v-498c0 -51 16 -77 48 -77c9 0 19 1 30 3l12 -134c-27 -6 -55 -9 -83 -9c-118 0 -177 72 -177 215v388c-19 1 -32 2 -39 2c-67 0 -101 -24 -101 -71v-7h88v-135h-88v-380h-170v380h-65v135z" />
    <glyph glyph-name=".notdef" horiz-adv-x="756" 
d="M160 0v701h436v-701h-436zM241 625v-549h275v549h-275z" />
    <glyph glyph-name="space" unicode=" " horiz-adv-x="230" 
 />
    <glyph glyph-name="exclam" unicode="!" horiz-adv-x="335" 
d="M265 700v-146c0 -85 -11 -194 -33 -327h-130c-21 122 -32 231 -32 327v146h195zM263 80v-2c0 -29 -8 -51 -25 -67s-40 -24 -70 -24c-31 0 -55 8 -72 24s-25 39 -25 68s8 51 25 67s41 24 72 24c30 0 53 -8 70 -24s25 -38 25 -66z" />
    <glyph glyph-name="quotedbl" unicode="&#x22;" horiz-adv-x="446" 
d="M270 433l-2 -1c-15 139 -22 228 -22 267h158c0 -27 -1 -55 -3 -85s-5 -63 -9 -99s-7 -63 -8 -82h-114zM60 432l-2 -1c-15 139 -22 228 -22 267h158c0 -27 -1 -55 -3 -85s-5 -63 -9 -99s-7 -63 -8 -82h-114z" />
    <glyph glyph-name="numbersign" unicode="#" horiz-adv-x="704" 
d="M337 0l34 150h-121l-34 -150h-140l34 150h-80v128h108l26 115h-84v128h112l34 150h140l-34 -150h121l34 150h141l-34 -150h80v-128h-108l-26 -115h86v-128h-114l-34 -150h-141zM399 278l26 115h-121l-26 -115h121z" />
    <glyph glyph-name="dollar" unicode="$" horiz-adv-x="579" 
d="M487 654l-31 -145c-45 14 -95 21 -149 21c-31 0 -53 -3 -66 -10s-19 -18 -19 -34c0 -15 8 -27 24 -35s55 -21 116 -39c58 -17 102 -42 131 -74s44 -77 44 -136c0 -113 -55 -181 -165 -204v-114h-155v106c-66 5 -124 16 -174 34l26 148c70 -21 135 -32 195 -32
c36 0 61 4 76 13s22 24 22 46c0 18 -10 33 -29 44s-54 24 -105 38c-59 16 -104 40 -134 72s-45 76 -45 133c0 49 15 90 45 123s72 55 125 66v115h155v-111c42 -5 80 -13 113 -25z" />
    <glyph glyph-name="percent" unicode="%" horiz-adv-x="886" 
d="M375 508v-3c0 -56 -16 -99 -47 -130s-73 -46 -125 -46s-94 16 -126 47s-48 75 -48 131c0 55 16 98 48 129s74 47 125 47s93 -15 125 -46s48 -74 48 -129zM161 505c0 -47 14 -70 42 -70c27 0 41 23 41 70c0 46 -14 69 -41 69c-28 0 -42 -23 -42 -69zM565 668h127
l-371 -671h-127zM856 162v-3c0 -56 -16 -99 -47 -130s-73 -46 -125 -46s-94 16 -126 47s-48 75 -48 131c0 55 16 98 48 129s74 47 125 47s93 -15 125 -46s48 -74 48 -129zM642 159c0 -47 14 -70 42 -70c27 0 41 23 41 70c0 46 -14 69 -41 69c-28 0 -42 -23 -42 -69z" />
    <glyph glyph-name="ampersand" unicode="&#x26;" horiz-adv-x="758" 
d="M278 520c0 -25 12 -52 36 -81c45 23 68 51 68 84c0 34 -18 51 -55 51c-33 0 -49 -18 -49 -54zM541 0l-46 41c-59 -37 -125 -55 -198 -55c-81 0 -145 19 -192 56s-70 89 -70 156c0 75 43 135 129 180c-32 45 -48 93 -48 144c0 55 19 100 57 135s90 53 155 53
c64 0 115 -15 153 -46s57 -71 57 -121c0 -46 -12 -84 -36 -114s-58 -56 -103 -79l97 -97c17 35 29 78 36 129h158c-7 -89 -36 -168 -87 -237l145 -145h-207zM304 132v-1c31 0 59 5 83 15l-120 117l-18 18c-27 -19 -40 -44 -40 -75c0 -23 9 -41 27 -54s41 -20 68 -20z" />
    <glyph glyph-name="quotesingle" unicode="'" horiz-adv-x="238" 
d="M62 433l-2 -1c-15 139 -22 228 -22 267h158c0 -27 -1 -55 -3 -85s-5 -63 -9 -99s-7 -63 -8 -82h-114z" />
    <glyph glyph-name="parenleft" unicode="(" horiz-adv-x="354" 
d="M339 761l-1 -1c-39 -71 -70 -141 -92 -211s-33 -150 -33 -241s11 -171 33 -241s53 -141 92 -212h-166c-36 51 -67 116 -93 195s-39 165 -39 259s13 180 39 258s57 143 94 194h166z" />
    <glyph glyph-name="parenright" unicode=")" horiz-adv-x="354" 
d="M141 309l-1 -1c0 91 -11 171 -33 241s-53 141 -92 212h166c37 -51 68 -115 94 -193s39 -164 39 -258s-13 -180 -39 -259s-57 -144 -93 -195h-166c39 71 70 142 92 212s33 150 33 241z" />
    <glyph glyph-name="asterisk" unicode="*" horiz-adv-x="385" 
d="M137 740l111 -2c0 -28 -2 -60 -5 -95c30 13 60 25 90 36l33 -105c-33 -10 -65 -18 -96 -25c28 -31 49 -57 63 -77l-89 -64c-16 23 -34 50 -53 81c-19 -33 -36 -60 -51 -80l-89 65c19 25 39 50 61 75c-37 9 -68 17 -92 25l34 104c29 -9 58 -20 88 -33c-3 35 -5 67 -5 95z
" />
    <glyph glyph-name="plus" unicode="+" horiz-adv-x="559" 
d="M40 268v146h163v168h155v-168h161v-146h-161v-172h-155v172h-163z" />
    <glyph glyph-name="comma" unicode="," horiz-adv-x="281" 
d="M69 156h164c0 -54 -11 -108 -33 -163s-47 -102 -76 -141h-89c21 102 32 203 34 304z" />
    <glyph glyph-name="hyphen" unicode="-" horiz-adv-x="367" 
d="M40 251v143h287v-143h-287z" />
    <glyph glyph-name="period" unicode="." horiz-adv-x="281" 
d="M141 -12v-2c-31 0 -55 8 -72 24s-25 39 -25 68s8 51 25 67s41 24 72 24c30 0 53 -8 70 -24s25 -38 25 -66c0 -29 -8 -51 -25 -67s-40 -24 -70 -24z" />
    <glyph glyph-name="slash" unicode="/" horiz-adv-x="527" 
d="M327 755h170l-297 -811h-170z" />
    <glyph glyph-name="zero" unicode="0" horiz-adv-x="626" 
d="M314 -12h-1c-47 0 -89 9 -125 27s-65 43 -86 75s-37 69 -47 110s-15 85 -15 133s5 93 15 134s26 78 47 111s50 59 86 78s78 28 125 28c63 0 115 -16 157 -49s72 -75 89 -126s26 -109 26 -175c0 -49 -5 -94 -15 -135s-26 -77 -47 -109s-49 -57 -85 -75s-77 -27 -124 -27z
M313 136v-2c20 0 37 6 50 17s23 27 29 48s10 42 12 62s3 44 3 71s-1 51 -3 71s-6 41 -12 63s-16 39 -29 51s-30 18 -50 18c-64 0 -96 -67 -96 -201c0 -132 32 -198 96 -198z" />
    <glyph glyph-name="one" unicode="1" horiz-adv-x="422" 
d="M75 435l-70 131c57 40 125 75 203 104h154v-671h-174v493c-35 -15 -73 -34 -113 -57z" />
    <glyph glyph-name="two" unicode="2" horiz-adv-x="537" 
d="M37 0l-1 142l94 88c59 55 101 99 125 132s36 66 36 99c0 49 -24 74 -73 74c-39 0 -80 -16 -123 -47l-75 122c60 49 133 73 219 73c73 0 129 -18 168 -54s59 -86 59 -151c0 -57 -18 -113 -55 -167s-86 -109 -148 -164h239v-147h-465z" />
    <glyph glyph-name="three" unicode="3" horiz-adv-x="517" 
d="M31 31l42 138c42 -20 87 -30 135 -30c65 0 97 24 97 72c0 25 -9 42 -28 50s-48 12 -88 12h-47v144h30c35 0 62 5 80 14s27 25 27 48c0 39 -28 58 -83 58c-35 0 -71 -13 -108 -38l-69 123c58 42 127 63 208 63c72 0 128 -16 168 -48s60 -75 60 -129
c0 -69 -30 -120 -90 -153c78 -31 117 -87 117 -167c0 -65 -24 -115 -71 -149s-109 -51 -185 -51s-141 14 -195 43z" />
    <glyph glyph-name="four" unicode="4" horiz-adv-x="624" 
d="M507 260l96 -1v-142h-97v-118h-163v118h-324v128c36 75 82 152 139 231s115 149 174 209h175v-425zM353 512v-1c-66 -91 -120 -175 -161 -252h151v37c0 66 3 138 10 216z" />
    <glyph glyph-name="five" unicode="5" horiz-adv-x="548" 
d="M457 524l-232 -2l-8 -84c9 1 23 1 42 1c85 0 149 -19 191 -57s63 -91 63 -158c0 -75 -25 -133 -75 -174s-118 -62 -205 -62c-77 0 -148 17 -213 51l48 136c59 -26 113 -39 162 -39c37 0 64 7 81 20s26 35 26 65c0 51 -44 77 -132 77c-49 0 -99 -6 -150 -17l36 390h366
v-147z" />
    <glyph glyph-name="six" unicode="6" horiz-adv-x="590" 
d="M495 664l-32 -142c-31 8 -60 12 -87 12c-45 0 -80 -11 -105 -33s-42 -56 -51 -102c40 25 85 37 135 37c63 0 113 -20 150 -59s55 -90 55 -152c0 -75 -22 -133 -66 -175s-105 -63 -184 -63c-83 0 -149 30 -198 89s-73 134 -73 225c0 72 11 136 33 192s58 102 107 137
s109 53 180 53c57 0 102 -6 136 -19zM314 133h3c23 0 41 7 53 21s18 33 18 57c0 51 -29 76 -86 76c-25 0 -54 -7 -87 -21c3 -43 13 -76 30 -99s40 -34 69 -34z" />
    <glyph glyph-name="seven" unicode="7" horiz-adv-x="502" 
d="M252 0l-185 1c55 194 128 369 218 524h-260v147h447v-129c-105 -207 -178 -388 -220 -543z" />
    <glyph glyph-name="eight" unicode="8" horiz-adv-x="601" 
d="M556 202l1 -1c0 -67 -22 -119 -67 -157s-109 -57 -192 -57c-75 0 -136 17 -182 51s-69 82 -69 143c0 66 28 117 83 152c-46 35 -69 84 -69 147c0 61 22 110 66 147s102 56 173 56c81 0 142 -17 182 -52s60 -80 60 -135c0 -61 -25 -109 -74 -144c59 -39 88 -89 88 -150z
M329 410c1 -1 3 -2 5 -3s4 -1 5 -1c21 22 31 47 31 76c0 43 -24 65 -72 65c-20 0 -36 -5 -48 -16s-18 -25 -18 -43c0 -21 7 -36 21 -46s39 -21 76 -32zM305 121l-1 -2c52 0 78 22 78 65c0 21 -8 37 -25 48s-47 24 -91 38c-1 1 -2 1 -3 1s-2 0 -3 1c-27 -21 -40 -47 -40 -78
c0 -23 8 -41 23 -54s36 -19 62 -19z" />
    <glyph glyph-name="nine" unicode="9" horiz-adv-x="589" 
d="M287 370c31 0 61 5 90 16c-5 99 -37 149 -96 149c-24 0 -43 -7 -57 -22s-21 -37 -21 -67c0 -24 7 -43 21 -56s35 -20 63 -20zM72 10l21 142c38 -11 75 -16 110 -16c49 0 86 9 111 27s42 46 51 85c-35 -17 -74 -25 -116 -25c-71 0 -126 20 -164 60s-57 94 -57 162
c0 69 23 126 69 171s106 67 181 67c87 0 154 -28 201 -84s70 -134 70 -233c0 -57 -5 -107 -16 -151s-28 -83 -52 -118s-58 -62 -102 -81s-97 -28 -160 -28c-57 0 -106 7 -147 22z" />
    <glyph glyph-name="colon" unicode=":" horiz-adv-x="311" 
d="M251 80v-2c0 -29 -8 -51 -25 -67s-40 -24 -70 -24c-31 0 -55 8 -72 24s-25 39 -25 68s8 51 25 67s41 24 72 24c30 0 53 -8 70 -24s25 -38 25 -66zM251 424v-2c0 -29 -8 -51 -25 -67s-40 -24 -70 -24c-31 0 -55 8 -72 24s-25 39 -25 68s8 51 25 67s41 24 72 24
c30 0 53 -8 70 -24s25 -38 25 -66z" />
    <glyph glyph-name="semicolon" unicode=";" horiz-adv-x="311" 
d="M251 426v-2c0 -29 -8 -51 -25 -67s-40 -24 -70 -24c-31 0 -55 8 -72 24s-25 39 -25 68s8 51 25 67s41 24 72 24c30 0 53 -8 70 -24s25 -38 25 -66zM79 154h164c0 -54 -11 -108 -33 -163s-47 -102 -76 -141h-89c21 102 32 203 34 304z" />
    <glyph glyph-name="less" unicode="&#x3c;" horiz-adv-x="559" 
d="M519 92l-479 167v163l479 167v-168l-289 -80l289 -81v-168z" />
    <glyph glyph-name="equal" unicode="=" horiz-adv-x="559" 
d="M40 173v146h479v-146h-479zM40 363v146h479v-146h-479z" />
    <glyph glyph-name="greater" unicode="&#x3e;" horiz-adv-x="559" 
d="M40 92v168l289 81l-289 80v168l479 -167v-163z" />
    <glyph glyph-name="question" unicode="?" horiz-adv-x="462" 
d="M191 171v-2c30 0 53 -8 70 -24s25 -38 25 -66c0 -29 -8 -51 -25 -67s-40 -24 -70 -24c-31 0 -55 8 -72 24s-25 39 -25 68s8 51 25 67s41 24 72 24zM49 530l-35 144c53 23 109 35 168 35c83 0 146 -18 189 -54s65 -85 65 -148c0 -56 -21 -104 -64 -143
c-8 -7 -20 -17 -36 -30s-28 -23 -36 -31s-16 -18 -23 -31s-11 -27 -11 -41v-6h-157v35c0 47 20 87 61 120c4 3 13 11 28 23s25 20 30 25s11 13 17 24s9 22 9 34c0 45 -30 68 -90 68c-31 0 -69 -8 -115 -24z" />
    <glyph glyph-name="at" unicode="@" horiz-adv-x="968" 
d="M418 188l-2 1c0 -23 6 -41 18 -55s29 -21 50 -21c15 0 31 3 48 9c-5 24 -6 53 -2 88l9 75c-11 2 -23 3 -36 3c-26 0 -47 -8 -62 -25s-23 -42 -23 -75zM490 512l-6 -4c-94 0 -169 -29 -225 -88s-84 -138 -84 -237c0 -53 8 -99 24 -138s39 -70 69 -93s63 -40 100 -51
s78 -16 123 -16c67 0 137 10 210 30l19 -123c-71 -26 -149 -39 -233 -39c-145 0 -258 39 -338 116s-120 182 -120 315c0 61 10 119 30 173s49 103 86 146s86 77 146 102s127 38 201 38c135 0 242 -35 320 -105s117 -159 117 -267c0 -87 -19 -156 -57 -207s-93 -76 -165 -76
c-59 0 -104 19 -135 56c-33 -37 -75 -56 -127 -56c-55 0 -98 18 -129 54s-47 85 -47 146c0 68 20 123 61 164s96 62 165 62c61 0 124 -11 189 -34l-22 -198c-5 -46 14 -69 57 -69c22 0 38 15 49 45s16 68 16 113c0 78 -26 138 -78 179s-124 62 -216 62z" />
    <glyph glyph-name="A" unicode="A" horiz-adv-x="677" 
d="M338 511c-19 -42 -44 -119 -75 -232h150c-31 113 -56 190 -75 232zM484 0l-31 128h-228l-32 -129h-182c32 123 69 250 112 380s84 237 124 321h184c40 -85 82 -192 125 -322s80 -256 111 -378h-183z" />
    <glyph glyph-name="B" unicode="B" horiz-adv-x="606" 
d="M322 0h-263v700h244c78 0 140 -16 185 -48s68 -77 68 -134c0 -59 -23 -105 -69 -139c63 -34 94 -89 94 -165c0 -68 -23 -121 -69 -158s-109 -56 -190 -56zM231 289v-139h75c66 0 99 22 99 66c0 49 -33 73 -99 73h-75zM231 550v-128h82c45 0 67 23 67 68
c0 20 -7 35 -21 45s-32 15 -54 15h-74z" />
    <glyph glyph-name="C" unicode="C" horiz-adv-x="580" 
d="M370 -12h-5c-106 0 -188 32 -247 97s-88 152 -88 262c0 112 30 201 90 267s145 99 256 99c55 0 111 -12 168 -36l-39 -150c-55 20 -97 30 -126 30c-57 0 -98 -17 -124 -52s-39 -87 -39 -156s13 -120 39 -154s67 -51 122 -51c47 0 95 13 144 40l34 -152
c-53 -29 -115 -44 -185 -44z" />
    <glyph glyph-name="D" unicode="D" horiz-adv-x="693" 
d="M480 353h-1c0 67 -14 117 -42 149s-71 48 -130 48h-70v-400h70c59 0 103 17 131 50s42 84 42 153zM59 0v699h252c105 0 190 -31 255 -93s97 -147 97 -254c0 -109 -32 -195 -97 -258s-150 -94 -255 -94h-252z" />
    <glyph glyph-name="E" unicode="E" horiz-adv-x="550" 
d="M510 150v-150h-450v700h450v-150h-273v-122h232v-150h-232v-128h273z" />
    <glyph glyph-name="F" unicode="F" horiz-adv-x="535" 
d="M237 0h-177v700h440v-150h-263v-153h222v-150h-222v-247z" />
    <glyph glyph-name="G" unicode="G" horiz-adv-x="657" 
d="M612 48l-1 -1c-74 -40 -152 -60 -233 -60c-107 0 -191 32 -252 96s-92 149 -92 256c0 113 32 203 97 271s153 102 264 102c72 0 135 -11 188 -34l-38 -148c-45 17 -94 26 -147 26c-120 0 -180 -72 -180 -216c0 -64 15 -113 44 -146s71 -50 126 -50c24 0 45 2 64 6v117
h-98v145h258v-364z" />
    <glyph glyph-name="H" unicode="H" horiz-adv-x="704" 
d="M644 0h-177v279h-230v-279h-177v700h177v-271h230v271h177v-700z" />
    <glyph glyph-name="I" unicode="I" horiz-adv-x="297" 
d="M60 0v700h177v-700h-177z" />
    <glyph glyph-name="J" unicode="J" horiz-adv-x="297" 
d="M-15 -94c50 75 75 163 75 263v531h177v-541c0 -133 -33 -244 -98 -332z" />
    <glyph glyph-name="K" unicode="K" horiz-adv-x="657" 
d="M619 700c-30 -135 -95 -250 -196 -346l235 -354h-201l-163 255c-18 -11 -37 -22 -57 -33v-222h-177v700h177v-300c110 75 178 175 205 300h177z" />
    <glyph glyph-name="L" unicode="L" horiz-adv-x="527" 
d="M60 0v700h177v-550h260v-150h-437z" />
    <glyph glyph-name="M" unicode="M" horiz-adv-x="882" 
d="M640 700l181 1v-700h-162v270c0 47 3 93 9 139c-49 -101 -102 -195 -159 -281h-136c-61 93 -115 187 -161 282c6 -43 9 -90 9 -141v-270h-162v700h182c63 -153 130 -284 201 -394c67 104 133 235 198 394z" />
    <glyph glyph-name="N" unicode="N" horiz-adv-x="713" 
d="M222 0l-161 -1v700h171c72 -149 160 -300 264 -453c-3 25 -4 53 -4 84v369h162v-700h-172c-39 53 -68 94 -88 122s-47 68 -81 121s-66 106 -95 160c3 -27 4 -68 4 -123v-279z" />
    <glyph glyph-name="O" unicode="O" horiz-adv-x="723" 
d="M688 350v-2c0 -109 -29 -197 -88 -263s-138 -99 -238 -99c-101 0 -181 33 -240 99s-88 154 -88 264s29 198 88 264s139 99 240 99c100 0 179 -33 238 -99s88 -154 88 -263zM218 348c0 -67 12 -118 37 -153s61 -53 108 -53c46 0 81 18 106 53s37 86 37 153
s-12 118 -37 153s-60 53 -106 53c-47 0 -83 -18 -108 -53s-37 -86 -37 -153z" />
    <glyph glyph-name="P" unicode="P" horiz-adv-x="608" 
d="M60 0v700h234c88 0 157 -22 208 -66s76 -105 76 -182s-25 -137 -76 -181s-120 -66 -208 -66h-57v-205h-177zM395 452v-1c0 35 -9 60 -26 75s-43 23 -78 23h-53v-195h53c35 0 61 8 78 23s26 40 26 75z" />
    <glyph glyph-name="Q" unicode="Q" horiz-adv-x="723" 
d="M665 -154l-1 -1c-25 -4 -51 -6 -78 -6c-57 0 -105 13 -144 38s-67 62 -84 110c-99 1 -178 34 -236 100s-87 154 -87 263c0 110 29 198 88 264s139 99 240 99c100 0 179 -33 238 -99s88 -154 88 -263c0 -77 -15 -144 -45 -201s-72 -99 -126 -127c17 -23 42 -34 76 -34
c24 0 44 2 59 5zM217 349c0 -67 12 -118 37 -153s61 -53 108 -53c46 0 81 18 106 53s37 86 37 153s-12 118 -37 153s-60 53 -106 53c-47 0 -83 -18 -108 -53s-37 -86 -37 -153z" />
    <glyph glyph-name="R" unicode="R" horiz-adv-x="628" 
d="M276 550l-37 -1v-158h38c71 0 107 26 107 79c0 29 -9 50 -27 62s-45 18 -81 18zM611 -1h-189l-82 194c-13 33 -38 49 -75 49h-27v-243h-178v700h224c87 0 156 -19 206 -57s75 -90 75 -157c0 -55 -11 -96 -33 -124s-52 -49 -89 -63c33 -13 60 -44 81 -93z" />
    <glyph glyph-name="S" unicode="S" horiz-adv-x="533" 
d="M30 30l28 148c63 -25 123 -38 181 -38c61 0 91 19 91 58c0 22 -8 38 -24 49s-46 24 -91 40c-61 21 -108 48 -140 80s-48 76 -48 132c0 67 21 119 64 156s105 56 186 56c77 0 143 -13 198 -39l-34 -146c-51 21 -102 32 -153 32c-53 0 -80 -17 -80 -52c0 -19 7 -34 20 -44
s39 -22 77 -36c34 -12 62 -24 84 -35s43 -25 64 -42s36 -38 46 -62s15 -53 15 -86c0 -66 -23 -118 -70 -156s-111 -57 -192 -57c-87 0 -161 14 -222 42z" />
    <glyph glyph-name="T" unicode="T" horiz-adv-x="563" 
d="M193 0v550h-173v150h523v-150h-173v-550h-177z" />
    <glyph glyph-name="U" unicode="U" horiz-adv-x="686" 
d="M55 282v418h177v-405c0 -101 37 -151 111 -151s111 50 111 151v405h177v-418c0 -93 -25 -165 -75 -217s-121 -78 -213 -78s-163 26 -213 78s-75 124 -75 217z" />
    <glyph glyph-name="V" unicode="V" horiz-adv-x="674" 
d="M437 0h-200c-45 93 -89 204 -131 334s-74 252 -96 367h183c21 -100 45 -201 72 -303s51 -178 72 -229c21 51 45 127 72 229s51 203 72 303h183c-22 -115 -54 -237 -96 -367s-86 -241 -131 -334z" />
    <glyph glyph-name="W" unicode="W" horiz-adv-x="1004" 
d="M703 168v-1c17 53 36 132 57 236s37 203 48 296h180c-17 -120 -42 -246 -75 -377s-68 -239 -106 -323h-194c-40 106 -77 229 -112 369c-35 -140 -72 -263 -112 -369h-194c-37 87 -72 197 -106 330s-59 256 -75 369h180c11 -93 27 -191 48 -295s40 -183 57 -236
c22 61 46 142 71 244s43 198 54 289h155c11 -91 29 -188 54 -290s48 -183 70 -242z" />
    <glyph glyph-name="X" unicode="X" horiz-adv-x="669" 
d="M468 0l-163 250c-44 -70 -84 -153 -119 -250h-186c43 114 117 240 222 377l-211 323h201l144 -220c51 77 88 150 111 220h186c-44 -112 -116 -227 -216 -345l232 -355h-201z" />
    <glyph glyph-name="Y" unicode="Y" horiz-adv-x="634" 
d="M228 0l2 273c-115 175 -191 317 -228 427h181c33 -95 78 -189 135 -282c57 93 102 187 135 282h181c-38 -114 -114 -257 -229 -428v-272h-177z" />
    <glyph glyph-name="Z" unicode="Z" horiz-adv-x="567" 
d="M517 568l-1 -1c-61 -139 -150 -278 -267 -417h293v-150h-507v135c139 159 238 297 297 415h-286v150h471v-132z" />
    <glyph glyph-name="bracketleft" unicode="[" horiz-adv-x="350" 
d="M60 -144v905h265v-146h-98v-613h98v-146h-265z" />
    <glyph glyph-name="backslash" unicode="\" horiz-adv-x="527" 
d="M327 -56l-297 811h170l297 -811h-170z" />
    <glyph glyph-name="bracketright" unicode="]" horiz-adv-x="350" 
d="M25 761h265v-905h-265v146h98v613h-98v146z" />
    <glyph glyph-name="asciicircum" unicode="^" horiz-adv-x="569" 
d="M359 332l-74 180l-75 -180h-170l162 368h165l162 -368h-170z" />
    <glyph glyph-name="underscore" unicode="_" horiz-adv-x="526" 
d="M20 -146v126h486v-126h-486z" />
    <glyph glyph-name="grave" unicode="`" 
d="M195 566l-123 174h183l88 -174h-148z" />
    <glyph glyph-name="a" unicode="a" horiz-adv-x="517" 
d="M256 108v-1c19 0 34 2 45 7v85c-18 4 -35 6 -50 6c-17 0 -31 -4 -42 -12s-16 -20 -16 -36c0 -33 21 -49 63 -49zM467 29v1c-61 -28 -137 -42 -229 -42c-69 0 -122 15 -159 45s-55 69 -55 117c0 47 18 85 55 114s86 44 148 44c28 0 53 -2 74 -5v8c0 50 -29 75 -87 75
c-49 0 -93 -8 -132 -23l-29 132c53 21 113 31 181 31c77 0 135 -20 174 -59s59 -95 59 -167v-271z" />
    <glyph glyph-name="b" unicode="b" horiz-adv-x="578" 
d="M548 263l-1 -1c0 -85 -25 -152 -74 -201s-116 -74 -200 -74c-100 0 -173 13 -219 38v690l170 8v-200c14 2 33 3 56 3c81 0 146 -24 195 -71s73 -111 73 -192zM224 133c12 -4 26 -6 41 -6c73 0 109 43 109 129c0 43 -8 75 -25 97s-45 33 -84 33c-9 0 -23 -2 -41 -5v-248z
" />
    <glyph glyph-name="c" unicode="c" horiz-adv-x="469" 
d="M290 527l-1 -1c58 0 109 -10 154 -31l-31 -133c-38 16 -74 24 -108 24c-32 0 -57 -11 -75 -33s-27 -53 -27 -92c0 -89 36 -134 108 -134c35 0 70 8 106 24l26 -136c-39 -19 -88 -28 -147 -28c-83 0 -148 24 -195 73s-70 114 -70 196s23 148 69 197s110 74 191 74z" />
    <glyph glyph-name="d" unicode="d" horiz-adv-x="578" 
d="M523 28l2 1c-64 -27 -134 -40 -211 -40c-89 0 -158 24 -208 71s-75 110 -75 189c0 83 26 150 77 201s118 77 200 77c15 0 30 -1 45 -3v192l170 8v-696zM205 258c0 -86 36 -129 108 -129c17 0 31 2 42 7v247c-15 3 -27 5 -36 5c-76 0 -114 -43 -114 -130z" />
    <glyph glyph-name="e" unicode="e" horiz-adv-x="539" 
d="M458 157l24 -133c-50 -23 -109 -34 -178 -34c-82 0 -148 25 -199 74s-76 114 -76 195s24 146 72 195s110 74 185 74c65 0 119 -21 161 -64s63 -99 63 -168c0 -29 -1 -57 -4 -84h-295c13 -55 51 -82 114 -82c43 0 87 9 133 27zM284 394v-1c-44 0 -71 -27 -80 -80h141v8
c0 23 -6 41 -17 54s-26 19 -44 19z" />
    <glyph glyph-name="f" unicode="f" horiz-adv-x="389" 
d="M15 515h66v3c0 66 17 118 51 157s83 58 146 58c35 0 72 -4 111 -13l-26 -132c-18 3 -35 5 -52 5c-41 0 -61 -24 -61 -71v-7h108v-135h-108v-380h-170v380h-65v135z" />
    <glyph glyph-name="g" unicode="g" horiz-adv-x="578" 
d="M523 49v-1c0 -74 -24 -132 -73 -174s-116 -63 -201 -63c-69 0 -130 11 -183 32l35 134c39 -17 84 -26 136 -26c35 0 63 7 84 20s31 33 31 59v6c-24 -8 -50 -12 -79 -12c-76 0 -136 21 -179 63s-65 100 -65 175c0 81 26 145 78 193s120 72 203 72c73 0 144 -14 213 -41
v-437zM203 276h-1c0 -35 9 -62 26 -82s42 -30 74 -30c16 0 33 3 50 8v207c-15 4 -29 6 -42 6c-34 0 -60 -10 -79 -30s-28 -46 -28 -79z" />
    <glyph glyph-name="h" unicode="h" horiz-adv-x="582" 
d="M225 0l-170 -1v718l170 8v-211c21 8 49 12 83 12c67 0 121 -19 162 -56s62 -90 62 -159v-311h-170v297c0 59 -28 88 -83 88c-19 0 -37 -3 -54 -10v-375z" />
    <glyph glyph-name="i" unicode="i" horiz-adv-x="280" 
d="M225 515v-515h-170v515h170zM140 564h-2c-30 0 -53 8 -70 25s-25 39 -25 67s9 50 26 66s41 24 71 24s53 -8 70 -24s25 -38 25 -66s-8 -50 -25 -67s-40 -25 -70 -25z" />
    <glyph glyph-name="j" unicode="j" horiz-adv-x="280" 
d="M225 54v-1c0 -60 -15 -109 -44 -147s-76 -67 -141 -88l-49 139c23 12 39 26 49 41s15 37 15 66v451h170v-461zM235 655h-2c0 -28 -8 -50 -25 -67s-40 -25 -70 -25s-53 8 -70 25s-25 39 -25 67s9 50 26 66s41 24 71 24s53 -8 70 -24s25 -38 25 -66z" />
    <glyph glyph-name="k" unicode="k" horiz-adv-x="555" 
d="M516 515c0 -80 -40 -159 -120 -237l159 -278h-184l-97 179l-49 -33v-146h-170v716l170 8v-413c67 51 107 119 121 204h170z" />
    <glyph glyph-name="l" unicode="l" horiz-adv-x="320" 
d="M220 726v-521c0 -51 16 -77 48 -77c9 0 19 1 30 3l12 -134c-27 -6 -55 -9 -83 -9c-118 0 -177 72 -177 215v513z" />
    <glyph glyph-name="m" unicode="m" horiz-adv-x="870" 
d="M820 0l-170 -3v299c0 32 -6 55 -17 68s-30 20 -56 20c-25 0 -48 -5 -68 -15c7 -29 11 -61 11 -96v-275h-165v299c0 31 -6 54 -18 68s-31 21 -57 21c-17 0 -36 -3 -56 -10v-377h-170v486c71 27 149 41 235 41c58 0 105 -12 140 -37c54 25 106 37 156 37
c74 0 132 -18 173 -55s62 -90 62 -160v-311z" />
    <glyph glyph-name="n" unicode="n" horiz-adv-x="582" 
d="M225 0l-170 -1v486c70 27 148 41 233 41c77 0 137 -18 180 -55s64 -90 64 -160v-311h-170v299c0 59 -25 88 -76 88c-22 0 -42 -3 -61 -10v-377z" />
    <glyph glyph-name="o" unicode="o" horiz-adv-x="579" 
d="M549 258l-1 -3c0 -82 -23 -147 -70 -196s-110 -73 -189 -73s-142 25 -189 74s-70 115 -70 197c0 81 24 146 71 195s110 74 189 74s142 -24 189 -73s70 -114 70 -195zM202 255v-1c0 -41 8 -73 23 -96s36 -34 63 -34s48 12 63 35s23 55 23 96s-8 73 -23 96s-36 34 -63 34
s-48 -11 -63 -34s-23 -55 -23 -96z" />
    <glyph glyph-name="p" unicode="p" horiz-adv-x="578" 
d="M548 262l-2 1c0 -82 -23 -148 -70 -198s-108 -75 -184 -75c-29 0 -52 3 -69 8v-186h-170v674c69 27 142 41 219 41c84 0 151 -23 201 -70s75 -112 75 -195zM223 136v-1c14 -5 28 -7 43 -7c37 0 64 11 81 32s26 54 26 98c0 87 -37 130 -112 130c-7 0 -20 -2 -38 -5v-247z
" />
    <glyph glyph-name="q" unicode="q" horiz-adv-x="578" 
d="M523 -188l-170 -1v188c-26 -8 -52 -12 -78 -12c-75 0 -135 24 -179 71s-66 110 -66 189c0 85 25 153 74 204s116 76 200 76c77 0 150 -14 219 -41v-674zM203 256v-1c0 -41 9 -73 28 -95s47 -33 84 -33c12 0 25 2 39 7v247c-18 3 -31 5 -39 5c-37 0 -65 -11 -84 -34
s-28 -55 -28 -96z" />
    <glyph glyph-name="r" unicode="r" horiz-adv-x="381" 
d="M55 486h-1c59 27 129 41 210 41c47 0 82 -4 106 -12l-24 -138c-18 7 -40 10 -67 10c-21 0 -39 -3 -54 -9v-378h-170v486z" />
    <glyph glyph-name="s" unicode="s" horiz-adv-x="444" 
d="M407 496l-20 -138c-63 19 -111 29 -144 29c-35 0 -52 -7 -52 -22c0 -9 4 -16 13 -21s28 -11 57 -19c62 -16 106 -36 132 -61s39 -61 39 -108c0 -55 -20 -97 -60 -126s-94 -43 -161 -43c-71 0 -133 12 -187 35l22 138c54 -22 108 -33 162 -33c39 0 59 9 59 26
c0 11 -5 19 -15 24s-36 13 -78 24c-50 13 -87 32 -111 57s-36 59 -36 102c0 53 18 94 54 123s86 44 150 44c63 0 122 -10 176 -31z" />
    <glyph glyph-name="t" unicode="t" horiz-adv-x="379" 
d="M364 -4h1c-27 -5 -58 -8 -94 -8c-130 0 -195 72 -195 215v177h-65v135h65v107l170 8v-115h99v-135h-99v-175c0 -51 20 -77 61 -77c19 0 35 1 48 4z" />
    <glyph glyph-name="u" unicode="u" horiz-adv-x="581" 
d="M526 29v-1c-77 -27 -155 -41 -234 -41c-88 0 -150 20 -187 60s-55 97 -55 172v296h170v-297c0 -60 26 -90 77 -90c21 0 41 3 59 10v377h170v-486z" />
    <glyph glyph-name="v" unicode="v" horiz-adv-x="549" 
d="M192 515l-2 2c4 -147 32 -274 83 -381c53 108 81 235 84 380h171c-9 -105 -24 -194 -46 -267s-59 -155 -112 -247h-190c-56 93 -95 176 -118 249s-37 161 -42 264h172z" />
    <glyph glyph-name="w" unicode="w" horiz-adv-x="813" 
d="M480 515c4 -147 27 -275 69 -385c49 102 74 230 76 385h168c-8 -107 -22 -197 -43 -270s-57 -154 -109 -244h-169c-31 61 -55 111 -71 150c-18 -53 -40 -103 -66 -150h-163c-56 87 -94 166 -113 237s-32 164 -39 278h168c5 -154 30 -282 76 -385c39 77 62 168 68 273
c-5 31 -8 68 -10 111h158z" />
    <glyph glyph-name="x" unicode="x" horiz-adv-x="538" 
d="M14 0l1 1c21 97 69 187 145 270c-39 43 -70 83 -93 119s-41 78 -54 126h184c7 -35 35 -87 84 -156c33 62 51 114 54 155h173c-26 -103 -72 -190 -139 -260c76 -85 128 -170 156 -255h-184c-12 39 -44 94 -97 165c-37 -65 -59 -120 -66 -165h-164z" />
    <glyph glyph-name="y" unicode="y" horiz-adv-x="521" 
d="M376 58c-83 -147 -187 -229 -312 -246l-25 144c27 3 56 12 87 28s53 34 65 54c-57 74 -99 148 -127 221s-44 158 -49 255h172c0 -131 31 -247 92 -348c21 49 36 99 44 149s12 117 12 200h170c-7 -164 -50 -316 -129 -457z" />
    <glyph glyph-name="z" unicode="z" horiz-adv-x="468" 
d="M38 515h390v-114c-55 -103 -118 -192 -189 -266h204v-135h-413v114c102 102 174 191 215 266h-207v135z" />
    <glyph glyph-name="braceleft" unicode="{" horiz-adv-x="373" 
d="M20 381l1 4c33 0 56 6 69 17s19 30 19 57c0 11 -2 32 -5 63s-5 56 -5 74c0 51 15 93 45 125s72 48 125 48c33 0 60 -2 81 -6v-128h-26c-23 0 -39 -5 -48 -16s-14 -27 -14 -49c0 -11 2 -31 5 -60s5 -49 5 -60c0 -69 -31 -115 -92 -137c61 -22 92 -68 92 -137
c0 -11 -2 -31 -5 -60s-5 -49 -5 -60c0 -22 5 -38 14 -49s25 -16 48 -16h26v-128c-21 -4 -49 -6 -83 -6c-53 0 -94 16 -124 48s-45 74 -45 125c0 18 2 43 5 74s5 52 5 63c0 27 -6 46 -19 57s-36 17 -69 17v140z" />
    <glyph glyph-name="bar" unicode="|" horiz-adv-x="292" 
d="M60 -244v1025h172v-1025h-172z" />
    <glyph glyph-name="braceright" unicode="}" horiz-adv-x="373" 
d="M266 456l1 -4c0 -27 6 -46 19 -57s36 -17 69 -17v-140c-33 0 -56 -6 -69 -17s-19 -30 -19 -57c0 -11 2 -32 5 -63s5 -56 5 -74c0 -51 -15 -93 -45 -125s-71 -48 -124 -48c-34 0 -62 2 -83 6v128h26c23 0 39 5 48 16s14 27 14 49c0 11 -2 31 -5 60s-5 49 -5 60
c0 69 31 115 92 137c-61 22 -92 68 -92 137c0 11 2 31 5 60s5 49 5 60c0 22 -5 38 -14 49s-25 16 -48 16h-26v128c21 4 48 6 81 6c53 0 95 -16 125 -48s45 -74 45 -125c0 -18 -2 -43 -5 -74s-5 -52 -5 -63z" />
    <glyph glyph-name="asciitilde" unicode="~" horiz-adv-x="559" 
d="M358 400h-1c34 0 57 14 68 43l93 -60c-5 -46 -19 -81 -42 -106s-52 -37 -87 -37c-31 0 -64 7 -100 21s-65 21 -88 21c-31 0 -53 -12 -67 -36l-94 66c8 39 24 70 48 93s54 35 89 35c26 0 57 -7 93 -20s65 -20 88 -20z" />
    <glyph glyph-name="uni00A0" unicode="&#xa0;" horiz-adv-x="230" 
 />
    <glyph glyph-name="exclamdown" unicode="&#xa1;" horiz-adv-x="335" 
d="M70 -185v146c0 85 11 194 33 327h130c21 -122 32 -231 32 -327v-146h-195zM72 435c0 29 8 52 25 68s40 24 70 24c31 0 55 -8 72 -24s25 -38 25 -67s-8 -51 -25 -67s-41 -24 -72 -24c-30 0 -53 8 -70 24s-25 38 -25 66z" />
    <glyph glyph-name="cent" unicode="&#xa2;" horiz-adv-x="489" 
d="M35 257l-1 -3c0 65 15 120 44 165s70 76 123 93v114h155v-103c41 -4 75 -12 102 -23l-31 -133c-35 13 -69 19 -102 19c-79 0 -118 -42 -118 -125c0 -89 39 -134 117 -134c39 0 75 6 108 19l26 -136c-24 -11 -57 -18 -99 -21v-105h-155v117c-54 17 -96 48 -125 93
s-44 99 -44 163z" />
    <glyph glyph-name="sterling" unicode="&#xa3;" horiz-adv-x="566" 
d="M531 0l-425 -2v272h-87v140h87v30c0 75 20 134 59 177s96 65 170 65c73 0 136 -12 189 -35l-45 -137c-40 13 -80 20 -119 20c-29 0 -50 -7 -63 -21s-19 -36 -19 -67v-30h134v-140h-134v-124h253v-148z" />
    <glyph glyph-name="currency" unicode="&#xa4;" horiz-adv-x="676" 
d="M230 352c0 -34 10 -61 29 -81s45 -30 78 -30s59 10 78 30s28 47 28 81s-9 61 -28 81s-45 30 -78 30s-59 -10 -78 -30s-29 -47 -29 -81zM540 64l-82 78c-37 -18 -77 -27 -120 -27c-45 0 -86 9 -122 27l-80 -77l-96 100l78 75c-17 33 -25 71 -25 113c0 43 9 81 26 114
l-79 76l96 100l83 -80c36 17 76 26 119 26s83 -9 119 -26l83 80l96 -100l-80 -77c17 -33 25 -71 25 -114c0 -41 -8 -78 -24 -112l79 -76z" />
    <glyph glyph-name="yen" unicode="&#xa5;" horiz-adv-x="683" 
d="M60 132v118h196v35l-21 31h-175v120h100c-42 73 -82 151 -120 234h180c33 -88 74 -171 122 -248c48 79 88 162 121 249h180c-40 -88 -80 -166 -119 -233h99v-120h-174c-3 -4 -10 -15 -22 -32v-34h196v-120h-196v-132h-171v132h-196z" />
    <glyph glyph-name="brokenbar" unicode="&#xa6;" horiz-adv-x="292" 
d="M60 341v440h172v-440h-172zM60 -244v441h172v-441h-172z" />
    <glyph glyph-name="section" unicode="&#xa7;" horiz-adv-x="603" 
d="M340 192l22 -9c17 17 26 37 26 59c0 19 -8 34 -23 45s-49 27 -102 48l-22 9c-17 -17 -26 -37 -26 -59c0 -19 8 -34 23 -45s49 -27 102 -48zM280 -187h-1c-74 0 -138 12 -191 37l30 138c51 -16 101 -24 149 -24c47 0 70 10 70 31c0 13 -6 23 -19 31s-40 20 -82 36
c-69 25 -120 52 -153 82s-49 70 -49 121c0 68 29 119 86 153c-24 28 -36 64 -36 108c0 61 22 107 67 139s102 48 171 48c74 0 138 -12 191 -37l-30 -138c-51 16 -101 24 -149 24c-47 0 -70 -10 -70 -31c0 -13 6 -23 19 -31s40 -20 82 -36c69 -25 120 -52 153 -82
s50 -70 50 -121c0 -68 -29 -119 -86 -153c24 -28 36 -64 36 -108c0 -61 -22 -107 -67 -139s-102 -48 -171 -48z" />
    <glyph glyph-name="dieresis" unicode="&#xa8;" 
d="M230 645l-2 -2c0 -25 -8 -45 -24 -60s-38 -23 -65 -23c-28 0 -50 8 -66 23s-24 36 -24 62c0 25 8 45 24 60s38 23 66 23c27 0 49 -8 66 -23s25 -35 25 -60zM446 643c0 -26 -8 -46 -24 -61s-38 -22 -66 -22c-27 0 -49 8 -65 23s-24 35 -24 60s8 45 24 60s38 23 65 23
c28 0 50 -8 66 -23s24 -35 24 -60z" />
    <glyph glyph-name="copyright" unicode="&#xa9;" horiz-adv-x="818" 
d="M421 538h-1c33 0 65 -6 96 -17l-18 -99c-27 7 -48 10 -64 10c-53 0 -80 -26 -80 -79s27 -79 80 -79c20 0 41 3 64 9l17 -99c-31 -11 -63 -16 -95 -16c-55 0 -99 16 -133 47s-51 77 -51 138s17 107 52 138s79 47 133 47zM140 350h-2c0 -81 24 -145 71 -193
s113 -72 198 -72s151 24 198 72s71 112 71 193c0 79 -23 143 -70 191s-113 72 -198 72c-83 0 -148 -24 -196 -72s-72 -112 -72 -191zM785 350c0 -111 -34 -199 -103 -264s-160 -98 -274 -98s-206 33 -276 99s-105 154 -105 264c0 111 35 199 104 264s161 98 275 98
s206 -33 275 -99s104 -154 104 -264z" />
    <glyph glyph-name="ordfeminine" unicode="&#xaa;" horiz-adv-x="340" 
d="M67 582l-22 82c31 11 64 16 100 16c103 0 154 -42 154 -126v-174c-44 -21 -92 -32 -144 -32c-38 0 -68 9 -90 27s-33 43 -33 74c0 32 11 57 32 75s49 27 84 27c23 0 40 -1 51 -4v1c0 16 -4 28 -12 35s-23 11 -45 11c-24 0 -49 -4 -75 -12zM169 426c10 0 20 1 30 3v51
c-10 2 -20 3 -29 3c-25 0 -37 -10 -37 -29s12 -28 36 -28z" />
    <glyph glyph-name="guillemotleft" unicode="&#xab;" horiz-adv-x="702" 
d="M175 66c-68 75 -120 150 -155 225c35 75 87 150 155 225h205c-60 -65 -116 -140 -167 -225c51 -85 107 -160 167 -225h-205zM467 66c-68 75 -120 150 -155 225c35 75 87 150 155 225h205c-60 -65 -116 -140 -167 -225c51 -85 107 -160 167 -225h-205z" />
    <glyph glyph-name="logicalnot" unicode="&#xac;" horiz-adv-x="559" 
d="M40 308v146h479v-318h-155v172h-324z" />
    <glyph glyph-name="uni00AD" unicode="&#xad;" horiz-adv-x="367" 
 />
    <glyph glyph-name="registered" unicode="&#xae;" horiz-adv-x="546" 
d="M454 473l-2 -1c0 59 -16 105 -47 137s-76 48 -134 48s-102 -16 -133 -48s-46 -77 -46 -136c0 -60 16 -106 47 -137s76 -47 134 -47s103 16 134 47s47 77 47 137zM28 472l1 -1c0 73 22 131 66 174s103 65 177 65s133 -21 177 -64s66 -101 66 -174s-22 -131 -66 -174
s-103 -64 -177 -64c-75 0 -134 21 -178 64s-66 101 -66 174zM182 353l-1 245h89c31 0 55 -7 72 -22s25 -35 25 -61c0 -35 -15 -59 -46 -72c13 -23 34 -53 63 -90h-70c-21 26 -38 53 -51 82h-21v-82h-60zM270 547h-29v-64h29c14 0 24 2 31 6s10 13 10 26c0 21 -14 32 -41 32z
" />
    <glyph glyph-name="macron" unicode="&#xaf;" 
d="M80 583v129h336v-129h-336z" />
    <glyph glyph-name="degree" unicode="&#xb0;" horiz-adv-x="356" 
d="M30 570c0 43 14 77 41 103s63 39 107 39s80 -13 107 -39s41 -60 41 -103c0 -44 -14 -79 -41 -105s-63 -39 -107 -39s-80 13 -107 39s-41 61 -41 105zM178 619c-13 0 -24 -4 -32 -13s-12 -21 -12 -36c0 -33 15 -49 44 -49s43 16 43 49s-14 49 -43 49z" />
    <glyph glyph-name="plusminus" unicode="&#xb1;" horiz-adv-x="559" 
d="M40 10v146h479v-146h-479zM40 318v146h163v118h155v-118h161v-146h-161v-122h-155v122h-163z" />
    <glyph glyph-name="twosuperior" unicode="&#xb2;" horiz-adv-x="365" 
d="M52 358l-1 94l46 35c37 28 61 47 71 57s15 21 15 34c0 19 -12 28 -37 28c-18 0 -37 -7 -57 -22l-47 91c35 26 83 39 144 39c38 0 70 -9 96 -28s39 -45 39 -79c0 -27 -8 -52 -24 -75s-41 -48 -74 -75h109v-99h-280z" />
    <glyph glyph-name="threesuperior" unicode="&#xb3;" horiz-adv-x="365" 
d="M49 367l22 94c26 -8 51 -12 74 -12c31 0 47 8 47 23c0 16 -14 24 -42 24h-35v70h18c15 0 26 2 33 5s11 10 11 21c0 14 -13 21 -39 21c-19 0 -39 -5 -60 -14l-34 89c35 16 74 24 117 24c99 0 149 -30 149 -91c0 -37 -17 -64 -50 -82c43 -15 65 -42 65 -80s-15 -66 -45 -83
s-69 -26 -116 -26c-48 0 -86 6 -115 17z" />
    <glyph glyph-name="acute" unicode="&#xb4;" 
d="M203 740h183l-123 -174h-148z" />
    <glyph glyph-name="uni00B5" unicode="&#xb5;" horiz-adv-x="583" 
d="M219 -184h-165v699h170v-303c0 -27 5 -47 14 -60s26 -19 50 -19c23 0 46 6 70 17v365h170v-515h-165v47c-35 -39 -75 -59 -121 -59c-11 0 -19 0 -24 1l1 -113v-60z" />
    <glyph glyph-name="paragraph" unicode="&#xb6;" horiz-adv-x="608" 
d="M253 700h295v-700h-115v604h-65v-604h-115v291c-64 0 -117 18 -159 53s-63 85 -63 150s21 116 63 152s95 54 159 54z" />
    <glyph glyph-name="periodcentered" unicode="&#xb7;" 
d="M35 394v-2c0 29 8 51 25 67s41 24 72 24c30 0 53 -8 70 -24s25 -38 25 -66c0 -29 -8 -51 -25 -67s-40 -24 -70 -24c-31 0 -55 8 -72 24s-25 39 -25 68z" />
    <glyph glyph-name="cedilla" unicode="&#xb8;" 
d="M137 -235l19 88c15 -4 30 -6 46 -6c29 0 44 9 44 26c0 19 -16 28 -49 28l-17 46l18 52h97l-17 -39c65 -9 98 -39 98 -90c0 -39 -15 -68 -46 -87s-69 -28 -114 -28c-31 0 -57 3 -79 10z" />
    <glyph glyph-name="onesuperior" unicode="&#xb9;" horiz-adv-x="365" 
d="M85 542l-51 98c40 26 82 47 125 64h124v-346h-133v222c-29 -16 -51 -29 -65 -38z" />
    <glyph glyph-name="ordmasculine" unicode="&#xba;" horiz-adv-x="372" 
d="M347 519h-1c0 -49 -14 -89 -43 -120s-68 -47 -117 -47s-88 16 -118 47s-45 71 -45 120c0 48 15 87 45 118s69 46 118 46s88 -15 117 -46s44 -70 44 -118zM139 519c0 -51 16 -76 47 -76c30 0 45 25 45 76c0 50 -15 75 -45 75c-31 0 -47 -25 -47 -75z" />
    <glyph glyph-name="guillemotright" unicode="&#xbb;" horiz-adv-x="702" 
d="M527 66h-205c60 65 116 140 167 225c-51 85 -107 160 -167 225h205c68 -75 120 -150 155 -225c-35 -75 -87 -150 -155 -225zM235 66h-205c60 65 116 140 167 225c-51 85 -107 160 -167 225h205c68 -75 120 -150 155 -225c-35 -75 -87 -150 -155 -225z" />
    <glyph glyph-name="onequarter" unicode="&#xbc;" horiz-adv-x="842" 
d="M85 542l-51 98c40 26 82 47 125 64h124v-346h-133v222c-29 -16 -51 -29 -65 -38zM572 700h135l-397 -700h-135zM498 53v76c41 76 100 148 176 217h119v-203h39v-90h-39v-53h-116v53h-179zM677 143v-1c1 46 3 79 5 100c-29 -33 -54 -66 -76 -99h71z" />
    <glyph glyph-name="onehalf" unicode="&#xbd;" horiz-adv-x="842" 
d="M85 542l-51 98c40 26 82 47 125 64h124v-346h-133v222c-29 -16 -51 -29 -65 -38zM543 700h135l-397 -700h-135zM529 0l-1 94l46 35c37 28 61 47 71 57s15 21 15 34c0 19 -12 28 -37 28c-18 0 -37 -7 -57 -22l-47 91c35 26 83 39 144 39c38 0 70 -9 96 -28s39 -45 39 -79
c0 -27 -8 -52 -24 -75s-41 -48 -74 -75h109v-99h-280z" />
    <glyph glyph-name="threequarters" unicode="&#xbe;" horiz-adv-x="842" 
d="M49 367l22 94c26 -8 51 -12 74 -12c31 0 47 8 47 23c0 16 -14 24 -42 24h-35v70h18c15 0 26 2 33 5s11 10 11 21c0 14 -13 21 -39 21c-19 0 -39 -5 -60 -14l-34 89c35 16 74 24 117 24c99 0 149 -30 149 -91c0 -37 -17 -64 -50 -82c43 -15 65 -42 65 -80s-15 -66 -45 -83
s-69 -26 -116 -26c-48 0 -86 6 -115 17zM573 699h135l-397 -700h-135zM497 52v76c41 76 100 148 176 217h119v-203h39v-90h-39v-53h-116v53h-179zM676 142v-1c1 46 3 79 5 100c-29 -33 -54 -66 -76 -99h71z" />
    <glyph glyph-name="questiondown" unicode="&#xbf;" horiz-adv-x="462" 
d="M271 344c-30 0 -53 8 -70 24s-25 38 -25 66c0 29 8 52 25 68s40 24 70 24c31 0 55 -8 72 -24s25 -38 25 -67s-8 -51 -25 -67s-41 -24 -72 -24zM447 -162v-2c-53 -23 -109 -35 -168 -35c-83 0 -146 18 -189 54s-65 85 -65 148c0 56 21 104 64 143c8 7 20 17 36 30
s28 24 36 32s16 19 23 32s11 27 11 41v6h157v-35c0 -47 -20 -87 -61 -120c-4 -3 -13 -10 -28 -22s-25 -20 -30 -25s-10 -13 -16 -24s-9 -22 -9 -34c0 -45 30 -68 90 -68c31 0 69 8 115 24z" />
    <glyph glyph-name="Agrave" unicode="&#xc0;" horiz-adv-x="677" 
d="M338 511c-19 -42 -44 -119 -75 -232h150c-31 113 -56 190 -75 232zM484 0l-31 128h-228l-32 -129h-182c32 123 69 250 112 380s84 237 124 321h184c40 -85 82 -192 125 -322s80 -256 111 -378h-183zM271 745l-123 174h183l88 -174h-148z" />
    <glyph glyph-name="Aacute" unicode="&#xc1;" horiz-adv-x="677" 
d="M338 511c-19 -42 -44 -119 -75 -232h150c-31 113 -56 190 -75 232zM484 0l-31 128h-228l-32 -129h-182c32 123 69 250 112 380s84 237 124 321h184c40 -85 82 -192 125 -322s80 -256 111 -378h-183zM351 919h183l-123 -174h-148z" />
    <glyph glyph-name="Acircumflex" unicode="&#xc2;" horiz-adv-x="677" 
d="M338 511c-19 -42 -44 -119 -75 -232h150c-31 113 -56 190 -75 232zM484 0l-31 128h-228l-32 -129h-182c32 123 69 250 112 380s84 237 124 321h184c40 -85 82 -192 125 -322s80 -256 111 -378h-183zM387 745l-48 73l-48 -73h-163l127 174h168l127 -174h-163z" />
    <glyph glyph-name="Atilde" unicode="&#xc3;" horiz-adv-x="677" 
d="M338 511c-19 -42 -44 -119 -75 -232h150c-31 113 -56 190 -75 232zM484 0l-31 128h-228l-32 -129h-182c32 123 69 250 112 380s84 237 124 321h184c40 -85 82 -192 125 -322s80 -256 111 -378h-183zM389 878c18 0 27 13 27 38h110c0 -43 -9 -81 -27 -113s-44 -48 -79 -48
c-19 0 -42 5 -68 15s-45 15 -57 15c-21 0 -32 -11 -33 -34h-110c1 50 11 89 30 116s46 41 81 41c21 0 44 -5 70 -15s45 -15 56 -15z" />
    <glyph glyph-name="Adieresis" unicode="&#xc4;" horiz-adv-x="677" 
d="M338 511c-19 -42 -44 -119 -75 -232h150c-31 113 -56 190 -75 232zM484 0l-31 128h-228l-32 -129h-182c32 123 69 250 112 380s84 237 124 321h184c40 -85 82 -192 125 -322s80 -256 111 -378h-183zM318 824l-2 -2c0 -25 -8 -45 -24 -60s-38 -23 -65 -23
c-28 0 -50 8 -66 23s-24 36 -24 62c0 25 8 45 24 60s38 23 66 23c27 0 49 -8 66 -23s25 -35 25 -60zM534 822c0 -26 -8 -46 -24 -61s-38 -22 -66 -22c-27 0 -49 8 -65 23s-24 35 -24 60s8 45 24 60s38 23 65 23c28 0 50 -8 66 -23s24 -35 24 -60z" />
    <glyph glyph-name="Aring" unicode="&#xc5;" horiz-adv-x="677" 
d="M484 0l-31 128h-228l-32 -129h-182c32 123 69 250 112 380s84 237 124 321c-31 26 -47 61 -47 105c0 40 13 73 39 98s59 38 100 38s74 -13 100 -38s39 -58 39 -98c0 -44 -16 -79 -47 -105c40 -85 82 -192 125 -322s80 -256 111 -378h-183zM339 845v2
c-12 0 -21 -4 -28 -12s-10 -18 -10 -30s3 -22 10 -30s16 -12 28 -12c25 0 38 14 38 41s-13 41 -38 41zM339 512c-19 -42 -44 -119 -75 -232h150c-31 113 -56 190 -75 232z" />
    <glyph glyph-name="AE" unicode="&#xc6;" horiz-adv-x="932" 
d="M892 150v-151h-440v129h-211c-19 -43 -37 -86 -54 -129h-182c44 117 100 239 168 365s137 238 206 336h513v-150h-263v-122h222v-150h-222v-128h263zM452 278v256c-57 -101 -103 -186 -139 -256h139z" />
    <glyph glyph-name="Ccedilla" unicode="&#xc7;" horiz-adv-x="580" 
d="M227 -235l14 87c15 -4 30 -6 46 -6c29 0 44 9 44 26c0 19 -16 28 -49 28l-17 46l17 48c-81 17 -143 56 -187 118s-66 140 -66 234c0 112 30 201 90 267s145 99 256 99c55 0 111 -12 168 -36l-39 -150c-55 20 -97 30 -126 30c-57 0 -98 -17 -124 -52s-39 -87 -39 -156
s13 -120 39 -154s67 -51 122 -51c47 0 95 13 144 40l34 -152c-49 -27 -107 -42 -174 -44l-12 -27c65 -9 98 -39 98 -90c0 -39 -15 -68 -46 -87s-69 -28 -114 -28c-31 0 -57 3 -79 10z" />
    <glyph glyph-name="Egrave" unicode="&#xc8;" horiz-adv-x="550" 
d="M510 150v-150h-450v700h450v-150h-273v-122h232v-150h-232v-128h273zM222 746l-123 174h183l88 -174h-148z" />
    <glyph glyph-name="Eacute" unicode="&#xc9;" horiz-adv-x="550" 
d="M510 150v-150h-450v700h450v-150h-273v-122h232v-150h-232v-128h273zM302 920h183l-123 -174h-148z" />
    <glyph glyph-name="Ecircumflex" unicode="&#xca;" horiz-adv-x="550" 
d="M510 150v-150h-450v700h450v-150h-273v-122h232v-150h-232v-128h273zM338 746l-48 73l-48 -73h-163l127 174h168l127 -174h-163z" />
    <glyph glyph-name="Edieresis" unicode="&#xcb;" horiz-adv-x="550" 
d="M510 150v-150h-450v700h450v-150h-273v-122h232v-150h-232v-128h273zM269 825l-2 -2c0 -25 -8 -45 -24 -60s-38 -23 -65 -23c-28 0 -50 8 -66 23s-24 36 -24 62c0 25 8 45 24 60s38 23 66 23c27 0 49 -8 66 -23s25 -35 25 -60zM485 823c0 -26 -8 -46 -24 -61
s-38 -22 -66 -22c-27 0 -49 8 -65 23s-24 35 -24 60s8 45 24 60s38 23 65 23c28 0 50 -8 66 -23s24 -35 24 -60z" />
    <glyph glyph-name="Igrave" unicode="&#xcc;" horiz-adv-x="297" 
d="M60 0v700h177v-700h-177zM81 746l-123 174h183l88 -174h-148z" />
    <glyph glyph-name="Iacute" unicode="&#xcd;" horiz-adv-x="297" 
d="M60 0v700h177v-700h-177zM161 920h183l-123 -174h-148z" />
    <glyph glyph-name="Icircumflex" unicode="&#xce;" horiz-adv-x="297" 
d="M60 0v700h177v-700h-177zM197 746l-48 73l-48 -73h-163l127 174h168l127 -174h-163z" />
    <glyph glyph-name="Idieresis" unicode="&#xcf;" horiz-adv-x="297" 
d="M60 0v700h177v-700h-177zM128 825l-2 -2c0 -25 -8 -45 -24 -60s-38 -23 -65 -23c-28 0 -50 8 -66 23s-24 36 -24 62c0 25 8 45 24 60s38 23 66 23c27 0 49 -8 66 -23s25 -35 25 -60zM344 823c0 -26 -8 -46 -24 -61s-38 -22 -66 -22c-27 0 -49 8 -65 23s-24 35 -24 60
s8 45 24 60s38 23 65 23c28 0 50 -8 66 -23s24 -35 24 -60z" />
    <glyph glyph-name="Eth" unicode="&#xd0;" horiz-adv-x="703" 
d="M490 353h-1c0 67 -14 117 -42 149s-71 48 -130 48h-70v-118h110v-150h-110v-132h70c59 0 103 17 131 50s42 84 42 153zM69 0v281h-70v150h70v268h252c105 0 190 -31 255 -93s97 -147 97 -254c0 -109 -32 -195 -97 -258s-150 -94 -255 -94h-252z" />
    <glyph glyph-name="Ntilde" unicode="&#xd1;" horiz-adv-x="713" 
d="M222 0l-161 -1v700h171c72 -149 160 -300 264 -453c-3 25 -4 53 -4 84v369h162v-700h-172c-39 53 -68 94 -88 122s-47 68 -81 121s-66 106 -95 160c3 -27 4 -68 4 -123v-279zM416 878c18 0 27 13 27 38h110c0 -43 -9 -81 -27 -113s-44 -48 -79 -48c-19 0 -42 5 -68 15
s-45 15 -57 15c-21 0 -32 -11 -33 -34h-110c1 50 11 89 30 116s46 41 81 41c21 0 44 -5 70 -15s45 -15 56 -15z" />
    <glyph glyph-name="Ograve" unicode="&#xd2;" horiz-adv-x="723" 
d="M688 350v-2c0 -109 -29 -197 -88 -263s-138 -99 -238 -99c-101 0 -181 33 -240 99s-88 154 -88 264s29 198 88 264s139 99 240 99c100 0 179 -33 238 -99s88 -154 88 -263zM218 348c0 -67 12 -118 37 -153s61 -53 108 -53c46 0 81 18 106 53s37 86 37 153
s-12 118 -37 153s-60 53 -106 53c-47 0 -83 -18 -108 -53s-37 -86 -37 -153zM294 744l-123 174h183l88 -174h-148z" />
    <glyph glyph-name="Oacute" unicode="&#xd3;" horiz-adv-x="723" 
d="M688 350v-2c0 -109 -29 -197 -88 -263s-138 -99 -238 -99c-101 0 -181 33 -240 99s-88 154 -88 264s29 198 88 264s139 99 240 99c100 0 179 -33 238 -99s88 -154 88 -263zM218 348c0 -67 12 -118 37 -153s61 -53 108 -53c46 0 81 18 106 53s37 86 37 153
s-12 118 -37 153s-60 53 -106 53c-47 0 -83 -18 -108 -53s-37 -86 -37 -153zM374 918h183l-123 -174h-148z" />
    <glyph glyph-name="Ocircumflex" unicode="&#xd4;" horiz-adv-x="723" 
d="M688 350v-2c0 -109 -29 -197 -88 -263s-138 -99 -238 -99c-101 0 -181 33 -240 99s-88 154 -88 264s29 198 88 264s139 99 240 99c100 0 179 -33 238 -99s88 -154 88 -263zM218 348c0 -67 12 -118 37 -153s61 -53 108 -53c46 0 81 18 106 53s37 86 37 153
s-12 118 -37 153s-60 53 -106 53c-47 0 -83 -18 -108 -53s-37 -86 -37 -153zM410 744l-48 73l-48 -73h-163l127 174h168l127 -174h-163z" />
    <glyph glyph-name="Otilde" unicode="&#xd5;" horiz-adv-x="723" 
d="M688 350v-2c0 -109 -29 -197 -88 -263s-138 -99 -238 -99c-101 0 -181 33 -240 99s-88 154 -88 264s29 198 88 264s139 99 240 99c100 0 179 -33 238 -99s88 -154 88 -263zM218 348c0 -67 12 -118 37 -153s61 -53 108 -53c46 0 81 18 106 53s37 86 37 153
s-12 118 -37 153s-60 53 -106 53c-47 0 -83 -18 -108 -53s-37 -86 -37 -153zM412 877c18 0 27 13 27 38h110c0 -43 -9 -81 -27 -113s-44 -48 -79 -48c-19 0 -42 5 -68 15s-45 15 -57 15c-21 0 -32 -11 -33 -34h-110c1 50 11 89 30 116s46 41 81 41c21 0 44 -5 70 -15
s45 -15 56 -15z" />
    <glyph glyph-name="Odieresis" unicode="&#xd6;" horiz-adv-x="723" 
d="M688 350v-2c0 -109 -29 -197 -88 -263s-138 -99 -238 -99c-101 0 -181 33 -240 99s-88 154 -88 264s29 198 88 264s139 99 240 99c100 0 179 -33 238 -99s88 -154 88 -263zM218 348c0 -67 12 -118 37 -153s61 -53 108 -53c46 0 81 18 106 53s37 86 37 153
s-12 118 -37 153s-60 53 -106 53c-47 0 -83 -18 -108 -53s-37 -86 -37 -153zM341 823l-2 -2c0 -25 -8 -45 -24 -60s-38 -23 -65 -23c-28 0 -50 8 -66 23s-24 36 -24 62c0 25 8 45 24 60s38 23 66 23c27 0 49 -8 66 -23s25 -35 25 -60zM557 821c0 -26 -8 -46 -24 -61
s-38 -22 -66 -22c-27 0 -49 8 -65 23s-24 35 -24 60s8 45 24 60s38 23 65 23c28 0 50 -8 66 -23s24 -35 24 -60z" />
    <glyph glyph-name="multiply" unicode="&#xd7;" horiz-adv-x="559" 
d="M411 106l-131 132l-132 -132l-104 103l132 132l-132 132l104 103l132 -131l131 131l104 -103l-132 -132l132 -132z" />
    <glyph glyph-name="Oslash" unicode="&#xd8;" horiz-adv-x="723" 
d="M556 700l136 -1l-78 -105c49 -64 73 -146 73 -245c0 -109 -29 -197 -88 -263s-138 -99 -238 -99c-65 0 -122 14 -171 43l-23 -31h-137l78 104c-49 64 -74 146 -74 246c0 110 29 198 88 264s139 99 240 99c65 0 122 -14 170 -43zM217 349l1 -1c0 -33 3 -62 9 -87l206 275
c-20 13 -44 19 -71 19c-47 0 -83 -18 -108 -53s-37 -86 -37 -153zM362 142c46 0 81 18 106 53s37 86 37 153c0 33 -3 62 -9 87l-206 -274c19 -13 43 -19 72 -19z" />
    <glyph glyph-name="Ugrave" unicode="&#xd9;" horiz-adv-x="686" 
d="M55 282v418h177v-405c0 -101 37 -151 111 -151s111 50 111 151v405h177v-418c0 -93 -25 -165 -75 -217s-121 -78 -213 -78s-163 26 -213 78s-75 124 -75 217zM276 746l-123 174h183l88 -174h-148z" />
    <glyph glyph-name="Uacute" unicode="&#xda;" horiz-adv-x="686" 
d="M55 282v418h177v-405c0 -101 37 -151 111 -151s111 50 111 151v405h177v-418c0 -93 -25 -165 -75 -217s-121 -78 -213 -78s-163 26 -213 78s-75 124 -75 217zM356 920h183l-123 -174h-148z" />
    <glyph glyph-name="Ucircumflex" unicode="&#xdb;" horiz-adv-x="686" 
d="M55 282v418h177v-405c0 -101 37 -151 111 -151s111 50 111 151v405h177v-418c0 -93 -25 -165 -75 -217s-121 -78 -213 -78s-163 26 -213 78s-75 124 -75 217zM392 746l-48 73l-48 -73h-163l127 174h168l127 -174h-163z" />
    <glyph glyph-name="Udieresis" unicode="&#xdc;" horiz-adv-x="686" 
d="M55 282v418h177v-405c0 -101 37 -151 111 -151s111 50 111 151v405h177v-418c0 -93 -25 -165 -75 -217s-121 -78 -213 -78s-163 26 -213 78s-75 124 -75 217zM323 825l-2 -2c0 -25 -8 -45 -24 -60s-38 -23 -65 -23c-28 0 -50 8 -66 23s-24 36 -24 62c0 25 8 45 24 60
s38 23 66 23c27 0 49 -8 66 -23s25 -35 25 -60zM539 823c0 -26 -8 -46 -24 -61s-38 -22 -66 -22c-27 0 -49 8 -65 23s-24 35 -24 60s8 45 24 60s38 23 65 23c28 0 50 -8 66 -23s24 -35 24 -60z" />
    <glyph glyph-name="Yacute" unicode="&#xdd;" horiz-adv-x="634" 
d="M228 0l2 273c-115 175 -191 317 -228 427h181c33 -95 78 -189 135 -282c57 93 102 187 135 282h181c-38 -114 -114 -257 -229 -428v-272h-177zM335 920h183l-123 -174h-148z" />
    <glyph glyph-name="Thorn" unicode="&#xde;" horiz-adv-x="613" 
d="M60 0v700h177v-100h57c88 0 157 -22 208 -66s76 -105 76 -182s-25 -137 -76 -181s-120 -66 -208 -66h-57v-105h-177zM395 352v-1c0 35 -9 60 -26 75s-43 23 -78 23h-53v-195h53c35 0 61 8 78 23s26 40 26 75z" />
    <glyph glyph-name="germandbls" unicode="&#xdf;" horiz-adv-x="615" 
d="M50 495l-4 -1c0 69 21 126 63 171s101 67 177 67c71 0 128 -16 170 -48s63 -73 63 -122c0 -31 -5 -57 -15 -78s-20 -38 -30 -52s-15 -28 -15 -41s7 -26 21 -40s30 -27 47 -39s33 -30 47 -53s21 -49 21 -78c0 -59 -22 -106 -65 -141s-104 -53 -183 -53c-25 0 -53 3 -85 8
l17 137c23 -4 43 -6 60 -6c56 0 84 20 84 59c0 13 -4 26 -13 38s-20 23 -33 33s-26 21 -39 32s-24 25 -33 42s-13 36 -13 57c0 28 10 57 29 87s29 52 29 66c0 17 -5 30 -15 39s-24 14 -42 14c-27 0 -46 -8 -57 -25s-16 -41 -16 -73v-495h-170v495z" />
    <glyph glyph-name="agrave" unicode="&#xe0;" horiz-adv-x="517" 
d="M256 108v-1c19 0 34 2 45 7v85c-18 4 -35 6 -50 6c-17 0 -31 -4 -42 -12s-16 -20 -16 -36c0 -33 21 -49 63 -49zM467 29v1c-61 -28 -137 -42 -229 -42c-69 0 -122 15 -159 45s-55 69 -55 117c0 47 18 85 55 114s86 44 148 44c28 0 53 -2 74 -5v8c0 50 -29 75 -87 75
c-49 0 -93 -8 -132 -23l-29 132c53 21 113 31 181 31c77 0 135 -20 174 -59s59 -95 59 -167v-271zM180 566l-123 174h183l88 -174h-148z" />
    <glyph glyph-name="aacute" unicode="&#xe1;" horiz-adv-x="517" 
d="M256 108v-1c19 0 34 2 45 7v85c-18 4 -35 6 -50 6c-17 0 -31 -4 -42 -12s-16 -20 -16 -36c0 -33 21 -49 63 -49zM467 29v1c-61 -28 -137 -42 -229 -42c-69 0 -122 15 -159 45s-55 69 -55 117c0 47 18 85 55 114s86 44 148 44c28 0 53 -2 74 -5v8c0 50 -29 75 -87 75
c-49 0 -93 -8 -132 -23l-29 132c53 21 113 31 181 31c77 0 135 -20 174 -59s59 -95 59 -167v-271zM260 740h183l-123 -174h-148z" />
    <glyph glyph-name="acircumflex" unicode="&#xe2;" horiz-adv-x="517" 
d="M256 108v-1c19 0 34 2 45 7v85c-18 4 -35 6 -50 6c-17 0 -31 -4 -42 -12s-16 -20 -16 -36c0 -33 21 -49 63 -49zM467 29v1c-61 -28 -137 -42 -229 -42c-69 0 -122 15 -159 45s-55 69 -55 117c0 47 18 85 55 114s86 44 148 44c28 0 53 -2 74 -5v8c0 50 -29 75 -87 75
c-49 0 -93 -8 -132 -23l-29 132c53 21 113 31 181 31c77 0 135 -20 174 -59s59 -95 59 -167v-271zM296 566l-48 73l-48 -73h-163l127 174h168l127 -174h-163z" />
    <glyph glyph-name="atilde" unicode="&#xe3;" horiz-adv-x="517" 
d="M256 108v-1c19 0 34 2 45 7v85c-18 4 -35 6 -50 6c-17 0 -31 -4 -42 -12s-16 -20 -16 -36c0 -33 21 -49 63 -49zM467 29v1c-61 -28 -137 -42 -229 -42c-69 0 -122 15 -159 45s-55 69 -55 117c0 47 18 85 55 114s86 44 148 44c28 0 53 -2 74 -5v8c0 50 -29 75 -87 75
c-49 0 -93 -8 -132 -23l-29 132c53 21 113 31 181 31c77 0 135 -20 174 -59s59 -95 59 -167v-271zM298 699c18 0 27 13 27 38h110c0 -43 -9 -81 -27 -113s-44 -48 -79 -48c-19 0 -42 5 -68 15s-45 15 -57 15c-21 0 -32 -11 -33 -34h-110c1 50 11 89 30 116s46 41 81 41
c21 0 44 -5 70 -15s45 -15 56 -15z" />
    <glyph glyph-name="adieresis" unicode="&#xe4;" horiz-adv-x="517" 
d="M256 108v-1c19 0 34 2 45 7v85c-18 4 -35 6 -50 6c-17 0 -31 -4 -42 -12s-16 -20 -16 -36c0 -33 21 -49 63 -49zM467 29v1c-61 -28 -137 -42 -229 -42c-69 0 -122 15 -159 45s-55 69 -55 117c0 47 18 85 55 114s86 44 148 44c28 0 53 -2 74 -5v8c0 50 -29 75 -87 75
c-49 0 -93 -8 -132 -23l-29 132c53 21 113 31 181 31c77 0 135 -20 174 -59s59 -95 59 -167v-271zM227 645l-2 -2c0 -25 -8 -45 -24 -60s-38 -23 -65 -23c-28 0 -50 8 -66 23s-24 36 -24 62c0 25 8 45 24 60s38 23 66 23c27 0 49 -8 66 -23s25 -35 25 -60zM443 643
c0 -26 -8 -46 -24 -61s-38 -22 -66 -22c-27 0 -49 8 -65 23s-24 35 -24 60s8 45 24 60s38 23 65 23c28 0 50 -8 66 -23s24 -35 24 -60z" />
    <glyph glyph-name="aring" unicode="&#xe5;" horiz-adv-x="517" 
d="M256 108v-1c19 0 34 2 45 7v85c-18 4 -35 6 -50 6c-17 0 -31 -4 -42 -12s-16 -20 -16 -36c0 -33 21 -49 63 -49zM467 29v1c-61 -28 -137 -42 -229 -42c-69 0 -122 15 -159 45s-55 69 -55 117c0 47 18 85 55 114s86 44 148 44c28 0 53 -2 74 -5v8c0 50 -29 75 -87 75
c-49 0 -93 -8 -132 -23l-29 132c53 21 113 31 181 31c77 0 135 -20 174 -59s59 -95 59 -167v-271zM109 699c0 40 13 73 39 98s59 38 100 38s74 -13 100 -38s39 -58 39 -98s-13 -73 -39 -98s-59 -38 -100 -38s-74 13 -100 38s-39 58 -39 98zM286 699v2c0 27 -13 41 -38 41
c-12 0 -21 -4 -28 -12s-10 -18 -10 -30s3 -22 10 -30s16 -12 28 -12c25 0 38 14 38 41z" />
    <glyph glyph-name="ae" unicode="&#xe6;" horiz-adv-x="802" 
d="M549 392c-44 0 -71 -27 -80 -80h141v7c0 23 -5 41 -16 54s-26 19 -45 19zM256 108l-2 -1c23 0 48 6 74 17c-11 22 -19 47 -24 76c-31 3 -49 5 -53 5c-17 0 -31 -4 -42 -12s-16 -20 -16 -36c0 -33 21 -49 63 -49zM745 21l2 -1c-50 -23 -109 -34 -178 -34
c-57 0 -110 15 -158 46c-57 -31 -111 -46 -162 -46c-72 0 -127 14 -166 43s-58 69 -58 120c0 48 18 87 54 116s85 44 147 44c12 0 37 -2 76 -5v8c0 50 -29 75 -87 75c-49 0 -94 -8 -135 -23l-29 132c63 21 124 31 183 31c65 0 118 -20 159 -60c44 40 95 60 154 60
c65 0 119 -21 161 -64s63 -99 63 -168c0 -29 -1 -57 -4 -84h-295c13 -55 51 -82 114 -82c43 0 87 9 133 27z" />
    <glyph glyph-name="ccedilla" unicode="&#xe7;" horiz-adv-x="469" 
d="M290 527v-2c58 0 109 -10 154 -31l-31 -133c-38 16 -74 24 -108 24c-32 0 -57 -11 -75 -33s-27 -53 -27 -92c0 -89 36 -134 108 -134c35 0 70 8 106 24l26 -136c-33 -16 -75 -25 -125 -27l-12 -28c65 -9 98 -39 98 -90c0 -39 -15 -68 -46 -87s-69 -28 -114 -28
c-31 0 -57 3 -79 10l19 89c15 -4 30 -6 46 -6c29 0 44 9 44 26c0 19 -16 28 -49 28l-17 46l16 47c-61 13 -109 43 -143 89s-51 104 -51 173c0 82 23 148 69 197s110 74 191 74z" />
    <glyph glyph-name="egrave" unicode="&#xe8;" horiz-adv-x="539" 
d="M458 157l24 -133c-50 -23 -109 -34 -178 -34c-82 0 -148 25 -199 74s-76 114 -76 195s24 146 72 195s110 74 185 74c65 0 119 -21 161 -64s63 -99 63 -168c0 -29 -1 -57 -4 -84h-295c13 -55 51 -82 114 -82c43 0 87 9 133 27zM284 394v-1c-44 0 -71 -27 -80 -80h141v8
c0 23 -6 41 -17 54s-26 19 -44 19zM212 567l-123 174h183l88 -174h-148z" />
    <glyph glyph-name="eacute" unicode="&#xe9;" horiz-adv-x="539" 
d="M458 157l24 -133c-50 -23 -109 -34 -178 -34c-82 0 -148 25 -199 74s-76 114 -76 195s24 146 72 195s110 74 185 74c65 0 119 -21 161 -64s63 -99 63 -168c0 -29 -1 -57 -4 -84h-295c13 -55 51 -82 114 -82c43 0 87 9 133 27zM284 394v-1c-44 0 -71 -27 -80 -80h141v8
c0 23 -6 41 -17 54s-26 19 -44 19zM292 741h183l-123 -174h-148z" />
    <glyph glyph-name="ecircumflex" unicode="&#xea;" horiz-adv-x="539" 
d="M458 157l24 -133c-50 -23 -109 -34 -178 -34c-82 0 -148 25 -199 74s-76 114 -76 195s24 146 72 195s110 74 185 74c65 0 119 -21 161 -64s63 -99 63 -168c0 -29 -1 -57 -4 -84h-295c13 -55 51 -82 114 -82c43 0 87 9 133 27zM284 394v-1c-44 0 -71 -27 -80 -80h141v8
c0 23 -6 41 -17 54s-26 19 -44 19zM328 567l-48 73l-48 -73h-163l127 174h168l127 -174h-163z" />
    <glyph glyph-name="edieresis" unicode="&#xeb;" horiz-adv-x="539" 
d="M458 157l24 -133c-50 -23 -109 -34 -178 -34c-82 0 -148 25 -199 74s-76 114 -76 195s24 146 72 195s110 74 185 74c65 0 119 -21 161 -64s63 -99 63 -168c0 -29 -1 -57 -4 -84h-295c13 -55 51 -82 114 -82c43 0 87 9 133 27zM284 394v-1c-44 0 -71 -27 -80 -80h141v8
c0 23 -6 41 -17 54s-26 19 -44 19zM259 646l-2 -2c0 -25 -8 -45 -24 -60s-38 -23 -65 -23c-28 0 -50 8 -66 23s-24 36 -24 62c0 25 8 45 24 60s38 23 66 23c27 0 49 -8 66 -23s25 -35 25 -60zM475 644c0 -26 -8 -46 -24 -61s-38 -22 -66 -22c-27 0 -49 8 -65 23
s-24 35 -24 60s8 45 24 60s38 23 65 23c28 0 50 -8 66 -23s24 -35 24 -60z" />
    <glyph glyph-name="igrave" unicode="&#xec;" horiz-adv-x="280" 
d="M225 515v-515h-170v515h170zM75 566l-123 174h183l88 -174h-148z" />
    <glyph glyph-name="iacute" unicode="&#xed;" horiz-adv-x="280" 
d="M225 515v-515h-170v515h170zM155 740h183l-123 -174h-148z" />
    <glyph glyph-name="icircumflex" unicode="&#xee;" horiz-adv-x="280" 
d="M225 515v-515h-170v515h170zM191 566l-48 73l-48 -73h-163l127 174h168l127 -174h-163z" />
    <glyph glyph-name="idieresis" unicode="&#xef;" horiz-adv-x="280" 
d="M225 515v-515h-170v515h170zM122 645l-2 -2c0 -25 -8 -45 -24 -60s-38 -23 -65 -23c-28 0 -50 8 -66 23s-24 36 -24 62c0 25 8 45 24 60s38 23 66 23c27 0 49 -8 66 -23s25 -35 25 -60zM338 643c0 -26 -8 -46 -24 -61s-38 -22 -66 -22c-27 0 -49 8 -65 23s-24 35 -24 60
s8 45 24 60s38 23 65 23c28 0 50 -8 66 -23s24 -35 24 -60z" />
    <glyph glyph-name="eth" unicode="&#xf0;" horiz-adv-x="556" 
d="M98 597l39 127c57 -9 109 -25 155 -48l66 63l54 -57l-50 -48c54 -39 95 -88 123 -146s42 -121 42 -190c0 -95 -22 -171 -66 -227s-109 -84 -194 -84c-71 0 -129 22 -173 66s-66 100 -66 169c0 64 19 117 57 159s91 63 159 63c38 0 72 -9 103 -28c-19 48 -49 87 -90 118
l-70 -67l-54 57l52 49c-27 11 -56 19 -87 24zM264 128v-3c35 0 61 13 77 40s24 70 24 129v1c-27 11 -56 17 -87 17c-29 0 -51 -8 -66 -25s-22 -39 -22 -66c0 -26 7 -48 20 -66s31 -27 54 -27z" />
    <glyph glyph-name="ntilde" unicode="&#xf1;" horiz-adv-x="582" 
d="M225 0l-170 -1v486c70 27 148 41 233 41c77 0 137 -18 180 -55s64 -90 64 -160v-311h-170v299c0 59 -25 88 -76 88c-22 0 -42 -3 -61 -10v-377zM343 698c18 0 27 13 27 38h110c0 -43 -9 -81 -27 -113s-44 -48 -79 -48c-19 0 -42 5 -68 15s-45 15 -57 15
c-21 0 -32 -11 -33 -34h-110c1 50 11 89 30 116s46 41 81 41c21 0 44 -5 70 -15s45 -15 56 -15z" />
    <glyph glyph-name="ograve" unicode="&#xf2;" horiz-adv-x="579" 
d="M549 258l-1 -3c0 -82 -23 -147 -70 -196s-110 -73 -189 -73s-142 25 -189 74s-70 115 -70 197c0 81 24 146 71 195s110 74 189 74s142 -24 189 -73s70 -114 70 -195zM202 255v-1c0 -41 8 -73 23 -96s36 -34 63 -34s48 12 63 35s23 55 23 96s-8 73 -23 96s-36 34 -63 34
s-48 -11 -63 -34s-23 -55 -23 -96zM221 562l-123 174h183l88 -174h-148z" />
    <glyph glyph-name="oacute" unicode="&#xf3;" horiz-adv-x="579" 
d="M549 258l-1 -3c0 -82 -23 -147 -70 -196s-110 -73 -189 -73s-142 25 -189 74s-70 115 -70 197c0 81 24 146 71 195s110 74 189 74s142 -24 189 -73s70 -114 70 -195zM202 255v-1c0 -41 8 -73 23 -96s36 -34 63 -34s48 12 63 35s23 55 23 96s-8 73 -23 96s-36 34 -63 34
s-48 -11 -63 -34s-23 -55 -23 -96zM301 736h183l-123 -174h-148z" />
    <glyph glyph-name="ocircumflex" unicode="&#xf4;" horiz-adv-x="579" 
d="M549 258l-1 -3c0 -82 -23 -147 -70 -196s-110 -73 -189 -73s-142 25 -189 74s-70 115 -70 197c0 81 24 146 71 195s110 74 189 74s142 -24 189 -73s70 -114 70 -195zM202 255v-1c0 -41 8 -73 23 -96s36 -34 63 -34s48 12 63 35s23 55 23 96s-8 73 -23 96s-36 34 -63 34
s-48 -11 -63 -34s-23 -55 -23 -96zM337 562l-48 73l-48 -73h-163l127 174h168l127 -174h-163z" />
    <glyph glyph-name="otilde" unicode="&#xf5;" horiz-adv-x="579" 
d="M549 258l-1 -3c0 -82 -23 -147 -70 -196s-110 -73 -189 -73s-142 25 -189 74s-70 115 -70 197c0 81 24 146 71 195s110 74 189 74s142 -24 189 -73s70 -114 70 -195zM202 255v-1c0 -41 8 -73 23 -96s36 -34 63 -34s48 12 63 35s23 55 23 96s-8 73 -23 96s-36 34 -63 34
s-48 -11 -63 -34s-23 -55 -23 -96zM339 695c18 0 27 13 27 38h110c0 -43 -9 -81 -27 -113s-44 -48 -79 -48c-19 0 -42 5 -68 15s-45 15 -57 15c-21 0 -32 -11 -33 -34h-110c1 50 11 89 30 116s46 41 81 41c21 0 44 -5 70 -15s45 -15 56 -15z" />
    <glyph glyph-name="odieresis" unicode="&#xf6;" horiz-adv-x="579" 
d="M549 258l-1 -3c0 -82 -23 -147 -70 -196s-110 -73 -189 -73s-142 25 -189 74s-70 115 -70 197c0 81 24 146 71 195s110 74 189 74s142 -24 189 -73s70 -114 70 -195zM202 255v-1c0 -41 8 -73 23 -96s36 -34 63 -34s48 12 63 35s23 55 23 96s-8 73 -23 96s-36 34 -63 34
s-48 -11 -63 -34s-23 -55 -23 -96zM268 641l-2 -2c0 -25 -8 -45 -24 -60s-38 -23 -65 -23c-28 0 -50 8 -66 23s-24 36 -24 62c0 25 8 45 24 60s38 23 66 23c27 0 49 -8 66 -23s25 -35 25 -60zM484 639c0 -26 -8 -46 -24 -61s-38 -22 -66 -22c-27 0 -49 8 -65 23
s-24 35 -24 60s8 45 24 60s38 23 65 23c28 0 50 -8 66 -23s24 -35 24 -60z" />
    <glyph glyph-name="divide" unicode="&#xf7;" horiz-adv-x="559" 
d="M192 144l-1 -3c0 25 8 45 24 60s38 23 65 23s48 -7 63 -22s23 -35 23 -60c0 -26 -8 -46 -23 -61s-36 -22 -63 -22c-28 0 -50 8 -65 23s-23 36 -23 62zM191 535l-1 -3c0 25 8 45 24 60s38 23 65 23s48 -7 63 -22s23 -35 23 -60c0 -26 -8 -46 -23 -61s-36 -22 -63 -22
c-28 0 -50 8 -65 23s-23 36 -23 62zM38 262v146h479v-146h-479z" />
    <glyph glyph-name="oslash" unicode="&#xf8;" horiz-adv-x="579" 
d="M442 515h107l-59 -74c39 -47 59 -108 59 -183c0 -82 -23 -147 -70 -196s-110 -73 -189 -73c-51 0 -96 11 -136 33l-17 -21h-107l59 74c-39 47 -59 108 -59 183c0 81 24 146 71 195s110 74 189 74c53 0 98 -11 136 -33zM203 258v2c0 -15 1 -28 3 -39l125 156
c-13 7 -27 11 -42 11c-27 0 -48 -11 -63 -34s-23 -55 -23 -96zM290 130c27 0 48 12 63 35s23 55 23 96c0 13 -1 25 -3 36l-124 -155c12 -8 26 -12 41 -12z" />
    <glyph glyph-name="ugrave" unicode="&#xf9;" horiz-adv-x="581" 
d="M526 29v-1c-77 -27 -155 -41 -234 -41c-88 0 -150 20 -187 60s-55 97 -55 172v296h170v-297c0 -60 26 -90 77 -90c21 0 41 3 59 10v377h170v-486zM219 565l-123 174h183l88 -174h-148z" />
    <glyph glyph-name="uacute" unicode="&#xfa;" horiz-adv-x="581" 
d="M526 29v-1c-77 -27 -155 -41 -234 -41c-88 0 -150 20 -187 60s-55 97 -55 172v296h170v-297c0 -60 26 -90 77 -90c21 0 41 3 59 10v377h170v-486zM299 739h183l-123 -174h-148z" />
    <glyph glyph-name="ucircumflex" unicode="&#xfb;" horiz-adv-x="581" 
d="M526 29v-1c-77 -27 -155 -41 -234 -41c-88 0 -150 20 -187 60s-55 97 -55 172v296h170v-297c0 -60 26 -90 77 -90c21 0 41 3 59 10v377h170v-486zM335 565l-48 73l-48 -73h-163l127 174h168l127 -174h-163z" />
    <glyph glyph-name="udieresis" unicode="&#xfc;" horiz-adv-x="581" 
d="M526 29v-1c-77 -27 -155 -41 -234 -41c-88 0 -150 20 -187 60s-55 97 -55 172v296h170v-297c0 -60 26 -90 77 -90c21 0 41 3 59 10v377h170v-486zM266 644l-2 -2c0 -25 -8 -45 -24 -60s-38 -23 -65 -23c-28 0 -50 8 -66 23s-24 36 -24 62c0 25 8 45 24 60s38 23 66 23
c27 0 49 -8 66 -23s25 -35 25 -60zM482 642c0 -26 -8 -46 -24 -61s-38 -22 -66 -22c-27 0 -49 8 -65 23s-24 35 -24 60s8 45 24 60s38 23 65 23c28 0 50 -8 66 -23s24 -35 24 -60z" />
    <glyph glyph-name="yacute" unicode="&#xfd;" horiz-adv-x="521" 
d="M376 58c-83 -147 -187 -229 -312 -246l-25 144c27 3 56 12 87 28s53 34 65 54c-57 74 -99 148 -127 221s-44 158 -49 255h172c0 -131 31 -247 92 -348c21 49 36 99 44 149s12 117 12 200h170c-7 -164 -50 -316 -129 -457zM281 740h183l-123 -174h-148z" />
    <glyph glyph-name="thorn" unicode="&#xfe;" horiz-adv-x="578" 
d="M225 -188l-172 -1v904l170 8v-200c14 2 33 3 56 3c81 0 146 -24 195 -71s73 -111 73 -192c0 -85 -25 -152 -74 -201s-116 -74 -200 -74c-11 0 -27 1 -48 2v-178zM223 134c14 -5 28 -7 41 -7c73 0 109 43 109 129c0 43 -8 75 -25 97s-45 33 -84 33c-9 0 -23 -2 -41 -5
v-247z" />
    <glyph glyph-name="ydieresis" unicode="&#xff;" horiz-adv-x="521" 
d="M376 58c-83 -147 -187 -229 -312 -246l-25 144c27 3 56 12 87 28s53 34 65 54c-57 74 -99 148 -127 221s-44 158 -49 255h172c0 -131 31 -247 92 -348c21 49 36 99 44 149s12 117 12 200h170c-7 -164 -50 -316 -129 -457zM248 645l-2 -2c0 -25 -8 -45 -24 -60
s-38 -23 -65 -23c-28 0 -50 8 -66 23s-24 36 -24 62c0 25 8 45 24 60s38 23 66 23c27 0 49 -8 66 -23s25 -35 25 -60zM464 643c0 -26 -8 -46 -24 -61s-38 -22 -66 -22c-27 0 -49 8 -65 23s-24 35 -24 60s8 45 24 60s38 23 65 23c28 0 50 -8 66 -23s24 -35 24 -60z" />
    <glyph glyph-name="Amacron" unicode="&#x100;" horiz-adv-x="677" 
d="M338 511c-19 -42 -44 -119 -75 -232h150c-31 113 -56 190 -75 232zM484 0l-31 128h-228l-32 -129h-182c32 123 69 250 112 380s84 237 124 321h184c40 -85 82 -192 125 -322s80 -256 111 -378h-183zM171 762v129h336v-129h-336z" />
    <glyph glyph-name="amacron" unicode="&#x101;" horiz-adv-x="517" 
d="M256 108v-1c19 0 34 2 45 7v85c-18 4 -35 6 -50 6c-17 0 -31 -4 -42 -12s-16 -20 -16 -36c0 -33 21 -49 63 -49zM467 29v1c-61 -28 -137 -42 -229 -42c-69 0 -122 15 -159 45s-55 69 -55 117c0 47 18 85 55 114s86 44 148 44c28 0 53 -2 74 -5v8c0 50 -29 75 -87 75
c-49 0 -93 -8 -132 -23l-29 132c53 21 113 31 181 31c77 0 135 -20 174 -59s59 -95 59 -167v-271zM80 583v129h336v-129h-336z" />
    <glyph glyph-name="Abreve" unicode="&#x102;" horiz-adv-x="677" 
d="M338 511c-19 -42 -44 -119 -75 -232h150c-31 113 -56 190 -75 232zM484 0l-31 128h-228l-32 -129h-182c32 123 69 250 112 380s84 237 124 321h184c40 -85 82 -192 125 -322s80 -256 111 -378h-183zM533 909h-1c-17 -111 -82 -166 -194 -166s-177 55 -194 166h141
c3 -17 8 -30 16 -39s21 -13 38 -13c18 0 31 4 38 13s12 22 15 39h141z" />
    <glyph glyph-name="abreve" unicode="&#x103;" horiz-adv-x="517" 
d="M256 108v-1c19 0 34 2 45 7v85c-18 4 -35 6 -50 6c-17 0 -31 -4 -42 -12s-16 -20 -16 -36c0 -33 21 -49 63 -49zM467 29v1c-61 -28 -137 -42 -229 -42c-69 0 -122 15 -159 45s-55 69 -55 117c0 47 18 85 55 114s86 44 148 44c28 0 53 -2 74 -5v8c0 50 -29 75 -87 75
c-49 0 -93 -8 -132 -23l-29 132c53 21 113 31 181 31c77 0 135 -20 174 -59s59 -95 59 -167v-271zM442 730h-1c-17 -111 -82 -166 -194 -166s-177 55 -194 166h141c3 -17 8 -30 16 -39s21 -13 38 -13c18 0 31 4 38 13s12 22 15 39h141z" />
    <glyph glyph-name="Aogonek" unicode="&#x104;" horiz-adv-x="677" 
d="M338 511c-19 -42 -44 -119 -75 -232h150c-31 113 -56 190 -75 232zM654 -218l-2 -2c-28 -11 -60 -17 -97 -17c-43 0 -76 10 -100 29s-36 46 -36 81c0 43 21 85 64 126l-32 129h-228l-32 -129h-182c32 123 69 250 112 380s84 237 124 321h184c40 -85 82 -192 125 -322
s80 -256 111 -378h-17c-28 -13 -50 -28 -66 -45s-24 -35 -24 -53c0 -21 12 -31 37 -31c15 0 29 3 42 9z" />
    <glyph glyph-name="aogonek" unicode="&#x105;" horiz-adv-x="517" 
d="M471 -218l-1 -1c-28 -11 -60 -17 -97 -17c-43 0 -76 10 -100 29s-36 46 -36 81c0 37 17 76 51 116c-21 -1 -38 -2 -50 -2c-69 0 -122 15 -159 45s-55 69 -55 117c0 47 18 85 55 114s86 44 148 44c28 0 53 -2 74 -5v8c0 50 -29 75 -87 75c-49 0 -93 -8 -132 -23l-29 132
c53 21 113 31 181 31c77 0 135 -20 174 -59s59 -95 59 -167v-272c-61 -37 -91 -79 -91 -126c0 -21 12 -31 37 -31c14 0 28 3 41 9zM192 156v-1c0 -33 21 -49 63 -49c19 0 34 2 45 7v85c-18 4 -35 6 -50 6c-17 0 -31 -4 -42 -12s-16 -20 -16 -36z" />
    <glyph glyph-name="Cacute" unicode="&#x106;" horiz-adv-x="580" 
d="M370 -12h-5c-106 0 -188 32 -247 97s-88 152 -88 262c0 112 30 201 90 267s145 99 256 99c55 0 111 -12 168 -36l-39 -150c-55 20 -97 30 -126 30c-57 0 -98 -17 -124 -52s-39 -87 -39 -156s13 -120 39 -154s67 -51 122 -51c47 0 95 13 144 40l34 -152
c-53 -29 -115 -44 -185 -44zM353 920h183l-123 -174h-148z" />
    <glyph glyph-name="cacute" unicode="&#x107;" horiz-adv-x="469" 
d="M290 527l-1 -1c58 0 109 -10 154 -31l-31 -133c-38 16 -74 24 -108 24c-32 0 -57 -11 -75 -33s-27 -53 -27 -92c0 -89 36 -134 108 -134c35 0 70 8 106 24l26 -136c-39 -19 -88 -28 -147 -28c-83 0 -148 24 -195 73s-70 114 -70 196s23 148 69 197s110 74 191 74z
M292 739h183l-123 -174h-148z" />
    <glyph glyph-name="Ccircumflex" unicode="&#x108;" horiz-adv-x="580" 
d="M370 -12h-5c-106 0 -188 32 -247 97s-88 152 -88 262c0 112 30 201 90 267s145 99 256 99c55 0 111 -12 168 -36l-39 -150c-55 20 -97 30 -126 30c-57 0 -98 -17 -124 -52s-39 -87 -39 -156s13 -120 39 -154s67 -51 122 -51c47 0 95 13 144 40l34 -152
c-53 -29 -115 -44 -185 -44zM389 746l-48 73l-48 -73h-163l127 174h168l127 -174h-163z" />
    <glyph glyph-name="ccircumflex" unicode="&#x109;" horiz-adv-x="469" 
d="M290 527l-1 -1c58 0 109 -10 154 -31l-31 -133c-38 16 -74 24 -108 24c-32 0 -57 -11 -75 -33s-27 -53 -27 -92c0 -89 36 -134 108 -134c35 0 70 8 106 24l26 -136c-39 -19 -88 -28 -147 -28c-83 0 -148 24 -195 73s-70 114 -70 196s23 148 69 197s110 74 191 74z
M328 565l-48 73l-48 -73h-163l127 174h168l127 -174h-163z" />
    <glyph glyph-name="Cdotaccent" unicode="&#x10a;" horiz-adv-x="580" 
d="M370 -12h-5c-106 0 -188 32 -247 97s-88 152 -88 262c0 112 30 201 90 267s145 99 256 99c55 0 111 -12 168 -36l-39 -150c-55 20 -97 30 -126 30c-57 0 -98 -17 -124 -52s-39 -87 -39 -156s13 -120 39 -154s67 -51 122 -51c47 0 95 13 144 40l34 -152
c-53 -29 -115 -44 -185 -44zM244 836h-2c0 28 9 50 26 66s41 24 71 24s53 -8 70 -24s25 -38 25 -66s-8 -50 -25 -67s-40 -25 -70 -25s-53 8 -70 25s-25 39 -25 67z" />
    <glyph glyph-name="cdotaccent" unicode="&#x10b;" horiz-adv-x="469" 
d="M290 527l-1 -1c58 0 109 -10 154 -31l-31 -133c-38 16 -74 24 -108 24c-32 0 -57 -11 -75 -33s-27 -53 -27 -92c0 -89 36 -134 108 -134c35 0 70 8 106 24l26 -136c-39 -19 -88 -28 -147 -28c-83 0 -148 24 -195 73s-70 114 -70 196s23 148 69 197s110 74 191 74z
M183 655h-2c0 28 9 50 26 66s41 24 71 24s53 -8 70 -24s25 -38 25 -66s-8 -50 -25 -67s-40 -25 -70 -25s-53 8 -70 25s-25 39 -25 67z" />
    <glyph glyph-name="Ccaron" unicode="&#x10c;" horiz-adv-x="580" 
d="M370 -12h-5c-106 0 -188 32 -247 97s-88 152 -88 262c0 112 30 201 90 267s145 99 256 99c55 0 111 -12 168 -36l-39 -150c-55 20 -97 30 -126 30c-57 0 -98 -17 -124 -52s-39 -87 -39 -156s13 -120 39 -154s67 -51 122 -51c47 0 95 13 144 40l34 -152
c-53 -29 -115 -44 -185 -44zM293 920l48 -73l48 73h163l-127 -174h-168l-127 174h163z" />
    <glyph glyph-name="ccaron" unicode="&#x10d;" horiz-adv-x="469" 
d="M290 527l-1 -1c58 0 109 -10 154 -31l-31 -133c-38 16 -74 24 -108 24c-32 0 -57 -11 -75 -33s-27 -53 -27 -92c0 -89 36 -134 108 -134c35 0 70 8 106 24l26 -136c-39 -19 -88 -28 -147 -28c-83 0 -148 24 -195 73s-70 114 -70 196s23 148 69 197s110 74 191 74z
M232 739l48 -73l48 73h163l-127 -174h-168l-127 174h163z" />
    <glyph glyph-name="Dcaron" unicode="&#x10e;" horiz-adv-x="693" 
d="M480 353h-1c0 67 -14 117 -42 149s-71 48 -130 48h-70v-400h70c59 0 103 17 131 50s42 84 42 153zM59 0v699h252c105 0 190 -31 255 -93s97 -147 97 -254c0 -109 -32 -195 -97 -258s-150 -94 -255 -94h-252zM268 919l48 -73l48 73h163l-127 -174h-168l-127 174h163z" />
    <glyph glyph-name="dcaron" unicode="&#x10f;" horiz-adv-x="578" 
d="M523 28l2 1c-64 -27 -134 -40 -211 -40c-89 0 -158 24 -208 71s-75 110 -75 189c0 83 26 150 77 201s118 77 200 77c15 0 30 -1 45 -3v192l170 8v-696zM205 258c0 -86 36 -129 108 -129c17 0 31 2 42 7v247c-15 3 -27 5 -36 5c-76 0 -114 -43 -114 -130zM596 721h148
c-3 -47 -13 -92 -30 -136s-37 -80 -60 -108h-101c27 78 41 159 43 244z" />
    <glyph glyph-name="Dcroat" unicode="&#x110;" horiz-adv-x="703" 
d="M490 353h-1c0 67 -14 117 -42 149s-71 48 -130 48h-70v-118h110v-150h-110v-132h70c59 0 103 17 131 50s42 84 42 153zM69 0v281h-70v150h70v268h252c105 0 190 -31 255 -93s97 -147 97 -254c0 -109 -32 -195 -97 -258s-150 -94 -255 -94h-252z" />
    <glyph glyph-name="dcroat" unicode="&#x111;" horiz-adv-x="578" 
d="M199 666l156 1v50l170 8v-58h50v-105h-50v-533c-64 -27 -134 -40 -211 -40c-89 0 -158 24 -208 71s-75 110 -75 189c0 83 26 150 77 201s118 77 200 77c15 0 30 -1 45 -3v37h-154v105zM205 258c0 -86 36 -129 108 -129c17 0 31 2 42 7v247c-15 3 -27 5 -36 5
c-76 0 -114 -43 -114 -130z" />
    <glyph glyph-name="Emacron" unicode="&#x112;" horiz-adv-x="550" 
d="M510 150v-150h-450v700h450v-150h-273v-122h232v-150h-232v-128h273zM122 763v129h336v-129h-336z" />
    <glyph glyph-name="emacron" unicode="&#x113;" horiz-adv-x="539" 
d="M458 157l24 -133c-50 -23 -109 -34 -178 -34c-82 0 -148 25 -199 74s-76 114 -76 195s24 146 72 195s110 74 185 74c65 0 119 -21 161 -64s63 -99 63 -168c0 -29 -1 -57 -4 -84h-295c13 -55 51 -82 114 -82c43 0 87 9 133 27zM284 394v-1c-44 0 -71 -27 -80 -80h141v8
c0 23 -6 41 -17 54s-26 19 -44 19zM112 584v129h336v-129h-336z" />
    <glyph glyph-name="Ebreve" unicode="&#x114;" horiz-adv-x="550" 
d="M510 150v-150h-450v700h450v-150h-273v-122h232v-150h-232v-128h273zM484 910h-1c-17 -111 -82 -166 -194 -166s-177 55 -194 166h141c3 -17 8 -30 16 -39s21 -13 38 -13c18 0 31 4 38 13s12 22 15 39h141z" />
    <glyph glyph-name="ebreve" unicode="&#x115;" horiz-adv-x="539" 
d="M458 157l24 -133c-50 -23 -109 -34 -178 -34c-82 0 -148 25 -199 74s-76 114 -76 195s24 146 72 195s110 74 185 74c65 0 119 -21 161 -64s63 -99 63 -168c0 -29 -1 -57 -4 -84h-295c13 -55 51 -82 114 -82c43 0 87 9 133 27zM284 394v-1c-44 0 -71 -27 -80 -80h141v8
c0 23 -6 41 -17 54s-26 19 -44 19zM474 731h-1c-17 -111 -82 -166 -194 -166s-177 55 -194 166h141c3 -17 8 -30 16 -39s21 -13 38 -13c18 0 31 4 38 13s12 22 15 39h141z" />
    <glyph glyph-name="Edotaccent" unicode="&#x116;" horiz-adv-x="550" 
d="M510 150v-150h-450v700h450v-150h-273v-122h232v-150h-232v-128h273zM193 836h-2c0 28 9 50 26 66s41 24 71 24s53 -8 70 -24s25 -38 25 -66s-8 -50 -25 -67s-40 -25 -70 -25s-53 8 -70 25s-25 39 -25 67z" />
    <glyph glyph-name="edotaccent" unicode="&#x117;" horiz-adv-x="539" 
d="M458 157l24 -133c-50 -23 -109 -34 -178 -34c-82 0 -148 25 -199 74s-76 114 -76 195s24 146 72 195s110 74 185 74c65 0 119 -21 161 -64s63 -99 63 -168c0 -29 -1 -57 -4 -84h-295c13 -55 51 -82 114 -82c43 0 87 9 133 27zM284 394v-1c-44 0 -71 -27 -80 -80h141v8
c0 23 -6 41 -17 54s-26 19 -44 19zM183 657h-2c0 28 9 50 26 66s41 24 71 24s53 -8 70 -24s25 -38 25 -66s-8 -50 -25 -67s-40 -25 -70 -25s-53 8 -70 25s-25 39 -25 67z" />
    <glyph glyph-name="Eogonek" unicode="&#x118;" horiz-adv-x="550" 
d="M514 -218l-3 -1c-28 -11 -60 -17 -97 -17c-43 0 -76 10 -100 29s-36 46 -36 81c0 43 21 85 64 126h-284v700h450v-150h-273v-122h232v-150h-232v-128h273v-150c-28 -13 -50 -28 -66 -45s-24 -35 -24 -53c0 -21 12 -31 37 -31c15 0 29 3 42 9z" />
    <glyph glyph-name="eogonek" unicode="&#x119;" horiz-adv-x="539" 
d="M286 392v-1c-44 0 -71 -27 -80 -80h141v8c0 23 -6 41 -17 54s-26 19 -44 19zM404 -219h-3c-28 -11 -60 -17 -97 -17c-43 0 -76 10 -100 29s-36 46 -36 81c0 41 20 82 60 122c-61 15 -110 46 -146 92s-54 103 -54 170c0 81 24 146 72 195s110 74 185 74
c65 0 119 -21 161 -64s63 -99 63 -168c0 -29 -1 -57 -4 -84h-295c13 -55 51 -82 114 -82c43 0 87 9 133 27l26 -135c-27 -12 -58 -21 -94 -27c-54 -27 -81 -58 -81 -93c0 -21 12 -31 37 -31c15 0 29 3 42 9z" />
    <glyph glyph-name="Ecaron" unicode="&#x11a;" horiz-adv-x="550" 
d="M510 150v-150h-450v700h450v-150h-273v-122h232v-150h-232v-128h273zM338 746l-48 73l-48 -73h-163l127 174h168l127 -174h-163z" />
    <glyph glyph-name="ecaron" unicode="&#x11b;" horiz-adv-x="539" 
d="M458 157l24 -133c-50 -23 -109 -34 -178 -34c-82 0 -148 25 -199 74s-76 114 -76 195s24 146 72 195s110 74 185 74c65 0 119 -21 161 -64s63 -99 63 -168c0 -29 -1 -57 -4 -84h-295c13 -55 51 -82 114 -82c43 0 87 9 133 27zM284 394v-1c-44 0 -71 -27 -80 -80h141v8
c0 23 -6 41 -17 54s-26 19 -44 19zM232 741l48 -73l48 73h163l-127 -174h-168l-127 174h163z" />
    <glyph glyph-name="Gcircumflex" unicode="&#x11c;" horiz-adv-x="657" 
d="M612 48l-1 -1c-74 -40 -152 -60 -233 -60c-107 0 -191 32 -252 96s-92 149 -92 256c0 113 32 203 97 271s153 102 264 102c72 0 135 -11 188 -34l-38 -148c-45 17 -94 26 -147 26c-120 0 -180 -72 -180 -216c0 -64 15 -113 44 -146s71 -50 126 -50c24 0 45 2 64 6v117
h-98v145h258v-364zM405 745l-48 73l-48 -73h-163l127 174h168l127 -174h-163z" />
    <glyph glyph-name="gcircumflex" unicode="&#x11d;" horiz-adv-x="578" 
d="M523 49v-1c0 -74 -24 -132 -73 -174s-116 -63 -201 -63c-69 0 -130 11 -183 32l35 134c39 -17 84 -26 136 -26c35 0 63 7 84 20s31 33 31 59v6c-24 -8 -50 -12 -79 -12c-76 0 -136 21 -179 63s-65 100 -65 175c0 81 26 145 78 193s120 72 203 72c73 0 144 -14 213 -41
v-437zM203 276h-1c0 -35 9 -62 26 -82s42 -30 74 -30c16 0 33 3 50 8v207c-15 4 -29 6 -42 6c-34 0 -60 -10 -79 -30s-28 -46 -28 -79zM357 565l-48 73l-48 -73h-163l127 174h168l127 -174h-163z" />
    <glyph glyph-name="Gbreve" unicode="&#x11e;" horiz-adv-x="657" 
d="M612 48l-1 -1c-74 -40 -152 -60 -233 -60c-107 0 -191 32 -252 96s-92 149 -92 256c0 113 32 203 97 271s153 102 264 102c72 0 135 -11 188 -34l-38 -148c-45 17 -94 26 -147 26c-120 0 -180 -72 -180 -216c0 -64 15 -113 44 -146s71 -50 126 -50c24 0 45 2 64 6v117
h-98v145h258v-364zM551 909h-1c-17 -111 -82 -166 -194 -166s-177 55 -194 166h141c3 -17 8 -30 16 -39s21 -13 38 -13c18 0 31 4 38 13s12 22 15 39h141z" />
    <glyph glyph-name="gbreve" unicode="&#x11f;" horiz-adv-x="578" 
d="M523 49v-1c0 -74 -24 -132 -73 -174s-116 -63 -201 -63c-69 0 -130 11 -183 32l35 134c39 -17 84 -26 136 -26c35 0 63 7 84 20s31 33 31 59v6c-24 -8 -50 -12 -79 -12c-76 0 -136 21 -179 63s-65 100 -65 175c0 81 26 145 78 193s120 72 203 72c73 0 144 -14 213 -41
v-437zM203 276h-1c0 -35 9 -62 26 -82s42 -30 74 -30c16 0 33 3 50 8v207c-15 4 -29 6 -42 6c-34 0 -60 -10 -79 -30s-28 -46 -28 -79zM503 729h-1c-17 -111 -82 -166 -194 -166s-177 55 -194 166h141c3 -17 8 -30 16 -39s21 -13 38 -13c18 0 31 4 38 13s12 22 15 39h141z
" />
    <glyph glyph-name="Gdotaccent" unicode="&#x120;" horiz-adv-x="657" 
d="M612 48l-1 -1c-74 -40 -152 -60 -233 -60c-107 0 -191 32 -252 96s-92 149 -92 256c0 113 32 203 97 271s153 102 264 102c72 0 135 -11 188 -34l-38 -148c-45 17 -94 26 -147 26c-120 0 -180 -72 -180 -216c0 -64 15 -113 44 -146s71 -50 126 -50c24 0 45 2 64 6v117
h-98v145h258v-364zM260 835h-2c0 28 9 50 26 66s41 24 71 24s53 -8 70 -24s25 -38 25 -66s-8 -50 -25 -67s-40 -25 -70 -25s-53 8 -70 25s-25 39 -25 67z" />
    <glyph glyph-name="gdotaccent" unicode="&#x121;" horiz-adv-x="578" 
d="M523 49v-1c0 -74 -24 -132 -73 -174s-116 -63 -201 -63c-69 0 -130 11 -183 32l35 134c39 -17 84 -26 136 -26c35 0 63 7 84 20s31 33 31 59v6c-24 -8 -50 -12 -79 -12c-76 0 -136 21 -179 63s-65 100 -65 175c0 81 26 145 78 193s120 72 203 72c73 0 144 -14 213 -41
v-437zM203 276h-1c0 -35 9 -62 26 -82s42 -30 74 -30c16 0 33 3 50 8v207c-15 4 -29 6 -42 6c-34 0 -60 -10 -79 -30s-28 -46 -28 -79zM212 655h-2c0 28 9 50 26 66s41 24 71 24s53 -8 70 -24s25 -38 25 -66s-8 -50 -25 -67s-40 -25 -70 -25s-53 8 -70 25s-25 39 -25 67z
" />
    <glyph glyph-name="uni0122" unicode="&#x122;" horiz-adv-x="657" 
d="M612 48l-1 -1c-74 -40 -152 -60 -233 -60c-107 0 -191 32 -252 96s-92 149 -92 256c0 113 32 203 97 271s153 102 264 102c72 0 135 -11 188 -34l-38 -148c-45 17 -94 26 -147 26c-120 0 -180 -72 -180 -216c0 -64 15 -113 44 -146s71 -50 126 -50c24 0 45 2 64 6v117
h-98v145h258v-364zM298 -54h153c-7 -76 -37 -140 -90 -192h-103c28 59 41 123 40 192z" />
    <glyph glyph-name="uni0123" unicode="&#x123;" horiz-adv-x="578" 
d="M523 49v-1c0 -74 -24 -132 -73 -174s-116 -63 -201 -63c-69 0 -130 11 -183 32l35 134c39 -17 84 -26 136 -26c35 0 63 7 84 20s31 33 31 59v6c-24 -8 -50 -12 -79 -12c-76 0 -136 21 -179 63s-65 100 -65 175c0 81 26 145 78 193s120 72 203 72c73 0 144 -14 213 -41
v-437zM203 276h-1c0 -35 9 -62 26 -82s42 -30 74 -30c16 0 33 3 50 8v207c-15 4 -29 6 -42 6c-34 0 -60 -10 -79 -30s-28 -46 -28 -79zM387 574l-145 -1c3 39 13 77 30 114s37 67 60 91h103c-30 -65 -46 -133 -48 -204z" />
    <glyph glyph-name="Hcircumflex" unicode="&#x124;" horiz-adv-x="704" 
d="M644 0h-177v279h-230v-279h-177v700h177v-271h230v271h177v-700zM400 746l-48 73l-48 -73h-163l127 174h168l127 -174h-163z" />
    <glyph glyph-name="hcircumflex" unicode="&#x125;" horiz-adv-x="582" 
d="M225 0l-170 -1v718l170 8v-211c21 8 49 12 83 12c67 0 121 -19 162 -56s62 -90 62 -159v-311h-170v297c0 59 -28 88 -83 88c-19 0 -37 -3 -54 -10v-375zM318 761l-48 73l-48 -73h-163l127 174h168l127 -174h-163z" />
    <glyph glyph-name="Hbar" unicode="&#x126;" horiz-adv-x="724" 
d="M477 0v279h-230v-279h-177v492h-70v140h70v68h177v-68h230v68h177v-68h70v-140h-70v-492h-177zM477 429v63h-230v-63h230z" />
    <glyph glyph-name="hbar" unicode="&#x127;" horiz-adv-x="582" 
d="M225 515v-1c21 8 49 12 83 12c67 0 121 -20 162 -60s62 -95 62 -165v-301h-170v287c0 31 -7 55 -22 72s-35 26 -61 26c-19 0 -37 -3 -54 -10v-375h-170v561h-60v105h60v52l170 8v-60h144v-105h-144v-46z" />
    <glyph glyph-name="Itilde" unicode="&#x128;" horiz-adv-x="297" 
d="M60 0v700h177v-700h-177zM199 879c18 0 27 13 27 38h110c0 -43 -9 -81 -27 -113s-44 -48 -79 -48c-19 0 -42 5 -68 15s-45 15 -57 15c-21 0 -32 -11 -33 -34h-110c1 50 11 89 30 116s46 41 81 41c21 0 44 -5 70 -15s45 -15 56 -15z" />
    <glyph glyph-name="itilde" unicode="&#x129;" horiz-adv-x="280" 
d="M225 515v-515h-170v515h170zM193 699c18 0 27 13 27 38h110c0 -43 -9 -81 -27 -113s-44 -48 -79 -48c-19 0 -42 5 -68 15s-45 15 -57 15c-21 0 -32 -11 -33 -34h-110c1 50 11 89 30 116s46 41 81 41c21 0 44 -5 70 -15s45 -15 56 -15z" />
    <glyph glyph-name="Imacron" unicode="&#x12a;" horiz-adv-x="297" 
d="M60 0v700h177v-700h-177zM-19 763v129h336v-129h-336z" />
    <glyph glyph-name="imacron" unicode="&#x12b;" horiz-adv-x="280" 
d="M225 515v-515h-170v515h170zM-25 583v129h336v-129h-336z" />
    <glyph glyph-name="Ibreve" unicode="&#x12c;" horiz-adv-x="297" 
d="M60 0v700h177v-700h-177zM343 910h-1c-17 -111 -82 -166 -194 -166s-177 55 -194 166h141c3 -17 8 -30 16 -39s21 -13 38 -13c18 0 31 4 38 13s12 22 15 39h141z" />
    <glyph glyph-name="ibreve" unicode="&#x12d;" horiz-adv-x="280" 
d="M225 515v-515h-170v515h170zM337 730h-1c-17 -111 -82 -166 -194 -166s-177 55 -194 166h141c3 -17 8 -30 16 -39s21 -13 38 -13c18 0 31 4 38 13s12 22 15 39h141z" />
    <glyph glyph-name="Iogonek" unicode="&#x12e;" horiz-adv-x="297" 
d="M230 -218l-3 -1c-28 -11 -60 -17 -97 -17c-43 0 -76 10 -100 29s-36 46 -36 81c0 43 21 85 64 126v700h177v-700h-11c-28 -13 -50 -28 -66 -45s-24 -35 -24 -53c0 -21 12 -31 37 -31c15 0 29 3 42 9z" />
    <glyph glyph-name="iogonek" unicode="&#x12f;" horiz-adv-x="280" 
d="M140 564h-2c-30 0 -53 8 -70 25s-25 39 -25 67s9 50 26 66s41 24 71 24s53 -8 70 -24s25 -38 25 -66s-8 -50 -25 -67s-40 -25 -70 -25zM223 -218l-2 -1c-28 -11 -60 -17 -97 -17c-43 0 -76 10 -100 29s-36 46 -36 81c0 43 21 85 64 126v515h170v-515h-4
c-28 -13 -50 -28 -66 -45s-24 -35 -24 -53c0 -21 12 -31 37 -31c14 0 28 3 41 9z" />
    <glyph glyph-name="Idotaccent" unicode="&#x130;" horiz-adv-x="297" 
d="M60 0v700h177v-700h-177zM52 836h-2c0 28 9 50 26 66s41 24 71 24s53 -8 70 -24s25 -38 25 -66s-8 -50 -25 -67s-40 -25 -70 -25s-53 8 -70 25s-25 39 -25 67z" />
    <glyph glyph-name="dotlessi" unicode="&#x131;" horiz-adv-x="280" 
d="M225 515v-515h-170v515h170z" />
    <glyph glyph-name="IJ" unicode="&#x132;" horiz-adv-x="594" 
d="M60 0v700h177v-700h-177zM282 -94v-1c50 75 75 163 75 264v531h177v-541c0 -133 -33 -244 -98 -332z" />
    <glyph glyph-name="ij" unicode="&#x133;" horiz-adv-x="560" 
d="M225 515v-515h-170v515h170zM140 564h-2c-30 0 -53 8 -70 25s-25 39 -25 67s9 50 26 66s41 24 71 24s53 -8 70 -24s25 -38 25 -66s-8 -50 -25 -67s-40 -25 -70 -25zM503 54v-1c0 -60 -15 -109 -44 -147s-76 -67 -141 -88l-49 139c23 12 39 26 49 41s15 37 15 66v451h170
v-461zM513 655h-2c0 -28 -8 -50 -25 -67s-40 -25 -70 -25s-53 8 -70 25s-25 39 -25 67s9 50 26 66s41 24 71 24s53 -8 70 -24s25 -38 25 -66z" />
    <glyph glyph-name="Jcircumflex" unicode="&#x134;" horiz-adv-x="297" 
d="M-15 -94c50 75 75 163 75 263v531h177v-541c0 -133 -33 -244 -98 -332zM197 746l-48 73l-48 -73h-163l127 174h168l127 -174h-163z" />
    <glyph glyph-name="jcircumflex" unicode="&#x135;" horiz-adv-x="280" 
d="M-9 -43v-1c23 12 39 26 49 41s15 37 15 66v451h170v-461c0 -60 -15 -109 -44 -147s-76 -67 -141 -88zM189 565l-48 73l-48 -73h-163l127 174h168l127 -174h-163z" />
    <glyph glyph-name="uni0136" unicode="&#x136;" horiz-adv-x="657" 
d="M619 700c-30 -135 -95 -250 -196 -346l235 -354h-201l-163 255c-18 -11 -37 -22 -57 -33v-222h-177v700h177v-300c110 75 178 175 205 300h177zM264 -53h153c-7 -76 -37 -140 -90 -192h-103c28 59 41 123 40 192z" />
    <glyph glyph-name="uni0137" unicode="&#x137;" horiz-adv-x="555" 
d="M516 515c0 -80 -40 -159 -120 -237l159 -278h-184l-97 179l-49 -33v-146h-170v716l170 8v-413c67 51 107 119 121 204h170zM225 -53h153c-7 -76 -37 -140 -90 -192h-103c28 59 41 123 40 192z" />
    <glyph glyph-name="Lacute" unicode="&#x139;" horiz-adv-x="527" 
d="M60 0v700h177v-550h260v-150h-437zM157 920h183l-123 -174h-148z" />
    <glyph glyph-name="lacute" unicode="&#x13a;" horiz-adv-x="320" 
d="M220 726v-521c0 -51 16 -77 48 -77c9 0 19 1 30 3l12 -134c-27 -6 -55 -9 -83 -9c-118 0 -177 72 -177 215v513zM150 939h183l-123 -174h-148z" />
    <glyph glyph-name="uni013B" unicode="&#x13b;" horiz-adv-x="527" 
d="M60 0v700h177v-550h260v-150h-437zM195 -53h153c-7 -76 -37 -140 -90 -192h-103c28 59 41 123 40 192z" />
    <glyph glyph-name="uni013C" unicode="&#x13c;" horiz-adv-x="320" 
d="M220 726v-521c0 -51 16 -77 48 -77c9 0 19 1 30 3l12 -134c-27 -6 -55 -9 -83 -9c-118 0 -177 72 -177 215v513zM107 -53h153c-7 -76 -37 -140 -90 -192h-103c28 59 41 123 40 192z" />
    <glyph glyph-name="Lcaron" unicode="&#x13d;" horiz-adv-x="527" 
d="M60 0v700h177v-550h260v-150h-437zM338 700h148c-3 -47 -13 -92 -30 -136s-37 -80 -60 -108h-101c27 78 41 159 43 244z" />
    <glyph glyph-name="lcaron" unicode="&#x13e;" horiz-adv-x="320" 
d="M220 726v-521c0 -51 16 -77 48 -77c9 0 19 1 30 3l12 -134c-27 -6 -55 -9 -83 -9c-118 0 -177 72 -177 215v513zM299 722h148c-3 -47 -13 -92 -30 -136s-37 -80 -60 -108h-101c27 78 41 159 43 244z" />
    <glyph glyph-name="Ldot" unicode="&#x13f;" horiz-adv-x="527" 
d="M60 0v700h177v-550h260v-150h-437zM318 390v-2c0 29 8 51 25 67s41 24 72 24c30 0 53 -8 70 -24s25 -38 25 -66c0 -29 -8 -51 -25 -67s-40 -24 -70 -24c-31 0 -55 8 -72 24s-25 39 -25 68z" />
    <glyph glyph-name="ldot" unicode="&#x140;" horiz-adv-x="437" 
d="M220 726v-521c0 -51 16 -77 48 -77c9 0 19 1 30 3l12 -134c-27 -6 -55 -9 -83 -9c-118 0 -177 72 -177 215v513zM258 394v-2c0 29 8 51 25 67s41 24 72 24c30 0 53 -8 70 -24s25 -38 25 -66c0 -29 -8 -51 -25 -67s-40 -24 -70 -24c-31 0 -55 8 -72 24s-25 39 -25 68z" />
    <glyph glyph-name="Lslash" unicode="&#x141;" horiz-adv-x="527" 
d="M60 0v242l-77 -31v144l77 31v314h177v-242l124 50v-144l-124 -50v-164h260v-150h-437z" />
    <glyph glyph-name="lslash" unicode="&#x142;" horiz-adv-x="320" 
d="M-14 273v129l64 25v289l170 10v-234l89 34v-129l-89 -34v-158c0 -51 16 -77 48 -77c9 0 19 1 30 3l12 -134c-27 -6 -55 -9 -83 -9c-118 0 -177 72 -177 215v95z" />
    <glyph glyph-name="Nacute" unicode="&#x143;" horiz-adv-x="713" 
d="M222 0l-161 -1v700h171c72 -149 160 -300 264 -453c-3 25 -4 53 -4 84v369h162v-700h-172c-39 53 -68 94 -88 122s-47 68 -81 121s-66 106 -95 160c3 -27 4 -68 4 -123v-279zM378 919h183l-123 -174h-148z" />
    <glyph glyph-name="nacute" unicode="&#x144;" horiz-adv-x="582" 
d="M225 0l-170 -1v486c70 27 148 41 233 41c77 0 137 -18 180 -55s64 -90 64 -160v-311h-170v299c0 59 -25 88 -76 88c-22 0 -42 -3 -61 -10v-377zM305 739h183l-123 -174h-148z" />
    <glyph glyph-name="uni0145" unicode="&#x145;" horiz-adv-x="713" 
d="M222 0l-161 -1v700h171c72 -149 160 -300 264 -453c-3 25 -4 53 -4 84v369h162v-700h-172c-39 53 -68 94 -88 122s-47 68 -81 121s-66 106 -95 160c3 -27 4 -68 4 -123v-279zM290 -54h153c-7 -76 -37 -140 -90 -192h-103c28 59 41 123 40 192z" />
    <glyph glyph-name="uni0146" unicode="&#x146;" horiz-adv-x="582" 
d="M225 0l-170 -1v486c70 27 148 41 233 41c77 0 137 -18 180 -55s64 -90 64 -160v-311h-170v299c0 59 -25 88 -76 88c-22 0 -42 -3 -61 -10v-377zM217 -54h153c-7 -76 -37 -140 -90 -192h-103c28 59 41 123 40 192z" />
    <glyph glyph-name="Ncaron" unicode="&#x147;" horiz-adv-x="713" 
d="M222 0l-161 -1v700h171c72 -149 160 -300 264 -453c-3 25 -4 53 -4 84v369h162v-700h-172c-39 53 -68 94 -88 122s-47 68 -81 121s-66 106 -95 160c3 -27 4 -68 4 -123v-279zM318 919l48 -73l48 73h163l-127 -174h-168l-127 174h163z" />
    <glyph glyph-name="ncaron" unicode="&#x148;" horiz-adv-x="582" 
d="M225 0l-170 -1v486c70 27 148 41 233 41c77 0 137 -18 180 -55s64 -90 64 -160v-311h-170v299c0 59 -25 88 -76 88c-22 0 -42 -3 -61 -10v-377zM245 739l48 -73l48 73h163l-127 -174h-168l-127 174h163z" />
    <glyph glyph-name="Omacron" unicode="&#x14c;" horiz-adv-x="723" 
d="M688 350v-2c0 -109 -29 -197 -88 -263s-138 -99 -238 -99c-101 0 -181 33 -240 99s-88 154 -88 264s29 198 88 264s139 99 240 99c100 0 179 -33 238 -99s88 -154 88 -263zM218 348c0 -67 12 -118 37 -153s61 -53 108 -53c46 0 81 18 106 53s37 86 37 153
s-12 118 -37 153s-60 53 -106 53c-47 0 -83 -18 -108 -53s-37 -86 -37 -153zM194 761v129h336v-129h-336z" />
    <glyph glyph-name="omacron" unicode="&#x14d;" horiz-adv-x="579" 
d="M549 258l-1 -3c0 -82 -23 -147 -70 -196s-110 -73 -189 -73s-142 25 -189 74s-70 115 -70 197c0 81 24 146 71 195s110 74 189 74s142 -24 189 -73s70 -114 70 -195zM202 255v-1c0 -41 8 -73 23 -96s36 -34 63 -34s48 12 63 35s23 55 23 96s-8 73 -23 96s-36 34 -63 34
s-48 -11 -63 -34s-23 -55 -23 -96zM121 579v129h336v-129h-336z" />
    <glyph glyph-name="Obreve" unicode="&#x14e;" horiz-adv-x="723" 
d="M688 350v-2c0 -109 -29 -197 -88 -263s-138 -99 -238 -99c-101 0 -181 33 -240 99s-88 154 -88 264s29 198 88 264s139 99 240 99c100 0 179 -33 238 -99s88 -154 88 -263zM218 348c0 -67 12 -118 37 -153s61 -53 108 -53c46 0 81 18 106 53s37 86 37 153
s-12 118 -37 153s-60 53 -106 53c-47 0 -83 -18 -108 -53s-37 -86 -37 -153zM556 908h-1c-17 -111 -82 -166 -194 -166s-177 55 -194 166h141c3 -17 8 -30 16 -39s21 -13 38 -13c18 0 31 4 38 13s12 22 15 39h141z" />
    <glyph glyph-name="obreve" unicode="&#x14f;" horiz-adv-x="579" 
d="M549 258l-1 -3c0 -82 -23 -147 -70 -196s-110 -73 -189 -73s-142 25 -189 74s-70 115 -70 197c0 81 24 146 71 195s110 74 189 74s142 -24 189 -73s70 -114 70 -195zM202 255v-1c0 -41 8 -73 23 -96s36 -34 63 -34s48 12 63 35s23 55 23 96s-8 73 -23 96s-36 34 -63 34
s-48 -11 -63 -34s-23 -55 -23 -96zM483 726h-1c-17 -111 -82 -166 -194 -166s-177 55 -194 166h141c3 -17 8 -30 16 -39s21 -13 38 -13c18 0 31 4 38 13s12 22 15 39h141z" />
    <glyph glyph-name="Ohungarumlaut" unicode="&#x150;" horiz-adv-x="723" 
d="M688 350v-2c0 -109 -29 -197 -88 -263s-138 -99 -238 -99c-101 0 -181 33 -240 99s-88 154 -88 264s29 198 88 264s139 99 240 99c100 0 179 -33 238 -99s88 -154 88 -263zM218 348c0 -67 12 -118 37 -153s61 -53 108 -53c46 0 81 18 106 53s37 86 37 153
s-12 118 -37 153s-60 53 -106 53c-47 0 -83 -18 -108 -53s-37 -86 -37 -153zM490 918h175l-123 -174h-140zM275 918h175l-123 -174h-140z" />
    <glyph glyph-name="ohungarumlaut" unicode="&#x151;" horiz-adv-x="579" 
d="M549 258l-1 -3c0 -82 -23 -147 -70 -196s-110 -73 -189 -73s-142 25 -189 74s-70 115 -70 197c0 81 24 146 71 195s110 74 189 74s142 -24 189 -73s70 -114 70 -195zM202 255v-1c0 -41 8 -73 23 -96s36 -34 63 -34s48 12 63 35s23 55 23 96s-8 73 -23 96s-36 34 -63 34
s-48 -11 -63 -34s-23 -55 -23 -96zM417 736h175l-123 -174h-140zM202 736h175l-123 -174h-140z" />
    <glyph glyph-name="OE" unicode="&#x152;" horiz-adv-x="990" 
d="M950 150v-152h-445v36c-45 -32 -98 -48 -158 -48c-97 0 -173 33 -228 99s-83 154 -83 264s28 198 83 264s131 99 228 99c60 0 113 -16 158 -48v36h445v-150h-273v-122h232v-150h-232v-128h273zM218 348c0 -67 12 -118 37 -153s61 -53 108 -53c46 0 81 18 106 53
s37 86 37 153s-12 118 -37 153s-60 53 -106 53c-47 0 -83 -18 -108 -53s-37 -86 -37 -153z" />
    <glyph glyph-name="oe" unicode="&#x153;" horiz-adv-x="879" 
d="M203 258v-1c0 -41 8 -73 23 -96s36 -34 63 -34s48 12 63 35s23 55 23 96s-8 73 -23 96s-36 34 -63 34s-48 -11 -63 -34s-23 -55 -23 -96zM626 391v-1c-44 0 -71 -27 -80 -80h141v8c0 23 -6 41 -17 54s-26 19 -44 19zM824 20h2c-50 -23 -107 -34 -171 -34
c-70 0 -133 23 -189 70c-49 -47 -109 -70 -180 -70c-79 0 -141 25 -187 74s-69 115 -69 197c0 81 23 146 69 195s108 74 187 74c66 0 124 -22 175 -67c48 45 103 67 165 67c65 0 119 -21 161 -64s63 -99 63 -168c0 -29 -1 -57 -4 -84h-295c13 -55 51 -82 114 -82
c43 0 87 9 133 27z" />
    <glyph glyph-name="Racute" unicode="&#x154;" horiz-adv-x="628" 
d="M276 550l-37 -1v-158h38c71 0 107 26 107 79c0 29 -9 50 -27 62s-45 18 -81 18zM611 -1h-189l-82 194c-13 33 -38 49 -75 49h-27v-243h-178v700h224c87 0 156 -19 206 -57s75 -90 75 -157c0 -55 -11 -96 -33 -124s-52 -49 -89 -63c33 -13 60 -44 81 -93zM288 919h183
l-123 -174h-148z" />
    <glyph glyph-name="racute" unicode="&#x155;" horiz-adv-x="381" 
d="M55 486h-1c59 27 129 41 210 41c47 0 82 -4 106 -12l-24 -138c-18 7 -40 10 -67 10c-21 0 -39 -3 -54 -9v-378h-170v486zM222 740h183l-123 -174h-148z" />
    <glyph glyph-name="uni0156" unicode="&#x156;" horiz-adv-x="628" 
d="M276 550l-37 -1v-158h38c71 0 107 26 107 79c0 29 -9 50 -27 62s-45 18 -81 18zM611 -1h-189l-82 194c-13 33 -38 49 -75 49h-27v-243h-178v700h224c87 0 156 -19 206 -57s75 -90 75 -157c0 -55 -11 -96 -33 -124s-52 -49 -89 -63c33 -13 60 -44 81 -93zM257 -54h153
c-7 -76 -37 -140 -90 -192h-103c28 59 41 123 40 192z" />
    <glyph glyph-name="uni0157" unicode="&#x157;" horiz-adv-x="381" 
d="M55 486h-1c59 27 129 41 210 41c47 0 82 -4 106 -12l-24 -138c-18 7 -40 10 -67 10c-21 0 -39 -3 -54 -9v-378h-170v486zM55 -53h153c-7 -76 -37 -140 -90 -192h-103c28 59 41 123 40 192z" />
    <glyph glyph-name="Rcaron" unicode="&#x158;" horiz-adv-x="628" 
d="M276 550l-37 -1v-158h38c71 0 107 26 107 79c0 29 -9 50 -27 62s-45 18 -81 18zM611 -1h-189l-82 194c-13 33 -38 49 -75 49h-27v-243h-178v700h224c87 0 156 -19 206 -57s75 -90 75 -157c0 -55 -11 -96 -33 -124s-52 -49 -89 -63c33 -13 60 -44 81 -93zM228 919l48 -73
l48 73h163l-127 -174h-168l-127 174h163z" />
    <glyph glyph-name="rcaron" unicode="&#x159;" horiz-adv-x="381" 
d="M55 486h-1c59 27 129 41 210 41c47 0 82 -4 106 -12l-24 -138c-18 7 -40 10 -67 10c-21 0 -39 -3 -54 -9v-378h-170v486zM162 740l48 -73l48 73h163l-127 -174h-168l-127 174h163z" />
    <glyph glyph-name="Sacute" unicode="&#x15a;" horiz-adv-x="533" 
d="M30 30l28 148c63 -25 123 -38 181 -38c61 0 91 19 91 58c0 22 -8 38 -24 49s-46 24 -91 40c-61 21 -108 48 -140 80s-48 76 -48 132c0 67 21 119 64 156s105 56 186 56c77 0 143 -13 198 -39l-34 -146c-51 21 -102 32 -153 32c-53 0 -80 -17 -80 -52c0 -19 7 -34 20 -44
s39 -22 77 -36c34 -12 62 -24 84 -35s43 -25 64 -42s36 -38 46 -62s15 -53 15 -86c0 -66 -23 -118 -70 -156s-111 -57 -192 -57c-87 0 -161 14 -222 42zM290 919h183l-123 -174h-148z" />
    <glyph glyph-name="sacute" unicode="&#x15b;" horiz-adv-x="444" 
d="M407 496l-20 -138c-63 19 -111 29 -144 29c-35 0 -52 -7 -52 -22c0 -9 4 -16 13 -21s28 -11 57 -19c62 -16 106 -36 132 -61s39 -61 39 -108c0 -55 -20 -97 -60 -126s-94 -43 -161 -43c-71 0 -133 12 -187 35l22 138c54 -22 108 -33 162 -33c39 0 59 9 59 26
c0 11 -5 19 -15 24s-36 13 -78 24c-50 13 -87 32 -111 57s-36 59 -36 102c0 53 18 94 54 123s86 44 150 44c63 0 122 -10 176 -31zM241 740h183l-123 -174h-148z" />
    <glyph glyph-name="Scircumflex" unicode="&#x15c;" horiz-adv-x="533" 
d="M30 30l28 148c63 -25 123 -38 181 -38c61 0 91 19 91 58c0 22 -8 38 -24 49s-46 24 -91 40c-61 21 -108 48 -140 80s-48 76 -48 132c0 67 21 119 64 156s105 56 186 56c77 0 143 -13 198 -39l-34 -146c-51 21 -102 32 -153 32c-53 0 -80 -17 -80 -52c0 -19 7 -34 20 -44
s39 -22 77 -36c34 -12 62 -24 84 -35s43 -25 64 -42s36 -38 46 -62s15 -53 15 -86c0 -66 -23 -118 -70 -156s-111 -57 -192 -57c-87 0 -161 14 -222 42zM326 745l-48 73l-48 -73h-163l127 174h168l127 -174h-163z" />
    <glyph glyph-name="scircumflex" unicode="&#x15d;" horiz-adv-x="444" 
d="M407 496l-20 -138c-63 19 -111 29 -144 29c-35 0 -52 -7 -52 -22c0 -9 4 -16 13 -21s28 -11 57 -19c62 -16 106 -36 132 -61s39 -61 39 -108c0 -55 -20 -97 -60 -126s-94 -43 -161 -43c-71 0 -133 12 -187 35l22 138c54 -22 108 -33 162 -33c39 0 59 9 59 26
c0 11 -5 19 -15 24s-36 13 -78 24c-50 13 -87 32 -111 57s-36 59 -36 102c0 53 18 94 54 123s86 44 150 44c63 0 122 -10 176 -31zM277 566l-48 73l-48 -73h-163l127 174h168l127 -174h-163z" />
    <glyph glyph-name="uni015E" unicode="&#x15e;" horiz-adv-x="533" 
d="M30 30l30 148c63 -25 123 -38 181 -38c61 0 91 19 91 58c0 22 -8 38 -24 49s-46 24 -91 40c-62 21 -109 48 -141 80s-48 76 -48 133c0 67 21 119 64 156s105 56 186 56c65 0 130 -13 195 -39l-28 -149c-57 23 -110 35 -159 35c-53 0 -80 -17 -80 -52c0 -19 7 -34 20 -44
s39 -22 77 -36c35 -13 63 -25 84 -36s42 -25 63 -42s36 -38 46 -63s15 -54 15 -87c0 -57 -17 -103 -52 -139s-83 -59 -145 -68l-14 -32c65 -9 98 -39 98 -90c0 -39 -15 -68 -46 -87s-69 -28 -114 -28c-31 0 -57 3 -78 10l19 89c15 -4 30 -6 46 -6c29 0 44 9 44 26
c0 19 -16 28 -49 28l-17 46l14 41c-65 3 -127 17 -187 41z" />
    <glyph glyph-name="uni015F" unicode="&#x15f;" horiz-adv-x="444" 
d="M407 496l-20 -139c-63 19 -111 29 -144 29c-35 0 -52 -7 -52 -22c0 -9 4 -16 13 -21s28 -11 57 -19c62 -16 106 -36 132 -61s39 -61 39 -108c0 -48 -15 -86 -46 -114s-73 -45 -126 -52l-13 -30c65 -9 98 -39 98 -90c0 -39 -15 -68 -46 -87s-69 -28 -114 -28
c-31 0 -57 3 -79 10l19 89c15 -4 30 -6 46 -6c29 0 44 9 44 26c0 19 -16 28 -49 28l-17 46l15 42c-51 4 -98 15 -140 33l22 138c54 -22 108 -33 162 -33c39 0 59 9 59 26c0 11 -5 19 -15 24s-36 13 -78 24c-50 13 -87 32 -111 57s-36 59 -36 102c0 53 18 94 54 123
s86 44 150 44c63 0 122 -10 176 -31z" />
    <glyph glyph-name="Scaron" unicode="&#x160;" horiz-adv-x="533" 
d="M30 30l28 148c63 -25 123 -38 181 -38c61 0 91 19 91 58c0 22 -8 38 -24 49s-46 24 -91 40c-61 21 -108 48 -140 80s-48 76 -48 132c0 67 21 119 64 156s105 56 186 56c77 0 143 -13 198 -39l-34 -146c-51 21 -102 32 -153 32c-53 0 -80 -17 -80 -52c0 -19 7 -34 20 -44
s39 -22 77 -36c34 -12 62 -24 84 -35s43 -25 64 -42s36 -38 46 -62s15 -53 15 -86c0 -66 -23 -118 -70 -156s-111 -57 -192 -57c-87 0 -161 14 -222 42zM230 919l48 -73l48 73h163l-127 -174h-168l-127 174h163z" />
    <glyph glyph-name="scaron" unicode="&#x161;" horiz-adv-x="444" 
d="M407 496l-20 -138c-63 19 -111 29 -144 29c-35 0 -52 -7 -52 -22c0 -9 4 -16 13 -21s28 -11 57 -19c62 -16 106 -36 132 -61s39 -61 39 -108c0 -55 -20 -97 -60 -126s-94 -43 -161 -43c-71 0 -133 12 -187 35l22 138c54 -22 108 -33 162 -33c39 0 59 9 59 26
c0 11 -5 19 -15 24s-36 13 -78 24c-50 13 -87 32 -111 57s-36 59 -36 102c0 53 18 94 54 123s86 44 150 44c63 0 122 -10 176 -31zM181 740l48 -73l48 73h163l-127 -174h-168l-127 174h163z" />
    <glyph glyph-name="uni0162" unicode="&#x162;" horiz-adv-x="563" 
d="M193 0v549h-173v150h523v-150h-173v-550h-45l-17 -39c65 -9 98 -39 98 -90c0 -39 -15 -68 -46 -87s-69 -28 -114 -28c-31 0 -57 3 -79 10l19 89c15 -4 30 -6 46 -6c29 0 44 9 44 26c0 19 -16 28 -49 28l-17 46l18 52h-35z" />
    <glyph glyph-name="uni0163" unicode="&#x163;" horiz-adv-x="379" 
d="M90 -235l19 87c15 -4 30 -6 46 -6c29 0 44 9 44 26c0 19 -16 28 -49 28l-17 46l23 67c-54 33 -81 96 -81 189v177h-65v135h65v107l170 8v-115h99v-135h-99v-175c0 -51 20 -77 61 -77c19 0 35 1 48 4l9 -136c-27 -5 -58 -8 -94 -8c-12 0 -21 0 -27 1l-12 -28
c65 -9 98 -39 98 -90c0 -39 -15 -68 -46 -87s-69 -28 -114 -28c-31 0 -57 3 -78 10z" />
    <glyph glyph-name="Tcaron" unicode="&#x164;" horiz-adv-x="563" 
d="M193 0v550h-173v150h523v-150h-173v-550h-177zM231 920l48 -73l48 73h163l-127 -174h-168l-127 174h163z" />
    <glyph glyph-name="tcaron" unicode="&#x165;" horiz-adv-x="379" 
d="M364 -4h1c-27 -5 -58 -8 -94 -8c-130 0 -195 72 -195 215v177h-65v135h65v107l170 8v-115h99v-135h-99v-175c0 -51 20 -77 61 -77c19 0 35 1 48 4zM310 785h148c-3 -47 -13 -92 -30 -136s-37 -80 -60 -108h-101c27 78 41 159 43 244z" />
    <glyph glyph-name="Tbar" unicode="&#x166;" horiz-adv-x="563" 
d="M193 0v251h-113v150h113v149h-173v150h523v-150h-173v-149h113v-150h-113v-251h-177z" />
    <glyph glyph-name="tbar" unicode="&#x167;" horiz-adv-x="379" 
d="M344 515l1 -135h-99v-45h99v-135h-99c2 -48 22 -72 61 -72c19 0 35 1 48 4l9 -136c-27 -5 -58 -8 -94 -8c-130 0 -195 71 -195 212h-65v135h65v45h-65v135h65v107l170 8v-115h99z" />
    <glyph glyph-name="Utilde" unicode="&#x168;" horiz-adv-x="686" 
d="M55 282v418h177v-405c0 -101 37 -151 111 -151s111 50 111 151v405h177v-418c0 -93 -25 -165 -75 -217s-121 -78 -213 -78s-163 26 -213 78s-75 124 -75 217zM394 879c18 0 27 13 27 38h110c0 -43 -9 -81 -27 -113s-44 -48 -79 -48c-19 0 -42 5 -68 15s-45 15 -57 15
c-21 0 -32 -11 -33 -34h-110c1 50 11 89 30 116s46 41 81 41c21 0 44 -5 70 -15s45 -15 56 -15z" />
    <glyph glyph-name="utilde" unicode="&#x169;" horiz-adv-x="581" 
d="M526 29v-1c-77 -27 -155 -41 -234 -41c-88 0 -150 20 -187 60s-55 97 -55 172v296h170v-297c0 -60 26 -90 77 -90c21 0 41 3 59 10v377h170v-486zM337 698c18 0 27 13 27 38h110c0 -43 -9 -81 -27 -113s-44 -48 -79 -48c-19 0 -42 5 -68 15s-45 15 -57 15
c-21 0 -32 -11 -33 -34h-110c1 50 11 89 30 116s46 41 81 41c21 0 44 -5 70 -15s45 -15 56 -15z" />
    <glyph glyph-name="Umacron" unicode="&#x16a;" horiz-adv-x="686" 
d="M55 282v418h177v-405c0 -101 37 -151 111 -151s111 50 111 151v405h177v-418c0 -93 -25 -165 -75 -217s-121 -78 -213 -78s-163 26 -213 78s-75 124 -75 217zM176 763v129h336v-129h-336z" />
    <glyph glyph-name="umacron" unicode="&#x16b;" horiz-adv-x="581" 
d="M526 29v-1c-77 -27 -155 -41 -234 -41c-88 0 -150 20 -187 60s-55 97 -55 172v296h170v-297c0 -60 26 -90 77 -90c21 0 41 3 59 10v377h170v-486zM119 582v129h336v-129h-336z" />
    <glyph glyph-name="Ubreve" unicode="&#x16c;" horiz-adv-x="686" 
d="M55 282v418h177v-405c0 -101 37 -151 111 -151s111 50 111 151v405h177v-418c0 -93 -25 -165 -75 -217s-121 -78 -213 -78s-163 26 -213 78s-75 124 -75 217zM538 910h-1c-17 -111 -82 -166 -194 -166s-177 55 -194 166h141c3 -17 8 -30 16 -39s21 -13 38 -13
c18 0 31 4 38 13s12 22 15 39h141z" />
    <glyph glyph-name="ubreve" unicode="&#x16d;" horiz-adv-x="581" 
d="M526 29v-1c-77 -27 -155 -41 -234 -41c-88 0 -150 20 -187 60s-55 97 -55 172v296h170v-297c0 -60 26 -90 77 -90c21 0 41 3 59 10v377h170v-486zM481 729h-1c-17 -111 -82 -166 -194 -166s-177 55 -194 166h141c3 -17 8 -30 16 -39s21 -13 38 -13c18 0 31 4 38 13
s12 22 15 39h141z" />
    <glyph glyph-name="Uring" unicode="&#x16e;" horiz-adv-x="686" 
d="M55 282v418h177v-405c0 -101 37 -151 111 -151s111 50 111 151v405h177v-418c0 -93 -25 -165 -75 -217s-121 -78 -213 -78s-163 26 -213 78s-75 124 -75 217zM205 879c0 40 13 73 39 98s59 38 100 38s74 -13 100 -38s39 -58 39 -98s-13 -73 -39 -98s-59 -38 -100 -38
s-74 13 -100 38s-39 58 -39 98zM382 879v2c0 27 -13 41 -38 41c-12 0 -21 -4 -28 -12s-10 -18 -10 -30s3 -22 10 -30s16 -12 28 -12c25 0 38 14 38 41z" />
    <glyph glyph-name="uring" unicode="&#x16f;" horiz-adv-x="581" 
d="M526 29v-1c-77 -27 -155 -41 -234 -41c-88 0 -150 20 -187 60s-55 97 -55 172v296h170v-297c0 -60 26 -90 77 -90c21 0 41 3 59 10v377h170v-486zM148 698c0 40 13 73 39 98s59 38 100 38s74 -13 100 -38s39 -58 39 -98s-13 -73 -39 -98s-59 -38 -100 -38s-74 13 -100 38
s-39 58 -39 98zM325 698v2c0 27 -13 41 -38 41c-12 0 -21 -4 -28 -12s-10 -18 -10 -30s3 -22 10 -30s16 -12 28 -12c25 0 38 14 38 41z" />
    <glyph glyph-name="Uhungarumlaut" unicode="&#x170;" horiz-adv-x="686" 
d="M55 282v418h177v-405c0 -101 37 -151 111 -151s111 50 111 151v405h177v-418c0 -93 -25 -165 -75 -217s-121 -78 -213 -78s-163 26 -213 78s-75 124 -75 217zM472 920h175l-123 -174h-140zM257 920h175l-123 -174h-140z" />
    <glyph glyph-name="uhungarumlaut" unicode="&#x171;" horiz-adv-x="581" 
d="M526 29v-1c-77 -27 -155 -41 -234 -41c-88 0 -150 20 -187 60s-55 97 -55 172v296h170v-297c0 -60 26 -90 77 -90c21 0 41 3 59 10v377h170v-486zM415 739h175l-123 -174h-140zM200 739h175l-123 -174h-140z" />
    <glyph glyph-name="Uogonek" unicode="&#x172;" horiz-adv-x="686" 
d="M55 282l-2 415h177v-405c0 -101 37 -151 111 -151s111 50 111 151v405h177v-418c0 -76 -17 -138 -51 -187s-83 -81 -148 -96c-57 -28 -86 -60 -86 -96c0 -21 12 -31 37 -31c14 0 28 3 41 9l17 -98c-28 -11 -60 -17 -97 -17c-43 0 -76 10 -100 29s-36 46 -36 81
c0 40 20 80 59 121c-68 13 -120 45 -156 95s-54 114 -54 193z" />
    <glyph glyph-name="uogonek" unicode="&#x173;" horiz-adv-x="581" 
d="M526 29l-1 -3c-61 -37 -91 -79 -91 -126c0 -21 12 -31 37 -31c15 0 29 3 42 9l17 -98c-28 -11 -60 -17 -97 -17c-43 0 -76 10 -100 29s-36 46 -36 81c0 37 17 76 52 117c-19 -2 -38 -3 -57 -3c-88 0 -150 20 -187 60s-55 97 -55 172v296h170v-297c0 -60 26 -90 77 -90
c21 0 41 3 59 10v377h170v-486z" />
    <glyph glyph-name="Wcircumflex" unicode="&#x174;" horiz-adv-x="1004" 
d="M703 168v-1c17 53 36 132 57 236s37 203 48 296h180c-17 -120 -42 -246 -75 -377s-68 -239 -106 -323h-194c-40 106 -77 229 -112 369c-35 -140 -72 -263 -112 -369h-194c-37 87 -72 197 -106 330s-59 256 -75 369h180c11 -93 27 -191 48 -295s40 -183 57 -236
c22 61 46 142 71 244s43 198 54 289h155c11 -91 29 -188 54 -290s48 -183 70 -242zM546 745l-48 73l-48 -73h-163l127 174h168l127 -174h-163z" />
    <glyph glyph-name="wcircumflex" unicode="&#x175;" horiz-adv-x="813" 
d="M480 515c4 -147 27 -275 69 -385c49 102 74 230 76 385h168c-8 -107 -22 -197 -43 -270s-57 -154 -109 -244h-169c-31 61 -55 111 -71 150c-18 -53 -40 -103 -66 -150h-163c-56 87 -94 166 -113 237s-32 164 -39 278h168c5 -154 30 -282 76 -385c39 77 62 168 68 273
c-5 31 -8 68 -10 111h158zM454 566l-48 73l-48 -73h-163l127 174h168l127 -174h-163z" />
    <glyph glyph-name="Ycircumflex" unicode="&#x176;" horiz-adv-x="634" 
d="M228 0l2 273c-115 175 -191 317 -228 427h181c33 -95 78 -189 135 -282c57 93 102 187 135 282h181c-38 -114 -114 -257 -229 -428v-272h-177zM371 746l-48 73l-48 -73h-163l127 174h168l127 -174h-163z" />
    <glyph glyph-name="ycircumflex" unicode="&#x177;" horiz-adv-x="521" 
d="M376 58c-83 -147 -187 -229 -312 -246l-25 144c27 3 56 12 87 28s53 34 65 54c-57 74 -99 148 -127 221s-44 158 -49 255h172c0 -131 31 -247 92 -348c21 49 36 99 44 149s12 117 12 200h170c-7 -164 -50 -316 -129 -457zM317 566l-48 73l-48 -73h-163l127 174h168
l127 -174h-163z" />
    <glyph glyph-name="Ydieresis" unicode="&#x178;" horiz-adv-x="634" 
d="M228 0l2 273c-115 175 -191 317 -228 427h181c33 -95 78 -189 135 -282c57 93 102 187 135 282h181c-38 -114 -114 -257 -229 -428v-272h-177zM302 825l-2 -2c0 -25 -8 -45 -24 -60s-38 -23 -65 -23c-28 0 -50 8 -66 23s-24 36 -24 62c0 25 8 45 24 60s38 23 66 23
c27 0 49 -8 66 -23s25 -35 25 -60zM518 823c0 -26 -8 -46 -24 -61s-38 -22 -66 -22c-27 0 -49 8 -65 23s-24 35 -24 60s8 45 24 60s38 23 65 23c28 0 50 -8 66 -23s24 -35 24 -60z" />
    <glyph glyph-name="Zacute" unicode="&#x179;" horiz-adv-x="567" 
d="M517 568l-1 -1c-61 -139 -150 -278 -267 -417h293v-150h-507v135c139 159 238 297 297 415h-286v150h471v-132zM297 919h183l-123 -174h-148z" />
    <glyph glyph-name="zacute" unicode="&#x17a;" horiz-adv-x="468" 
d="M38 515h390v-114c-55 -103 -118 -192 -189 -266h204v-135h-413v114c102 102 174 191 215 266h-207v135zM250 740h183l-123 -174h-148z" />
    <glyph glyph-name="Zdotaccent" unicode="&#x17b;" horiz-adv-x="567" 
d="M517 568l-1 -1c-61 -139 -150 -278 -267 -417h293v-150h-507v135c139 159 238 297 297 415h-286v150h471v-132zM188 835h-2c0 28 9 50 26 66s41 24 71 24s53 -8 70 -24s25 -38 25 -66s-8 -50 -25 -67s-40 -25 -70 -25s-53 8 -70 25s-25 39 -25 67z" />
    <glyph glyph-name="zdotaccent" unicode="&#x17c;" horiz-adv-x="468" 
d="M38 515h390v-114c-55 -103 -118 -192 -189 -266h204v-135h-413v114c102 102 174 191 215 266h-207v135zM141 656h-2c0 28 9 50 26 66s41 24 71 24s53 -8 70 -24s25 -38 25 -66s-8 -50 -25 -67s-40 -25 -70 -25s-53 8 -70 25s-25 39 -25 67z" />
    <glyph glyph-name="Zcaron" unicode="&#x17d;" horiz-adv-x="567" 
d="M517 568l-1 -1c-61 -139 -150 -278 -267 -417h293v-150h-507v135c139 159 238 297 297 415h-286v150h471v-132zM237 919l48 -73l48 73h163l-127 -174h-168l-127 174h163z" />
    <glyph glyph-name="zcaron" unicode="&#x17e;" horiz-adv-x="468" 
d="M38 515h390v-114c-55 -103 -118 -192 -189 -266h204v-135h-413v114c102 102 174 191 215 266h-207v135zM190 740l48 -73l48 73h163l-127 -174h-168l-127 174h163z" />
    <glyph glyph-name="florin" unicode="&#x192;" horiz-adv-x="488" 
d="M74 515h64v3c0 66 17 118 51 157s83 58 146 58c35 0 72 -4 111 -13l-26 -132c-18 3 -35 5 -52 5c-41 0 -61 -24 -61 -71v-7h108v-135h-108v-354c0 -66 -17 -118 -51 -157s-82 -58 -145 -58c-35 0 -72 4 -111 13l26 132c18 -3 35 -5 52 -5c41 0 61 24 61 71v358h-65v135z
" />
    <glyph glyph-name="uni0218" unicode="&#x218;" horiz-adv-x="533" 
d="M30 30l28 148c63 -25 123 -38 181 -38c61 0 91 19 91 58c0 22 -8 38 -24 49s-46 24 -91 40c-61 21 -108 48 -140 80s-48 76 -48 132c0 67 21 119 64 156s105 56 186 56c77 0 143 -13 198 -39l-34 -146c-51 21 -102 32 -153 32c-53 0 -80 -17 -80 -52c0 -19 7 -34 20 -44
s39 -22 77 -36c34 -12 62 -24 84 -35s43 -25 64 -42s36 -38 46 -62s15 -53 15 -86c0 -66 -23 -118 -70 -156s-111 -57 -192 -57c-87 0 -161 14 -222 42zM198 -54h153c-7 -76 -37 -140 -90 -192h-103c28 59 41 123 40 192z" />
    <glyph glyph-name="uni0219" unicode="&#x219;" horiz-adv-x="444" 
d="M407 496l-20 -138c-63 19 -111 29 -144 29c-35 0 -52 -7 -52 -22c0 -9 4 -16 13 -21s28 -11 57 -19c62 -16 106 -36 132 -61s39 -61 39 -108c0 -55 -20 -97 -60 -126s-94 -43 -161 -43c-71 0 -133 12 -187 35l22 138c54 -22 108 -33 162 -33c39 0 59 9 59 26
c0 11 -5 19 -15 24s-36 13 -78 24c-50 13 -87 32 -111 57s-36 59 -36 102c0 53 18 94 54 123s86 44 150 44c63 0 122 -10 176 -31zM148 -53h153c-7 -76 -37 -140 -90 -192h-103c28 59 41 123 40 192z" />
    <glyph glyph-name="uni021A" unicode="&#x21a;" horiz-adv-x="563" 
d="M193 0v550h-173v150h523v-150h-173v-550h-177zM209 -53h153c-7 -76 -37 -140 -90 -192h-103c28 59 41 123 40 192z" />
    <glyph glyph-name="uni021B" unicode="&#x21b;" horiz-adv-x="379" 
d="M364 -4h1c-27 -5 -58 -8 -94 -8c-130 0 -195 72 -195 215v177h-65v135h65v107l170 8v-115h99v-135h-99v-175c0 -51 20 -77 61 -77c19 0 35 1 48 4zM133 -53h153c-7 -76 -37 -140 -90 -192h-103c28 59 41 123 40 192z" />
    <glyph glyph-name="uni0237" unicode="&#x237;" horiz-adv-x="280" 
d="M-9 -43v-1c23 12 39 26 49 41s15 37 15 66v451h170v-461c0 -60 -15 -109 -44 -147s-76 -67 -141 -88z" />
    <glyph glyph-name="circumflex" unicode="&#x2c6;" 
d="M289 566l-48 73l-48 -73h-163l127 174h168l127 -174h-163z" />
    <glyph glyph-name="caron" unicode="&#x2c7;" 
d="M203 740l48 -73l48 73h163l-127 -174h-168l-127 174h163z" />
    <glyph glyph-name="breve" unicode="&#x2d8;" 
d="M445 730h-1c-17 -111 -82 -166 -194 -166s-177 55 -194 166h141c3 -17 8 -30 16 -39s21 -13 38 -13c18 0 31 4 38 13s12 22 15 39h141z" />
    <glyph glyph-name="dotaccent" unicode="&#x2d9;" 
d="M156 656h-2c0 28 9 50 26 66s41 24 71 24s53 -8 70 -24s25 -38 25 -66s-8 -50 -25 -67s-40 -25 -70 -25s-53 8 -70 25s-25 39 -25 67z" />
    <glyph glyph-name="ring" unicode="&#x2da;" 
d="M111 699c0 40 13 73 39 98s59 38 100 38s74 -13 100 -38s39 -58 39 -98s-13 -73 -39 -98s-59 -38 -100 -38s-74 13 -100 38s-39 58 -39 98zM288 699v2c0 27 -13 41 -38 41c-12 0 -21 -4 -28 -12s-10 -18 -10 -30s3 -22 10 -30s16 -12 28 -12c25 0 38 14 38 41z" />
    <glyph glyph-name="ogonek" unicode="&#x2db;" 
d="M360 -218l-2 -2c-28 -11 -60 -17 -97 -17c-43 0 -76 10 -100 29s-36 46 -36 81c0 26 8 52 24 78s35 47 56 64l149 -15c-28 -13 -50 -28 -66 -45s-24 -35 -24 -53c0 -21 12 -31 37 -31c15 0 29 3 42 9z" />
    <glyph glyph-name="tilde" unicode="&#x2dc;" 
d="M300 699c18 0 27 13 27 38h110c0 -43 -9 -81 -27 -113s-44 -48 -79 -48c-19 0 -42 5 -68 15s-45 15 -57 15c-21 0 -32 -11 -33 -34h-110c1 50 11 89 30 116s46 41 81 41c21 0 44 -5 70 -15s45 -15 56 -15z" />
    <glyph glyph-name="hungarumlaut" unicode="&#x2dd;" 
d="M348 740h175l-123 -174h-140zM133 740h175l-123 -174h-140z" />
    <glyph glyph-name="uni0326" unicode="&#x326;" horiz-adv-x="0" 
d="M-76 -53h153c-7 -76 -37 -140 -90 -192h-103c28 59 41 123 40 192z" />
    <glyph glyph-name="pi" unicode="&#x3c0;" horiz-adv-x="637" 
d="M610 -3v1c-29 -6 -59 -9 -91 -9c-116 0 -174 61 -174 184v208h-95v-380h-170v380h-60v135h587v-135h-92v-203c0 -19 4 -32 13 -39s22 -10 40 -10c13 0 27 2 42 5v-137z" />
    <glyph glyph-name="Wgrave" unicode="&#x1e80;" horiz-adv-x="1004" 
d="M703 168v-1c17 53 36 132 57 236s37 203 48 296h180c-17 -120 -42 -246 -75 -377s-68 -239 -106 -323h-194c-40 106 -77 229 -112 369c-35 -140 -72 -263 -112 -369h-194c-37 87 -72 197 -106 330s-59 256 -75 369h180c11 -93 27 -191 48 -295s40 -183 57 -236
c22 61 46 142 71 244s43 198 54 289h155c11 -91 29 -188 54 -290s48 -183 70 -242zM430 745l-123 174h183l88 -174h-148z" />
    <glyph glyph-name="wgrave" unicode="&#x1e81;" horiz-adv-x="813" 
d="M480 515c4 -147 27 -275 69 -385c49 102 74 230 76 385h168c-8 -107 -22 -197 -43 -270s-57 -154 -109 -244h-169c-31 61 -55 111 -71 150c-18 -53 -40 -103 -66 -150h-163c-56 87 -94 166 -113 237s-32 164 -39 278h168c5 -154 30 -282 76 -385c39 77 62 168 68 273
c-5 31 -8 68 -10 111h158zM338 566l-123 174h183l88 -174h-148z" />
    <glyph glyph-name="Wacute" unicode="&#x1e82;" horiz-adv-x="1004" 
d="M703 168v-1c17 53 36 132 57 236s37 203 48 296h180c-17 -120 -42 -246 -75 -377s-68 -239 -106 -323h-194c-40 106 -77 229 -112 369c-35 -140 -72 -263 -112 -369h-194c-37 87 -72 197 -106 330s-59 256 -75 369h180c11 -93 27 -191 48 -295s40 -183 57 -236
c22 61 46 142 71 244s43 198 54 289h155c11 -91 29 -188 54 -290s48 -183 70 -242zM510 919h183l-123 -174h-148z" />
    <glyph glyph-name="wacute" unicode="&#x1e83;" horiz-adv-x="813" 
d="M480 515c4 -147 27 -275 69 -385c49 102 74 230 76 385h168c-8 -107 -22 -197 -43 -270s-57 -154 -109 -244h-169c-31 61 -55 111 -71 150c-18 -53 -40 -103 -66 -150h-163c-56 87 -94 166 -113 237s-32 164 -39 278h168c5 -154 30 -282 76 -385c39 77 62 168 68 273
c-5 31 -8 68 -10 111h158zM418 740h183l-123 -174h-148z" />
    <glyph glyph-name="Wdieresis" unicode="&#x1e84;" horiz-adv-x="1004" 
d="M703 168v-1c17 53 36 132 57 236s37 203 48 296h180c-17 -120 -42 -246 -75 -377s-68 -239 -106 -323h-194c-40 106 -77 229 -112 369c-35 -140 -72 -263 -112 -369h-194c-37 87 -72 197 -106 330s-59 256 -75 369h180c11 -93 27 -191 48 -295s40 -183 57 -236
c22 61 46 142 71 244s43 198 54 289h155c11 -91 29 -188 54 -290s48 -183 70 -242zM477 824l-2 -2c0 -25 -8 -45 -24 -60s-38 -23 -65 -23c-28 0 -50 8 -66 23s-24 36 -24 62c0 25 8 45 24 60s38 23 66 23c27 0 49 -8 66 -23s25 -35 25 -60zM693 822c0 -26 -8 -46 -24 -61
s-38 -22 -66 -22c-27 0 -49 8 -65 23s-24 35 -24 60s8 45 24 60s38 23 65 23c28 0 50 -8 66 -23s24 -35 24 -60z" />
    <glyph glyph-name="wdieresis" unicode="&#x1e85;" horiz-adv-x="813" 
d="M480 515c4 -147 27 -275 69 -385c49 102 74 230 76 385h168c-8 -107 -22 -197 -43 -270s-57 -154 -109 -244h-169c-31 61 -55 111 -71 150c-18 -53 -40 -103 -66 -150h-163c-56 87 -94 166 -113 237s-32 164 -39 278h168c5 -154 30 -282 76 -385c39 77 62 168 68 273
c-5 31 -8 68 -10 111h158zM385 645l-2 -2c0 -25 -8 -45 -24 -60s-38 -23 -65 -23c-28 0 -50 8 -66 23s-24 36 -24 62c0 25 8 45 24 60s38 23 66 23c27 0 49 -8 66 -23s25 -35 25 -60zM601 643c0 -26 -8 -46 -24 -61s-38 -22 -66 -22c-27 0 -49 8 -65 23s-24 35 -24 60
s8 45 24 60s38 23 65 23c28 0 50 -8 66 -23s24 -35 24 -60z" />
    <glyph glyph-name="Ygrave" unicode="&#x1ef2;" horiz-adv-x="634" 
d="M228 0l2 273c-115 175 -191 317 -228 427h181c33 -95 78 -189 135 -282c57 93 102 187 135 282h181c-38 -114 -114 -257 -229 -428v-272h-177zM255 746l-123 174h183l88 -174h-148z" />
    <glyph glyph-name="ygrave" unicode="&#x1ef3;" horiz-adv-x="521" 
d="M376 58c-83 -147 -187 -229 -312 -246l-25 144c27 3 56 12 87 28s53 34 65 54c-57 74 -99 148 -127 221s-44 158 -49 255h172c0 -131 31 -247 92 -348c21 49 36 99 44 149s12 117 12 200h170c-7 -164 -50 -316 -129 -457zM201 566l-123 174h183l88 -174h-148z" />
    <glyph glyph-name="endash" unicode="&#x2013;" 
d="M30 267v143h440v-143h-440z" />
    <glyph glyph-name="emdash" unicode="&#x2014;" horiz-adv-x="1000" 
d="M30 267v143h940v-143h-940z" />
    <glyph glyph-name="quoteleft" unicode="&#x2018;" horiz-adv-x="281" 
d="M200 431h-163c0 51 12 102 37 153s54 96 88 136h89c-34 -99 -51 -195 -51 -289z" />
    <glyph glyph-name="quoteright" unicode="&#x2019;" horiz-adv-x="281" 
d="M79 720l163 1c0 -51 -12 -102 -37 -153s-54 -96 -88 -136h-89c34 99 51 195 51 288z" />
    <glyph glyph-name="quotesinglbase" unicode="&#x201a;" horiz-adv-x="281" 
d="M69 156l163 1c0 -51 -12 -102 -37 -153s-54 -96 -88 -136h-89c34 99 51 195 51 288z" />
    <glyph glyph-name="quotedblleft" unicode="&#x201c;" horiz-adv-x="501" 
d="M420 431h-163c0 51 12 102 37 153s54 96 88 136h89c-34 -99 -51 -195 -51 -289zM200 431h-163c0 51 12 102 37 153s54 96 88 136h89c-34 -99 -51 -195 -51 -289z" />
    <glyph glyph-name="quotedblright" unicode="&#x201d;" horiz-adv-x="501" 
d="M79 720l163 1c0 -51 -12 -102 -37 -153s-54 -96 -88 -136h-89c34 99 51 195 51 288zM299 721l163 1c0 -51 -12 -102 -37 -153s-54 -96 -88 -136h-89c34 99 51 195 51 288z" />
    <glyph glyph-name="quotedblbase" unicode="&#x201e;" horiz-adv-x="501" 
d="M69 156l163 1c0 -51 -12 -102 -37 -153s-54 -96 -88 -136h-89c34 99 51 195 51 288zM289 157l163 1c0 -51 -12 -102 -37 -153s-54 -96 -88 -136h-89c34 99 51 195 51 288z" />
    <glyph glyph-name="dagger" unicode="&#x2020;" horiz-adv-x="550" 
d="M40 389v139c13 0 70 -4 171 -11c-7 60 -11 103 -11 129c0 28 2 60 5 95h140c3 -35 5 -67 5 -95c0 -26 -4 -69 -11 -129c99 7 156 11 171 11v-139c-15 0 -72 4 -171 11c7 -60 11 -103 11 -130v-470h-150v470c0 27 4 70 11 130c-101 -7 -158 -11 -171 -11z" />
    <glyph glyph-name="daggerdbl" unicode="&#x2021;" horiz-adv-x="550" 
d="M40 389l1 139c13 0 70 -4 171 -11c-7 60 -11 103 -11 129c0 28 2 60 5 95h140c3 -35 5 -67 5 -95c0 -26 -4 -69 -11 -129c99 7 156 11 171 11v-139c-15 0 -72 4 -171 11c7 -60 11 -103 11 -130s-4 -71 -11 -132c97 7 154 11 171 11v-139c-16 0 -73 4 -170 11
c7 -67 10 -109 10 -126c0 -28 -2 -60 -5 -95h-140c-3 35 -5 67 -5 95c0 17 3 59 10 126c-99 -7 -156 -11 -171 -11v139c13 0 70 -4 171 -11c-7 61 -11 105 -11 132s4 70 11 130c-101 -7 -158 -11 -171 -11z" />
    <glyph glyph-name="bullet" unicode="&#x2022;" horiz-adv-x="390" 
d="M335 357h-1c0 -42 -12 -76 -36 -101s-58 -38 -102 -38c-45 0 -80 13 -105 38s-37 59 -37 101c0 41 12 74 37 99s60 38 105 38c43 0 77 -13 102 -38s37 -58 37 -99z" />
    <glyph glyph-name="ellipsis" unicode="&#x2026;" horiz-adv-x="913" 
d="M60 80v-2c0 29 8 51 25 67s41 24 72 24c30 0 53 -8 70 -24s25 -38 25 -66c0 -29 -8 -51 -25 -67s-40 -24 -70 -24c-31 0 -55 8 -72 24s-25 39 -25 68zM361 78v-2c0 29 8 51 25 67s41 24 72 24c30 0 53 -8 70 -24s25 -38 25 -66c0 -29 -8 -51 -25 -67s-40 -24 -70 -24
c-31 0 -55 8 -72 24s-25 39 -25 68zM662 76v-2c0 29 8 51 25 67s41 24 72 24c30 0 53 -8 70 -24s25 -38 25 -66c0 -29 -8 -51 -25 -67s-40 -24 -70 -24c-31 0 -55 8 -72 24s-25 39 -25 68z" />
    <glyph glyph-name="perthousand" unicode="&#x2030;" horiz-adv-x="1284" 
d="M375 508v-3c0 -56 -16 -99 -47 -130s-73 -46 -125 -46s-94 16 -126 47s-48 75 -48 131c0 55 16 98 48 129s74 47 125 47s93 -15 125 -46s48 -74 48 -129zM161 505c0 -47 14 -70 42 -70c27 0 41 23 41 70c0 46 -14 69 -41 69c-28 0 -42 -23 -42 -69zM565 668h127
l-371 -671h-127zM856 162v-3c0 -56 -16 -99 -47 -130s-73 -46 -125 -46s-94 16 -126 47s-48 75 -48 131c0 55 16 98 48 129s74 47 125 47s93 -15 125 -46s48 -74 48 -129zM642 159c0 -47 14 -70 42 -70c27 0 41 23 41 70c0 46 -14 69 -41 69c-28 0 -42 -23 -42 -69z
M1254 159v-3c0 -56 -16 -99 -47 -130s-73 -46 -125 -46s-94 16 -126 47s-48 75 -48 131c0 55 16 98 48 129s74 47 125 47s93 -15 125 -46s48 -74 48 -129zM1040 156c0 -47 14 -70 42 -70c27 0 41 23 41 70c0 46 -14 69 -41 69c-28 0 -42 -23 -42 -69z" />
    <glyph glyph-name="guilsinglleft" unicode="&#x2039;" horiz-adv-x="410" 
d="M175 66c-68 75 -120 150 -155 225c35 75 87 150 155 225h205c-60 -65 -116 -140 -167 -225c51 -85 107 -160 167 -225h-205z" />
    <glyph glyph-name="guilsinglright" unicode="&#x203a;" horiz-adv-x="410" 
d="M235 66h-205c60 65 116 140 167 225c-51 85 -107 160 -167 225h205c68 -75 120 -150 155 -225c-35 -75 -87 -150 -155 -225z" />
    <glyph glyph-name="fraction" unicode="&#x2044;" horiz-adv-x="112" 
d="M187 700h135l-397 -700h-135z" />
    <glyph glyph-name="zero.superior" unicode="&#x2070;" horiz-adv-x="365" 
d="M355 532h-1c0 -56 -16 -100 -48 -133s-73 -49 -124 -49s-93 16 -125 49s-48 77 -48 133c0 55 16 99 48 132s74 49 125 49s93 -16 125 -49s48 -77 48 -132zM140 532c0 -50 14 -75 42 -75c27 0 41 25 41 75c0 49 -14 74 -41 74c-28 0 -42 -25 -42 -74z" />
    <glyph glyph-name="four.superior" unicode="&#x2074;" horiz-adv-x="365" 
d="M21 411v76c41 76 100 148 176 217h119v-203h39v-90h-39v-53h-116v53h-179zM200 501v-1c1 46 3 79 5 100c-29 -33 -54 -66 -76 -99h71z" />
    <glyph glyph-name="Euro" unicode="&#x20ac;" horiz-adv-x="615" 
d="M434 -12l-1 -1c-81 0 -148 18 -201 53s-90 87 -111 156h-92v112h75c-1 5 -1 14 -1 26v20h-74v112h92c21 70 58 124 112 161s119 56 196 56c60 0 109 -6 148 -18l-34 -139c-36 8 -66 12 -91 12c-75 0 -124 -24 -148 -71h191l-11 -112h-204v-20c0 -12 0 -21 1 -26h200
l-9 -112h-163c26 -43 72 -64 137 -64c39 0 77 5 113 15l26 -138c-38 -15 -88 -22 -151 -22z" />
    <glyph glyph-name="uni20B9" unicode="&#x20b9;" horiz-adv-x="536" 
d="M45 556v114h451v-115h-107c8 -19 13 -36 16 -50h91v-115h-83c-9 -99 -63 -162 -162 -190l192 -201h-216l-181 185h-1v129h80c41 0 71 6 90 18s31 32 36 59h-206v115h198c-3 15 -9 32 -18 51h-180z" />
    <glyph glyph-name="uni2113" unicode="&#x2113;" horiz-adv-x="550" 
d="M64 67l-65 126l74 40c-5 33 -8 66 -8 99c0 123 25 217 75 282s110 98 179 98c63 0 111 -17 145 -50s51 -82 51 -147c0 -75 -21 -139 -63 -192s-102 -101 -181 -144c20 -29 55 -43 106 -43c31 0 61 5 89 14v-147c-34 -10 -70 -15 -107 -15c-105 0 -183 37 -234 112z
M238 344l-1 -20c73 49 110 109 110 181c0 41 -12 61 -35 61s-41 -20 -54 -60s-20 -94 -20 -162z" />
    <glyph glyph-name="trademark" unicode="&#x2122;" horiz-adv-x="785" 
d="M106 366v246h-81v88h269v-88h-80v-246h-108zM329 700h111c30 -72 61 -130 92 -175c26 37 55 95 87 175h111v-334h-97v132l4 53c-21 -39 -45 -79 -71 -120h-72c-21 31 -45 71 -73 121l5 -54v-132h-97v334z" />
    <glyph glyph-name="uni2126" unicode="&#x2126;" horiz-adv-x="723" 
d="M45 0v148h82c-61 65 -92 140 -92 225c0 99 30 180 89 243s138 95 237 95s178 -32 237 -95s89 -144 89 -243c0 -86 -30 -161 -90 -224h80v-150h-257v138c23 19 43 47 60 84s25 80 25 129c0 67 -12 118 -37 153s-60 53 -106 53c-47 0 -83 -18 -108 -53s-37 -86 -37 -153
c0 -49 8 -92 25 -129s37 -65 60 -83v-138h-257z" />
    <glyph glyph-name="estimated" unicode="&#x212e;" horiz-adv-x="712" 
d="M550 276l1 152c0 7 -3 13 -8 18c-51 52 -113 78 -186 78c-75 0 -137 -27 -187 -81c-5 -4 -8 -10 -8 -19v-148c0 -3 1 -4 4 -4h381c2 0 3 1 3 4zM663 258l-496 -1c-3 0 -4 -1 -4 -3v-150c0 -7 2 -13 7 -18c51 -53 114 -80 188 -80c80 0 146 30 197 90h44
c-63 -71 -144 -107 -243 -107c-85 0 -157 27 -217 81s-90 119 -90 195s30 141 90 195s132 81 217 81s157 -27 217 -81s90 -119 90 -195v-7z" />
    <glyph glyph-name="partialdiff" unicode="&#x2202;" horiz-adv-x="589" 
d="M256 -12l-1 -1c-71 0 -126 20 -166 60s-60 96 -60 168c0 89 27 163 80 222s116 89 189 89c16 0 32 -2 49 -7c-27 35 -59 69 -97 101s-76 57 -113 76l208 13c61 -37 111 -87 150 -149s59 -132 59 -209c0 -110 -27 -198 -80 -264s-126 -99 -218 -99zM204 222
c0 -30 6 -53 18 -70s30 -25 53 -25c30 0 55 17 76 51s31 72 31 114c0 63 -24 94 -71 94c-30 0 -55 -16 -76 -49s-31 -71 -31 -115z" />
    <glyph glyph-name="uni2206" unicode="&#x2206;" horiz-adv-x="690" 
d="M20 0v134l239 566h170l241 -566v-134h-650zM478 148l-134 356l-140 -356h274z" />
    <glyph glyph-name="product" unicode="&#x220f;" horiz-adv-x="775" 
d="M755 550h-100v-680h-177v680h-181v-680h-177v680h-100v150h735v-150z" />
    <glyph glyph-name="summation" unicode="&#x2211;" horiz-adv-x="568" 
d="M553 -130h-538v140l244 284l-222 266v140h483v-150h-261l157 -192v-138l-181 -200h318v-150z" />
    <glyph glyph-name="minus" unicode="&#x2212;" horiz-adv-x="559" 
d="M40 268v146h479v-146h-479z" />
    <glyph glyph-name="uni2215" unicode="&#x2215;" horiz-adv-x="112" 
d="M187 700h135l-397 -700h-135z" />
    <glyph glyph-name="radical" unicode="&#x221a;" horiz-adv-x="540" 
d="M152 0l-78 184h-74v150h180l56 -154l136 520h168l-211 -700h-177z" />
    <glyph glyph-name="infinity" unicode="&#x221e;" horiz-adv-x="859" 
d="M30 321v-4c0 65 19 116 57 153s85 56 142 56c79 0 148 -38 206 -114c30 37 61 65 93 85s69 30 111 30c52 0 97 -19 134 -56s56 -88 56 -153c0 -64 -19 -115 -57 -153s-83 -57 -136 -57c-45 0 -85 10 -119 30s-66 49 -96 86c-30 -40 -60 -69 -90 -87s-67 -27 -110 -27
c-51 0 -96 19 -134 57s-57 89 -57 154zM240 387h1c-21 0 -37 -6 -48 -19s-17 -31 -17 -54s6 -40 18 -52s29 -18 51 -18c19 0 35 5 49 15s31 27 50 52c-20 27 -38 46 -53 58s-32 18 -51 18zM509 319v-1c35 -49 70 -74 105 -74c47 0 71 23 71 70c0 24 -6 43 -18 56
s-29 20 -51 20c-36 0 -72 -24 -107 -71z" />
    <glyph glyph-name="integral" unicode="&#x222b;" horiz-adv-x="488" 
d="M442 588h-1c-18 3 -35 5 -52 5c-41 0 -61 -24 -61 -71v-496c0 -66 -17 -118 -51 -157s-82 -58 -145 -58c-35 0 -72 4 -111 13l26 132c18 -3 35 -5 52 -5c41 0 61 24 61 71v496c0 66 17 118 51 157s83 58 146 58c35 0 72 -4 111 -13z" />
    <glyph glyph-name="approxequal" unicode="&#x2248;" horiz-adv-x="559" 
d="M519 483h-1c-5 -46 -19 -81 -42 -106s-52 -37 -87 -37c-31 0 -64 7 -100 21s-65 21 -88 21c-31 0 -53 -12 -67 -36l-94 66c8 39 24 70 48 93s54 35 89 35c26 0 57 -7 93 -20s65 -20 88 -20c34 0 57 14 68 43zM518 273h-1c-5 -46 -19 -81 -42 -106s-52 -37 -87 -37
c-31 0 -64 7 -100 21s-65 21 -88 21c-31 0 -53 -12 -67 -36l-94 66c8 39 24 70 48 93s54 35 89 35c26 0 57 -7 93 -20s65 -20 88 -20c34 0 57 14 68 43z" />
    <glyph glyph-name="notequal" unicode="&#x2260;" horiz-adv-x="559" 
d="M324 639h165l-55 -130h85v-146h-148l-18 -44h166v-146h-229l-55 -130h-165l55 130h-85v146h148l18 44h-166v146h229z" />
    <glyph glyph-name="lessequal" unicode="&#x2264;" horiz-adv-x="559" 
d="M40 10v146h479v-146h-479zM519 177l-479 137v163l479 137v-165l-279 -53l279 -54v-165z" />
    <glyph glyph-name="greaterequal" unicode="&#x2265;" horiz-adv-x="559" 
d="M519 10h-479v146h479v-146zM40 177v165l279 54l-279 53v165l479 -137v-163z" />
    <glyph glyph-name="lozenge" unicode="&#x25ca;" horiz-adv-x="532" 
d="M266 136l90 161l-90 162l-90 -162zM180 0l-175 297l175 298h172l175 -298l-175 -297h-172z" />
    <glyph glyph-name=".null" horiz-adv-x="0" 
 />
    <glyph glyph-name="nonmarkingreturn" horiz-adv-x="333" 
 />
    <glyph glyph-name="ITF" horiz-adv-x="1639" 
d="M60 0v700h216v-700h-216zM321 496v204h216v-204h-216zM581 0v700h217v-700h-217zM842 496v204h216v-204h-216zM1102 0v700h217v-700h-217zM1363 496v204h216v-204h-216zM1363 247v205h216v-205h-216z" />
    <glyph glyph-name="caron.alt" 
d="M132 710h148c-3 -47 -13 -92 -30 -136s-37 -80 -60 -108h-101c27 78 41 159 43 244z" />
    <glyph glyph-name="uni0326.alt" horiz-adv-x="0" 
d="M78 575l-145 -1c3 39 13 77 30 114s37 67 60 91h103c-30 -65 -46 -133 -48 -204z" />
    </font>
</defs>
</svg>
