<?xml version="1.0" standalone="no"?>
<!DOCTYPE svg PUBLIC "-//W3C//DTD SVG 1.1//EN" "http://www.w3.org/Graphics/SVG/1.1/DTD/svg11.dtd" >
<svg>
<metadata>
Created by FontForge 20120731 at Fri Jul  7 16:34:15 2017
 By www-data
Copyright \(c\) 2015 by Indian Type Foundry. All rights reserved.
</metadata>
<defs>
<font id="Diodrum-Extralight" horiz-adv-x="563" >
  <font-face 
    font-family="Diodrum"
    font-weight="250"
    font-stretch="normal"
    units-per-em="1000"
    panose-1="2 0 0 0 0 0 0 0 0 0"
    ascent="792"
    descent="-208"
    x-height="500"
    cap-height="700"
    bbox="-160 -221 1629 939"
    underline-thickness="50"
    underline-position="-50"
    unicode-range="U+0020-FB02"
  />
<missing-glyph horiz-adv-x="690" 
d="M150 0v701h390v-701h-390zM192 666v-631h306v631h-306z" />
    <glyph glyph-name="fi" unicode="fi" horiz-adv-x="526" 
d="M30 500h79v76c0 103 43 155 129 155c22 0 45 -4 70 -11l-9 -31c-25 6 -45 9 -60 9c-35 0 -59 -10 -73 -31s-21 -51 -21 -91v-76h276v-500h-35v468h-241v-468h-35v468h-80v32zM372 657l-1 -1c0 9 3 16 9 22s14 9 23 9s16 -3 21 -9s8 -13 8 -22s-3 -16 -8 -22
s-12 -9 -21 -9s-16 3 -22 9s-9 14 -9 23z" />
    <glyph glyph-name="fl" unicode="fl" horiz-adv-x="562" 
d="M30 500h77v81c0 49 12 86 37 111s66 38 123 38c41 0 92 -8 153 -25v-585c0 -35 6 -61 17 -77s30 -24 57 -24c9 0 18 1 28 3l4 -30c-10 -3 -21 -5 -32 -5c-73 0 -109 44 -109 133v562c-43 10 -82 15 -117 15c-46 0 -78 -10 -96 -29s-27 -48 -27 -87v-81h147v-32h-147v-468
h-35v468h-80v32z" />
    <glyph glyph-name=".notdef" horiz-adv-x="690" 
d="M150 0v701h390v-701h-390zM192 666v-631h306v631h-306z" />
    <glyph glyph-name="space" unicode=" " horiz-adv-x="260" 
 />
    <glyph glyph-name="exclam" unicode="!" horiz-adv-x="277" 
d="M157 700v-272c0 -69 -2 -136 -5 -201h-28c-3 65 -5 132 -5 202v271h38zM167 25c0 -8 -3 -15 -8 -21s-12 -9 -20 -9c-9 0 -16 3 -21 9s-8 13 -8 21s3 15 8 21s12 9 21 9c8 0 15 -3 20 -9s8 -13 8 -21z" />
    <glyph glyph-name="quotedbl" unicode="&#x22;" horiz-adv-x="297" 
d="M205 493c-1 54 -2 123 -2 207h34c0 -84 -1 -153 -2 -207h-30zM62 493c-1 54 -2 123 -2 207h34c0 -84 -1 -153 -2 -207h-30z" />
    <glyph glyph-name="numbersign" unicode="#" horiz-adv-x="620" 
d="M343 0l44 198h-218l-44 -198h-32l44 198h-107v32h114l48 212h-107v32h114l44 197h32l-44 -197h218l44 197h32l-44 -197h109v-32h-116l-48 -212h109v-32h-116l-44 -198h-32zM394 230l48 212h-218l-48 -212h218z" />
    <glyph glyph-name="dollar" unicode="$" horiz-adv-x="530" 
d="M419 657l-11 -29c-53 15 -103 23 -150 23c-51 0 -90 -11 -118 -34s-42 -56 -42 -99s12 -74 37 -94s66 -39 123 -58c29 -9 51 -17 67 -23s35 -15 57 -27s39 -24 50 -36s21 -28 29 -48s12 -42 12 -67c0 -31 -5 -58 -16 -81s-26 -41 -46 -54s-41 -22 -63 -28
s-46 -10 -72 -11v-114h-35v113c-64 2 -123 14 -177 37l9 30c64 -23 124 -35 181 -35c122 0 183 48 183 143c0 21 -4 40 -11 56s-15 29 -24 39s-24 20 -44 30s-37 17 -51 22s-35 12 -64 21c-63 20 -108 43 -136 69s-42 65 -42 116c0 52 17 92 52 120s79 43 132 46v100h35
v-100c45 -3 90 -12 135 -27z" />
    <glyph glyph-name="percent" unicode="%" horiz-adv-x="810" 
d="M342 519c0 -50 -13 -90 -39 -120s-61 -45 -105 -45c-43 0 -77 15 -103 45s-39 70 -39 119s13 89 39 119s61 45 104 45s78 -15 104 -45s39 -69 39 -118zM91 519l-1 -2c0 -41 9 -73 27 -97s45 -36 80 -36c36 0 63 12 81 36s27 57 27 98s-9 73 -27 97s-45 36 -81 36
c-35 0 -61 -12 -79 -36s-27 -56 -27 -96zM548 669h35l-322 -671h-35zM754 151c0 -50 -13 -90 -39 -120s-61 -45 -105 -45c-43 0 -77 15 -103 45s-39 70 -39 119s13 89 39 119s61 45 104 45s78 -15 104 -45s39 -69 39 -118zM503 151l-1 -2c0 -41 9 -73 27 -97s45 -36 80 -36
c36 0 63 12 81 36s27 57 27 98s-9 73 -27 97s-45 36 -81 36c-35 0 -61 -12 -79 -36s-27 -56 -27 -96z" />
    <glyph glyph-name="ampersand" unicode="&#x26;" horiz-adv-x="686" 
d="M194 554c0 -53 25 -109 76 -168c60 20 106 44 139 72s49 64 49 107c0 33 -12 60 -35 81s-56 32 -98 32c-38 0 -69 -11 -94 -33s-37 -52 -37 -91zM619 0l-105 103c-59 -76 -138 -114 -237 -114c-66 0 -118 18 -157 53s-58 81 -58 138c0 51 16 92 47 123s74 55 129 73
c-52 61 -78 120 -78 178c0 49 16 88 47 116s71 42 120 42c50 0 91 -13 122 -40s47 -62 47 -106c0 -91 -67 -159 -202 -204c13 -14 35 -36 66 -66l151 -145c27 46 45 100 54 161h34c-13 -73 -35 -134 -67 -183l134 -129h-47zM276 22l2 -1c91 0 163 34 215 102l-157 152
c-37 35 -63 61 -78 77c-52 -17 -92 -38 -120 -62s-42 -60 -42 -108s16 -87 48 -116s76 -44 132 -44z" />
    <glyph glyph-name="quotesingle" unicode="'" horiz-adv-x="154" 
d="M62 493c-1 54 -2 123 -2 207h34c0 -84 -1 -153 -2 -207h-30z" />
    <glyph glyph-name="parenleft" unicode="(" horiz-adv-x="264" 
d="M229 761c-85 -134 -127 -285 -127 -453c0 -167 42 -318 127 -452h-36c-85 130 -128 281 -128 452c0 172 43 323 128 453h36z" />
    <glyph glyph-name="parenright" unicode=")" horiz-adv-x="264" 
d="M162 308c0 168 -42 319 -127 453h36c85 -130 128 -281 128 -453c0 -171 -43 -322 -128 -452h-36c85 134 127 285 127 452z" />
    <glyph glyph-name="asterisk" unicode="*" horiz-adv-x="390" 
d="M178 724h36c0 -52 -1 -98 -3 -139c34 14 78 29 131 46l10 -32c-60 -19 -103 -32 -130 -39c21 -23 51 -57 90 -102l-26 -23c-37 44 -67 81 -90 110c-23 -29 -53 -66 -90 -110l-26 23c39 45 69 79 90 102c-27 7 -70 20 -130 39l10 32c53 -17 97 -32 131 -46
c-2 41 -3 87 -3 139z" />
    <glyph glyph-name="plus" unicode="+" horiz-adv-x="491" 
d="M35 327v32h193v194h35v-194h193v-32h-193v-200h-35v200h-193z" />
    <glyph glyph-name="comma" unicode="," horiz-adv-x="181" 
d="M78 70h35c-4 -71 -21 -143 -51 -217h-28c24 67 39 139 44 217z" />
    <glyph glyph-name="hyphen" unicode="-" horiz-adv-x="306" 
d="M40 296v32h226v-32h-226z" />
    <glyph glyph-name="period" unicode="." horiz-adv-x="181" 
d="M91 -7l-1 -1c-9 0 -16 3 -22 9s-9 14 -9 23s3 16 9 22s14 9 23 9s16 -3 21 -9s8 -13 8 -22s-3 -16 -8 -22s-12 -9 -21 -9z" />
    <glyph glyph-name="slash" unicode="/" horiz-adv-x="403" 
d="M328 755h35l-288 -810h-35z" />
    <glyph glyph-name="zero" unicode="0" horiz-adv-x="608" 
d="M304 -12v-3c-43 0 -80 9 -111 27s-55 43 -73 75s-31 68 -39 108s-12 86 -12 137s4 97 12 137s21 77 39 110s42 58 73 76s68 27 111 27s80 -9 111 -27s55 -43 73 -76s31 -69 39 -109s12 -85 12 -136s-4 -96 -12 -136s-21 -76 -39 -108s-42 -57 -73 -75s-68 -27 -111 -27z
M304 18c131 0 197 105 197 314c0 210 -66 315 -197 315s-197 -105 -197 -315c0 -209 66 -314 197 -314z" />
    <glyph glyph-name="one" unicode="1" horiz-adv-x="337" 
d="M43 548l-16 29c57 37 116 68 177 94h33v-671h-35v634c-54 -24 -107 -53 -159 -86z" />
    <glyph glyph-name="two" unicode="2" horiz-adv-x="487" 
d="M30 0v33l138 138c73 72 127 132 161 180s51 100 51 156c0 45 -14 80 -42 105s-66 37 -114 37c-56 0 -109 -20 -159 -59l-16 27c55 43 114 65 176 65c60 0 107 -16 140 -49s50 -75 50 -126c0 -61 -19 -118 -57 -172s-95 -117 -170 -190l-116 -113h375v-32h-417z" />
    <glyph glyph-name="three" unicode="3" horiz-adv-x="498" 
d="M35 28l16 28c43 -25 95 -38 156 -38c57 0 101 15 133 44s48 70 48 123c0 96 -61 144 -182 144h-71v32h65c55 0 96 15 124 44s42 66 42 111c0 43 -14 76 -43 100s-66 36 -111 36c-54 0 -102 -15 -143 -45l-19 24c45 35 99 53 161 53c56 0 102 -15 137 -44s53 -70 53 -123
c0 -86 -37 -142 -112 -168c89 -20 134 -74 134 -162c0 -63 -19 -112 -57 -147s-91 -52 -160 -52c-67 0 -124 13 -171 40z" />
    <glyph glyph-name="four" unicode="4" horiz-adv-x="572" 
d="M430 206h102v-32h-102v-174h-35v174h-355v29c104 177 220 333 347 468h43v-465zM399 638c-128 -149 -235 -293 -321 -432h317v309c0 32 1 73 4 123z" />
    <glyph glyph-name="five" unicode="5" horiz-adv-x="505" 
d="M409 639h-273l-25 -250c35 7 72 10 110 10c71 0 127 -17 167 -51s60 -83 60 -148c0 -63 -20 -114 -60 -153s-96 -59 -168 -59c-64 0 -121 12 -172 37l15 31c48 -23 101 -35 158 -35c61 0 108 16 141 49s50 76 50 130c0 111 -69 166 -206 166c-31 0 -74 -5 -129 -15
l30 320h302v-32z" />
    <glyph glyph-name="six" unicode="6" horiz-adv-x="562" 
d="M434 671l-11 -34c-32 7 -62 10 -89 10c-38 0 -72 -8 -101 -24s-52 -38 -69 -67s-30 -60 -40 -94s-16 -70 -19 -109c23 15 52 29 87 41s71 18 108 18c65 0 116 -18 152 -53s54 -83 54 -144c0 -68 -19 -123 -57 -165s-87 -63 -148 -63c-77 0 -135 30 -174 89
s-58 133 -58 222c0 39 3 76 9 112s15 71 28 104s30 62 50 87s46 45 77 60s66 22 105 22c37 0 69 -4 96 -12zM298 18l-1 -3c55 0 97 18 126 55s43 84 43 141c0 51 -14 91 -43 121s-73 45 -132 45c-31 0 -64 -6 -99 -18s-65 -27 -90 -45v-18c0 -79 16 -145 49 -198
s82 -80 147 -80z" />
    <glyph glyph-name="seven" unicode="7" horiz-adv-x="444" 
d="M167 0h-35c22 82 47 163 76 242s55 144 78 196s54 119 93 202h-350v32h384v-30c-43 -91 -74 -160 -94 -206s-45 -109 -74 -189s-55 -162 -78 -247z" />
    <glyph glyph-name="eight" unicode="8" horiz-adv-x="586" 
d="M521 165l-1 -1c0 -53 -22 -96 -66 -128s-98 -48 -163 -48c-63 0 -117 16 -161 48s-66 76 -66 133c0 79 47 138 142 177c-79 37 -119 92 -119 164c0 53 20 95 60 126s88 47 145 47c60 0 109 -17 147 -51s57 -76 57 -127c0 -75 -40 -134 -121 -176c49 -16 86 -37 110 -62
s36 -59 36 -102zM288 352c5 -1 13 -3 23 -5s18 -4 23 -5c42 20 74 43 95 68s32 57 32 95c0 43 -16 78 -48 105s-72 41 -121 41c-48 0 -88 -13 -120 -38s-48 -59 -48 -102c0 -41 16 -75 47 -102s70 -46 117 -57zM291 20l-1 -1c55 0 101 13 138 39s56 61 56 106
c0 19 -3 36 -10 51s-16 28 -27 38s-26 20 -46 29s-39 16 -57 21s-42 12 -73 20c-11 3 -19 5 -24 7c-98 -36 -147 -90 -147 -162c0 -47 19 -83 57 -109s83 -39 134 -39z" />
    <glyph glyph-name="nine" unicode="9" horiz-adv-x="549" 
d="M264 283v-3c37 0 73 6 108 19s64 30 87 51c-1 39 -4 75 -10 108s-16 65 -29 95s-32 54 -58 71s-57 26 -93 26c-55 0 -98 -18 -129 -55s-46 -82 -46 -136c0 -52 14 -94 41 -127s70 -49 129 -49zM94 4l7 30c44 -11 83 -17 117 -17c153 0 233 98 240 294
c-55 -43 -121 -65 -199 -65c-65 0 -115 19 -150 58s-53 89 -53 151c0 69 20 124 60 164s91 60 153 60c43 0 80 -9 110 -28s53 -45 69 -79s28 -70 35 -108s11 -80 11 -126c0 -235 -92 -353 -277 -353c-44 0 -85 6 -123 19z" />
    <glyph glyph-name="colon" unicode=":" horiz-adv-x="221" 
d="M141 25l-1 -1c0 -9 -3 -16 -8 -22s-12 -9 -21 -9s-16 3 -22 9s-9 14 -9 23s3 16 9 22s14 9 23 9s16 -3 21 -9s8 -13 8 -22zM140 470l-1 -1c0 -9 -3 -16 -8 -22s-12 -9 -21 -9s-16 3 -22 9s-9 14 -9 23s3 16 9 22s14 9 23 9s16 -3 21 -9s8 -13 8 -22z" />
    <glyph glyph-name="semicolon" unicode=";" horiz-adv-x="221" 
d="M141 471l-1 -1c0 -9 -3 -16 -8 -22s-12 -9 -21 -9s-16 3 -22 9s-9 14 -9 23s3 16 9 22s14 9 23 9s16 -3 21 -9s8 -13 8 -22zM97 69h35c-4 -71 -21 -143 -51 -217h-28c24 67 39 139 44 217z" />
    <glyph glyph-name="less" unicode="&#x3c;" horiz-adv-x="491" 
d="M456 136l-421 188v38l421 189v-38l-381 -170l381 -169v-38z" />
    <glyph glyph-name="equal" unicode="=" horiz-adv-x="491" 
d="M35 237v32h421v-32h-421zM35 416v32h421v-32h-421z" />
    <glyph glyph-name="greater" unicode="&#x3e;" horiz-adv-x="491" 
d="M35 136v38l381 169l-381 170v38l421 -189v-38z" />
    <glyph glyph-name="question" unicode="?" horiz-adv-x="432" 
d="M188 54c8 0 15 -3 20 -9s8 -13 8 -21s-3 -15 -8 -21s-12 -9 -20 -9c-9 0 -16 3 -21 9s-8 13 -8 21s3 15 8 21s12 9 21 9zM39 649l-12 31c49 21 99 32 150 32c56 0 102 -14 138 -42s54 -67 54 -116c0 -25 -5 -48 -14 -70s-19 -38 -29 -49s-24 -25 -42 -42
c-19 -18 -33 -32 -41 -41s-17 -23 -26 -42s-14 -39 -14 -60v-21h-33v21c0 25 5 48 15 69s19 37 28 47s23 24 42 42c17 16 30 29 39 39s18 25 27 44s13 40 13 63c0 39 -13 70 -40 92s-65 33 -114 33c-45 0 -92 -10 -141 -30z" />
    <glyph glyph-name="at" unicode="@" horiz-adv-x="921" 
d="M310 186h-1c0 -51 11 -91 33 -121s55 -45 99 -45c49 0 92 19 129 57c-9 25 -11 61 -6 108l21 188c-32 12 -68 18 -107 18c-52 0 -93 -18 -123 -55s-45 -87 -45 -150zM478 596l-1 -3c-113 0 -205 -38 -276 -115s-107 -175 -107 -294c0 -113 33 -203 99 -271
s155 -102 267 -102c71 0 150 14 237 41l8 -31c-86 -28 -168 -42 -246 -42c-119 0 -216 36 -291 108s-112 171 -112 297c0 59 10 115 29 168s46 100 81 140s79 72 133 96s113 36 178 36c112 0 204 -33 275 -99s107 -153 107 -260c0 -39 -3 -75 -9 -107s-15 -61 -28 -88
s-31 -48 -54 -63s-51 -22 -83 -22c-52 0 -88 20 -107 60c-37 -40 -84 -60 -140 -60c-29 0 -55 6 -77 17s-39 26 -51 45s-21 40 -27 63s-9 47 -9 73c0 41 7 79 21 114s37 64 68 88s69 36 114 36c50 0 97 -11 141 -33l-23 -217c-5 -51 0 -89 14 -114s40 -38 78 -38
c91 0 137 83 137 249c0 99 -32 178 -96 238s-147 90 -250 90z" />
    <glyph glyph-name="A" unicode="A" horiz-adv-x="632" 
d="M316 667h2c-57 -127 -111 -261 -162 -402h322c-51 141 -105 275 -162 402zM568 0h3c-25 81 -51 159 -78 234h-346c-27 -75 -53 -153 -78 -234h-36c88 271 177 504 268 699h36c97 -209 186 -442 267 -699h-36z" />
    <glyph glyph-name="B" unicode="B" horiz-adv-x="612" 
d="M267 0h-158v700h127c89 0 158 -13 206 -39s72 -72 72 -137c0 -45 -9 -81 -28 -108s-43 -46 -72 -56c37 -9 68 -27 92 -55s36 -67 36 -118c0 -37 -6 -68 -19 -93s-32 -44 -58 -58s-54 -23 -85 -28s-69 -8 -113 -8zM144 340l-1 -309h122c80 0 140 11 180 32s60 62 60 123
c0 103 -64 154 -192 154h-169zM143 667l-1 -296h169c109 0 164 51 164 152c0 56 -20 94 -60 114s-100 30 -180 30h-92z" />
    <glyph glyph-name="C" unicode="C" horiz-adv-x="602" 
d="M380 -12l3 -3c-100 0 -177 32 -230 95s-80 149 -80 258c0 110 25 200 76 269s126 104 225 104c57 0 114 -11 171 -34l-10 -32c-59 22 -113 33 -161 33c-61 0 -112 -16 -153 -48s-70 -73 -87 -122s-25 -105 -25 -168c0 -97 23 -174 69 -232s114 -87 203 -87
c52 0 105 12 159 35l8 -31c-51 -25 -107 -37 -168 -37z" />
    <glyph glyph-name="D" unicode="D" horiz-adv-x="685" 
d="M588 350l2 -2c0 95 -25 172 -75 231s-125 88 -226 88h-143v-636h143c99 0 174 30 224 89s75 136 75 230zM112 -2l-1 700h178c109 0 192 -32 250 -95s87 -148 87 -255s-29 -192 -87 -255s-141 -95 -249 -95h-178z" />
    <glyph glyph-name="E" unicode="E" 
d="M503 32v-32h-393v700h393v-32h-358v-290h308v-32h-308v-314h358z" />
    <glyph glyph-name="F" unicode="F" horiz-adv-x="538" 
d="M145 0h-35v700h383v-32h-348v-310h288v-32h-288v-326z" />
    <glyph glyph-name="G" unicode="G" horiz-adv-x="680" 
d="M600 27l-1 -2c-56 -26 -117 -39 -184 -39c-112 0 -198 33 -257 98s-89 153 -89 264c0 105 28 192 84 260s135 102 238 102c71 0 136 -14 195 -43l-10 -31c-60 27 -122 41 -185 41c-92 0 -162 -31 -211 -94s-73 -141 -73 -234c0 -99 26 -178 79 -238s129 -90 229 -90
c57 0 107 9 150 26v269h-171v32h206v-321z" />
    <glyph glyph-name="H" unicode="H" horiz-adv-x="720" 
d="M610 0h-35v346h-430v-346h-35v700h35v-322h430v322h35v-700z" />
    <glyph glyph-name="I" unicode="I" horiz-adv-x="255" 
d="M110 0v700h35v-700h-35z" />
    <glyph glyph-name="J" unicode="J" horiz-adv-x="255" 
d="M42 -129v-1c45 83 68 174 68 273v557h35v-557c0 -106 -24 -203 -73 -290z" />
    <glyph glyph-name="K" unicode="K" horiz-adv-x="617" 
d="M536 700l1 -2c-13 -68 -37 -128 -72 -181s-83 -102 -144 -148l262 -370h-45l-245 350c-41 -28 -90 -57 -148 -86v-264h-35v700h35v-399c110 58 193 118 248 179s91 135 108 221h35z" />
    <glyph glyph-name="L" unicode="L" horiz-adv-x="547" 
d="M110 0v700h35v-668h357v-32h-392z" />
    <glyph glyph-name="M" unicode="M" horiz-adv-x="892" 
d="M744 700l39 1v-700h-35v535v53v42c-70 -165 -165 -342 -284 -531h-36c-117 186 -212 363 -285 531c1 -36 2 -68 2 -96v-535h-35v700h38c61 -153 161 -342 299 -567c134 219 233 408 297 567z" />
    <glyph glyph-name="N" unicode="N" horiz-adv-x="720" 
d="M145 0l-36 -1v700h34c64 -110 129 -214 195 -312s146 -210 239 -337c-2 25 -3 58 -3 98v552h35v-700h-34c-103 138 -188 255 -254 352s-126 194 -179 292c2 -62 3 -98 3 -108v-536z" />
    <glyph glyph-name="O" unicode="O" horiz-adv-x="706" 
d="M636 350l-4 -2c0 -69 -9 -130 -28 -183s-50 -96 -93 -129s-97 -50 -161 -50s-118 17 -161 50s-74 76 -93 129s-28 114 -28 183c0 51 6 98 17 141s28 81 50 115s52 60 89 79s80 29 129 29c64 0 118 -17 161 -50s74 -76 93 -129s29 -114 29 -183zM103 348l-3 -1
c0 -96 20 -175 61 -237s103 -93 186 -93c43 0 81 9 113 27s58 42 77 73s33 66 42 105s14 81 14 126s-5 87 -14 126s-23 74 -42 105s-45 55 -77 73s-69 27 -112 27s-81 -9 -113 -27s-57 -42 -76 -73s-33 -66 -42 -105s-14 -81 -14 -126z" />
    <glyph glyph-name="P" unicode="P" horiz-adv-x="609" 
d="M110 0v700h147c185 0 277 -72 277 -215s-92 -215 -277 -215h-112v-270h-35zM498 485l-1 -2c0 67 -21 114 -63 142s-101 42 -178 42h-112v-366h112c77 0 137 14 179 42s63 75 63 142z" />
    <glyph glyph-name="Q" unicode="Q" horiz-adv-x="706" 
d="M608 -164l-2 -1c-22 -4 -42 -6 -59 -6c-47 0 -86 14 -117 41s-50 66 -57 117c-5 -1 -12 -1 -22 -1c-64 0 -118 17 -161 50s-74 76 -93 129s-28 114 -28 183c0 51 6 98 17 141s28 81 50 115s52 60 89 79s80 29 129 29c64 0 118 -17 161 -50s74 -76 93 -129
s29 -114 29 -183c0 -95 -19 -175 -57 -240s-95 -104 -171 -117c6 -43 22 -75 48 -97s57 -33 94 -33c18 0 35 2 50 6zM105 349l-3 -1c0 -96 20 -175 61 -237s103 -93 186 -93c43 0 81 9 113 27s58 42 77 73s33 66 42 105s14 81 14 126s-5 87 -14 126s-23 74 -42 105
s-45 55 -77 73s-69 27 -112 27s-81 -9 -113 -27s-57 -42 -76 -73s-33 -66 -42 -105s-14 -81 -14 -126z" />
    <glyph glyph-name="R" unicode="R" horiz-adv-x="613" 
d="M257 668l-111 -1v-324h112c74 0 130 13 168 39s57 68 57 126c0 57 -19 98 -57 123s-94 37 -169 37zM569 -1h-44l-136 211c-25 38 -47 64 -66 79s-45 22 -78 22h-97v-312h-35v700h147c86 0 151 -15 195 -45s66 -79 66 -147c0 -59 -18 -105 -54 -138s-81 -50 -135 -52
c14 -5 27 -13 39 -25s28 -33 47 -63z" />
    <glyph glyph-name="S" unicode="S" horiz-adv-x="544" 
d="M60 24l6 38c73 -25 137 -38 192 -38c60 0 107 12 141 37s51 62 51 112c0 26 -4 49 -13 68s-24 36 -44 50s-40 25 -60 33s-47 17 -81 27c-65 20 -112 44 -142 72s-45 68 -45 120c0 55 19 97 58 126s92 44 159 44c54 0 106 -9 157 -27l-8 -31c-56 17 -105 25 -146 25
c-121 0 -182 -46 -182 -138c0 -44 13 -77 39 -99s68 -42 126 -60c29 -9 52 -17 69 -24s37 -16 59 -28s39 -25 51 -39s22 -31 30 -52s12 -45 12 -72c0 -33 -6 -62 -19 -86s-31 -43 -53 -56s-46 -23 -72 -29s-54 -9 -85 -9c-73 0 -140 12 -200 36z" />
    <glyph glyph-name="T" unicode="T" horiz-adv-x="549" 
d="M257 0v668h-227v32h489v-32h-227v-668h-35z" />
    <glyph glyph-name="U" unicode="U" horiz-adv-x="700" 
d="M105 265l2 435h35v-435c0 -84 17 -146 51 -185s87 -59 158 -59s124 20 158 59s51 101 51 185v435h35v-435c0 -97 -20 -167 -60 -211s-102 -66 -185 -66s-145 22 -185 66s-60 114 -60 211z" />
    <glyph glyph-name="V" unicode="V" horiz-adv-x="594" 
d="M316 0h-38c-55 122 -101 236 -139 341s-74 225 -109 359h36c58 -229 135 -450 231 -663c96 213 173 434 231 663h36c-35 -134 -71 -254 -109 -359s-84 -219 -139 -341z" />
    <glyph glyph-name="W" unicode="W" horiz-adv-x="952" 
d="M685 32h-2c88 218 153 441 196 668h36c-50 -243 -121 -476 -213 -700h-38c-45 107 -82 209 -110 307s-55 212 -80 342c-25 -130 -52 -244 -80 -342s-65 -200 -110 -307h-38c-49 118 -90 230 -122 335s-62 227 -91 365h36c48 -240 113 -463 196 -668
c83 213 146 436 189 668h42c43 -232 106 -455 189 -668z" />
    <glyph glyph-name="X" unicode="X" horiz-adv-x="577" 
d="M507 0l-225 337c-95 -125 -167 -237 -216 -337h-37c51 111 130 232 238 363l-223 337h41l207 -313c94 113 161 217 202 313h37c-43 -105 -117 -218 -222 -338l239 -362h-41z" />
    <glyph glyph-name="Y" unicode="Y" 
d="M264 0v304c-106 133 -187 265 -244 395h39c28 -65 59 -125 94 -181s78 -117 130 -184c95 121 169 243 222 366h38c-62 -137 -143 -269 -244 -395v-305h-35z" />
    <glyph glyph-name="Z" unicode="Z" horiz-adv-x="554" 
d="M495 673v1c-51 -113 -107 -217 -169 -312s-141 -205 -238 -330h421v-32h-464v27c197 258 335 472 414 641h-404v32h440v-27z" />
    <glyph glyph-name="bracketleft" unicode="[" horiz-adv-x="244" 
d="M80 -144v905h124v-32h-89v-841h89v-32h-124z" />
    <glyph glyph-name="backslash" unicode="\" horiz-adv-x="403" 
d="M328 -55l-288 810h35l288 -810h-35z" />
    <glyph glyph-name="bracketright" unicode="]" horiz-adv-x="244" 
d="M40 761h124v-905h-124v32h89v841h-89v32z" />
    <glyph glyph-name="asciicircum" unicode="^" horiz-adv-x="491" 
d="M396 357l-150 307l-151 -307h-37l170 343h35l170 -343h-37z" />
    <glyph glyph-name="underscore" unicode="_" horiz-adv-x="480" 
d="M20 -72v32h440v-32h-440z" />
    <glyph glyph-name="grave" unicode="`" horiz-adv-x="500" 
d="M252 570l-97 130h42l91 -130h-36z" />
    <glyph glyph-name="a" unicode="a" horiz-adv-x="519" 
d="M242 21h-1c61 0 110 12 147 36v175c-49 11 -95 17 -137 17c-104 0 -156 -39 -156 -118c0 -36 13 -63 39 -82s62 -28 108 -28zM423 37v-1c-52 -33 -113 -49 -183 -49c-58 0 -103 13 -134 39s-47 61 -47 104c0 53 18 91 53 115s81 36 138 37c43 0 89 -6 138 -17v75
c0 93 -49 139 -147 139c-49 0 -94 -9 -136 -27l-11 32c42 19 91 28 147 28c121 0 182 -57 182 -172v-303z" />
    <glyph glyph-name="b" unicode="b" horiz-adv-x="572" 
d="M507 262l-1 -1c0 -85 -21 -152 -63 -201s-101 -73 -176 -73c-68 0 -122 10 -163 31v701l35 3v-252c37 27 83 41 138 41c71 0 127 -21 168 -63s62 -104 62 -186zM139 41l-1 1c32 -14 75 -21 129 -21c65 0 115 21 150 63s52 101 52 177c0 71 -17 125 -52 162
s-82 55 -142 55c-26 0 -52 -4 -77 -13s-45 -20 -59 -33v-391z" />
    <glyph glyph-name="c" unicode="c" horiz-adv-x="490" 
d="M300 512h1c50 0 97 -10 140 -29l-10 -31c-45 18 -88 27 -130 27c-65 0 -114 -21 -148 -63s-51 -99 -51 -171c0 -73 18 -128 54 -166s89 -57 158 -57c41 0 82 10 123 31l10 -31c-41 -22 -86 -33 -135 -33c-80 0 -141 22 -184 66s-64 108 -64 191c0 81 21 146 62 194
s99 72 174 72z" />
    <glyph glyph-name="d" unicode="d" horiz-adv-x="571" 
d="M466 32c-41 -29 -95 -44 -161 -44c-73 0 -131 23 -175 68s-66 107 -66 186c0 84 22 150 66 198s107 72 190 72c39 0 76 -7 111 -22v230l35 3v-691zM102 242v2c0 -68 18 -122 55 -162s86 -60 147 -60c57 0 99 10 127 30v402c-35 17 -72 26 -111 26
c-71 0 -125 -21 -162 -63s-56 -100 -56 -175z" />
    <glyph glyph-name="e" unicode="e" horiz-adv-x="549" 
d="M475 56l10 -31c-50 -24 -105 -36 -166 -36c-79 0 -141 22 -186 67s-67 110 -67 196c0 77 20 140 59 188s93 72 162 72c64 0 113 -20 147 -61s51 -92 51 -153c0 -16 -1 -33 -3 -51h-381c1 -75 21 -131 59 -169s91 -57 158 -57c53 0 105 12 157 35zM288 480h-1
c-55 0 -98 -18 -130 -54s-50 -84 -55 -145h345c1 6 1 14 1 23c0 49 -13 91 -39 125s-66 51 -121 51z" />
    <glyph glyph-name="f" unicode="f" horiz-adv-x="314" 
d="M30 500h79v76c0 103 43 155 129 155c22 0 45 -4 70 -11l-9 -31c-25 6 -45 9 -60 9c-35 0 -59 -10 -73 -31s-21 -51 -21 -91v-76h147v-32h-147v-468h-35v468h-80v32z" />
    <glyph glyph-name="g" unicode="g" horiz-adv-x="562" 
d="M462 -20l-1 -2c0 -57 -17 -100 -50 -129s-80 -43 -141 -43c-54 0 -105 8 -153 25l9 33c50 -17 98 -25 144 -25c53 0 92 13 118 38s39 59 39 102v79c-35 -27 -82 -41 -140 -41c-68 0 -122 21 -162 63s-60 101 -60 178c0 79 21 141 63 186s100 68 173 68
c64 0 118 -13 161 -40v-492zM101 257h1c0 -65 17 -116 50 -153s79 -55 137 -55c55 0 101 14 138 43v359c-39 17 -81 26 -127 26c-61 0 -109 -19 -145 -58s-54 -93 -54 -162z" />
    <glyph glyph-name="h" unicode="h" horiz-adv-x="589" 
d="M140 0l-36 -1v720l35 3v-257c54 31 111 46 170 46s105 -15 137 -46s48 -73 48 -126v-340h-35v338c0 44 -12 79 -37 104s-62 38 -112 38c-62 0 -119 -16 -170 -47v-432z" />
    <glyph glyph-name="i" unicode="i" horiz-adv-x="245" 
d="M140 500v-500h-35v500h35zM123 625l-1 -1c-9 0 -16 3 -22 9s-9 14 -9 23s3 16 9 22s14 9 23 9s16 -3 21 -9s8 -13 8 -22s-3 -16 -8 -22s-12 -9 -21 -9z" />
    <glyph glyph-name="j" unicode="j" horiz-adv-x="245" 
d="M140 -39l-1 -1c0 -39 -7 -69 -22 -91s-39 -40 -72 -54l-13 30c27 13 46 28 57 44s16 40 16 72v539h35v-539zM152 656l-1 -1c0 -9 -3 -16 -8 -22s-12 -9 -21 -9s-16 3 -22 9s-9 14 -9 23s3 16 9 22s14 9 23 9s16 -3 21 -9s8 -13 8 -22z" />
    <glyph glyph-name="k" unicode="k" horiz-adv-x="519" 
d="M443 500h1c-15 -93 -67 -174 -156 -243l193 -257h-43l-176 238c-30 -22 -70 -47 -121 -76v-162h-35v720l35 3v-525c88 52 152 99 192 141s66 96 77 161h33z" />
    <glyph glyph-name="l" unicode="l" horiz-adv-x="276" 
d="M135 723v-602c0 -35 6 -61 17 -77s30 -24 57 -24c9 0 18 1 28 3l4 -30c-10 -3 -21 -5 -32 -5c-73 0 -109 44 -109 133v599z" />
    <glyph glyph-name="m" unicode="m" horiz-adv-x="900" 
d="M805 0l-34 1v338c0 41 -12 75 -36 101s-60 39 -109 39c-61 0 -118 -18 -172 -55c11 -24 16 -52 16 -84v-340h-35v338c0 42 -11 76 -33 102s-57 39 -106 39c-60 0 -113 -14 -160 -42v-437h-35v458c62 36 127 54 194 54c65 0 112 -19 142 -58c63 39 126 58 189 58
c61 0 106 -16 135 -47s44 -73 44 -125v-340z" />
    <glyph glyph-name="n" unicode="n" horiz-adv-x="584" 
d="M135 0l-35 1v458c65 36 133 54 204 54c63 0 110 -15 140 -46s45 -73 45 -126v-340h-35v338c0 43 -12 77 -37 102s-62 38 -112 38c-64 0 -121 -14 -170 -42v-437z" />
    <glyph glyph-name="o" unicode="o" 
d="M498 250l-1 -2c0 -79 -19 -142 -57 -190s-91 -72 -160 -72c-68 0 -121 24 -159 72s-57 112 -57 191s19 143 57 191s91 72 159 72c69 0 123 -24 161 -72s57 -111 57 -190zM101 248v-2c0 -71 15 -127 45 -168s75 -61 134 -61c61 0 106 21 136 62s45 97 45 168
s-15 127 -45 168s-75 62 -136 62c-59 0 -104 -20 -134 -61s-45 -97 -45 -168z" />
    <glyph glyph-name="p" unicode="p" horiz-adv-x="565" 
d="M500 265h1c0 -85 -19 -152 -57 -202s-97 -75 -177 -75c-49 0 -93 10 -132 31v-203h-35v647c58 33 118 49 179 49c73 0 128 -23 165 -68s56 -105 56 -179zM136 57l-1 2c44 -24 87 -36 130 -36c64 0 113 21 147 63s51 102 51 180c0 62 -15 113 -46 153s-77 60 -138 60
c-54 0 -102 -12 -143 -37v-385z" />
    <glyph glyph-name="q" unicode="q" horiz-adv-x="565" 
d="M465 -184l-34 -1v222c-35 -33 -84 -50 -147 -50c-67 0 -120 23 -160 69s-60 109 -60 188c0 84 22 150 65 197s102 71 176 71c65 0 118 -13 160 -39v-657zM103 244v1c0 -68 16 -122 49 -163s78 -61 135 -61c59 0 107 18 144 53v380c-37 17 -79 25 -125 25
c-62 0 -111 -20 -148 -61s-55 -99 -55 -174z" />
    <glyph glyph-name="r" unicode="r" horiz-adv-x="373" 
d="M105 457c59 37 129 55 210 55c10 0 23 -1 38 -3l-5 -33c-10 2 -21 3 -33 3c-69 0 -127 -14 -175 -43v-436h-35v457z" />
    <glyph glyph-name="s" unicode="s" horiz-adv-x="428" 
d="M348 489l-5 -34c-43 14 -84 21 -122 21c-85 0 -127 -33 -127 -100c0 -14 3 -27 8 -38s11 -20 17 -27s16 -14 30 -21s25 -12 32 -15s19 -7 36 -13c58 -19 100 -38 127 -58s40 -49 40 -87c0 -44 -16 -77 -48 -99s-74 -33 -125 -33c-29 0 -59 3 -91 9s-55 12 -69 19l9 33
c53 -19 103 -28 150 -28c43 0 76 9 100 26s36 42 36 74c0 29 -11 51 -34 67s-60 32 -111 48c-47 15 -83 33 -108 54s-38 51 -38 91c0 43 14 76 43 99s69 35 121 35c51 0 94 -8 129 -23z" />
    <glyph glyph-name="t" unicode="t" horiz-adv-x="328" 
d="M303 -1c-23 -7 -46 -11 -68 -11c-87 0 -130 47 -130 140v340h-80v32h80v123l35 4v-127h149v-32h-149v-340c0 -39 8 -67 24 -83s39 -24 70 -24c22 0 44 3 66 10z" />
    <glyph glyph-name="u" unicode="u" horiz-adv-x="574" 
d="M474 42v-1c-69 -36 -139 -54 -210 -54c-57 0 -100 14 -128 43s-42 69 -42 120v350h35v-348c0 -41 11 -73 33 -96s56 -35 102 -35c65 0 123 14 175 42v437h35v-458z" />
    <glyph glyph-name="v" unicode="v" horiz-adv-x="512" 
d="M80 500l-1 -2c25 -144 84 -299 176 -465c94 166 153 321 176 465h35c-15 -87 -38 -169 -69 -247s-72 -162 -123 -252h-37c-103 181 -167 348 -192 501h35z" />
    <glyph glyph-name="w" unicode="w" horiz-adv-x="782" 
d="M390 500h2c23 -147 75 -302 156 -465c43 87 77 167 102 239s43 148 54 227h35c-23 -151 -81 -318 -174 -501h-37c-63 125 -109 237 -138 337c-30 -107 -75 -219 -135 -336h-38c-45 90 -82 174 -110 252s-49 161 -62 248h35c23 -145 75 -300 156 -465
c66 132 112 255 137 368c-7 29 -13 61 -18 96h35z" />
    <glyph glyph-name="x" unicode="x" horiz-adv-x="477" 
d="M40 0l3 -1c17 51 38 96 63 134s62 82 110 132c-73 81 -128 159 -165 235h38c33 -66 83 -137 150 -213c79 78 128 149 147 213h36c-11 -40 -30 -78 -56 -115s-62 -77 -108 -121c69 -79 129 -167 180 -264h-39c-46 87 -101 168 -165 242c-42 -45 -75 -85 -100 -121
s-44 -76 -58 -121h-36z" />
    <glyph glyph-name="y" unicode="y" horiz-adv-x="504" 
d="M277 0h2c-55 -97 -127 -158 -216 -183l-10 32c40 11 75 29 105 53s58 58 84 101c-101 159 -166 325 -195 497h35c26 -150 86 -305 179 -465c89 162 147 317 173 465h35c-15 -87 -38 -169 -69 -247s-72 -162 -123 -253z" />
    <glyph glyph-name="z" unicode="z" horiz-adv-x="454" 
d="M55 500h356v-27c-79 -139 -189 -286 -329 -441h343v-32h-389v27c143 157 254 304 333 441h-314v32z" />
    <glyph glyph-name="braceleft" unicode="{" horiz-adv-x="283" 
d="M30 324l-2 -3c37 0 62 9 75 26s20 49 20 95c0 23 -2 57 -5 103s-5 81 -5 105c0 75 31 113 92 113c14 0 26 -1 36 -2v-30h-26c-25 0 -42 -6 -52 -18s-15 -33 -15 -64c0 -23 2 -57 5 -103s5 -80 5 -103c0 -39 -5 -69 -14 -91s-25 -37 -48 -46c23 -9 39 -24 48 -46
s14 -52 14 -91c0 -23 -2 -57 -5 -103s-5 -81 -5 -104c0 -31 5 -52 15 -64s28 -18 53 -18h26v-30c-10 -1 -22 -2 -36 -2c-61 0 -92 38 -92 113c0 23 2 58 5 105s5 82 5 105c0 46 -6 78 -19 95s-38 26 -75 26v32z" />
    <glyph glyph-name="bar" unicode="|" horiz-adv-x="253" 
d="M110 -214v965h33v-965h-33z" />
    <glyph glyph-name="braceright" unicode="}" horiz-adv-x="283" 
d="M158 444l-2 -3c0 -46 7 -77 20 -94s38 -25 75 -25v-32c-37 0 -62 -8 -75 -25s-19 -48 -19 -94c0 -23 2 -58 5 -105s5 -82 5 -105c0 -75 -31 -113 -92 -113c-14 0 -26 1 -36 2v30h26c25 0 43 6 53 18s15 33 15 64c0 23 -2 58 -5 104s-5 80 -5 103c0 39 5 69 14 91
s25 37 48 46c-23 9 -39 24 -48 46s-14 52 -14 91c0 23 2 58 5 104s5 81 5 104c0 31 -5 52 -15 64s-27 18 -52 18h-26v30c10 1 22 2 36 2c61 0 92 -38 92 -113c0 -24 -2 -59 -5 -105s-5 -80 -5 -103z" />
    <glyph glyph-name="asciitilde" unicode="~" horiz-adv-x="491" 
d="M339 330l1 -1c37 0 67 23 90 68l27 -13c-13 -27 -29 -48 -47 -64s-42 -24 -71 -24c-28 0 -60 10 -96 29s-65 29 -86 29c-45 0 -77 -23 -96 -68l-28 12c10 28 26 50 48 66s47 24 76 24c28 0 60 -10 96 -29s65 -29 86 -29z" />
    <glyph glyph-name="uni00A0" unicode="&#xa0;" horiz-adv-x="260" 
 />
    <glyph glyph-name="exclamdown" unicode="&#xa1;" horiz-adv-x="277" 
d="M120 -193v272c0 69 2 136 5 201h28c3 -65 5 -132 5 -202v-271h-38zM110 482c0 8 3 15 8 21s12 9 20 9c9 0 16 -3 21 -9s8 -13 8 -21s-3 -15 -8 -21s-12 -9 -21 -9c-8 0 -15 3 -20 9s-8 13 -8 21z" />
    <glyph glyph-name="cent" unicode="&#xa2;" horiz-adv-x="515" 
d="M65 250v-1c0 78 19 141 57 188s93 72 164 75v111h35v-111c47 -3 89 -11 125 -24l-9 -31c-46 15 -92 23 -137 23c-65 0 -114 -20 -148 -61s-51 -97 -51 -169c0 -73 18 -129 53 -169s85 -60 150 -60c53 0 100 8 141 25l9 -31c-36 -15 -80 -24 -133 -26v-113h-35v113
c-70 4 -124 29 -163 75s-58 108 -58 186z" />
    <glyph glyph-name="sterling" unicode="&#xa3;" horiz-adv-x="551" 
d="M521 0h-383v338h-102v32h102v126c0 57 15 102 45 136s77 51 142 51c52 0 107 -11 165 -34l-10 -29c-61 21 -113 31 -156 31c-101 0 -151 -52 -151 -155v-126h175v-32h-175v-306h348v-32z" />
    <glyph glyph-name="currency" unicode="&#xa4;" horiz-adv-x="560" 
d="M117 352v-1c0 -48 15 -87 45 -117s69 -45 118 -45s88 15 117 45s44 69 44 118s-15 88 -44 118s-68 45 -117 45s-88 -15 -118 -45s-45 -69 -45 -118zM476 133l-69 68c-34 -29 -76 -43 -127 -43c-50 0 -93 14 -128 42l-68 -67l-24 25l68 67c-29 34 -43 76 -43 126
s14 92 43 126l-68 67l24 25l68 -68c35 28 78 42 128 42c51 0 93 -14 127 -42l69 68l24 -25l-68 -67c28 -35 42 -77 42 -126c0 -50 -14 -92 -42 -126l68 -67z" />
    <glyph glyph-name="yen" unicode="&#xa5;" horiz-adv-x="613" 
d="M70 195v33h219v78l-37 47h-182v32h158c-73 100 -134 205 -183 316h39c51 -117 125 -238 222 -364c98 125 172 246 223 363h39c-49 -111 -110 -216 -183 -316h156v-32h-180l-37 -47v-78h217v-32h-217v-195h-35v195h-219z" />
    <glyph glyph-name="brokenbar" unicode="&#xa6;" horiz-adv-x="253" 
d="M110 340v409h33v-409h-33zM110 -214v413h33v-413h-33z" />
    <glyph glyph-name="section" unicode="&#xa7;" horiz-adv-x="587" 
d="M269 160l-2 2c69 -25 114 -44 136 -57c23 15 42 34 58 57s24 48 24 75c0 43 -22 77 -67 102c-20 12 -65 31 -135 56c-41 15 -74 31 -99 48c-55 -35 -83 -79 -83 -133c0 -39 13 -68 39 -88s69 -41 129 -62zM264 -168l-2 -5c-64 0 -120 10 -167 31l9 32
c49 -20 102 -30 159 -30c112 0 168 41 168 122c0 37 -12 64 -36 81s-65 36 -124 57c-9 3 -16 5 -21 7c-66 23 -114 48 -144 74s-45 62 -45 108c0 34 9 64 27 91s40 48 66 63c-29 28 -43 63 -43 104c0 48 18 84 53 108s79 36 131 36c50 0 101 -8 154 -24l-9 -31
c-53 15 -101 22 -145 22c-45 0 -81 -9 -108 -28s-40 -46 -40 -82c0 -34 13 -62 39 -84s63 -41 111 -58c29 -10 50 -17 62 -22s29 -12 51 -21s38 -18 48 -26s21 -18 33 -30s20 -25 24 -40s6 -31 6 -49c0 -32 -8 -62 -25 -90s-39 -49 -66 -64c26 -24 39 -56 39 -97
c0 -54 -20 -93 -60 -118s-88 -37 -145 -37z" />
    <glyph glyph-name="dieresis" unicode="&#xa8;" horiz-adv-x="500" 
d="M204 635c0 -9 -3 -17 -8 -23s-12 -9 -21 -9c-10 0 -18 3 -23 9s-8 14 -8 23s3 16 8 22s13 9 23 9c9 0 16 -3 21 -9s8 -13 8 -22zM354 635l-1 -1c0 -9 -2 -16 -7 -22s-12 -9 -21 -9c-21 0 -32 11 -32 32c0 9 3 16 8 22s13 9 24 9c9 0 16 -3 21 -9s8 -13 8 -22z" />
    <glyph glyph-name="copyright" unicode="&#xa9;" horiz-adv-x="825" 
d="M420 548l-1 2c35 0 71 -7 107 -20l-9 -29c-31 11 -63 16 -95 16c-43 0 -79 -13 -108 -39s-43 -68 -43 -126s14 -100 42 -126s63 -39 105 -39c35 0 68 6 99 17l9 -30c-36 -13 -72 -20 -107 -20c-51 0 -94 16 -130 48s-54 82 -54 149s18 117 54 149s80 48 131 48zM85 352
v-2c0 -99 30 -178 89 -238s138 -90 237 -90s178 30 237 90s89 140 89 239s-30 179 -89 239s-138 90 -237 90s-178 -30 -237 -90s-89 -139 -89 -238zM774 350v-2c0 -107 -33 -194 -100 -261s-154 -100 -262 -100c-109 0 -197 34 -264 101s-100 154 -100 261s33 194 100 261
s155 101 264 101c108 0 195 -33 262 -100s100 -154 100 -261z" />
    <glyph glyph-name="ordfeminine" unicode="&#xaa;" horiz-adv-x="347" 
d="M73 634l-10 32c37 13 71 19 102 19c87 0 130 -39 130 -117v-194h-2c-41 -27 -86 -41 -135 -41c-39 0 -69 9 -89 27s-30 43 -30 74c0 32 12 56 36 72s54 24 91 24c33 0 65 -3 97 -10v46c0 30 -8 52 -24 65s-40 20 -72 20s-63 -6 -94 -17zM158 365h-1c43 0 77 9 102 26v100
c-31 6 -63 9 -96 9c-61 0 -91 -22 -91 -65c0 -47 29 -70 86 -70z" />
    <glyph glyph-name="guillemotleft" unicode="&#xab;" horiz-adv-x="537" 
d="M222 64h-1c-57 49 -123 116 -197 200c67 76 133 143 198 200h46c-75 -69 -141 -136 -197 -200c56 -64 122 -131 197 -200h-46zM445 64h-1c-57 49 -123 116 -197 200c67 76 133 143 198 200h46c-75 -69 -141 -136 -197 -200c56 -64 122 -131 197 -200h-46z" />
    <glyph glyph-name="logicalnot" unicode="&#xac;" horiz-adv-x="491" 
d="M35 327v32h421v-222h-35v190h-386z" />
    <glyph glyph-name="uni00AD" unicode="&#xad;" horiz-adv-x="306" 
 />
    <glyph glyph-name="registered" unicode="&#xae;" horiz-adv-x="570" 
d="M485 473c0 65 -18 116 -54 153s-85 55 -147 55s-111 -18 -146 -55s-53 -88 -53 -153s18 -116 53 -152s84 -54 146 -54s111 18 147 54s54 87 54 152zM51 473l-1 -2c0 71 22 129 65 173s99 66 168 66s126 -22 170 -66s66 -101 66 -172s-22 -128 -66 -172s-100 -66 -169 -66
c-70 0 -126 22 -169 66s-64 102 -64 173zM206 355v242h71c63 0 95 -25 95 -74c0 -35 -17 -58 -50 -69c13 -27 35 -60 66 -99h-41c-24 31 -44 62 -59 93h-11h-39v-93h-32zM277 570h-39v-94h39c41 0 62 16 62 47s-21 47 -62 47z" />
    <glyph glyph-name="macron" unicode="&#xaf;" horiz-adv-x="500" 
d="M124 609v32h246v-32h-246z" />
    <glyph glyph-name="degree" unicode="&#xb0;" horiz-adv-x="328" 
d="M30 577h-2c0 41 13 74 38 99s58 37 98 37s72 -12 96 -37s36 -58 36 -99s-12 -74 -36 -99s-56 -37 -96 -37s-72 12 -97 37s-37 58 -37 99zM163 680c-30 0 -54 -9 -73 -27s-28 -43 -28 -75s9 -57 28 -75s43 -27 73 -27s54 9 72 27s27 43 27 75s-9 57 -27 75s-42 27 -72 27z
" />
    <glyph glyph-name="plusminus" unicode="&#xb1;" horiz-adv-x="491" 
d="M35 35v32h421v-32h-421zM35 337v32h193v184h35v-184h193v-32h-193v-190h-35v190h-193z" />
    <glyph glyph-name="twosuperior" unicode="&#xb2;" horiz-adv-x="310" 
d="M46 367l1 33l33 27c54 44 91 79 112 104s31 52 31 81c0 23 -7 41 -21 53s-33 18 -57 18c-28 0 -56 -11 -85 -32l-16 26c11 8 20 14 26 18s16 8 30 12s29 6 45 6c34 0 61 -9 81 -27s30 -43 30 -76c0 -31 -11 -61 -34 -90s-63 -67 -120 -114l-11 -9h186v-30h-231z" />
    <glyph glyph-name="threesuperior" unicode="&#xb3;" horiz-adv-x="310" 
d="M51 381l13 31c31 -13 61 -20 89 -20c55 0 83 23 83 68s-26 68 -78 68h-48v30h35c25 0 44 5 57 15s19 27 19 51c0 38 -25 57 -74 57c-23 0 -46 -7 -69 -21l-18 27c27 17 56 26 87 26c33 0 59 -8 78 -24s29 -38 29 -66c0 -41 -20 -67 -59 -79c49 -9 74 -37 74 -85
c0 -67 -39 -100 -117 -100c-38 0 -72 7 -101 22z" />
    <glyph glyph-name="acute" unicode="&#xb4;" horiz-adv-x="500" 
d="M261 700h42l-97 -130h-36z" />
    <glyph glyph-name="uni00B5" unicode="&#xb5;" horiz-adv-x="584" 
d="M140 -184h-37v684h35v-358c0 -39 11 -69 32 -90s53 -32 95 -32c64 0 123 22 177 66v414h35v-500h-35v52c-49 -43 -108 -64 -177 -64c-57 0 -100 17 -129 52l4 -157v-67z" />
    <glyph glyph-name="paragraph" unicode="&#xb6;" horiz-adv-x="595" 
d="M275 700l210 1v-700h-35v670h-140v-670h-35v281c-61 0 -112 18 -153 53s-62 87 -62 156s21 121 62 156s92 53 153 53z" />
    <glyph glyph-name="periodcentered" unicode="&#xb7;" horiz-adv-x="500" 
d="M54 351c0 8 3 15 8 21s12 9 21 9c8 0 15 -3 20 -9s8 -13 8 -21s-3 -15 -8 -21s-12 -9 -20 -9c-9 0 -16 3 -21 9s-8 13 -8 21z" />
    <glyph glyph-name="cedilla" unicode="&#xb8;" horiz-adv-x="500" 
d="M159 -202l6 27c17 -4 33 -6 48 -6c48 0 72 16 72 47c0 17 -7 29 -21 36s-34 11 -61 12l-9 22l22 64h32l-20 -59c61 -3 91 -28 91 -74c0 -25 -10 -44 -29 -57s-45 -19 -77 -19c-19 0 -37 2 -54 7z" />
    <glyph glyph-name="onesuperior" unicode="&#xb9;" horiz-adv-x="310" 
d="M87 621l-13 26c26 18 60 37 103 57h28v-337h-33v302c-33 -17 -61 -33 -85 -48z" />
    <glyph glyph-name="ordmasculine" unicode="&#xba;" horiz-adv-x="376" 
d="M336 506v-1c0 -49 -12 -90 -36 -124s-61 -51 -112 -51s-88 17 -112 51s-36 76 -36 125s12 91 36 125s61 51 112 51s88 -17 112 -51s36 -76 36 -125zM75 505h-2c0 -45 10 -80 29 -106s47 -39 84 -39s65 13 84 39s29 61 29 106s-9 80 -28 106s-47 39 -84 39
s-65 -13 -84 -39s-28 -61 -28 -106z" />
    <glyph glyph-name="guillemotright" unicode="&#xbb;" horiz-adv-x="537" 
d="M315 64h-47c75 69 141 136 197 200c-56 64 -122 131 -197 200h46c65 -57 131 -124 198 -200c-74 -84 -140 -151 -197 -200zM90 64h-47c75 69 141 136 197 200c-56 64 -122 131 -197 200h46c65 -57 131 -124 198 -200c-74 -84 -140 -151 -197 -200z" />
    <glyph glyph-name="onequarter" unicode="&#xbc;" horiz-adv-x="784" 
d="M87 621l-13 26c26 18 60 37 103 57h28v-337h-33v302c-33 -17 -61 -33 -85 -48zM571 700h37l-387 -700h-37zM464 68l1 27c49 86 108 167 177 242h33v-239h55v-30h-55v-68h-33v68h-178zM643 196h-1c0 36 1 72 3 108c-61 -77 -110 -146 -147 -206h145v98z" />
    <glyph glyph-name="onehalf" unicode="&#xbd;" horiz-adv-x="784" 
d="M87 621l-13 26c26 18 60 37 103 57h28v-337h-33v302c-33 -17 -61 -33 -85 -48zM539 700h37l-387 -700h-37zM490 0l1 33l33 27c54 44 91 79 112 104s31 52 31 81c0 23 -7 41 -21 53s-33 18 -57 18c-28 0 -56 -11 -85 -32l-16 26c11 8 20 14 26 18s16 8 30 12s29 6 45 6
c34 0 61 -9 81 -27s30 -43 30 -76c0 -31 -11 -61 -34 -90s-63 -67 -120 -114l-11 -9h186v-30h-231z" />
    <glyph glyph-name="threequarters" unicode="&#xbe;" horiz-adv-x="784" 
d="M51 381l13 31c31 -13 61 -20 89 -20c55 0 83 23 83 68s-26 68 -78 68h-48v30h35c25 0 44 5 57 15s19 27 19 51c0 38 -25 57 -74 57c-23 0 -46 -7 -69 -21l-18 27c27 17 56 26 87 26c33 0 59 -8 78 -24s29 -38 29 -66c0 -41 -20 -67 -59 -79c49 -9 74 -37 74 -85
c0 -67 -39 -100 -117 -100c-38 0 -72 7 -101 22zM589 701h37l-387 -700h-37zM465 69l1 27c49 86 108 167 177 242h33v-239h55v-30h-55v-68h-33v68h-178zM644 197h-1c0 36 1 72 3 108c-61 -77 -110 -146 -147 -206h145v98z" />
    <glyph glyph-name="questiondown" unicode="&#xbf;" horiz-adv-x="432" 
d="M244 453c-8 0 -15 3 -20 9s-8 13 -8 21s3 15 8 21s12 9 20 9c9 0 16 -3 21 -9s8 -13 8 -21s-3 -15 -8 -21s-12 -9 -21 -9zM402 -173l2 -2c-49 -21 -99 -32 -150 -32c-56 0 -102 14 -138 42s-54 67 -54 116c0 25 5 49 14 71s19 39 29 50s24 25 42 42c19 18 33 32 41 41
s17 23 26 42s14 39 14 60v21h33v-21c0 -25 -5 -48 -15 -69s-19 -37 -28 -47s-23 -24 -42 -42c-17 -16 -30 -29 -39 -39s-18 -25 -27 -44s-13 -40 -13 -63c0 -39 14 -70 41 -92s65 -33 114 -33c45 0 92 10 141 30z" />
    <glyph glyph-name="Agrave" unicode="&#xc0;" horiz-adv-x="632" 
d="M316 667h2c-57 -127 -111 -261 -162 -402h322c-51 141 -105 275 -162 402zM568 0h3c-25 81 -51 159 -78 234h-346c-27 -75 -53 -153 -78 -234h-36c88 271 177 504 268 699h36c97 -209 186 -442 267 -699h-36zM306 770l-97 130h42l91 -130h-36z" />
    <glyph glyph-name="Aacute" unicode="&#xc1;" horiz-adv-x="632" 
d="M316 667h2c-57 -127 -111 -261 -162 -402h322c-51 141 -105 275 -162 402zM568 0h3c-25 81 -51 159 -78 234h-346c-27 -75 -53 -153 -78 -234h-36c88 271 177 504 268 699h36c97 -209 186 -442 267 -699h-36zM397 900h42l-97 -130h-36z" />
    <glyph glyph-name="Acircumflex" unicode="&#xc2;" horiz-adv-x="632" 
d="M316 667h2c-57 -127 -111 -261 -162 -402h322c-51 141 -105 275 -162 402zM568 0h3c-25 81 -51 159 -78 234h-346c-27 -75 -53 -153 -78 -234h-36c88 271 177 504 268 699h36c97 -209 186 -442 267 -699h-36zM412 770l-91 108l-91 -108h-39l106 130h48l106 -130h-39z" />
    <glyph glyph-name="Atilde" unicode="&#xc3;" horiz-adv-x="632" 
d="M316 667h2c-57 -127 -111 -261 -162 -402h322c-51 141 -105 275 -162 402zM568 0h3c-25 81 -51 159 -78 234h-346c-27 -75 -53 -153 -78 -234h-36c88 271 177 504 268 699h36c97 -209 186 -442 267 -699h-36zM392 816l-1 1c11 0 19 3 25 9s10 13 12 21s3 20 4 36h32
c-1 -14 -2 -26 -4 -36s-5 -20 -10 -30s-12 -18 -22 -24s-22 -9 -36 -9c-21 0 -45 10 -73 30s-50 30 -65 30c-16 0 -27 -5 -33 -15s-10 -24 -11 -43h-32c2 60 27 90 75 90c21 0 46 -10 76 -30s51 -30 63 -30z" />
    <glyph glyph-name="Adieresis" unicode="&#xc4;" horiz-adv-x="632" 
d="M316 667h2c-57 -127 -111 -261 -162 -402h322c-51 141 -105 275 -162 402zM568 0h3c-25 81 -51 159 -78 234h-346c-27 -75 -53 -153 -78 -234h-36c88 271 177 504 268 699h36c97 -209 186 -442 267 -699h-36zM276 835c0 -9 -3 -17 -8 -23s-12 -9 -21 -9
c-10 0 -18 3 -23 9s-8 14 -8 23s3 16 8 22s13 9 23 9c9 0 16 -3 21 -9s8 -13 8 -22zM426 835l-1 -1c0 -9 -2 -16 -7 -22s-12 -9 -21 -9c-21 0 -32 11 -32 32c0 9 3 16 8 22s13 9 24 9c9 0 16 -3 21 -9s8 -13 8 -22z" />
    <glyph glyph-name="Aring" unicode="&#xc5;" horiz-adv-x="632" 
d="M566 0h3c-25 81 -51 159 -78 234h-346c-27 -75 -53 -153 -78 -234h-36c88 271 177 504 268 699c-22 3 -40 13 -54 29s-21 36 -21 60c0 26 9 48 27 65s40 26 66 26s48 -9 66 -26s27 -39 27 -65c0 -24 -7 -44 -21 -60s-32 -26 -54 -29c97 -209 186 -442 267 -699h-36z
M319 852c-19 0 -34 -6 -45 -18s-16 -27 -16 -45c0 -17 5 -32 16 -45s26 -19 45 -19s34 6 45 19s16 28 16 45c0 18 -5 33 -16 45s-26 18 -45 18zM319 667h2c-57 -127 -111 -261 -162 -402h322c-51 141 -105 275 -162 402z" />
    <glyph glyph-name="AE" unicode="&#xc6;" horiz-adv-x="878" 
d="M818 32l1 -32h-373v233h-261c-55 -97 -97 -175 -127 -233h-37c123 238 261 471 414 700h383v-32h-338v-290h288v-32h-288v-314h338zM446 265v398c-84 -129 -165 -262 -242 -398h242z" />
    <glyph glyph-name="Ccedilla" unicode="&#xc7;" horiz-adv-x="602" 
d="M380 -12l-9 -3l-16 -47c61 -3 91 -28 91 -74c0 -25 -10 -44 -29 -57s-45 -19 -77 -19c-19 0 -37 2 -54 7l6 28c17 -4 33 -6 48 -6c48 0 72 16 72 47c0 17 -7 29 -21 36s-34 11 -61 12l-9 22l19 54c-86 9 -152 45 -198 107s-69 143 -69 243c0 110 25 200 76 269
s126 104 225 104c57 0 114 -11 171 -34l-10 -32c-59 22 -113 33 -161 33c-61 0 -112 -16 -153 -48s-70 -73 -87 -122s-25 -105 -25 -168c0 -97 23 -174 69 -232s114 -87 203 -87c52 0 105 12 159 35l8 -31c-51 -25 -107 -37 -168 -37z" />
    <glyph glyph-name="Egrave" unicode="&#xc8;" 
d="M503 32v-32h-393v700h393v-32h-358v-290h308v-32h-308v-314h358zM294 770l-97 130h42l91 -130h-36z" />
    <glyph glyph-name="Eacute" unicode="&#xc9;" 
d="M503 32v-32h-393v700h393v-32h-358v-290h308v-32h-308v-314h358zM385 900h42l-97 -130h-36z" />
    <glyph glyph-name="Ecircumflex" unicode="&#xca;" 
d="M503 32v-32h-393v700h393v-32h-358v-290h308v-32h-308v-314h358zM400 770l-91 108l-91 -108h-39l106 130h48l106 -130h-39z" />
    <glyph glyph-name="Edieresis" unicode="&#xcb;" 
d="M503 32v-32h-393v700h393v-32h-358v-290h308v-32h-308v-314h358zM264 835c0 -9 -3 -17 -8 -23s-12 -9 -21 -9c-10 0 -18 3 -23 9s-8 14 -8 23s3 16 8 22s13 9 23 9c9 0 16 -3 21 -9s8 -13 8 -22zM414 835l-1 -1c0 -9 -2 -16 -7 -22s-12 -9 -21 -9c-21 0 -32 11 -32 32
c0 9 3 16 8 22s13 9 24 9c9 0 16 -3 21 -9s8 -13 8 -22z" />
    <glyph glyph-name="Igrave" unicode="&#xcc;" horiz-adv-x="255" 
d="M110 0v700h35v-700h-35zM113 770l-97 130h42l91 -130h-36z" />
    <glyph glyph-name="Iacute" unicode="&#xcd;" horiz-adv-x="255" 
d="M110 0v700h35v-700h-35zM204 900h42l-97 -130h-36z" />
    <glyph glyph-name="Icircumflex" unicode="&#xce;" horiz-adv-x="255" 
d="M110 0v700h35v-700h-35zM219 770l-91 108l-91 -108h-39l106 130h48l106 -130h-39z" />
    <glyph glyph-name="Idieresis" unicode="&#xcf;" horiz-adv-x="255" 
d="M110 0v700h35v-700h-35zM83 835c0 -9 -3 -17 -8 -23s-12 -9 -21 -9c-10 0 -18 3 -23 9s-8 14 -8 23s3 16 8 22s13 9 23 9c9 0 16 -3 21 -9s8 -13 8 -22zM233 835l-1 -1c0 -9 -2 -16 -7 -22s-12 -9 -21 -9c-21 0 -32 11 -32 32c0 9 3 16 8 22s13 9 24 9c9 0 16 -3 21 -9
s8 -13 8 -22z" />
    <glyph glyph-name="Eth" unicode="&#xd0;" horiz-adv-x="685" 
d="M588 350l2 -2c0 95 -25 172 -75 231s-125 88 -226 88h-143v-291h155v-32h-155v-313h143c99 0 174 30 224 89s75 136 75 230zM112 -2l-1 345h-80v32h80v323h178c109 0 192 -32 250 -95s87 -148 87 -255s-29 -192 -87 -255s-141 -95 -249 -95h-178z" />
    <glyph glyph-name="Ntilde" unicode="&#xd1;" horiz-adv-x="720" 
d="M145 0l-36 -1v700h34c64 -110 129 -214 195 -312s146 -210 239 -337c-2 25 -3 58 -3 98v552h35v-700h-34c-103 138 -188 255 -254 352s-126 194 -179 292c2 -62 3 -98 3 -108v-536zM430 815l-1 1c11 0 19 3 25 9s10 13 12 21s3 20 4 36h32c-1 -14 -2 -26 -4 -36
s-5 -20 -10 -30s-12 -18 -22 -24s-22 -9 -36 -9c-21 0 -45 10 -73 30s-50 30 -65 30c-16 0 -27 -5 -33 -15s-10 -24 -11 -43h-32c2 60 27 90 75 90c21 0 46 -10 76 -30s51 -30 63 -30z" />
    <glyph glyph-name="Ograve" unicode="&#xd2;" horiz-adv-x="706" 
d="M636 350l-4 -2c0 -69 -9 -130 -28 -183s-50 -96 -93 -129s-97 -50 -161 -50s-118 17 -161 50s-74 76 -93 129s-28 114 -28 183c0 51 6 98 17 141s28 81 50 115s52 60 89 79s80 29 129 29c64 0 118 -17 161 -50s74 -76 93 -129s29 -114 29 -183zM103 348l-3 -1
c0 -96 20 -175 61 -237s103 -93 186 -93c43 0 81 9 113 27s58 42 77 73s33 66 42 105s14 81 14 126s-5 87 -14 126s-23 74 -42 105s-45 55 -77 73s-69 27 -112 27s-81 -9 -113 -27s-57 -42 -76 -73s-33 -66 -42 -105s-14 -81 -14 -126zM331 767l-97 130h42l91 -130h-36z" />
    <glyph glyph-name="Oacute" unicode="&#xd3;" horiz-adv-x="706" 
d="M636 350l-4 -2c0 -69 -9 -130 -28 -183s-50 -96 -93 -129s-97 -50 -161 -50s-118 17 -161 50s-74 76 -93 129s-28 114 -28 183c0 51 6 98 17 141s28 81 50 115s52 60 89 79s80 29 129 29c64 0 118 -17 161 -50s74 -76 93 -129s29 -114 29 -183zM103 348l-3 -1
c0 -96 20 -175 61 -237s103 -93 186 -93c43 0 81 9 113 27s58 42 77 73s33 66 42 105s14 81 14 126s-5 87 -14 126s-23 74 -42 105s-45 55 -77 73s-69 27 -112 27s-81 -9 -113 -27s-57 -42 -76 -73s-33 -66 -42 -105s-14 -81 -14 -126zM422 897h42l-97 -130h-36z" />
    <glyph glyph-name="Ocircumflex" unicode="&#xd4;" horiz-adv-x="706" 
d="M636 350l-4 -2c0 -69 -9 -130 -28 -183s-50 -96 -93 -129s-97 -50 -161 -50s-118 17 -161 50s-74 76 -93 129s-28 114 -28 183c0 51 6 98 17 141s28 81 50 115s52 60 89 79s80 29 129 29c64 0 118 -17 161 -50s74 -76 93 -129s29 -114 29 -183zM103 348l-3 -1
c0 -96 20 -175 61 -237s103 -93 186 -93c43 0 81 9 113 27s58 42 77 73s33 66 42 105s14 81 14 126s-5 87 -14 126s-23 74 -42 105s-45 55 -77 73s-69 27 -112 27s-81 -9 -113 -27s-57 -42 -76 -73s-33 -66 -42 -105s-14 -81 -14 -126zM437 767l-91 108l-91 -108h-39
l106 130h48l106 -130h-39z" />
    <glyph glyph-name="Otilde" unicode="&#xd5;" horiz-adv-x="706" 
d="M636 350l-4 -2c0 -69 -9 -130 -28 -183s-50 -96 -93 -129s-97 -50 -161 -50s-118 17 -161 50s-74 76 -93 129s-28 114 -28 183c0 51 6 98 17 141s28 81 50 115s52 60 89 79s80 29 129 29c64 0 118 -17 161 -50s74 -76 93 -129s29 -114 29 -183zM103 348l-3 -1
c0 -96 20 -175 61 -237s103 -93 186 -93c43 0 81 9 113 27s58 42 77 73s33 66 42 105s14 81 14 126s-5 87 -14 126s-23 74 -42 105s-45 55 -77 73s-69 27 -112 27s-81 -9 -113 -27s-57 -42 -76 -73s-33 -66 -42 -105s-14 -81 -14 -126zM417 813l-1 1c11 0 19 3 25 9
s10 13 12 21s3 20 4 36h32c-1 -14 -2 -26 -4 -36s-5 -20 -10 -30s-12 -18 -22 -24s-22 -9 -36 -9c-21 0 -45 10 -73 30s-50 30 -65 30c-16 0 -27 -5 -33 -15s-10 -24 -11 -43h-32c2 60 27 90 75 90c21 0 46 -10 76 -30s51 -30 63 -30z" />
    <glyph glyph-name="Odieresis" unicode="&#xd6;" horiz-adv-x="706" 
d="M636 350l-4 -2c0 -69 -9 -130 -28 -183s-50 -96 -93 -129s-97 -50 -161 -50s-118 17 -161 50s-74 76 -93 129s-28 114 -28 183c0 51 6 98 17 141s28 81 50 115s52 60 89 79s80 29 129 29c64 0 118 -17 161 -50s74 -76 93 -129s29 -114 29 -183zM103 348l-3 -1
c0 -96 20 -175 61 -237s103 -93 186 -93c43 0 81 9 113 27s58 42 77 73s33 66 42 105s14 81 14 126s-5 87 -14 126s-23 74 -42 105s-45 55 -77 73s-69 27 -112 27s-81 -9 -113 -27s-57 -42 -76 -73s-33 -66 -42 -105s-14 -81 -14 -126zM301 832c0 -9 -3 -17 -8 -23
s-12 -9 -21 -9c-10 0 -18 3 -23 9s-8 14 -8 23s3 16 8 22s13 9 23 9c9 0 16 -3 21 -9s8 -13 8 -22zM451 832l-1 -1c0 -9 -2 -16 -7 -22s-12 -9 -21 -9c-21 0 -32 11 -32 32c0 9 3 16 8 22s13 9 24 9c9 0 16 -3 21 -9s8 -13 8 -22z" />
    <glyph glyph-name="multiply" unicode="&#xd7;" horiz-adv-x="491" 
d="M404 162l-158 159l-159 -159l-23 22l159 159l-159 159l23 22l159 -158l158 158l23 -22l-159 -159l159 -159z" />
    <glyph glyph-name="Oslash" unicode="&#xd8;" horiz-adv-x="688" 
d="M594 700l35 -2l-67 -90c47 -64 71 -151 71 -260c0 -69 -9 -130 -28 -183s-50 -96 -93 -129s-97 -50 -161 -50c-80 0 -144 26 -192 77l-49 -65h-38l67 90c-47 64 -71 151 -71 260c0 51 6 98 17 141s28 81 50 115s52 60 89 79s80 29 129 29c80 0 144 -26 192 -77zM104 348
l-1 3c0 -95 19 -172 56 -231l361 485c-43 49 -100 74 -171 74c-43 0 -81 -9 -113 -27s-57 -42 -76 -73s-33 -66 -42 -105s-14 -81 -14 -126zM349 22v-2c43 0 81 9 113 27s58 42 77 73s33 66 42 105s14 81 14 126c0 96 -19 173 -56 230l-361 -485c43 -49 100 -74 171 -74z
" />
    <glyph glyph-name="Ugrave" unicode="&#xd9;" horiz-adv-x="700" 
d="M105 265l2 435h35v-435c0 -84 17 -146 51 -185s87 -59 158 -59s124 20 158 59s51 101 51 185v435h35v-435c0 -97 -20 -167 -60 -211s-102 -66 -185 -66s-145 22 -185 66s-60 114 -60 211zM337 770l-97 130h42l91 -130h-36z" />
    <glyph glyph-name="Uacute" unicode="&#xda;" horiz-adv-x="700" 
d="M105 265l2 435h35v-435c0 -84 17 -146 51 -185s87 -59 158 -59s124 20 158 59s51 101 51 185v435h35v-435c0 -97 -20 -167 -60 -211s-102 -66 -185 -66s-145 22 -185 66s-60 114 -60 211zM428 900h42l-97 -130h-36z" />
    <glyph glyph-name="Ucircumflex" unicode="&#xdb;" horiz-adv-x="700" 
d="M105 265l2 435h35v-435c0 -84 17 -146 51 -185s87 -59 158 -59s124 20 158 59s51 101 51 185v435h35v-435c0 -97 -20 -167 -60 -211s-102 -66 -185 -66s-145 22 -185 66s-60 114 -60 211zM443 770l-91 108l-91 -108h-39l106 130h48l106 -130h-39z" />
    <glyph glyph-name="Udieresis" unicode="&#xdc;" horiz-adv-x="700" 
d="M105 265l2 435h35v-435c0 -84 17 -146 51 -185s87 -59 158 -59s124 20 158 59s51 101 51 185v435h35v-435c0 -97 -20 -167 -60 -211s-102 -66 -185 -66s-145 22 -185 66s-60 114 -60 211zM307 835c0 -9 -3 -17 -8 -23s-12 -9 -21 -9c-10 0 -18 3 -23 9s-8 14 -8 23
s3 16 8 22s13 9 23 9c9 0 16 -3 21 -9s8 -13 8 -22zM457 835l-1 -1c0 -9 -2 -16 -7 -22s-12 -9 -21 -9c-21 0 -32 11 -32 32c0 9 3 16 8 22s13 9 24 9c9 0 16 -3 21 -9s8 -13 8 -22z" />
    <glyph glyph-name="Yacute" unicode="&#xdd;" 
d="M264 0v304c-106 133 -187 265 -244 395h39c28 -65 59 -125 94 -181s78 -117 130 -184c95 121 169 243 222 366h38c-62 -137 -143 -269 -244 -395v-305h-35zM358 899h42l-97 -130h-36z" />
    <glyph glyph-name="Thorn" unicode="&#xde;" horiz-adv-x="589" 
d="M110 0v700h35v-130h112c185 0 277 -72 277 -215s-92 -215 -277 -215h-112v-140h-35zM498 355l-1 -2c0 67 -21 114 -63 142s-101 42 -178 42h-112v-366h112c77 0 137 14 179 42s63 75 63 142z" />
    <glyph glyph-name="germandbls" unicode="&#xdf;" horiz-adv-x="592" 
d="M105 524l-3 2c0 66 16 117 48 153s75 54 129 54c53 0 93 -13 120 -39s41 -61 41 -106c0 -25 -6 -50 -18 -74s-24 -46 -36 -66s-18 -38 -18 -53c0 -14 6 -28 18 -41s26 -26 43 -38s34 -25 50 -39s30 -32 42 -54s18 -46 18 -73c0 -51 -18 -90 -54 -118s-82 -42 -139 -42
c-27 0 -62 4 -105 12l5 33c34 -8 68 -12 101 -12c49 0 87 11 114 32s41 53 41 95c0 25 -6 47 -17 66s-25 35 -41 47l-48 36s-30 26 -41 41s-17 32 -17 51c0 23 12 54 35 93s35 73 35 102c0 75 -41 112 -124 112c-96 0 -144 -58 -144 -174v-524h-35v524z" />
    <glyph glyph-name="agrave" unicode="&#xe0;" horiz-adv-x="519" 
d="M242 21h-1c61 0 110 12 147 36v175c-49 11 -95 17 -137 17c-104 0 -156 -39 -156 -118c0 -36 13 -63 39 -82s62 -28 108 -28zM423 37v-1c-52 -33 -113 -49 -183 -49c-58 0 -103 13 -134 39s-47 61 -47 104c0 53 18 91 53 115s81 36 138 37c43 0 89 -6 138 -17v75
c0 93 -49 139 -147 139c-49 0 -94 -9 -136 -27l-11 32c42 19 91 28 147 28c121 0 182 -57 182 -172v-303zM238 584l-97 130h42l91 -130h-36z" />
    <glyph glyph-name="aacute" unicode="&#xe1;" horiz-adv-x="519" 
d="M242 21h-1c61 0 110 12 147 36v175c-49 11 -95 17 -137 17c-104 0 -156 -39 -156 -118c0 -36 13 -63 39 -82s62 -28 108 -28zM423 37v-1c-52 -33 -113 -49 -183 -49c-58 0 -103 13 -134 39s-47 61 -47 104c0 53 18 91 53 115s81 36 138 37c43 0 89 -6 138 -17v75
c0 93 -49 139 -147 139c-49 0 -94 -9 -136 -27l-11 32c42 19 91 28 147 28c121 0 182 -57 182 -172v-303zM329 714h42l-97 -130h-36z" />
    <glyph glyph-name="acircumflex" unicode="&#xe2;" horiz-adv-x="519" 
d="M242 21h-1c61 0 110 12 147 36v175c-49 11 -95 17 -137 17c-104 0 -156 -39 -156 -118c0 -36 13 -63 39 -82s62 -28 108 -28zM423 37v-1c-52 -33 -113 -49 -183 -49c-58 0 -103 13 -134 39s-47 61 -47 104c0 53 18 91 53 115s81 36 138 37c43 0 89 -6 138 -17v75
c0 93 -49 139 -147 139c-49 0 -94 -9 -136 -27l-11 32c42 19 91 28 147 28c121 0 182 -57 182 -172v-303zM344 584l-91 108l-91 -108h-39l106 130h48l106 -130h-39z" />
    <glyph glyph-name="atilde" unicode="&#xe3;" horiz-adv-x="519" 
d="M242 21h-1c61 0 110 12 147 36v175c-49 11 -95 17 -137 17c-104 0 -156 -39 -156 -118c0 -36 13 -63 39 -82s62 -28 108 -28zM423 37v-1c-52 -33 -113 -49 -183 -49c-58 0 -103 13 -134 39s-47 61 -47 104c0 53 18 91 53 115s81 36 138 37c43 0 89 -6 138 -17v75
c0 93 -49 139 -147 139c-49 0 -94 -9 -136 -27l-11 32c42 19 91 28 147 28c121 0 182 -57 182 -172v-303zM324 630l-1 1c11 0 19 3 25 9s10 13 12 21s3 20 4 36h32c-1 -14 -2 -26 -4 -36s-5 -20 -10 -30s-12 -18 -22 -24s-22 -9 -36 -9c-21 0 -45 10 -73 30s-50 30 -65 30
c-16 0 -27 -5 -33 -15s-10 -24 -11 -43h-32c2 60 27 90 75 90c21 0 46 -10 76 -30s51 -30 63 -30z" />
    <glyph glyph-name="adieresis" unicode="&#xe4;" horiz-adv-x="519" 
d="M242 21h-1c61 0 110 12 147 36v175c-49 11 -95 17 -137 17c-104 0 -156 -39 -156 -118c0 -36 13 -63 39 -82s62 -28 108 -28zM423 37v-1c-52 -33 -113 -49 -183 -49c-58 0 -103 13 -134 39s-47 61 -47 104c0 53 18 91 53 115s81 36 138 37c43 0 89 -6 138 -17v75
c0 93 -49 139 -147 139c-49 0 -94 -9 -136 -27l-11 32c42 19 91 28 147 28c121 0 182 -57 182 -172v-303zM208 649c0 -9 -3 -17 -8 -23s-12 -9 -21 -9c-10 0 -18 3 -23 9s-8 14 -8 23s3 16 8 22s13 9 23 9c9 0 16 -3 21 -9s8 -13 8 -22zM358 649l-1 -1c0 -9 -2 -16 -7 -22
s-12 -9 -21 -9c-21 0 -32 11 -32 32c0 9 3 16 8 22s13 9 24 9c9 0 16 -3 21 -9s8 -13 8 -22z" />
    <glyph glyph-name="aring" unicode="&#xe5;" horiz-adv-x="519" 
d="M242 21h-1c61 0 110 12 147 36v175c-49 11 -95 17 -137 17c-104 0 -156 -39 -156 -118c0 -36 13 -63 39 -82s62 -28 108 -28zM423 37v-1c-52 -33 -113 -49 -183 -49c-58 0 -103 13 -134 39s-47 61 -47 104c0 53 18 91 53 115s81 36 138 37c43 0 89 -6 138 -17v75
c0 93 -49 139 -147 139c-49 0 -94 -9 -136 -27l-11 32c42 19 91 28 147 28c121 0 182 -57 182 -172v-303zM161 659l-2 -1c0 26 9 48 27 65s40 26 66 26s48 -9 66 -26s27 -39 27 -65c0 -27 -9 -49 -26 -66s-39 -25 -66 -25s-49 9 -66 26s-26 39 -26 66zM312 658
c0 18 -5 33 -16 45s-26 18 -45 18s-34 -6 -45 -18s-16 -27 -16 -45c0 -17 5 -32 16 -45s26 -19 45 -19s34 6 45 19s16 28 16 45z" />
    <glyph glyph-name="ae" unicode="&#xe6;" horiz-adv-x="873" 
d="M611 479h-1c-55 0 -98 -18 -130 -54s-50 -84 -55 -145h345c1 6 1 14 1 23c0 49 -13 91 -39 125s-66 51 -121 51zM239 21l-1 -1c75 0 137 24 186 71c-23 39 -36 87 -38 145c-47 11 -94 17 -140 17c-49 0 -87 -8 -113 -25s-39 -47 -39 -90c0 -38 13 -67 38 -87
s61 -30 107 -30zM806 23l-1 1c-50 -24 -105 -36 -166 -36c-87 0 -152 26 -196 78c-56 -52 -125 -78 -207 -78c-57 0 -101 14 -132 42s-46 65 -46 110c0 97 63 146 188 147c46 0 93 -6 141 -17v68c0 43 -12 77 -36 102s-61 38 -111 38c-41 0 -85 -8 -132 -24l-9 32
c50 17 97 25 141 25c56 0 98 -12 125 -36s44 -57 51 -100c42 91 106 136 193 136c64 0 113 -20 147 -61s51 -92 51 -153c0 -16 -1 -33 -3 -51h-381c1 -75 21 -131 59 -169s91 -57 158 -57c53 0 105 12 157 35z" />
    <glyph glyph-name="ccedilla" unicode="&#xe7;" horiz-adv-x="490" 
d="M300 512l1 -2c50 0 97 -10 140 -29l-10 -31c-45 18 -88 27 -130 27c-65 0 -114 -21 -148 -63s-51 -99 -51 -171c0 -73 18 -128 54 -166s89 -57 158 -57c41 0 82 10 123 31l10 -31c-41 -22 -86 -33 -135 -33h-11l-16 -47c61 -3 91 -28 91 -74c0 -25 -10 -44 -29 -57
s-45 -19 -77 -19c-19 0 -37 2 -54 7l6 28c17 -4 33 -6 48 -6c48 0 72 16 72 47c0 17 -7 29 -21 36s-34 11 -61 12l-9 22l19 54c-67 7 -118 33 -153 77s-53 104 -53 179c0 81 21 146 62 194s99 72 174 72z" />
    <glyph glyph-name="egrave" unicode="&#xe8;" horiz-adv-x="549" 
d="M475 56l10 -31c-50 -24 -105 -36 -166 -36c-79 0 -141 22 -186 67s-67 110 -67 196c0 77 20 140 59 188s93 72 162 72c64 0 113 -20 147 -61s51 -92 51 -153c0 -16 -1 -33 -3 -51h-381c1 -75 21 -131 59 -169s91 -57 158 -57c53 0 105 12 157 35zM288 480h-1
c-55 0 -98 -18 -130 -54s-50 -84 -55 -145h345c1 6 1 14 1 23c0 49 -13 91 -39 125s-66 51 -121 51zM270 586l-97 130h42l91 -130h-36z" />
    <glyph glyph-name="eacute" unicode="&#xe9;" horiz-adv-x="549" 
d="M475 56l10 -31c-50 -24 -105 -36 -166 -36c-79 0 -141 22 -186 67s-67 110 -67 196c0 77 20 140 59 188s93 72 162 72c64 0 113 -20 147 -61s51 -92 51 -153c0 -16 -1 -33 -3 -51h-381c1 -75 21 -131 59 -169s91 -57 158 -57c53 0 105 12 157 35zM288 480h-1
c-55 0 -98 -18 -130 -54s-50 -84 -55 -145h345c1 6 1 14 1 23c0 49 -13 91 -39 125s-66 51 -121 51zM361 716h42l-97 -130h-36z" />
    <glyph glyph-name="ecircumflex" unicode="&#xea;" horiz-adv-x="549" 
d="M475 56l10 -31c-50 -24 -105 -36 -166 -36c-79 0 -141 22 -186 67s-67 110 -67 196c0 77 20 140 59 188s93 72 162 72c64 0 113 -20 147 -61s51 -92 51 -153c0 -16 -1 -33 -3 -51h-381c1 -75 21 -131 59 -169s91 -57 158 -57c53 0 105 12 157 35zM288 480h-1
c-55 0 -98 -18 -130 -54s-50 -84 -55 -145h345c1 6 1 14 1 23c0 49 -13 91 -39 125s-66 51 -121 51zM376 586l-91 108l-91 -108h-39l106 130h48l106 -130h-39z" />
    <glyph glyph-name="edieresis" unicode="&#xeb;" horiz-adv-x="549" 
d="M475 56l10 -31c-50 -24 -105 -36 -166 -36c-79 0 -141 22 -186 67s-67 110 -67 196c0 77 20 140 59 188s93 72 162 72c64 0 113 -20 147 -61s51 -92 51 -153c0 -16 -1 -33 -3 -51h-381c1 -75 21 -131 59 -169s91 -57 158 -57c53 0 105 12 157 35zM288 480h-1
c-55 0 -98 -18 -130 -54s-50 -84 -55 -145h345c1 6 1 14 1 23c0 49 -13 91 -39 125s-66 51 -121 51zM240 651c0 -9 -3 -17 -8 -23s-12 -9 -21 -9c-10 0 -18 3 -23 9s-8 14 -8 23s3 16 8 22s13 9 23 9c9 0 16 -3 21 -9s8 -13 8 -22zM390 651l-1 -1c0 -9 -2 -16 -7 -22
s-12 -9 -21 -9c-21 0 -32 11 -32 32c0 9 3 16 8 22s13 9 24 9c9 0 16 -3 21 -9s8 -13 8 -22z" />
    <glyph glyph-name="igrave" unicode="&#xec;" horiz-adv-x="245" 
d="M140 500v-500h-35v500h35zM109 585l-97 130h42l91 -130h-36z" />
    <glyph glyph-name="iacute" unicode="&#xed;" horiz-adv-x="245" 
d="M140 500v-500h-35v500h35zM200 715h42l-97 -130h-36z" />
    <glyph glyph-name="icircumflex" unicode="&#xee;" horiz-adv-x="245" 
d="M140 500v-500h-35v500h35zM215 585l-91 108l-91 -108h-39l106 130h48l106 -130h-39z" />
    <glyph glyph-name="idieresis" unicode="&#xef;" horiz-adv-x="245" 
d="M140 500v-500h-35v500h35zM79 650c0 -9 -3 -17 -8 -23s-12 -9 -21 -9c-10 0 -18 3 -23 9s-8 14 -8 23s3 16 8 22s13 9 23 9c9 0 16 -3 21 -9s8 -13 8 -22zM229 650l-1 -1c0 -9 -2 -16 -7 -22s-12 -9 -21 -9c-21 0 -32 11 -32 32c0 9 3 16 8 22s13 9 24 9c9 0 16 -3 21 -9
s8 -13 8 -22z" />
    <glyph glyph-name="eth" unicode="&#xf0;" horiz-adv-x="533" 
d="M137 689l9 33c55 -9 105 -30 150 -64l88 74l20 -25l-82 -70c46 -41 82 -92 107 -153s38 -125 38 -193c0 -93 -18 -167 -54 -221s-91 -81 -166 -81c-58 0 -105 21 -142 63s-55 98 -55 168c0 63 19 116 57 158s88 63 151 63c62 0 117 -17 164 -51c-20 90 -62 164 -126 221
l-104 -88l-20 26l98 83c-41 29 -85 48 -133 57zM247 23c67 0 115 24 143 71s42 113 42 198c0 21 -1 41 -4 59c-54 39 -110 59 -169 59c-57 0 -100 -18 -129 -54s-44 -81 -44 -134c0 -57 14 -104 42 -142s68 -57 119 -57z" />
    <glyph glyph-name="ntilde" unicode="&#xf1;" horiz-adv-x="584" 
d="M135 0l-35 1v458c65 36 133 54 204 54c63 0 110 -15 140 -46s45 -73 45 -126v-340h-35v338c0 43 -12 77 -37 102s-62 38 -112 38c-64 0 -121 -14 -170 -42v-437zM365 632l-1 1c11 0 19 3 25 9s10 13 12 21s3 20 4 36h32c-1 -14 -2 -26 -4 -36s-5 -20 -10 -30
s-12 -18 -22 -24s-22 -9 -36 -9c-21 0 -45 10 -73 30s-50 30 -65 30c-16 0 -27 -5 -33 -15s-10 -24 -11 -43h-32c2 60 27 90 75 90c21 0 46 -10 76 -30s51 -30 63 -30z" />
    <glyph glyph-name="ograve" unicode="&#xf2;" 
d="M498 250l-1 -2c0 -79 -19 -142 -57 -190s-91 -72 -160 -72c-68 0 -121 24 -159 72s-57 112 -57 191s19 143 57 191s91 72 159 72c69 0 123 -24 161 -72s57 -111 57 -190zM101 248v-2c0 -71 15 -127 45 -168s75 -61 134 -61c61 0 106 21 136 62s45 97 45 168
s-15 127 -45 168s-75 62 -136 62c-59 0 -104 -20 -134 -61s-45 -97 -45 -168zM266 581l-97 130h42l91 -130h-36z" />
    <glyph glyph-name="oacute" unicode="&#xf3;" 
d="M498 250l-1 -2c0 -79 -19 -142 -57 -190s-91 -72 -160 -72c-68 0 -121 24 -159 72s-57 112 -57 191s19 143 57 191s91 72 159 72c69 0 123 -24 161 -72s57 -111 57 -190zM101 248v-2c0 -71 15 -127 45 -168s75 -61 134 -61c61 0 106 21 136 62s45 97 45 168
s-15 127 -45 168s-75 62 -136 62c-59 0 -104 -20 -134 -61s-45 -97 -45 -168zM357 711h42l-97 -130h-36z" />
    <glyph glyph-name="ocircumflex" unicode="&#xf4;" 
d="M498 250l-1 -2c0 -79 -19 -142 -57 -190s-91 -72 -160 -72c-68 0 -121 24 -159 72s-57 112 -57 191s19 143 57 191s91 72 159 72c69 0 123 -24 161 -72s57 -111 57 -190zM101 248v-2c0 -71 15 -127 45 -168s75 -61 134 -61c61 0 106 21 136 62s45 97 45 168
s-15 127 -45 168s-75 62 -136 62c-59 0 -104 -20 -134 -61s-45 -97 -45 -168zM372 581l-91 108l-91 -108h-39l106 130h48l106 -130h-39z" />
    <glyph glyph-name="otilde" unicode="&#xf5;" 
d="M498 250l-1 -2c0 -79 -19 -142 -57 -190s-91 -72 -160 -72c-68 0 -121 24 -159 72s-57 112 -57 191s19 143 57 191s91 72 159 72c69 0 123 -24 161 -72s57 -111 57 -190zM101 248v-2c0 -71 15 -127 45 -168s75 -61 134 -61c61 0 106 21 136 62s45 97 45 168
s-15 127 -45 168s-75 62 -136 62c-59 0 -104 -20 -134 -61s-45 -97 -45 -168zM352 627l-1 1c11 0 19 3 25 9s10 13 12 21s3 20 4 36h32c-1 -14 -2 -26 -4 -36s-5 -20 -10 -30s-12 -18 -22 -24s-22 -9 -36 -9c-21 0 -45 10 -73 30s-50 30 -65 30c-16 0 -27 -5 -33 -15
s-10 -24 -11 -43h-32c2 60 27 90 75 90c21 0 46 -10 76 -30s51 -30 63 -30z" />
    <glyph glyph-name="odieresis" unicode="&#xf6;" 
d="M498 250l-1 -2c0 -79 -19 -142 -57 -190s-91 -72 -160 -72c-68 0 -121 24 -159 72s-57 112 -57 191s19 143 57 191s91 72 159 72c69 0 123 -24 161 -72s57 -111 57 -190zM101 248v-2c0 -71 15 -127 45 -168s75 -61 134 -61c61 0 106 21 136 62s45 97 45 168
s-15 127 -45 168s-75 62 -136 62c-59 0 -104 -20 -134 -61s-45 -97 -45 -168zM236 646c0 -9 -3 -17 -8 -23s-12 -9 -21 -9c-10 0 -18 3 -23 9s-8 14 -8 23s3 16 8 22s13 9 23 9c9 0 16 -3 21 -9s8 -13 8 -22zM386 646l-1 -1c0 -9 -2 -16 -7 -22s-12 -9 -21 -9
c-21 0 -32 11 -32 32c0 9 3 16 8 22s13 9 24 9c9 0 16 -3 21 -9s8 -13 8 -22z" />
    <glyph glyph-name="divide" unicode="&#xf7;" horiz-adv-x="491" 
d="M217 177c0 8 3 15 8 21s12 9 21 9c8 0 15 -3 20 -9s8 -13 8 -21s-3 -15 -8 -21s-12 -9 -20 -9c-9 0 -16 3 -21 9s-8 13 -8 21zM217 504c0 8 3 15 8 21s12 9 21 9c8 0 15 -3 20 -9s8 -13 8 -21s-3 -15 -8 -21s-12 -9 -20 -9c-9 0 -16 3 -21 9s-8 13 -8 21zM35 327v32h421
v-32h-421z" />
    <glyph glyph-name="oslash" unicode="&#xf8;" horiz-adv-x="567" 
d="M462 500h36l-52 -66c35 -47 52 -108 52 -184c0 -79 -19 -142 -57 -190s-91 -72 -160 -72c-58 0 -105 18 -142 53l-33 -41h-36l49 63c-36 47 -54 109 -54 186c0 79 19 143 57 191s91 72 159 72c61 0 110 -19 146 -56zM102 250c0 -66 13 -119 39 -159l266 338
c-31 33 -73 50 -126 50c-59 0 -104 -20 -134 -61s-45 -97 -45 -168zM281 21l-1 -1c61 0 106 21 136 62s45 97 45 168c0 65 -12 117 -37 156l-265 -338c30 -31 71 -47 122 -47z" />
    <glyph glyph-name="ugrave" unicode="&#xf9;" horiz-adv-x="574" 
d="M474 42v-1c-69 -36 -139 -54 -210 -54c-57 0 -100 14 -128 43s-42 69 -42 120v350h35v-348c0 -41 11 -73 33 -96s56 -35 102 -35c65 0 123 14 175 42v437h35v-458zM277 584l-97 130h42l91 -130h-36z" />
    <glyph glyph-name="uacute" unicode="&#xfa;" horiz-adv-x="574" 
d="M474 42v-1c-69 -36 -139 -54 -210 -54c-57 0 -100 14 -128 43s-42 69 -42 120v350h35v-348c0 -41 11 -73 33 -96s56 -35 102 -35c65 0 123 14 175 42v437h35v-458zM368 714h42l-97 -130h-36z" />
    <glyph glyph-name="ucircumflex" unicode="&#xfb;" horiz-adv-x="574" 
d="M474 42v-1c-69 -36 -139 -54 -210 -54c-57 0 -100 14 -128 43s-42 69 -42 120v350h35v-348c0 -41 11 -73 33 -96s56 -35 102 -35c65 0 123 14 175 42v437h35v-458zM383 584l-91 108l-91 -108h-39l106 130h48l106 -130h-39z" />
    <glyph glyph-name="udieresis" unicode="&#xfc;" horiz-adv-x="574" 
d="M474 42v-1c-69 -36 -139 -54 -210 -54c-57 0 -100 14 -128 43s-42 69 -42 120v350h35v-348c0 -41 11 -73 33 -96s56 -35 102 -35c65 0 123 14 175 42v437h35v-458zM247 649c0 -9 -3 -17 -8 -23s-12 -9 -21 -9c-10 0 -18 3 -23 9s-8 14 -8 23s3 16 8 22s13 9 23 9
c9 0 16 -3 21 -9s8 -13 8 -22zM397 649l-1 -1c0 -9 -2 -16 -7 -22s-12 -9 -21 -9c-21 0 -32 11 -32 32c0 9 3 16 8 22s13 9 24 9c9 0 16 -3 21 -9s8 -13 8 -22z" />
    <glyph glyph-name="yacute" unicode="&#xfd;" horiz-adv-x="504" 
d="M277 0h2c-55 -97 -127 -158 -216 -183l-10 32c40 11 75 29 105 53s58 58 84 101c-101 159 -166 325 -195 497h35c26 -150 86 -305 179 -465c89 162 147 317 173 465h35c-15 -87 -38 -169 -69 -247s-72 -162 -123 -253zM339 715h42l-97 -130h-36z" />
    <glyph glyph-name="thorn" unicode="&#xfe;" horiz-adv-x="572" 
d="M140 -184h-34v904l35 3v-243c47 21 95 32 144 32c73 0 128 -23 165 -68s56 -105 56 -179c0 -85 -19 -152 -57 -202s-97 -75 -177 -75c-49 0 -93 10 -132 31v-203zM141 57l-1 2c44 -24 87 -36 130 -36c64 0 113 21 147 63s51 102 51 180c0 62 -15 113 -46 153
s-77 60 -138 60c-54 0 -102 -12 -143 -37v-385z" />
    <glyph glyph-name="ydieresis" unicode="&#xff;" horiz-adv-x="504" 
d="M277 0h2c-55 -97 -127 -158 -216 -183l-10 32c40 11 75 29 105 53s58 58 84 101c-101 159 -166 325 -195 497h35c26 -150 86 -305 179 -465c89 162 147 317 173 465h35c-15 -87 -38 -169 -69 -247s-72 -162 -123 -253zM218 650c0 -9 -3 -17 -8 -23s-12 -9 -21 -9
c-10 0 -18 3 -23 9s-8 14 -8 23s3 16 8 22s13 9 23 9c9 0 16 -3 21 -9s8 -13 8 -22zM368 650l-1 -1c0 -9 -2 -16 -7 -22s-12 -9 -21 -9c-21 0 -32 11 -32 32c0 9 3 16 8 22s13 9 24 9c9 0 16 -3 21 -9s8 -13 8 -22z" />
    <glyph glyph-name="Amacron" unicode="&#x100;" horiz-adv-x="632" 
d="M316 667h2c-57 -127 -111 -261 -162 -402h322c-51 141 -105 275 -162 402zM568 0h3c-25 81 -51 159 -78 234h-346c-27 -75 -53 -153 -78 -234h-36c88 271 177 504 268 699h36c97 -209 186 -442 267 -699h-36zM198 809v32h246v-32h-246z" />
    <glyph glyph-name="amacron" unicode="&#x101;" horiz-adv-x="519" 
d="M242 21h-1c61 0 110 12 147 36v175c-49 11 -95 17 -137 17c-104 0 -156 -39 -156 -118c0 -36 13 -63 39 -82s62 -28 108 -28zM423 37v-1c-52 -33 -113 -49 -183 -49c-58 0 -103 13 -134 39s-47 61 -47 104c0 53 18 91 53 115s81 36 138 37c43 0 89 -6 138 -17v75
c0 93 -49 139 -147 139c-49 0 -94 -9 -136 -27l-11 32c42 19 91 28 147 28c121 0 182 -57 182 -172v-303zM130 623v32h246v-32h-246z" />
    <glyph glyph-name="Abreve" unicode="&#x102;" horiz-adv-x="632" 
d="M316 667h2c-57 -127 -111 -261 -162 -402h322c-51 141 -105 275 -162 402zM568 0h3c-25 81 -51 159 -78 234h-346c-27 -75 -53 -153 -78 -234h-36c88 271 177 504 268 699h36c97 -209 186 -442 267 -699h-36zM451 886l-2 -1c-3 -35 -16 -62 -39 -81s-53 -28 -91 -28
s-68 10 -91 29s-36 46 -39 81h32c7 -51 40 -77 99 -77s92 26 99 77h32z" />
    <glyph glyph-name="abreve" unicode="&#x103;" horiz-adv-x="519" 
d="M242 21h-1c61 0 110 12 147 36v175c-49 11 -95 17 -137 17c-104 0 -156 -39 -156 -118c0 -36 13 -63 39 -82s62 -28 108 -28zM423 37v-1c-52 -33 -113 -49 -183 -49c-58 0 -103 13 -134 39s-47 61 -47 104c0 53 18 91 53 115s81 36 138 37c43 0 89 -6 138 -17v75
c0 93 -49 139 -147 139c-49 0 -94 -9 -136 -27l-11 32c42 19 91 28 147 28c121 0 182 -57 182 -172v-303zM383 700l-2 -1c-3 -35 -16 -62 -39 -81s-53 -28 -91 -28s-68 10 -91 29s-36 46 -39 81h32c7 -51 40 -77 99 -77s92 26 99 77h32z" />
    <glyph glyph-name="Aogonek" unicode="&#x104;" horiz-adv-x="632" 
d="M316 667h2c-57 -127 -111 -261 -162 -402h322c-51 141 -105 275 -162 402zM618 -175l1 4c-22 -9 -45 -14 -68 -14c-25 0 -46 6 -63 18s-25 30 -25 53c0 39 35 79 104 120c-15 52 -40 129 -75 230h-346c-27 -75 -53 -153 -78 -234h-36c88 271 177 504 268 699h36
c97 -209 186 -442 267 -699c-25 -17 -43 -30 -55 -39s-23 -20 -34 -34s-17 -27 -17 -39c0 -32 20 -48 60 -48c19 0 37 4 53 11z" />
    <glyph glyph-name="aogonek" unicode="&#x105;" horiz-adv-x="519" 
d="M438 -175l2 -1c-22 -9 -45 -14 -68 -14c-25 0 -46 6 -63 18s-25 30 -25 53c0 39 21 79 63 120c-30 -9 -65 -14 -105 -14c-58 0 -103 13 -134 39s-47 61 -47 104c0 53 18 91 53 115s81 36 138 37c43 0 89 -6 138 -17v75c0 93 -49 139 -147 139c-49 0 -94 -9 -136 -27
l-11 32c42 19 91 28 147 28c121 0 182 -57 182 -172v-303c-28 -25 -47 -42 -57 -51s-21 -23 -33 -42s-18 -37 -18 -54c0 -32 20 -48 60 -48c19 0 37 4 53 11zM98 130h-1c0 -36 13 -63 39 -82s62 -28 108 -28c61 0 110 12 147 36v175c-49 11 -95 17 -137 17
c-104 0 -156 -39 -156 -118z" />
    <glyph glyph-name="Cacute" unicode="&#x106;" horiz-adv-x="602" 
d="M380 -12l3 -3c-100 0 -177 32 -230 95s-80 149 -80 258c0 110 25 200 76 269s126 104 225 104c57 0 114 -11 171 -34l-10 -32c-59 22 -113 33 -161 33c-61 0 -112 -16 -153 -48s-70 -73 -87 -122s-25 -105 -25 -168c0 -97 23 -174 69 -232s114 -87 203 -87
c52 0 105 12 159 35l8 -31c-51 -25 -107 -37 -168 -37zM437 897h42l-97 -130h-36z" />
    <glyph glyph-name="cacute" unicode="&#x107;" horiz-adv-x="490" 
d="M300 512h1c50 0 97 -10 140 -29l-10 -31c-45 18 -88 27 -130 27c-65 0 -114 -21 -148 -63s-51 -99 -51 -171c0 -73 18 -128 54 -166s89 -57 158 -57c41 0 82 10 123 31l10 -31c-41 -22 -86 -33 -135 -33c-80 0 -141 22 -184 66s-64 108 -64 191c0 81 21 146 62 194
s99 72 174 72zM366 715h42l-97 -130h-36z" />
    <glyph glyph-name="Ccircumflex" unicode="&#x108;" horiz-adv-x="602" 
d="M380 -12l3 -3c-100 0 -177 32 -230 95s-80 149 -80 258c0 110 25 200 76 269s126 104 225 104c57 0 114 -11 171 -34l-10 -32c-59 22 -113 33 -161 33c-61 0 -112 -16 -153 -48s-70 -73 -87 -122s-25 -105 -25 -168c0 -97 23 -174 69 -232s114 -87 203 -87
c52 0 105 12 159 35l8 -31c-51 -25 -107 -37 -168 -37zM452 767l-91 108l-91 -108h-39l106 130h48l106 -130h-39z" />
    <glyph glyph-name="ccircumflex" unicode="&#x109;" horiz-adv-x="490" 
d="M300 512h1c50 0 97 -10 140 -29l-10 -31c-45 18 -88 27 -130 27c-65 0 -114 -21 -148 -63s-51 -99 -51 -171c0 -73 18 -128 54 -166s89 -57 158 -57c41 0 82 10 123 31l10 -31c-41 -22 -86 -33 -135 -33c-80 0 -141 22 -184 66s-64 108 -64 191c0 81 21 146 62 194
s99 72 174 72zM381 585l-91 108l-91 -108h-39l106 130h48l106 -130h-39z" />
    <glyph glyph-name="Cdotaccent" unicode="&#x10a;" horiz-adv-x="602" 
d="M380 -12l3 -3c-100 0 -177 32 -230 95s-80 149 -80 258c0 110 25 200 76 269s126 104 225 104c57 0 114 -11 171 -34l-10 -32c-59 22 -113 33 -161 33c-61 0 -112 -16 -153 -48s-70 -73 -87 -122s-25 -105 -25 -168c0 -97 23 -174 69 -232s114 -87 203 -87
c52 0 105 12 159 35l8 -31c-51 -25 -107 -37 -168 -37zM330 832l-1 -1c0 9 3 16 9 22s14 9 23 9s16 -3 21 -9s8 -13 8 -22s-3 -16 -8 -22s-12 -9 -21 -9s-16 3 -22 9s-9 14 -9 23z" />
    <glyph glyph-name="cdotaccent" unicode="&#x10b;" horiz-adv-x="490" 
d="M300 512h1c50 0 97 -10 140 -29l-10 -31c-45 18 -88 27 -130 27c-65 0 -114 -21 -148 -63s-51 -99 -51 -171c0 -73 18 -128 54 -166s89 -57 158 -57c41 0 82 10 123 31l10 -31c-41 -22 -86 -33 -135 -33c-80 0 -141 22 -184 66s-64 108 -64 191c0 81 21 146 62 194
s99 72 174 72zM259 650l-1 -1c0 9 3 16 9 22s14 9 23 9s16 -3 21 -9s8 -13 8 -22s-3 -16 -8 -22s-12 -9 -21 -9s-16 3 -22 9s-9 14 -9 23z" />
    <glyph glyph-name="Ccaron" unicode="&#x10c;" horiz-adv-x="602" 
d="M380 -12l3 -3c-100 0 -177 32 -230 95s-80 149 -80 258c0 110 25 200 76 269s126 104 225 104c57 0 114 -11 171 -34l-10 -32c-59 22 -113 33 -161 33c-61 0 -112 -16 -153 -48s-70 -73 -87 -122s-25 -105 -25 -168c0 -97 23 -174 69 -232s114 -87 203 -87
c52 0 105 12 159 35l8 -31c-51 -25 -107 -37 -168 -37zM271 897l90 -105l90 105h40l-106 -130h-48l-106 130h40z" />
    <glyph glyph-name="ccaron" unicode="&#x10d;" horiz-adv-x="490" 
d="M300 512h1c50 0 97 -10 140 -29l-10 -31c-45 18 -88 27 -130 27c-65 0 -114 -21 -148 -63s-51 -99 -51 -171c0 -73 18 -128 54 -166s89 -57 158 -57c41 0 82 10 123 31l10 -31c-41 -22 -86 -33 -135 -33c-80 0 -141 22 -184 66s-64 108 -64 191c0 81 21 146 62 194
s99 72 174 72zM200 715l90 -105l90 105h40l-106 -130h-48l-106 130h40z" />
    <glyph glyph-name="Dcaron" unicode="&#x10e;" horiz-adv-x="685" 
d="M588 350l2 -2c0 95 -25 172 -75 231s-125 88 -226 88h-143v-636h143c99 0 174 30 224 89s75 136 75 230zM112 -2l-1 700h178c109 0 192 -32 250 -95s87 -148 87 -255s-29 -192 -87 -255s-141 -95 -249 -95h-178zM227 898l90 -105l90 105h40l-106 -130h-48l-106 130h40z
" />
    <glyph glyph-name="dcaron" unicode="&#x10f;" horiz-adv-x="571" 
d="M466 32c-41 -29 -95 -44 -161 -44c-73 0 -131 23 -175 68s-66 107 -66 186c0 84 22 150 66 198s107 72 190 72c39 0 76 -7 111 -22v230l35 3v-691zM102 242v2c0 -68 18 -122 55 -162s86 -60 147 -60c57 0 99 10 127 30v402c-35 17 -72 26 -111 26
c-71 0 -125 -21 -162 -63s-56 -100 -56 -175zM574 721l35 1c-4 -59 -20 -115 -48 -168h-28c21 45 35 101 41 167z" />
    <glyph glyph-name="Dcroat" unicode="&#x110;" horiz-adv-x="685" 
d="M588 350l2 -2c0 95 -25 172 -75 231s-125 88 -226 88h-143v-291h155v-32h-155v-313h143c99 0 174 30 224 89s75 136 75 230zM112 -2l-1 345h-80v32h80v323h178c109 0 192 -32 250 -95s87 -148 87 -255s-29 -192 -87 -255s-141 -95 -249 -95h-178z" />
    <glyph glyph-name="dcroat" unicode="&#x111;" horiz-adv-x="571" 
d="M252 632h179v88l35 3v-91h80v-32h-80v-568c-41 -29 -95 -44 -161 -44c-73 0 -131 23 -175 68s-66 107 -66 186c0 84 22 150 66 198s107 72 190 72c39 0 76 -7 111 -22v110h-179v32zM102 242v2c0 -68 18 -122 55 -162s86 -60 147 -60c57 0 99 10 127 30v402
c-35 17 -72 26 -111 26c-71 0 -125 -21 -162 -63s-56 -100 -56 -175z" />
    <glyph glyph-name="Emacron" unicode="&#x112;" 
d="M503 32v-32h-393v700h393v-32h-358v-290h308v-32h-308v-314h358zM186 809v32h246v-32h-246z" />
    <glyph glyph-name="emacron" unicode="&#x113;" horiz-adv-x="549" 
d="M475 56l10 -31c-50 -24 -105 -36 -166 -36c-79 0 -141 22 -186 67s-67 110 -67 196c0 77 20 140 59 188s93 72 162 72c64 0 113 -20 147 -61s51 -92 51 -153c0 -16 -1 -33 -3 -51h-381c1 -75 21 -131 59 -169s91 -57 158 -57c53 0 105 12 157 35zM288 480h-1
c-55 0 -98 -18 -130 -54s-50 -84 -55 -145h345c1 6 1 14 1 23c0 49 -13 91 -39 125s-66 51 -121 51zM162 625v32h246v-32h-246z" />
    <glyph glyph-name="Ebreve" unicode="&#x114;" 
d="M503 32v-32h-393v700h393v-32h-358v-290h308v-32h-308v-314h358zM439 886l-2 -1c-3 -35 -16 -62 -39 -81s-53 -28 -91 -28s-68 10 -91 29s-36 46 -39 81h32c7 -51 40 -77 99 -77s92 26 99 77h32z" />
    <glyph glyph-name="ebreve" unicode="&#x115;" horiz-adv-x="549" 
d="M475 56l10 -31c-50 -24 -105 -36 -166 -36c-79 0 -141 22 -186 67s-67 110 -67 196c0 77 20 140 59 188s93 72 162 72c64 0 113 -20 147 -61s51 -92 51 -153c0 -16 -1 -33 -3 -51h-381c1 -75 21 -131 59 -169s91 -57 158 -57c53 0 105 12 157 35zM288 480h-1
c-55 0 -98 -18 -130 -54s-50 -84 -55 -145h345c1 6 1 14 1 23c0 49 -13 91 -39 125s-66 51 -121 51zM415 702l-2 -1c-3 -35 -16 -62 -39 -81s-53 -28 -91 -28s-68 10 -91 29s-36 46 -39 81h32c7 -51 40 -77 99 -77s92 26 99 77h32z" />
    <glyph glyph-name="Edotaccent" unicode="&#x116;" 
d="M503 32v-32h-393v700h393v-32h-358v-290h308v-32h-308v-314h358zM278 835l-1 -1c0 9 3 16 9 22s14 9 23 9s16 -3 21 -9s8 -13 8 -22s-3 -16 -8 -22s-12 -9 -21 -9s-16 3 -22 9s-9 14 -9 23z" />
    <glyph glyph-name="edotaccent" unicode="&#x117;" horiz-adv-x="549" 
d="M475 56l10 -31c-50 -24 -105 -36 -166 -36c-79 0 -141 22 -186 67s-67 110 -67 196c0 77 20 140 59 188s93 72 162 72c64 0 113 -20 147 -61s51 -92 51 -153c0 -16 -1 -33 -3 -51h-381c1 -75 21 -131 59 -169s91 -57 158 -57c53 0 105 12 157 35zM288 480h-1
c-55 0 -98 -18 -130 -54s-50 -84 -55 -145h345c1 6 1 14 1 23c0 49 -13 91 -39 125s-66 51 -121 51zM254 651l-1 -1c0 9 3 16 9 22s14 9 23 9s16 -3 21 -9s8 -13 8 -22s-3 -16 -8 -22s-12 -9 -21 -9s-16 3 -22 9s-9 14 -9 23z" />
    <glyph glyph-name="Eogonek" unicode="&#x118;" 
d="M517 -175v3c-22 -9 -45 -14 -68 -14c-25 0 -46 6 -63 18s-25 30 -25 53c0 38 33 77 99 117h-351v700h393v-32h-358v-290h308v-32h-308v-314h358v-32c-25 -17 -43 -30 -55 -39s-23 -20 -34 -34s-17 -27 -17 -39c0 -32 20 -48 60 -48c19 0 37 4 53 11z" />
    <glyph glyph-name="eogonek" unicode="&#x119;" horiz-adv-x="549" 
d="M287 479h-1c-55 0 -98 -18 -130 -54s-50 -84 -55 -145h345c1 6 1 14 1 23c0 49 -13 91 -39 125s-66 51 -121 51zM400 -175l2 2c-22 -9 -45 -14 -68 -14c-25 0 -46 6 -63 18s-25 30 -25 53c0 35 27 70 80 105h-8c-79 0 -141 22 -186 67s-67 110 -67 196
c0 77 20 140 59 188s93 72 162 72c64 0 113 -20 147 -61s51 -92 51 -153c0 -16 -1 -33 -3 -51h-381c1 -75 21 -131 59 -169s91 -57 158 -57c53 0 105 12 157 35l9 -32c-35 -17 -72 -28 -110 -33c-31 -21 -54 -39 -70 -54s-24 -31 -24 -47c0 -32 20 -48 60 -48
c19 0 37 4 53 11z" />
    <glyph glyph-name="Ecaron" unicode="&#x11a;" 
d="M503 32v-32h-393v700h393v-32h-358v-290h308v-32h-308v-314h358zM400 770l-91 108l-91 -108h-39l106 130h48l106 -130h-39z" />
    <glyph glyph-name="ecaron" unicode="&#x11b;" horiz-adv-x="549" 
d="M475 56l10 -31c-50 -24 -105 -36 -166 -36c-79 0 -141 22 -186 67s-67 110 -67 196c0 77 20 140 59 188s93 72 162 72c64 0 113 -20 147 -61s51 -92 51 -153c0 -16 -1 -33 -3 -51h-381c1 -75 21 -131 59 -169s91 -57 158 -57c53 0 105 12 157 35zM288 480h-1
c-55 0 -98 -18 -130 -54s-50 -84 -55 -145h345c1 6 1 14 1 23c0 49 -13 91 -39 125s-66 51 -121 51zM195 716l90 -105l90 105h40l-106 -130h-48l-106 130h40z" />
    <glyph glyph-name="Gcircumflex" unicode="&#x11c;" horiz-adv-x="680" 
d="M600 27l-1 -2c-56 -26 -117 -39 -184 -39c-112 0 -198 33 -257 98s-89 153 -89 264c0 105 28 192 84 260s135 102 238 102c71 0 136 -14 195 -43l-10 -31c-60 27 -122 41 -185 41c-92 0 -162 -31 -211 -94s-73 -141 -73 -234c0 -99 26 -178 79 -238s129 -90 229 -90
c57 0 107 9 150 26v269h-171v32h206v-321zM464 768l-91 108l-91 -108h-39l106 130h48l106 -130h-39z" />
    <glyph glyph-name="gcircumflex" unicode="&#x11d;" horiz-adv-x="562" 
d="M462 -20l-1 -2c0 -57 -17 -100 -50 -129s-80 -43 -141 -43c-54 0 -105 8 -153 25l9 33c50 -17 98 -25 144 -25c53 0 92 13 118 38s39 59 39 102v79c-35 -27 -82 -41 -140 -41c-68 0 -122 21 -162 63s-60 101 -60 178c0 79 21 141 63 186s100 68 173 68
c64 0 118 -13 161 -40v-492zM101 257h1c0 -65 17 -116 50 -153s79 -55 137 -55c55 0 101 14 138 43v359c-39 17 -81 26 -127 26c-61 0 -109 -19 -145 -58s-54 -93 -54 -162zM375 583l-91 108l-91 -108h-39l106 130h48l106 -130h-39z" />
    <glyph glyph-name="Gbreve" unicode="&#x11e;" horiz-adv-x="680" 
d="M600 27l-1 -2c-56 -26 -117 -39 -184 -39c-112 0 -198 33 -257 98s-89 153 -89 264c0 105 28 192 84 260s135 102 238 102c71 0 136 -14 195 -43l-10 -31c-60 27 -122 41 -185 41c-92 0 -162 -31 -211 -94s-73 -141 -73 -234c0 -99 26 -178 79 -238s129 -90 229 -90
c57 0 107 9 150 26v269h-171v32h206v-321zM503 884l-2 -1c-3 -35 -16 -62 -39 -81s-53 -28 -91 -28s-68 10 -91 29s-36 46 -39 81h32c7 -51 40 -77 99 -77s92 26 99 77h32z" />
    <glyph glyph-name="gbreve" unicode="&#x11f;" horiz-adv-x="562" 
d="M462 -20l-1 -2c0 -57 -17 -100 -50 -129s-80 -43 -141 -43c-54 0 -105 8 -153 25l9 33c50 -17 98 -25 144 -25c53 0 92 13 118 38s39 59 39 102v79c-35 -27 -82 -41 -140 -41c-68 0 -122 21 -162 63s-60 101 -60 178c0 79 21 141 63 186s100 68 173 68
c64 0 118 -13 161 -40v-492zM101 257h1c0 -65 17 -116 50 -153s79 -55 137 -55c55 0 101 14 138 43v359c-39 17 -81 26 -127 26c-61 0 -109 -19 -145 -58s-54 -93 -54 -162zM414 699l-2 -1c-3 -35 -16 -62 -39 -81s-53 -28 -91 -28s-68 10 -91 29s-36 46 -39 81h32
c7 -51 40 -77 99 -77s92 26 99 77h32z" />
    <glyph glyph-name="Gdotaccent" unicode="&#x120;" horiz-adv-x="680" 
d="M600 27l-1 -2c-56 -26 -117 -39 -184 -39c-112 0 -198 33 -257 98s-89 153 -89 264c0 105 28 192 84 260s135 102 238 102c71 0 136 -14 195 -43l-10 -31c-60 27 -122 41 -185 41c-92 0 -162 -31 -211 -94s-73 -141 -73 -234c0 -99 26 -178 79 -238s129 -90 229 -90
c57 0 107 9 150 26v269h-171v32h206v-321zM342 833l-1 -1c0 9 3 16 9 22s14 9 23 9s16 -3 21 -9s8 -13 8 -22s-3 -16 -8 -22s-12 -9 -21 -9s-16 3 -22 9s-9 14 -9 23z" />
    <glyph glyph-name="gdotaccent" unicode="&#x121;" horiz-adv-x="562" 
d="M462 -20l-1 -2c0 -57 -17 -100 -50 -129s-80 -43 -141 -43c-54 0 -105 8 -153 25l9 33c50 -17 98 -25 144 -25c53 0 92 13 118 38s39 59 39 102v79c-35 -27 -82 -41 -140 -41c-68 0 -122 21 -162 63s-60 101 -60 178c0 79 21 141 63 186s100 68 173 68
c64 0 118 -13 161 -40v-492zM101 257h1c0 -65 17 -116 50 -153s79 -55 137 -55c55 0 101 14 138 43v359c-39 17 -81 26 -127 26c-61 0 -109 -19 -145 -58s-54 -93 -54 -162zM253 648l-1 -1c0 9 3 16 9 22s14 9 23 9s16 -3 21 -9s8 -13 8 -22s-3 -16 -8 -22s-12 -9 -21 -9
s-16 3 -22 9s-9 14 -9 23z" />
    <glyph glyph-name="uni0122" unicode="&#x122;" horiz-adv-x="680" 
d="M600 27l-1 -2c-56 -26 -117 -39 -184 -39c-112 0 -198 33 -257 98s-89 153 -89 264c0 105 28 192 84 260s135 102 238 102c71 0 136 -14 195 -43l-10 -31c-60 27 -122 41 -185 41c-92 0 -162 -31 -211 -94s-73 -141 -73 -234c0 -99 26 -178 79 -238s129 -90 229 -90
c57 0 107 9 150 26v269h-171v32h206v-321zM401 -62h35c-3 -51 -16 -100 -39 -147h-28c18 41 29 90 32 147z" />
    <glyph glyph-name="uni0123" unicode="&#x123;" horiz-adv-x="562" 
d="M462 -20l-1 -2c0 -57 -17 -100 -50 -129s-80 -43 -141 -43c-54 0 -105 8 -153 25l9 33c50 -17 98 -25 144 -25c53 0 92 13 118 38s39 59 39 102v79c-35 -27 -82 -41 -140 -41c-68 0 -122 21 -162 63s-60 101 -60 178c0 79 21 141 63 186s100 68 173 68
c64 0 118 -13 161 -40v-492zM101 257h1c0 -65 17 -116 50 -153s79 -55 137 -55c55 0 101 14 138 43v359c-39 17 -81 26 -127 26c-61 0 -109 -19 -145 -58s-54 -93 -54 -162zM301 583l-35 -1c5 55 19 101 43 138h28c-17 -30 -29 -76 -36 -137z" />
    <glyph glyph-name="Hcircumflex" unicode="&#x124;" horiz-adv-x="720" 
d="M610 0h-35v346h-430v-346h-35v700h35v-322h430v322h35v-700zM448 770l-91 108l-91 -108h-39l106 130h48l106 -130h-39z" />
    <glyph glyph-name="hcircumflex" unicode="&#x125;" horiz-adv-x="589" 
d="M140 0l-36 -1v720l35 3v-257c54 31 111 46 170 46s105 -15 137 -46s48 -73 48 -126v-340h-35v338c0 44 -12 79 -37 104s-62 38 -112 38c-62 0 -119 -16 -170 -47v-432zM325 809l-91 108l-91 -108h-39l106 130h48l106 -130h-39z" />
    <glyph glyph-name="Hbar" unicode="&#x126;" horiz-adv-x="720" 
d="M575 0v346h-430v-346h-35v516h-80v32h80v152h35v-152h430v152h35v-152h80v-32h-80v-516h-35zM575 378v138h-430v-138h430z" />
    <glyph glyph-name="hbar" unicode="&#x127;" horiz-adv-x="589" 
d="M140 466l-1 -1c54 31 111 46 170 46s105 -15 137 -46s48 -73 48 -126v-340h-35v338c0 44 -12 79 -37 104s-62 38 -112 38c-62 0 -119 -16 -170 -47v-432h-35v600h-80v32h80v88l35 3v-91h179v-32h-179v-134z" />
    <glyph glyph-name="Itilde" unicode="&#x128;" horiz-adv-x="255" 
d="M110 0v700h35v-700h-35zM199 816l-1 1c11 0 19 3 25 9s10 13 12 21s3 20 4 36h32c-1 -14 -2 -26 -4 -36s-5 -20 -10 -30s-12 -18 -22 -24s-22 -9 -36 -9c-21 0 -45 10 -73 30s-50 30 -65 30c-16 0 -27 -5 -33 -15s-10 -24 -11 -43h-32c2 60 27 90 75 90
c21 0 46 -10 76 -30s51 -30 63 -30z" />
    <glyph glyph-name="itilde" unicode="&#x129;" horiz-adv-x="245" 
d="M140 500v-500h-35v500h35zM195 631l-1 1c11 0 19 3 25 9s10 13 12 21s3 20 4 36h32c-1 -14 -2 -26 -4 -36s-5 -20 -10 -30s-12 -18 -22 -24s-22 -9 -36 -9c-21 0 -45 10 -73 30s-50 30 -65 30c-16 0 -27 -5 -33 -15s-10 -24 -11 -43h-32c2 60 27 90 75 90
c21 0 46 -10 76 -30s51 -30 63 -30z" />
    <glyph glyph-name="Imacron" unicode="&#x12a;" horiz-adv-x="255" 
d="M110 0v700h35v-700h-35zM5 809v32h246v-32h-246z" />
    <glyph glyph-name="imacron" unicode="&#x12b;" horiz-adv-x="245" 
d="M140 500v-500h-35v500h35zM1 624v32h246v-32h-246z" />
    <glyph glyph-name="Ibreve" unicode="&#x12c;" horiz-adv-x="255" 
d="M110 0v700h35v-700h-35zM258 886l-2 -1c-3 -35 -16 -62 -39 -81s-53 -28 -91 -28s-68 10 -91 29s-36 46 -39 81h32c7 -51 40 -77 99 -77s92 26 99 77h32z" />
    <glyph glyph-name="ibreve" unicode="&#x12d;" horiz-adv-x="245" 
d="M140 500v-500h-35v500h35zM254 701l-2 -1c-3 -35 -16 -62 -39 -81s-53 -28 -91 -28s-68 10 -91 29s-36 46 -39 81h32c7 -51 40 -77 99 -77s92 26 99 77h32z" />
    <glyph glyph-name="Iogonek" unicode="&#x12e;" horiz-adv-x="255" 
d="M159 -175v3c-22 -9 -45 -14 -68 -14c-25 0 -46 6 -63 18s-25 30 -25 53c0 39 35 79 106 121v696h35v-700c-25 -17 -43 -30 -55 -39s-23 -20 -34 -34s-17 -27 -17 -39c0 -32 20 -48 60 -48c19 0 37 4 53 11z" />
    <glyph glyph-name="iogonek" unicode="&#x12f;" horiz-adv-x="245" 
d="M123 625l-1 -1c-9 0 -16 3 -22 9s-9 14 -9 23s3 16 9 22s14 9 23 9s16 -3 21 -9s8 -13 8 -22s-3 -16 -8 -22s-12 -9 -21 -9zM153 -176v3c-22 -9 -45 -14 -68 -14c-25 0 -46 6 -63 18s-25 30 -25 53c0 39 35 79 106 121v496h35v-500c-25 -17 -43 -30 -55 -39
s-23 -20 -34 -34s-17 -27 -17 -39c0 -32 20 -48 60 -48c19 0 37 4 53 11z" />
    <glyph glyph-name="Idotaccent" unicode="&#x130;" horiz-adv-x="255" 
d="M110 0v700h35v-700h-35zM97 835l-1 -1c0 9 3 16 9 22s14 9 23 9s16 -3 21 -9s8 -13 8 -22s-3 -16 -8 -22s-12 -9 -21 -9s-16 3 -22 9s-9 14 -9 23z" />
    <glyph glyph-name="dotlessi" unicode="&#x131;" horiz-adv-x="245" 
d="M140 500v-500h-35v500h35z" />
    <glyph glyph-name="IJ" unicode="&#x132;" horiz-adv-x="510" 
d="M110 0v700h35v-700h-35zM297 -129v-1c45 83 68 174 68 273v557h35v-557c0 -106 -24 -203 -73 -290z" />
    <glyph glyph-name="ij" unicode="&#x133;" horiz-adv-x="490" 
d="M140 500v-500h-35v500h35zM123 625l-1 -1c-9 0 -16 3 -22 9s-9 14 -9 23s3 16 9 22s14 9 23 9s16 -3 21 -9s8 -13 8 -22s-3 -16 -8 -22s-12 -9 -21 -9zM384 -40l-1 -1c0 -39 -7 -69 -22 -91s-39 -40 -72 -54l-13 30c27 13 46 28 57 44s16 40 16 72v539h35v-539zM396 655
l-1 -1c0 -9 -3 -16 -8 -22s-12 -9 -21 -9s-16 3 -22 9s-9 14 -9 23s3 16 9 22s14 9 23 9s16 -3 21 -9s8 -13 8 -22z" />
    <glyph glyph-name="Jcircumflex" unicode="&#x134;" horiz-adv-x="255" 
d="M42 -129v-1c45 83 68 174 68 273v557h35v-557c0 -106 -24 -203 -73 -290zM219 769l-91 108l-91 -108h-39l106 130h48l106 -130h-39z" />
    <glyph glyph-name="jcircumflex" unicode="&#x135;" horiz-adv-x="245" 
d="M33 -155l-1 -1c27 13 46 28 57 44s16 40 16 72v539h35v-539c0 -39 -7 -69 -22 -91s-39 -40 -72 -54zM212 584l-91 108l-91 -108h-39l106 130h48l106 -130h-39z" />
    <glyph glyph-name="uni0136" unicode="&#x136;" horiz-adv-x="617" 
d="M536 700l1 -2c-13 -68 -37 -128 -72 -181s-83 -102 -144 -148l262 -370h-45l-245 350c-41 -28 -90 -57 -148 -86v-264h-35v700h35v-399c110 58 193 118 248 179s91 135 108 221h35zM316 -62h35c-3 -51 -16 -100 -39 -147h-28c18 41 29 90 32 147z" />
    <glyph glyph-name="uni0137" unicode="&#x137;" horiz-adv-x="519" 
d="M443 500h1c-15 -93 -67 -174 -156 -243l193 -257h-43l-176 238c-30 -22 -70 -47 -121 -76v-162h-35v720l35 3v-525c88 52 152 99 192 141s66 96 77 161h33zM258 -60h35c-3 -51 -16 -100 -39 -147h-28c18 41 29 90 32 147z" />
    <glyph glyph-name="Lacute" unicode="&#x139;" horiz-adv-x="547" 
d="M110 0v700h35v-668h357v-32h-392zM204 900h42l-97 -130h-36z" />
    <glyph glyph-name="lacute" unicode="&#x13a;" horiz-adv-x="276" 
d="M135 723v-602c0 -35 6 -61 17 -77s30 -24 57 -24c9 0 18 1 28 3l4 -30c-10 -3 -21 -5 -32 -5c-73 0 -109 44 -109 133v599zM194 931h42l-97 -130h-36z" />
    <glyph glyph-name="uni013B" unicode="&#x13b;" horiz-adv-x="547" 
d="M110 0v700h35v-668h357v-32h-392zM279 -60h35c-3 -51 -16 -100 -39 -147h-28c18 41 29 90 32 147z" />
    <glyph glyph-name="uni013C" unicode="&#x13c;" horiz-adv-x="276" 
d="M135 723v-602c0 -35 6 -61 17 -77s30 -24 57 -24c9 0 18 1 28 3l4 -30c-10 -3 -21 -5 -32 -5c-73 0 -109 44 -109 133v599zM140 -60h35c-3 -51 -16 -100 -39 -147h-28c18 41 29 90 32 147z" />
    <glyph glyph-name="Lcaron" unicode="&#x13d;" horiz-adv-x="547" 
d="M110 0v700h35v-668h357v-32h-392zM309 700l35 1c-4 -59 -20 -115 -48 -168h-28c21 45 35 101 41 167z" />
    <glyph glyph-name="lcaron" unicode="&#x13e;" horiz-adv-x="276" 
d="M135 723v-602c0 -35 6 -61 17 -77s30 -24 57 -24c9 0 18 1 28 3l4 -30c-10 -3 -21 -5 -32 -5c-73 0 -109 44 -109 133v599zM243 719l35 1c-4 -59 -20 -115 -48 -168h-28c21 45 35 101 41 167z" />
    <glyph glyph-name="Ldot" unicode="&#x13f;" horiz-adv-x="547" 
d="M110 0v700h35v-668h357v-32h-392zM372 362c0 8 3 15 8 21s12 9 21 9c8 0 15 -3 20 -9s8 -13 8 -21s-3 -15 -8 -21s-12 -9 -20 -9c-9 0 -16 3 -21 9s-8 13 -8 21z" />
    <glyph glyph-name="ldot" unicode="&#x140;" horiz-adv-x="276" 
d="M135 723v-602c0 -35 6 -61 17 -77s30 -24 57 -24c9 0 18 1 28 3l4 -30c-10 -3 -21 -5 -32 -5c-73 0 -109 44 -109 133v599zM227 351c0 8 3 15 8 21s12 9 21 9c8 0 15 -3 20 -9s8 -13 8 -21s-3 -15 -8 -21s-12 -9 -20 -9c-9 0 -16 3 -21 9s-8 13 -8 21z" />
    <glyph glyph-name="Lslash" unicode="&#x141;" horiz-adv-x="562" 
d="M110 0v328l-93 -39v34l93 39v338h35v-324l145 61v-34l-145 -61v-310h357v-32h-392z" />
    <glyph glyph-name="lslash" unicode="&#x142;" horiz-adv-x="276" 
d="M29 318v34l71 33v335l35 3v-322l102 48v-34l-102 -48v-246c0 -35 6 -61 17 -77s30 -24 57 -24c9 0 18 1 28 3l4 -30c-10 -3 -21 -5 -32 -5c-73 0 -109 44 -109 133v230z" />
    <glyph glyph-name="Nacute" unicode="&#x143;" horiz-adv-x="720" 
d="M145 0l-36 -1v700h34c64 -110 129 -214 195 -312s146 -210 239 -337c-2 25 -3 58 -3 98v552h35v-700h-34c-103 138 -188 255 -254 352s-126 194 -179 292c2 -62 3 -98 3 -108v-536zM435 899h42l-97 -130h-36z" />
    <glyph glyph-name="nacute" unicode="&#x144;" horiz-adv-x="584" 
d="M135 0l-35 1v458c65 36 133 54 204 54c63 0 110 -15 140 -46s45 -73 45 -126v-340h-35v338c0 43 -12 77 -37 102s-62 38 -112 38c-64 0 -121 -14 -170 -42v-437zM370 716h42l-97 -130h-36z" />
    <glyph glyph-name="uni0145" unicode="&#x145;" horiz-adv-x="720" 
d="M145 0l-36 -1v700h34c64 -110 129 -214 195 -312s146 -210 239 -337c-2 25 -3 58 -3 98v552h35v-700h-34c-103 138 -188 255 -254 352s-126 194 -179 292c2 -62 3 -98 3 -108v-536zM343 -61h35c-3 -51 -16 -100 -39 -147h-28c18 41 29 90 32 147z" />
    <glyph glyph-name="uni0146" unicode="&#x146;" horiz-adv-x="584" 
d="M135 0l-35 1v458c65 36 133 54 204 54c63 0 110 -15 140 -46s45 -73 45 -126v-340h-35v338c0 43 -12 77 -37 102s-62 38 -112 38c-64 0 -121 -14 -170 -42v-437zM278 -59h35c-3 -51 -16 -100 -39 -147h-28c18 41 29 90 32 147z" />
    <glyph glyph-name="Ncaron" unicode="&#x147;" horiz-adv-x="720" 
d="M145 0l-36 -1v700h34c64 -110 129 -214 195 -312s146 -210 239 -337c-2 25 -3 58 -3 98v552h35v-700h-34c-103 138 -188 255 -254 352s-126 194 -179 292c2 -62 3 -98 3 -108v-536zM269 899l90 -105l90 105h40l-106 -130h-48l-106 130h40z" />
    <glyph glyph-name="ncaron" unicode="&#x148;" horiz-adv-x="584" 
d="M135 0l-35 1v458c65 36 133 54 204 54c63 0 110 -15 140 -46s45 -73 45 -126v-340h-35v338c0 43 -12 77 -37 102s-62 38 -112 38c-64 0 -121 -14 -170 -42v-437zM204 716l90 -105l90 105h40l-106 -130h-48l-106 130h40z" />
    <glyph glyph-name="Omacron" unicode="&#x14c;" horiz-adv-x="706" 
d="M636 350l-4 -2c0 -69 -9 -130 -28 -183s-50 -96 -93 -129s-97 -50 -161 -50s-118 17 -161 50s-74 76 -93 129s-28 114 -28 183c0 51 6 98 17 141s28 81 50 115s52 60 89 79s80 29 129 29c64 0 118 -17 161 -50s74 -76 93 -129s29 -114 29 -183zM103 348l-3 -1
c0 -96 20 -175 61 -237s103 -93 186 -93c43 0 81 9 113 27s58 42 77 73s33 66 42 105s14 81 14 126s-5 87 -14 126s-23 74 -42 105s-45 55 -77 73s-69 27 -112 27s-81 -9 -113 -27s-57 -42 -76 -73s-33 -66 -42 -105s-14 -81 -14 -126zM223 806v32h246v-32h-246z" />
    <glyph glyph-name="omacron" unicode="&#x14d;" 
d="M498 250l-1 -2c0 -79 -19 -142 -57 -190s-91 -72 -160 -72c-68 0 -121 24 -159 72s-57 112 -57 191s19 143 57 191s91 72 159 72c69 0 123 -24 161 -72s57 -111 57 -190zM101 248v-2c0 -71 15 -127 45 -168s75 -61 134 -61c61 0 106 21 136 62s45 97 45 168
s-15 127 -45 168s-75 62 -136 62c-59 0 -104 -20 -134 -61s-45 -97 -45 -168zM158 620v32h246v-32h-246z" />
    <glyph glyph-name="Obreve" unicode="&#x14e;" horiz-adv-x="706" 
d="M636 350l-4 -2c0 -69 -9 -130 -28 -183s-50 -96 -93 -129s-97 -50 -161 -50s-118 17 -161 50s-74 76 -93 129s-28 114 -28 183c0 51 6 98 17 141s28 81 50 115s52 60 89 79s80 29 129 29c64 0 118 -17 161 -50s74 -76 93 -129s29 -114 29 -183zM103 348l-3 -1
c0 -96 20 -175 61 -237s103 -93 186 -93c43 0 81 9 113 27s58 42 77 73s33 66 42 105s14 81 14 126s-5 87 -14 126s-23 74 -42 105s-45 55 -77 73s-69 27 -112 27s-81 -9 -113 -27s-57 -42 -76 -73s-33 -66 -42 -105s-14 -81 -14 -126zM476 883l-2 -1
c-3 -35 -16 -62 -39 -81s-53 -28 -91 -28s-68 10 -91 29s-36 46 -39 81h32c7 -51 40 -77 99 -77s92 26 99 77h32z" />
    <glyph glyph-name="obreve" unicode="&#x14f;" 
d="M498 250l-1 -2c0 -79 -19 -142 -57 -190s-91 -72 -160 -72c-68 0 -121 24 -159 72s-57 112 -57 191s19 143 57 191s91 72 159 72c69 0 123 -24 161 -72s57 -111 57 -190zM101 248v-2c0 -71 15 -127 45 -168s75 -61 134 -61c61 0 106 21 136 62s45 97 45 168
s-15 127 -45 168s-75 62 -136 62c-59 0 -104 -20 -134 -61s-45 -97 -45 -168zM411 697l-2 -1c-3 -35 -16 -62 -39 -81s-53 -28 -91 -28s-68 10 -91 29s-36 46 -39 81h32c7 -51 40 -77 99 -77s92 26 99 77h32z" />
    <glyph glyph-name="Ohungarumlaut" unicode="&#x150;" horiz-adv-x="706" 
d="M636 350l-4 -2c0 -69 -9 -130 -28 -183s-50 -96 -93 -129s-97 -50 -161 -50s-118 17 -161 50s-74 76 -93 129s-28 114 -28 183c0 51 6 98 17 141s28 81 50 115s52 60 89 79s80 29 129 29c64 0 118 -17 161 -50s74 -76 93 -129s29 -114 29 -183zM103 348l-3 -1
c0 -96 20 -175 61 -237s103 -93 186 -93c43 0 81 9 113 27s58 42 77 73s33 66 42 105s14 81 14 126s-5 87 -14 126s-23 74 -42 105s-45 55 -77 73s-69 27 -112 27s-81 -9 -113 -27s-57 -42 -76 -73s-33 -66 -42 -105s-14 -81 -14 -126zM475 897h42l-96 -130h-37zM345 897h42
l-96 -130h-37z" />
    <glyph glyph-name="ohungarumlaut" unicode="&#x151;" 
d="M498 250l-1 -2c0 -79 -19 -142 -57 -190s-91 -72 -160 -72c-68 0 -121 24 -159 72s-57 112 -57 191s19 143 57 191s91 72 159 72c69 0 123 -24 161 -72s57 -111 57 -190zM101 248v-2c0 -71 15 -127 45 -168s75 -61 134 -61c61 0 106 21 136 62s45 97 45 168
s-15 127 -45 168s-75 62 -136 62c-59 0 -104 -20 -134 -61s-45 -97 -45 -168zM410 711h42l-96 -130h-37zM280 711h42l-96 -130h-37z" />
    <glyph glyph-name="OE" unicode="&#x152;" horiz-adv-x="1052" 
d="M992 32l-3 -34h-393v165c-41 -118 -123 -177 -246 -177c-64 0 -118 17 -161 50s-74 76 -93 129s-28 114 -28 183c0 51 6 98 17 141s28 81 50 115s52 60 89 79s80 29 129 29c123 0 205 -59 246 -177v165h393v-32h-358v-290h308v-32h-308v-314h358zM104 348l-2 3
c0 -96 20 -175 61 -237s103 -93 186 -93s145 31 185 92s60 140 60 237s-20 176 -60 237s-102 92 -185 92c-43 0 -81 -9 -113 -27s-57 -42 -76 -73s-33 -66 -42 -105s-14 -81 -14 -126z" />
    <glyph glyph-name="oe" unicode="&#x153;" horiz-adv-x="945" 
d="M102 250v-2c0 -71 15 -127 45 -168s75 -61 134 -61c61 0 106 21 136 62s45 97 45 168s-15 127 -45 168s-75 62 -136 62c-59 0 -104 -20 -134 -61s-45 -97 -45 -168zM683 477v-2c-55 0 -98 -18 -130 -54s-50 -84 -55 -145h348v23c0 49 -13 91 -40 126s-68 52 -123 52z
M880 20l-2 -2c-50 -24 -105 -36 -166 -36c-118 0 -196 50 -234 151c-34 -101 -100 -151 -199 -151c-68 0 -121 24 -159 72s-57 112 -57 191s19 143 57 191s91 72 159 72c99 0 165 -50 199 -151c37 101 105 151 203 151c64 0 113 -20 147 -61s51 -92 51 -153
c0 -16 -1 -33 -3 -51h-381c1 -75 21 -131 60 -169s92 -57 159 -57c53 0 105 12 157 35z" />
    <glyph glyph-name="Racute" unicode="&#x154;" horiz-adv-x="613" 
d="M257 668l-111 -1v-324h112c74 0 130 13 168 39s57 68 57 126c0 57 -19 98 -57 123s-94 37 -169 37zM569 -1h-44l-136 211c-25 38 -47 64 -66 79s-45 22 -78 22h-97v-312h-35v700h147c86 0 151 -15 195 -45s66 -79 66 -147c0 -59 -18 -105 -54 -138s-81 -50 -135 -52
c14 -5 27 -13 39 -25s28 -33 47 -63zM354 899h42l-97 -130h-36z" />
    <glyph glyph-name="racute" unicode="&#x155;" horiz-adv-x="373" 
d="M105 457c59 37 129 55 210 55c10 0 23 -1 38 -3l-5 -33c-10 2 -21 3 -33 3c-69 0 -127 -14 -175 -43v-436h-35v457zM294 715h42l-97 -130h-36z" />
    <glyph glyph-name="uni0156" unicode="&#x156;" horiz-adv-x="613" 
d="M257 668l-111 -1v-324h112c74 0 130 13 168 39s57 68 57 126c0 57 -19 98 -57 123s-94 37 -169 37zM569 -1h-44l-136 211c-25 38 -47 64 -66 79s-45 22 -78 22h-97v-312h-35v700h147c86 0 151 -15 195 -45s66 -79 66 -147c0 -59 -18 -105 -54 -138s-81 -50 -135 -52
c14 -5 27 -13 39 -25s28 -33 47 -63zM302 -61h35c-3 -51 -16 -100 -39 -147h-28c18 41 29 90 32 147z" />
    <glyph glyph-name="uni0157" unicode="&#x157;" horiz-adv-x="373" 
d="M105 457c59 37 129 55 210 55c10 0 23 -1 38 -3l-5 -33c-10 2 -21 3 -33 3c-69 0 -127 -14 -175 -43v-436h-35v457zM110 -60h35c-3 -51 -16 -100 -39 -147h-28c18 41 29 90 32 147z" />
    <glyph glyph-name="Rcaron" unicode="&#x158;" horiz-adv-x="613" 
d="M257 668l-111 -1v-324h112c74 0 130 13 168 39s57 68 57 126c0 57 -19 98 -57 123s-94 37 -169 37zM569 -1h-44l-136 211c-25 38 -47 64 -66 79s-45 22 -78 22h-97v-312h-35v700h147c86 0 151 -15 195 -45s66 -79 66 -147c0 -59 -18 -105 -54 -138s-81 -50 -135 -52
c14 -5 27 -13 39 -25s28 -33 47 -63zM188 899l90 -105l90 105h40l-106 -130h-48l-106 130h40z" />
    <glyph glyph-name="rcaron" unicode="&#x159;" horiz-adv-x="373" 
d="M105 457c59 37 129 55 210 55c10 0 23 -1 38 -3l-5 -33c-10 2 -21 3 -33 3c-69 0 -127 -14 -175 -43v-436h-35v457zM128 715l90 -105l90 105h40l-106 -130h-48l-106 130h40z" />
    <glyph glyph-name="Sacute" unicode="&#x15a;" horiz-adv-x="544" 
d="M60 24l6 38c73 -25 137 -38 192 -38c60 0 107 12 141 37s51 62 51 112c0 26 -4 49 -13 68s-24 36 -44 50s-40 25 -60 33s-47 17 -81 27c-65 20 -112 44 -142 72s-45 68 -45 120c0 55 19 97 58 126s92 44 159 44c54 0 106 -9 157 -27l-8 -31c-56 17 -105 25 -146 25
c-121 0 -182 -46 -182 -138c0 -44 13 -77 39 -99s68 -42 126 -60c29 -9 52 -17 69 -24s37 -16 59 -28s39 -25 51 -39s22 -31 30 -52s12 -45 12 -72c0 -33 -6 -62 -19 -86s-31 -43 -53 -56s-46 -23 -72 -29s-54 -9 -85 -9c-73 0 -140 12 -200 36zM343 903h42l-97 -130h-36z
" />
    <glyph glyph-name="sacute" unicode="&#x15b;" horiz-adv-x="428" 
d="M348 489l-5 -34c-43 14 -84 21 -122 21c-85 0 -127 -33 -127 -100c0 -14 3 -27 8 -38s11 -20 17 -27s16 -14 30 -21s25 -12 32 -15s19 -7 36 -13c58 -19 100 -38 127 -58s40 -49 40 -87c0 -44 -16 -77 -48 -99s-74 -33 -125 -33c-29 0 -59 3 -91 9s-55 12 -69 19l9 33
c53 -19 103 -28 150 -28c43 0 76 9 100 26s36 42 36 74c0 29 -11 51 -34 67s-60 32 -111 48c-47 15 -83 33 -108 54s-38 51 -38 91c0 43 14 76 43 99s69 35 121 35c51 0 94 -8 129 -23zM289 712h42l-97 -130h-36z" />
    <glyph glyph-name="Scircumflex" unicode="&#x15c;" horiz-adv-x="544" 
d="M60 24l6 38c73 -25 137 -38 192 -38c60 0 107 12 141 37s51 62 51 112c0 26 -4 49 -13 68s-24 36 -44 50s-40 25 -60 33s-47 17 -81 27c-65 20 -112 44 -142 72s-45 68 -45 120c0 55 19 97 58 126s92 44 159 44c54 0 106 -9 157 -27l-8 -31c-56 17 -105 25 -146 25
c-121 0 -182 -46 -182 -138c0 -44 13 -77 39 -99s68 -42 126 -60c29 -9 52 -17 69 -24s37 -16 59 -28s39 -25 51 -39s22 -31 30 -52s12 -45 12 -72c0 -33 -6 -62 -19 -86s-31 -43 -53 -56s-46 -23 -72 -29s-54 -9 -85 -9c-73 0 -140 12 -200 36zM358 773l-91 108l-91 -108
h-39l106 130h48l106 -130h-39z" />
    <glyph glyph-name="scircumflex" unicode="&#x15d;" horiz-adv-x="428" 
d="M348 489l-5 -34c-43 14 -84 21 -122 21c-85 0 -127 -33 -127 -100c0 -14 3 -27 8 -38s11 -20 17 -27s16 -14 30 -21s25 -12 32 -15s19 -7 36 -13c58 -19 100 -38 127 -58s40 -49 40 -87c0 -44 -16 -77 -48 -99s-74 -33 -125 -33c-29 0 -59 3 -91 9s-55 12 -69 19l9 33
c53 -19 103 -28 150 -28c43 0 76 9 100 26s36 42 36 74c0 29 -11 51 -34 67s-60 32 -111 48c-47 15 -83 33 -108 54s-38 51 -38 91c0 43 14 76 43 99s69 35 121 35c51 0 94 -8 129 -23zM304 582l-91 108l-91 -108h-39l106 130h48l106 -130h-39z" />
    <glyph glyph-name="uni015E" unicode="&#x15e;" horiz-adv-x="544" 
d="M60 24l8 38c73 -25 137 -38 192 -38c60 0 107 12 141 37s51 62 51 112c0 26 -4 49 -13 68s-24 36 -44 50s-40 25 -60 33s-47 17 -81 27c-65 20 -112 44 -142 72s-45 68 -45 120c0 55 19 97 58 126s92 44 159 44c54 0 106 -9 157 -27l-8 -31c-56 17 -105 25 -146 25
c-121 0 -182 -46 -182 -138c0 -44 13 -77 39 -99s68 -42 126 -60c29 -9 52 -17 69 -24s37 -16 59 -28s39 -25 51 -39s22 -31 30 -52s12 -45 12 -72c0 -41 -10 -75 -31 -103s-46 -47 -76 -58s-64 -18 -103 -20l-16 -47c61 -3 91 -28 91 -74c0 -25 -10 -44 -29 -57
s-45 -19 -77 -19c-19 0 -37 2 -54 7l6 28c17 -4 33 -6 48 -6c48 0 72 16 72 47c0 17 -7 29 -21 36s-34 11 -61 12l-9 22l18 52c-71 2 -134 14 -189 36z" />
    <glyph glyph-name="uni015F" unicode="&#x15f;" horiz-adv-x="428" 
d="M348 489l-2 -35c-51 14 -92 21 -122 21c-41 0 -72 -6 -94 -19s-33 -36 -33 -70c0 -29 9 -50 26 -63s48 -27 93 -43c31 -11 55 -20 72 -28s34 -18 51 -30s29 -26 36 -42s11 -35 11 -58c0 -44 -15 -77 -45 -100s-69 -35 -117 -36l-16 -47c61 -3 91 -28 91 -74
c0 -25 -10 -44 -29 -57s-45 -19 -77 -19c-19 0 -37 2 -54 7l6 28c17 -4 33 -6 48 -6c48 0 72 16 72 47c0 17 -7 29 -21 36s-34 11 -61 12l-9 22l18 52c-41 1 -88 10 -141 27l8 34c53 -19 104 -28 152 -28c43 0 76 9 100 26s36 43 36 77c0 33 -12 58 -36 75s-64 35 -121 54
c-47 16 -81 34 -103 53s-33 47 -33 84c0 82 55 123 164 123c34 0 77 -8 130 -23z" />
    <glyph glyph-name="Scaron" unicode="&#x160;" horiz-adv-x="544" 
d="M60 24l6 38c73 -25 137 -38 192 -38c60 0 107 12 141 37s51 62 51 112c0 26 -4 49 -13 68s-24 36 -44 50s-40 25 -60 33s-47 17 -81 27c-65 20 -112 44 -142 72s-45 68 -45 120c0 55 19 97 58 126s92 44 159 44c54 0 106 -9 157 -27l-8 -31c-56 17 -105 25 -146 25
c-121 0 -182 -46 -182 -138c0 -44 13 -77 39 -99s68 -42 126 -60c29 -9 52 -17 69 -24s37 -16 59 -28s39 -25 51 -39s22 -31 30 -52s12 -45 12 -72c0 -33 -6 -62 -19 -86s-31 -43 -53 -56s-46 -23 -72 -29s-54 -9 -85 -9c-73 0 -140 12 -200 36zM177 903l90 -105l90 105h40
l-106 -130h-48l-106 130h40z" />
    <glyph glyph-name="scaron" unicode="&#x161;" horiz-adv-x="428" 
d="M348 489l-5 -34c-43 14 -84 21 -122 21c-85 0 -127 -33 -127 -100c0 -14 3 -27 8 -38s11 -20 17 -27s16 -14 30 -21s25 -12 32 -15s19 -7 36 -13c58 -19 100 -38 127 -58s40 -49 40 -87c0 -44 -16 -77 -48 -99s-74 -33 -125 -33c-29 0 -59 3 -91 9s-55 12 -69 19l9 33
c53 -19 103 -28 150 -28c43 0 76 9 100 26s36 42 36 74c0 29 -11 51 -34 67s-60 32 -111 48c-47 15 -83 33 -108 54s-38 51 -38 91c0 43 14 76 43 99s69 35 121 35c51 0 94 -8 129 -23zM123 712l90 -105l90 105h40l-106 -130h-48l-106 130h40z" />
    <glyph glyph-name="uni0162" unicode="&#x162;" horiz-adv-x="549" 
d="M257 0v667h-227v32h489v-32h-227v-668h-3l-20 -59c61 -3 91 -28 91 -74c0 -25 -10 -44 -29 -57s-45 -19 -77 -19c-19 0 -37 2 -54 7l6 28c17 -4 33 -6 48 -6c48 0 72 16 72 47c0 17 -7 29 -21 36s-34 11 -61 12l-9 22z" />
    <glyph glyph-name="uni0163" unicode="&#x163;" horiz-adv-x="328" 
d="M79 -202l5 27c17 -4 33 -6 48 -6c48 0 72 16 72 47c0 17 -7 29 -21 36s-34 11 -61 12l-9 22l28 82c-25 23 -37 60 -37 110v340h-80v32h80v123l35 4v-127h149v-32h-149v-340c0 -39 8 -67 24 -83s39 -24 70 -24c22 0 44 3 66 10l3 -32c-23 -7 -46 -11 -68 -11
c-25 0 -47 4 -66 13l-20 -60c61 -3 91 -28 91 -74c0 -25 -10 -44 -29 -57s-45 -19 -77 -19c-19 0 -37 2 -54 7z" />
    <glyph glyph-name="Tcaron" unicode="&#x164;" horiz-adv-x="549" 
d="M257 0v668h-227v32h489v-32h-227v-668h-35zM184 900l90 -105l90 105h40l-106 -130h-48l-106 130h40z" />
    <glyph glyph-name="tcaron" unicode="&#x165;" horiz-adv-x="328" 
d="M303 -1c-23 -7 -46 -11 -68 -11c-87 0 -130 47 -130 140v340h-80v32h80v123l35 4v-127h149v-32h-149v-340c0 -39 8 -67 24 -83s39 -24 70 -24c22 0 44 3 66 10zM236 729l35 1c-4 -59 -20 -115 -48 -168h-28c21 45 35 101 41 167z" />
    <glyph glyph-name="Tbar" unicode="&#x166;" horiz-adv-x="549" 
d="M257 0v358h-147v32h147v278h-227v32h489v-32h-227v-278h147v-32h-147v-358h-35z" />
    <glyph glyph-name="tbar" unicode="&#x167;" horiz-adv-x="328" 
d="M289 500l1 -33h-149v-138h149v-32h-149v-152c0 -46 8 -78 23 -96s39 -27 72 -27c21 0 42 3 64 10l3 -33c-23 -7 -47 -11 -72 -11c-40 0 -71 12 -93 36s-33 65 -33 122v152h-80v32h80v138h-80v32h80v123l35 4v-127h149z" />
    <glyph glyph-name="Utilde" unicode="&#x168;" horiz-adv-x="700" 
d="M105 265l2 435h35v-435c0 -84 17 -146 51 -185s87 -59 158 -59s124 20 158 59s51 101 51 185v435h35v-435c0 -97 -20 -167 -60 -211s-102 -66 -185 -66s-145 22 -185 66s-60 114 -60 211zM423 816l-1 1c11 0 19 3 25 9s10 13 12 21s3 20 4 36h32c-1 -14 -2 -26 -4 -36
s-5 -20 -10 -30s-12 -18 -22 -24s-22 -9 -36 -9c-21 0 -45 10 -73 30s-50 30 -65 30c-16 0 -27 -5 -33 -15s-10 -24 -11 -43h-32c2 60 27 90 75 90c21 0 46 -10 76 -30s51 -30 63 -30z" />
    <glyph glyph-name="utilde" unicode="&#x169;" horiz-adv-x="574" 
d="M474 42v-1c-69 -36 -139 -54 -210 -54c-57 0 -100 14 -128 43s-42 69 -42 120v350h35v-348c0 -41 11 -73 33 -96s56 -35 102 -35c65 0 123 14 175 42v437h35v-458zM363 630l-1 1c11 0 19 3 25 9s10 13 12 21s3 20 4 36h32c-1 -14 -2 -26 -4 -36s-5 -20 -10 -30
s-12 -18 -22 -24s-22 -9 -36 -9c-21 0 -45 10 -73 30s-50 30 -65 30c-16 0 -27 -5 -33 -15s-10 -24 -11 -43h-32c2 60 27 90 75 90c21 0 46 -10 76 -30s51 -30 63 -30z" />
    <glyph glyph-name="Umacron" unicode="&#x16a;" horiz-adv-x="700" 
d="M105 265l2 435h35v-435c0 -84 17 -146 51 -185s87 -59 158 -59s124 20 158 59s51 101 51 185v435h35v-435c0 -97 -20 -167 -60 -211s-102 -66 -185 -66s-145 22 -185 66s-60 114 -60 211zM229 809v32h246v-32h-246z" />
    <glyph glyph-name="umacron" unicode="&#x16b;" horiz-adv-x="574" 
d="M474 42v-1c-69 -36 -139 -54 -210 -54c-57 0 -100 14 -128 43s-42 69 -42 120v350h35v-348c0 -41 11 -73 33 -96s56 -35 102 -35c65 0 123 14 175 42v437h35v-458zM169 623v32h246v-32h-246z" />
    <glyph glyph-name="Ubreve" unicode="&#x16c;" horiz-adv-x="700" 
d="M105 265l2 435h35v-435c0 -84 17 -146 51 -185s87 -59 158 -59s124 20 158 59s51 101 51 185v435h35v-435c0 -97 -20 -167 -60 -211s-102 -66 -185 -66s-145 22 -185 66s-60 114 -60 211zM482 886l-2 -1c-3 -35 -16 -62 -39 -81s-53 -28 -91 -28s-68 10 -91 29
s-36 46 -39 81h32c7 -51 40 -77 99 -77s92 26 99 77h32z" />
    <glyph glyph-name="ubreve" unicode="&#x16d;" horiz-adv-x="574" 
d="M474 42v-1c-69 -36 -139 -54 -210 -54c-57 0 -100 14 -128 43s-42 69 -42 120v350h35v-348c0 -41 11 -73 33 -96s56 -35 102 -35c65 0 123 14 175 42v437h35v-458zM422 700l-2 -1c-3 -35 -16 -62 -39 -81s-53 -28 -91 -28s-68 10 -91 29s-36 46 -39 81h32
c7 -51 40 -77 99 -77s92 26 99 77h32z" />
    <glyph glyph-name="Uring" unicode="&#x16e;" horiz-adv-x="700" 
d="M105 265l2 435h35v-435c0 -84 17 -146 51 -185s87 -59 158 -59s124 20 158 59s51 101 51 185v435h35v-435c0 -97 -20 -167 -60 -211s-102 -66 -185 -66s-145 22 -185 66s-60 114 -60 211zM260 845l-2 -1c0 26 9 48 27 65s40 26 66 26s48 -9 66 -26s27 -39 27 -65
c0 -27 -9 -49 -26 -66s-39 -25 -66 -25s-49 9 -66 26s-26 39 -26 66zM411 844c0 18 -5 33 -16 45s-26 18 -45 18s-34 -6 -45 -18s-16 -27 -16 -45c0 -17 5 -32 16 -45s26 -19 45 -19s34 6 45 19s16 28 16 45z" />
    <glyph glyph-name="uring" unicode="&#x16f;" horiz-adv-x="574" 
d="M474 42v-1c-69 -36 -139 -54 -210 -54c-57 0 -100 14 -128 43s-42 69 -42 120v350h35v-348c0 -41 11 -73 33 -96s56 -35 102 -35c65 0 123 14 175 42v437h35v-458zM200 659l-2 -1c0 26 9 48 27 65s40 26 66 26s48 -9 66 -26s27 -39 27 -65c0 -27 -9 -49 -26 -66
s-39 -25 -66 -25s-49 9 -66 26s-26 39 -26 66zM351 658c0 18 -5 33 -16 45s-26 18 -45 18s-34 -6 -45 -18s-16 -27 -16 -45c0 -17 5 -32 16 -45s26 -19 45 -19s34 6 45 19s16 28 16 45z" />
    <glyph glyph-name="Uhungarumlaut" unicode="&#x170;" horiz-adv-x="700" 
d="M105 265l2 435h35v-435c0 -84 17 -146 51 -185s87 -59 158 -59s124 20 158 59s51 101 51 185v435h35v-435c0 -97 -20 -167 -60 -211s-102 -66 -185 -66s-145 22 -185 66s-60 114 -60 211zM481 900h42l-96 -130h-37zM351 900h42l-96 -130h-37z" />
    <glyph glyph-name="uhungarumlaut" unicode="&#x171;" horiz-adv-x="574" 
d="M474 42v-1c-69 -36 -139 -54 -210 -54c-57 0 -100 14 -128 43s-42 69 -42 120v350h35v-348c0 -41 11 -73 33 -96s56 -35 102 -35c65 0 123 14 175 42v437h35v-458zM421 714h42l-96 -130h-37zM291 714h42l-96 -130h-37z" />
    <glyph glyph-name="Uogonek" unicode="&#x172;" horiz-adv-x="700" 
d="M105 265l3 436h35v-435c0 -84 17 -146 51 -185s87 -59 158 -59s124 20 158 59s51 101 51 185v435h35v-435c0 -82 -14 -145 -43 -189s-73 -71 -132 -82c-33 -21 -57 -39 -73 -55s-24 -32 -24 -49c0 -32 20 -48 60 -48c19 0 37 4 53 11l8 -28c-22 -9 -45 -14 -68 -14
c-25 0 -46 6 -63 18s-25 30 -25 53c0 35 27 70 81 105h-20c-83 0 -145 22 -185 66s-60 114 -60 211z" />
    <glyph glyph-name="uogonek" unicode="&#x173;" horiz-adv-x="574" 
d="M474 42l-1 2c-24 -22 -42 -39 -54 -52s-24 -29 -35 -48s-17 -37 -17 -54c0 -32 20 -48 60 -48c19 0 37 4 53 11l8 -28c-22 -9 -45 -14 -68 -14c-25 0 -46 6 -63 18s-25 30 -25 53c0 42 23 84 68 127c-43 -15 -88 -22 -136 -22c-57 0 -100 14 -128 43s-42 69 -42 120v350
h35v-348c0 -41 11 -73 33 -96s56 -35 102 -35c65 0 123 14 175 42v437h35v-458z" />
    <glyph glyph-name="Wcircumflex" unicode="&#x174;" horiz-adv-x="952" 
d="M685 32h-2c88 218 153 441 196 668h36c-50 -243 -121 -476 -213 -700h-38c-45 107 -82 209 -110 307s-55 212 -80 342c-25 -130 -52 -244 -80 -342s-65 -200 -110 -307h-38c-49 118 -90 230 -122 335s-62 227 -91 365h36c48 -240 113 -463 196 -668
c83 213 146 436 189 668h42c43 -232 106 -455 189 -668zM565 770l-91 108l-91 -108h-39l106 130h48l106 -130h-39z" />
    <glyph glyph-name="wcircumflex" unicode="&#x175;" horiz-adv-x="782" 
d="M390 500h2c23 -147 75 -302 156 -465c43 87 77 167 102 239s43 148 54 227h35c-23 -151 -81 -318 -174 -501h-37c-63 125 -109 237 -138 337c-30 -107 -75 -219 -135 -336h-38c-45 90 -82 174 -110 252s-49 161 -62 248h35c23 -145 75 -300 156 -465
c66 132 112 255 137 368c-7 29 -13 61 -18 96h35zM471 585l-91 108l-91 -108h-39l106 130h48l106 -130h-39z" />
    <glyph glyph-name="Ycircumflex" unicode="&#x176;" 
d="M264 0v304c-106 133 -187 265 -244 395h39c28 -65 59 -125 94 -181s78 -117 130 -184c95 121 169 243 222 366h38c-62 -137 -143 -269 -244 -395v-305h-35zM373 769l-91 108l-91 -108h-39l106 130h48l106 -130h-39z" />
    <glyph glyph-name="ycircumflex" unicode="&#x177;" horiz-adv-x="504" 
d="M277 0h2c-55 -97 -127 -158 -216 -183l-10 32c40 11 75 29 105 53s58 58 84 101c-101 159 -166 325 -195 497h35c26 -150 86 -305 179 -465c89 162 147 317 173 465h35c-15 -87 -38 -169 -69 -247s-72 -162 -123 -253zM354 585l-91 108l-91 -108h-39l106 130h48l106 -130
h-39z" />
    <glyph glyph-name="Ydieresis" unicode="&#x178;" 
d="M264 0v304c-106 133 -187 265 -244 395h39c28 -65 59 -125 94 -181s78 -117 130 -184c95 121 169 243 222 366h38c-62 -137 -143 -269 -244 -395v-305h-35zM237 834c0 -9 -3 -17 -8 -23s-12 -9 -21 -9c-10 0 -18 3 -23 9s-8 14 -8 23s3 16 8 22s13 9 23 9
c9 0 16 -3 21 -9s8 -13 8 -22zM387 834l-1 -1c0 -9 -2 -16 -7 -22s-12 -9 -21 -9c-21 0 -32 11 -32 32c0 9 3 16 8 22s13 9 24 9c9 0 16 -3 21 -9s8 -13 8 -22z" />
    <glyph glyph-name="Zacute" unicode="&#x179;" horiz-adv-x="554" 
d="M495 673v1c-51 -113 -107 -217 -169 -312s-141 -205 -238 -330h421v-32h-464v27c197 258 335 472 414 641h-404v32h440v-27zM348 901h42l-97 -130h-36z" />
    <glyph glyph-name="zacute" unicode="&#x17a;" horiz-adv-x="454" 
d="M55 500h356v-27c-79 -139 -189 -286 -329 -441h343v-32h-389v27c143 157 254 304 333 441h-314v32zM307 715h42l-97 -130h-36z" />
    <glyph glyph-name="Zdotaccent" unicode="&#x17b;" horiz-adv-x="554" 
d="M495 673v1c-51 -113 -107 -217 -169 -312s-141 -205 -238 -330h421v-32h-464v27c197 258 335 472 414 641h-404v32h440v-27zM241 836l-1 -1c0 9 3 16 9 22s14 9 23 9s16 -3 21 -9s8 -13 8 -22s-3 -16 -8 -22s-12 -9 -21 -9s-16 3 -22 9s-9 14 -9 23z" />
    <glyph glyph-name="zdotaccent" unicode="&#x17c;" horiz-adv-x="454" 
d="M55 500h356v-27c-79 -139 -189 -286 -329 -441h343v-32h-389v27c143 157 254 304 333 441h-314v32zM200 650l-1 -1c0 9 3 16 9 22s14 9 23 9s16 -3 21 -9s8 -13 8 -22s-3 -16 -8 -22s-12 -9 -21 -9s-16 3 -22 9s-9 14 -9 23z" />
    <glyph glyph-name="Zcaron" unicode="&#x17d;" horiz-adv-x="554" 
d="M495 673v1c-51 -113 -107 -217 -169 -312s-141 -205 -238 -330h421v-32h-464v27c197 258 335 472 414 641h-404v32h440v-27zM182 901l90 -105l90 105h40l-106 -130h-48l-106 130h40z" />
    <glyph glyph-name="zcaron" unicode="&#x17e;" horiz-adv-x="454" 
d="M55 500h356v-27c-79 -139 -189 -286 -329 -441h343v-32h-389v27c143 157 254 304 333 441h-314v32zM141 715l90 -105l90 105h40l-106 -130h-48l-106 130h40z" />
    <glyph glyph-name="florin" unicode="&#x192;" horiz-adv-x="398" 
d="M79 500h80v76c0 103 43 155 129 155c22 0 45 -4 70 -11l-9 -31c-25 6 -45 9 -60 9c-35 0 -59 -10 -73 -31s-21 -51 -21 -91v-76h147v-32h-147v-506c0 -103 -43 -155 -129 -155c-22 0 -45 4 -70 11l9 31c25 -6 45 -9 60 -9c35 0 59 10 73 31s21 51 21 91v506h-80v32z" />
    <glyph glyph-name="uni0218" unicode="&#x218;" horiz-adv-x="544" 
d="M60 24l6 38c73 -25 137 -38 192 -38c60 0 107 12 141 37s51 62 51 112c0 26 -4 49 -13 68s-24 36 -44 50s-40 25 -60 33s-47 17 -81 27c-65 20 -112 44 -142 72s-45 68 -45 120c0 55 19 97 58 126s92 44 159 44c54 0 106 -9 157 -27l-8 -31c-56 17 -105 25 -146 25
c-121 0 -182 -46 -182 -138c0 -44 13 -77 39 -99s68 -42 126 -60c29 -9 52 -17 69 -24s37 -16 59 -28s39 -25 51 -39s22 -31 30 -52s12 -45 12 -72c0 -33 -6 -62 -19 -86s-31 -43 -53 -56s-46 -23 -72 -29s-54 -9 -85 -9c-73 0 -140 12 -200 36zM266 -57h35
c-3 -51 -16 -100 -39 -147h-28c18 41 29 90 32 147z" />
    <glyph glyph-name="uni0219" unicode="&#x219;" horiz-adv-x="428" 
d="M348 489l-5 -34c-43 14 -84 21 -122 21c-85 0 -127 -33 -127 -100c0 -14 3 -27 8 -38s11 -20 17 -27s16 -14 30 -21s25 -12 32 -15s19 -7 36 -13c58 -19 100 -38 127 -58s40 -49 40 -87c0 -44 -16 -77 -48 -99s-74 -33 -125 -33c-29 0 -59 3 -91 9s-55 12 -69 19l9 33
c53 -19 103 -28 150 -28c43 0 76 9 100 26s36 42 36 74c0 29 -11 51 -34 67s-60 32 -111 48c-47 15 -83 33 -108 54s-38 51 -38 91c0 43 14 76 43 99s69 35 121 35c51 0 94 -8 129 -23zM213 -63h35c-3 -51 -16 -100 -39 -147h-28c18 41 29 90 32 147z" />
    <glyph glyph-name="uni021A" unicode="&#x21a;" horiz-adv-x="549" 
d="M257 0v668h-227v32h489v-32h-227v-668h-35zM258 -60h35c-3 -51 -16 -100 -39 -147h-28c18 41 29 90 32 147z" />
    <glyph glyph-name="uni021B" unicode="&#x21b;" horiz-adv-x="328" 
d="M303 -1c-23 -7 -46 -11 -68 -11c-87 0 -130 47 -130 140v340h-80v32h80v123l35 4v-127h149v-32h-149v-340c0 -39 8 -67 24 -83s39 -24 70 -24c22 0 44 3 66 10zM152 -60h35c-3 -51 -16 -100 -39 -147h-28c18 41 29 90 32 147z" />
    <glyph glyph-name="uni0237" unicode="&#x237;" horiz-adv-x="245" 
d="M33 -155l-1 -1c27 13 46 28 57 44s16 40 16 72v539h35v-539c0 -39 -7 -69 -22 -91s-39 -40 -72 -54z" />
    <glyph glyph-name="circumflex" unicode="&#x2c6;" horiz-adv-x="500" 
d="M341 570l-91 108l-91 -108h-39l106 130h48l106 -130h-39z" />
    <glyph glyph-name="caron" unicode="&#x2c7;" horiz-adv-x="500" 
d="M150 700l90 -105l90 105h40l-106 -130h-48l-106 130h40z" />
    <glyph glyph-name="breve" unicode="&#x2d8;" horiz-adv-x="500" 
d="M380 686l-2 -1c-3 -35 -16 -62 -39 -81s-53 -28 -91 -28s-68 10 -91 29s-36 46 -39 81h32c7 -51 40 -77 99 -77s92 26 99 77h32z" />
    <glyph glyph-name="dotaccent" unicode="&#x2d9;" horiz-adv-x="500" 
d="M218 635l-1 -1c0 9 3 16 9 22s14 9 23 9s16 -3 21 -9s8 -13 8 -22s-3 -16 -8 -22s-12 -9 -21 -9s-16 3 -22 9s-9 14 -9 23z" />
    <glyph glyph-name="ring" unicode="&#x2da;" horiz-adv-x="500" 
d="M157 645l-2 -1c0 26 9 48 27 65s40 26 66 26s48 -9 66 -26s27 -39 27 -65c0 -27 -9 -49 -26 -66s-39 -25 -66 -25s-49 9 -66 26s-26 39 -26 66zM308 644c0 18 -5 33 -16 45s-26 18 -45 18s-34 -6 -45 -18s-16 -27 -16 -45c0 -17 5 -32 16 -45s26 -19 45 -19s34 6 45 19
s16 28 16 45z" />
    <glyph glyph-name="ogonek" unicode="&#x2db;" horiz-adv-x="500" 
d="M285 -175v3c-22 -9 -45 -14 -68 -14c-25 0 -46 6 -63 18s-25 30 -25 53c0 39 35 79 106 121l35 -4c-25 -17 -43 -30 -55 -39s-23 -20 -34 -34s-17 -27 -17 -39c0 -32 20 -48 60 -48c19 0 37 4 53 11z" />
    <glyph glyph-name="tilde" unicode="&#x2dc;" horiz-adv-x="500" 
d="M319 616l-1 1c11 0 19 3 25 9s10 13 12 21s3 20 4 36h32c-1 -14 -2 -26 -4 -36s-5 -20 -10 -30s-12 -18 -22 -24s-22 -9 -36 -9c-21 0 -45 10 -73 30s-50 30 -65 30c-16 0 -27 -5 -33 -15s-10 -24 -11 -43h-32c2 60 27 90 75 90c21 0 46 -10 76 -30s51 -30 63 -30z" />
    <glyph glyph-name="hungarumlaut" unicode="&#x2dd;" horiz-adv-x="500" 
d="M336 700h42l-96 -130h-37zM206 700h42l-96 -130h-37z" />
    <glyph glyph-name="uni0326" unicode="&#x326;" horiz-adv-x="0" 
d="M-16 -60h35c-3 -51 -16 -100 -39 -147h-28c18 41 29 90 32 147z" />
    <glyph glyph-name="pi" unicode="&#x3c0;" horiz-adv-x="640" 
d="M605 -2l-1 -1c-21 -7 -44 -10 -69 -10c-77 0 -116 53 -116 158v322h-234v-468h-35v468h-126v32h574v-32h-144v-322c0 -46 7 -78 21 -96s35 -27 62 -27c23 0 45 3 65 9z" />
    <glyph glyph-name="Wgrave" unicode="&#x1e80;" horiz-adv-x="952" 
d="M685 32h-2c88 218 153 441 196 668h36c-50 -243 -121 -476 -213 -700h-38c-45 107 -82 209 -110 307s-55 212 -80 342c-25 -130 -52 -244 -80 -342s-65 -200 -110 -307h-38c-49 118 -90 230 -122 335s-62 227 -91 365h36c48 -240 113 -463 196 -668
c83 213 146 436 189 668h42c43 -232 106 -455 189 -668zM459 770l-97 130h42l91 -130h-36z" />
    <glyph glyph-name="wgrave" unicode="&#x1e81;" horiz-adv-x="782" 
d="M390 500h2c23 -147 75 -302 156 -465c43 87 77 167 102 239s43 148 54 227h35c-23 -151 -81 -318 -174 -501h-37c-63 125 -109 237 -138 337c-30 -107 -75 -219 -135 -336h-38c-45 90 -82 174 -110 252s-49 161 -62 248h35c23 -145 75 -300 156 -465
c66 132 112 255 137 368c-7 29 -13 61 -18 96h35zM365 585l-97 130h42l91 -130h-36z" />
    <glyph glyph-name="Wacute" unicode="&#x1e82;" horiz-adv-x="952" 
d="M685 32h-2c88 218 153 441 196 668h36c-50 -243 -121 -476 -213 -700h-38c-45 107 -82 209 -110 307s-55 212 -80 342c-25 -130 -52 -244 -80 -342s-65 -200 -110 -307h-38c-49 118 -90 230 -122 335s-62 227 -91 365h36c48 -240 113 -463 196 -668
c83 213 146 436 189 668h42c43 -232 106 -455 189 -668zM550 900h42l-97 -130h-36z" />
    <glyph glyph-name="wacute" unicode="&#x1e83;" horiz-adv-x="782" 
d="M390 500h2c23 -147 75 -302 156 -465c43 87 77 167 102 239s43 148 54 227h35c-23 -151 -81 -318 -174 -501h-37c-63 125 -109 237 -138 337c-30 -107 -75 -219 -135 -336h-38c-45 90 -82 174 -110 252s-49 161 -62 248h35c23 -145 75 -300 156 -465
c66 132 112 255 137 368c-7 29 -13 61 -18 96h35zM456 715h42l-97 -130h-36z" />
    <glyph glyph-name="Wdieresis" unicode="&#x1e84;" horiz-adv-x="952" 
d="M685 32h-2c88 218 153 441 196 668h36c-50 -243 -121 -476 -213 -700h-38c-45 107 -82 209 -110 307s-55 212 -80 342c-25 -130 -52 -244 -80 -342s-65 -200 -110 -307h-38c-49 118 -90 230 -122 335s-62 227 -91 365h36c48 -240 113 -463 196 -668
c83 213 146 436 189 668h42c43 -232 106 -455 189 -668zM429 835c0 -9 -3 -17 -8 -23s-12 -9 -21 -9c-10 0 -18 3 -23 9s-8 14 -8 23s3 16 8 22s13 9 23 9c9 0 16 -3 21 -9s8 -13 8 -22zM579 835l-1 -1c0 -9 -2 -16 -7 -22s-12 -9 -21 -9c-21 0 -32 11 -32 32c0 9 3 16 8 22
s13 9 24 9c9 0 16 -3 21 -9s8 -13 8 -22z" />
    <glyph glyph-name="wdieresis" unicode="&#x1e85;" horiz-adv-x="782" 
d="M390 500h2c23 -147 75 -302 156 -465c43 87 77 167 102 239s43 148 54 227h35c-23 -151 -81 -318 -174 -501h-37c-63 125 -109 237 -138 337c-30 -107 -75 -219 -135 -336h-38c-45 90 -82 174 -110 252s-49 161 -62 248h35c23 -145 75 -300 156 -465
c66 132 112 255 137 368c-7 29 -13 61 -18 96h35zM335 650c0 -9 -3 -17 -8 -23s-12 -9 -21 -9c-10 0 -18 3 -23 9s-8 14 -8 23s3 16 8 22s13 9 23 9c9 0 16 -3 21 -9s8 -13 8 -22zM485 650l-1 -1c0 -9 -2 -16 -7 -22s-12 -9 -21 -9c-21 0 -32 11 -32 32c0 9 3 16 8 22
s13 9 24 9c9 0 16 -3 21 -9s8 -13 8 -22z" />
    <glyph glyph-name="Ygrave" unicode="&#x1ef2;" 
d="M264 0v304c-106 133 -187 265 -244 395h39c28 -65 59 -125 94 -181s78 -117 130 -184c95 121 169 243 222 366h38c-62 -137 -143 -269 -244 -395v-305h-35zM267 769l-97 130h42l91 -130h-36z" />
    <glyph glyph-name="ygrave" unicode="&#x1ef3;" horiz-adv-x="504" 
d="M277 0h2c-55 -97 -127 -158 -216 -183l-10 32c40 11 75 29 105 53s58 58 84 101c-101 159 -166 325 -195 497h35c26 -150 86 -305 179 -465c89 162 147 317 173 465h35c-15 -87 -38 -169 -69 -247s-72 -162 -123 -253zM248 585l-97 130h42l91 -130h-36z" />
    <glyph glyph-name="endash" unicode="&#x2013;" horiz-adv-x="500" 
d="M40 296v32h420v-32h-420z" />
    <glyph glyph-name="emdash" unicode="&#x2014;" horiz-adv-x="1000" 
d="M40 296v32h920v-32h-920z" />
    <glyph glyph-name="quoteleft" unicode="&#x2018;" horiz-adv-x="170" 
d="M91 523h-34c5 70 24 136 57 197h28c-27 -55 -44 -121 -51 -197z" />
    <glyph glyph-name="quoteright" unicode="&#x2019;" horiz-adv-x="170" 
d="M95 720h34c-5 -70 -24 -136 -57 -197h-28c27 55 44 121 51 197z" />
    <glyph glyph-name="quotesinglbase" unicode="&#x201a;" horiz-adv-x="170" 
d="M79 70h34c-5 -70 -24 -136 -57 -197h-28c27 55 44 121 51 197z" />
    <glyph glyph-name="quotedblleft" unicode="&#x201c;" horiz-adv-x="320" 
d="M241 523h-34c5 70 24 136 57 197h28c-27 -55 -44 -121 -51 -197zM92 523h-34c5 70 24 136 57 197h28c-27 -55 -44 -121 -51 -197z" />
    <glyph glyph-name="quotedblright" unicode="&#x201d;" horiz-adv-x="320" 
d="M95 720h34c-5 -70 -24 -136 -57 -197h-28c27 55 44 121 51 197zM244 720h34c-5 -70 -24 -136 -57 -197h-28c27 55 44 121 51 197z" />
    <glyph glyph-name="quotedblbase" unicode="&#x201e;" horiz-adv-x="320" 
d="M79 70h34c-5 -70 -24 -136 -57 -197h-28c27 55 44 121 51 197zM228 70h34c-5 -70 -24 -136 -57 -197h-28c27 55 44 121 51 197z" />
    <glyph glyph-name="dagger" unicode="&#x2020;" horiz-adv-x="555" 
d="M60 441v32c47 0 115 -1 203 -2c-2 116 -3 177 -3 183c0 19 1 48 2 87h31c1 -39 2 -68 2 -87c0 -6 -1 -67 -3 -183c88 1 156 2 203 2v-32c-91 0 -159 1 -203 2c2 -122 3 -184 3 -185v-458h-35v458c0 1 1 63 3 185c-44 -1 -112 -2 -203 -2z" />
    <glyph glyph-name="daggerdbl" unicode="&#x2021;" horiz-adv-x="555" 
d="M60 441l-2 30c47 0 115 -1 203 -2c-2 116 -3 177 -3 183c0 19 1 48 2 87h31c1 -39 2 -68 2 -87c0 -6 -1 -67 -3 -183c88 1 156 2 203 2v-32c-91 0 -159 1 -203 2c0 -13 0 -30 1 -52s2 -42 2 -61v-60v-60s0 -39 -1 -60s-1 -39 -1 -53c44 1 112 2 203 2v-32
c-47 0 -115 1 -203 2c2 -116 3 -177 3 -183c0 -21 -1 -51 -2 -90h-31c-1 39 -2 69 -2 90c0 6 1 67 3 183c-88 -1 -156 -2 -203 -2v32c91 0 159 -1 203 -2c0 13 0 31 -1 53s-1 42 -1 61v60v60s1 39 2 61s1 40 1 53c-44 -1 -112 -2 -203 -2z" />
    <glyph glyph-name="bullet" unicode="&#x2022;" horiz-adv-x="226" 
d="M176 351h-1c0 -19 -5 -35 -16 -47s-26 -18 -45 -18c-20 0 -36 6 -47 18s-17 28 -17 47c0 18 6 33 17 45s27 18 47 18c19 0 34 -6 45 -18s17 -27 17 -45z" />
    <glyph glyph-name="ellipsis" unicode="&#x2026;" horiz-adv-x="603" 
d="M60 25l-1 -1c0 9 3 16 9 22s14 9 23 9s16 -3 21 -9s8 -13 8 -22s-3 -16 -8 -22s-12 -9 -21 -9s-16 3 -22 9s-9 14 -9 23zM270 24l-1 -1c0 9 3 16 9 22s14 9 23 9s16 -3 21 -9s8 -13 8 -22s-3 -16 -8 -22s-12 -9 -21 -9s-16 3 -22 9s-9 14 -9 23zM480 23l-1 -1
c0 9 3 16 9 22s14 9 23 9s16 -3 21 -9s8 -13 8 -22s-3 -16 -8 -22s-12 -9 -21 -9s-16 3 -22 9s-9 14 -9 23z" />
    <glyph glyph-name="perthousand" unicode="&#x2030;" horiz-adv-x="1160" 
d="M342 519c0 -50 -13 -90 -39 -120s-61 -45 -105 -45c-43 0 -77 15 -103 45s-39 70 -39 119s13 89 39 119s61 45 104 45s78 -15 104 -45s39 -69 39 -118zM91 519l-1 -2c0 -41 9 -73 27 -97s45 -36 80 -36c36 0 63 12 81 36s27 57 27 98s-9 73 -27 97s-45 36 -81 36
c-35 0 -61 -12 -79 -36s-27 -56 -27 -96zM548 669h35l-322 -671h-35zM754 151c0 -50 -13 -90 -39 -120s-61 -45 -105 -45c-43 0 -77 15 -103 45s-39 70 -39 119s13 89 39 119s61 45 104 45s78 -15 104 -45s39 -69 39 -118zM503 151l-1 -2c0 -41 9 -73 27 -97s45 -36 80 -36
c36 0 63 12 81 36s27 57 27 98s-9 73 -27 97s-45 36 -81 36c-35 0 -61 -12 -79 -36s-27 -56 -27 -96zM1103 149c0 -50 -13 -90 -39 -120s-61 -45 -105 -45c-43 0 -77 15 -103 45s-39 70 -39 119s13 89 39 119s61 45 104 45s78 -15 104 -45s39 -69 39 -118zM852 149l-1 -2
c0 -41 9 -73 27 -97s45 -36 80 -36c36 0 63 12 81 36s27 57 27 98s-9 73 -27 97s-45 36 -81 36c-35 0 -61 -12 -79 -36s-27 -56 -27 -96z" />
    <glyph glyph-name="guilsinglleft" unicode="&#x2039;" horiz-adv-x="313" 
d="M222 64h-1c-57 49 -123 116 -197 200c67 76 133 143 198 200h46c-75 -69 -141 -136 -197 -200c56 -64 122 -131 197 -200h-46z" />
    <glyph glyph-name="guilsinglright" unicode="&#x203a;" horiz-adv-x="313" 
d="M91 64h-47c75 69 141 136 197 200c-56 64 -122 131 -197 200h46c65 -57 131 -124 198 -200c-74 -84 -140 -151 -197 -200z" />
    <glyph glyph-name="fraction" unicode="&#x2044;" horiz-adv-x="104" 
d="M227 700h37l-387 -700h-37z" />
    <glyph glyph-name="zero.superior" unicode="&#x2070;" horiz-adv-x="310" 
d="M290 536h2c0 -57 -12 -101 -36 -132s-57 -46 -100 -46c-42 0 -75 15 -99 46s-36 75 -36 132c0 56 12 99 36 130s57 46 98 46c42 0 75 -15 99 -46s36 -74 36 -130zM57 536c0 -97 33 -145 100 -145s100 48 100 145c0 96 -33 144 -100 144s-100 -48 -100 -144z" />
    <glyph glyph-name="four.superior" unicode="&#x2074;" horiz-adv-x="310" 
d="M20 435l1 27c49 86 108 167 177 242h33v-239h55v-30h-55v-68h-33v68h-178zM199 563h-1c0 36 1 72 3 108c-61 -77 -110 -146 -147 -206h145v98z" />
    <glyph glyph-name="Euro" unicode="&#x20ac;" horiz-adv-x="615" 
d="M428 -12h1c-83 0 -149 23 -199 69s-81 110 -94 191h-101v32h97c-2 18 -3 37 -3 57c0 21 1 41 3 60h-97v32h101c13 80 43 142 90 187s110 67 189 67c43 0 88 -8 134 -24l-9 -31c-41 15 -83 22 -126 22c-68 0 -122 -20 -162 -59s-66 -93 -79 -162h290l-4 -32h-291
c-2 -19 -3 -39 -3 -60c0 -20 1 -39 3 -57h283l-4 -32h-274c13 -70 41 -125 84 -166s100 -61 171 -61c40 0 81 6 124 19l8 -31c-43 -14 -87 -21 -132 -21z" />
    <glyph glyph-name="uni20B9" unicode="&#x20b9;" horiz-adv-x="539" 
d="M60 287l-1 31h71c73 0 128 13 164 38s54 67 54 126v2h-288v32h287c-3 32 -12 73 -27 123h-260v32h429v-32h-134c15 -47 24 -88 27 -123h107v-32h-106v-2c0 -130 -84 -195 -251 -195h-27l256 -287h-46z" />
    <glyph glyph-name="uni2113" unicode="&#x2113;" horiz-adv-x="497" 
d="M45 79l-17 27l100 59c-13 49 -19 106 -19 172c0 120 17 212 52 277s83 97 144 97c40 0 72 -15 96 -44s36 -71 36 -125c0 -85 -21 -157 -64 -216s-110 -116 -201 -171l-3 -2c27 -88 79 -132 155 -132c38 0 72 7 103 20v-35c-31 -12 -65 -18 -102 -18
c-89 0 -151 49 -186 147zM145 336h2c0 -57 5 -108 14 -153c83 50 144 102 182 156s57 120 57 197c0 49 -9 85 -27 108s-41 34 -69 34c-54 0 -94 -31 -120 -93s-39 -145 -39 -249z" />
    <glyph glyph-name="trademark" unicode="&#x2122;" horiz-adv-x="722" 
d="M135 366v304h-120v30h273v-30h-120v-304h-33zM333 700h38c27 -65 72 -149 134 -252c51 84 94 168 129 253h38v-334h-32v223l2 58c-37 -86 -77 -163 -120 -231h-31c-55 89 -98 166 -128 231l2 -59v-223h-32v334z" />
    <glyph glyph-name="uni2126" unicode="&#x2126;" horiz-adv-x="706" 
d="M75 0l-4 31h131c-45 30 -79 73 -102 128s-34 118 -34 189c0 51 6 98 17 141s28 81 50 115s52 60 89 79s80 29 129 29c64 0 118 -17 161 -50s74 -76 93 -129s29 -114 29 -183c0 -151 -45 -257 -135 -318h130v-32h-207v29c57 12 100 48 130 109s45 132 45 213
c0 45 -5 87 -14 126s-23 74 -42 105s-45 55 -77 73s-69 27 -112 27s-81 -9 -113 -27s-57 -42 -76 -73s-33 -66 -42 -105s-14 -81 -14 -126c0 -81 15 -152 45 -213s73 -97 130 -109v-29h-207z" />
    <glyph glyph-name="estimated" unicode="&#x212e;" horiz-adv-x="707" 
d="M550 276l1 152c0 7 -3 13 -8 18c-51 52 -113 78 -186 78c-75 0 -137 -27 -187 -81c-5 -4 -8 -10 -8 -19v-148c0 -3 1 -4 4 -4h381c2 0 3 1 3 4zM663 258l-496 -1c-3 0 -4 -1 -4 -3v-150c0 -7 2 -13 7 -18c51 -53 114 -80 188 -80c80 0 146 30 197 90h44
c-63 -71 -144 -107 -243 -107c-85 0 -157 27 -217 81s-90 119 -90 195s30 141 90 195s132 81 217 81s157 -27 217 -81s90 -119 90 -195v-7z" />
    <glyph glyph-name="partialdiff" unicode="&#x2202;" horiz-adv-x="550" 
d="M226 -12l-1 -1c-57 0 -101 17 -131 51s-45 81 -45 140c0 92 25 170 75 235s114 97 193 97c53 0 97 -20 133 -59c-19 53 -48 102 -88 147s-87 79 -142 103l51 3c63 -28 116 -73 159 -135s65 -132 65 -211c0 -113 -24 -203 -72 -270s-114 -100 -197 -100zM85 180l1 -1
c0 -51 12 -90 36 -118s61 -42 110 -42c47 0 88 15 123 44s61 66 78 111s25 93 25 145c0 106 -49 159 -147 159c-69 0 -124 -30 -165 -89s-61 -129 -61 -209z" />
    <glyph glyph-name="uni2206" unicode="&#x2206;" horiz-adv-x="584" 
d="M20 0v30l254 670h36l254 -670v-30h-544zM529 32l-237 632l-237 -632h474z" />
    <glyph glyph-name="product" unicode="&#x220f;" horiz-adv-x="707" 
d="M667 668h-100v-798h-35v798h-357v-798h-35v798h-100v32h627v-32z" />
    <glyph glyph-name="summation" unicode="&#x2211;" horiz-adv-x="547" 
d="M517 -130h-487v30l299 385l-279 385v30h447v-32h-405l268 -365v-36l-288 -365h445v-32z" />
    <glyph glyph-name="minus" unicode="&#x2212;" horiz-adv-x="491" 
d="M35 327v32h421v-32h-421z" />
    <glyph glyph-name="uni2215" unicode="&#x2215;" horiz-adv-x="104" 
d="M227 700h37l-387 -700h-37z" />
    <glyph glyph-name="radical" unicode="&#x221a;" horiz-adv-x="499" 
d="M197 0l-98 269h-69v32h92l93 -265l220 664h34l-236 -700h-36z" />
    <glyph glyph-name="infinity" unicode="&#x221e;" horiz-adv-x="773" 
d="M40 328l-3 -2c0 48 15 87 45 117s68 45 113 45c22 0 42 -3 61 -10s37 -18 53 -33s30 -29 41 -41s24 -29 40 -51c21 29 38 52 52 68s33 31 58 45s51 21 79 21c43 0 79 -15 109 -45s45 -69 45 -116c0 -49 -15 -88 -44 -118s-64 -45 -105 -45c-22 0 -42 3 -60 10
s-35 18 -52 33s-31 29 -42 42s-24 31 -40 54c-35 -48 -67 -83 -97 -105s-63 -33 -100 -33c-42 0 -78 15 -108 44s-45 69 -45 120zM193 456l1 -2c-37 0 -66 -12 -88 -36s-33 -56 -33 -95s11 -70 33 -94s50 -36 83 -36c20 0 38 3 55 9s33 17 48 32s28 28 38 40s23 29 39 51
c-17 23 -30 40 -39 51s-21 24 -37 39s-32 26 -48 32s-33 9 -52 9zM406 325v-4c17 -24 30 -41 38 -51s20 -23 36 -39s32 -27 48 -33s34 -9 53 -9c34 0 62 12 83 36s32 56 32 95c0 41 -11 73 -33 97s-51 36 -87 36c-23 0 -45 -7 -67 -20s-39 -27 -52 -42s-30 -37 -51 -66z" />
    <glyph glyph-name="integral" unicode="&#x222b;" horiz-adv-x="403" 
d="M374 689c-25 6 -45 9 -60 9c-35 0 -59 -10 -73 -31s-21 -51 -21 -91v-613c0 -103 -43 -155 -129 -155c-22 0 -45 4 -70 11l9 31c25 -6 45 -9 60 -9c35 0 59 10 73 31s21 51 21 91v613c0 103 43 155 129 155c22 0 45 -4 70 -11z" />
    <glyph glyph-name="approxequal" unicode="&#x2248;" horiz-adv-x="491" 
d="M457 455l1 -1c-13 -27 -29 -48 -47 -64s-42 -24 -71 -24c-28 0 -60 10 -96 29s-65 29 -86 29c-45 0 -77 -23 -96 -68l-28 12c10 28 26 50 48 66s47 24 76 24c28 0 60 -10 96 -29s65 -29 86 -29c37 0 67 23 90 68zM458 314l1 -1c-13 -27 -29 -48 -47 -64s-42 -24 -71 -24
c-28 0 -60 10 -96 29s-65 29 -86 29c-45 0 -77 -23 -96 -68l-28 12c10 28 26 50 48 66s47 24 76 24c28 0 60 -10 96 -29s65 -29 86 -29c37 0 67 23 90 68z" />
    <glyph glyph-name="notequal" unicode="&#x2260;" horiz-adv-x="491" 
d="M349 580h34l-67 -132h140v-32h-156l-75 -147h231v-32h-247l-67 -132h-34l67 132h-140v32h156l75 147h-231v32h247z" />
    <glyph glyph-name="lessequal" unicode="&#x2264;" horiz-adv-x="491" 
d="M35 35v32h421v-32h-421zM456 168l-421 168v38l421 169v-38l-381 -150l381 -149v-38z" />
    <glyph glyph-name="greaterequal" unicode="&#x2265;" horiz-adv-x="491" 
d="M456 35h-421v32h421v-32zM35 168v38l381 149l-381 150v38l421 -169v-38z" />
    <glyph glyph-name="lozenge" unicode="&#x25ca;" horiz-adv-x="477" 
d="M238 31l172 260l-172 262l-172 -262zM220 0l-195 290l195 295h36l196 -295l-196 -290h-36z" />
    <glyph glyph-name=".null" horiz-adv-x="0" 
 />
    <glyph glyph-name="nonmarkingreturn" horiz-adv-x="333" 
 />
    <glyph glyph-name="ITF" horiz-adv-x="1739" 
d="M110 0v700h216v-700h-216zM371 496v204h216v-204h-216zM631 0v700h217v-700h-217zM892 496v204h216v-204h-216zM1152 0v700h217v-700h-217zM1413 496v204h216v-204h-216zM1413 247v205h216v-205h-216z" />
    <glyph glyph-name="caron.alt" horiz-adv-x="500" 
d="M148 709l35 1c-4 -59 -20 -115 -48 -168h-28c21 45 35 101 41 167z" />
    <glyph glyph-name="uni0326.alt" horiz-adv-x="0" 
d="M17 570l-35 -1c5 55 19 101 43 138h28c-17 -30 -29 -76 -36 -137z" />
    </font>
</defs>
</svg>
