<?xml version="1.0" standalone="no"?>
<!DOCTYPE svg PUBLIC "-//W3C//DTD SVG 1.1//EN" "http://www.w3.org/Graphics/SVG/1.1/DTD/svg11.dtd" >
<svg>
<metadata>
Created by FontForge 20120731 at Fri Jul  7 16:34:31 2017
 By www-data
Copyright \(c\) 2015 by Indian Type Foundry. All rights reserved.
</metadata>
<defs>
<font id="Diodrum-Light" horiz-adv-x="500" >
  <font-face 
    font-family="Diodrum"
    font-weight="300"
    font-stretch="normal"
    units-per-em="1000"
    panose-1="2 0 0 0 0 0 0 0 0 0"
    ascent="792"
    descent="-208"
    x-height="500"
    cap-height="700"
    bbox="-165 -225 1625 942"
    underline-thickness="50"
    underline-position="-50"
    unicode-range="U+0020-FB02"
  />
<missing-glyph horiz-adv-x="696" 
d="M151 0v701h394v-701h-394zM196 662v-623h304v623h-304z" />
    <glyph glyph-name="fi" unicode="fi" horiz-adv-x="534" 
d="M29 501h78v70c0 107 45 160 135 160c23 0 47 -4 72 -11l-10 -40c-25 6 -45 9 -59 9c-33 0 -56 -10 -70 -30s-21 -49 -21 -88v-70h280v-501h-48v460h-232v-460h-47v460h-78v41zM374 657v-3c0 10 3 19 10 26s16 11 27 11s20 -3 27 -10s10 -15 10 -25c0 -11 -3 -20 -10 -27
s-16 -10 -27 -10s-20 4 -27 11s-10 16 -10 27z" />
    <glyph glyph-name="fl" unicode="fl" horiz-adv-x="571" 
d="M29 501l76 2v74c0 51 13 90 39 116s68 39 127 39c44 0 98 -8 161 -25v-577c0 -35 5 -60 15 -76s29 -24 56 -24c9 0 18 1 28 3l5 -40c-11 -3 -23 -5 -36 -5c-77 0 -115 47 -115 140v547c-37 9 -74 14 -110 14c-45 0 -76 -9 -94 -28s-27 -47 -27 -85v-75h142v-41h-142v-460
h-47v460h-78v41z" />
    <glyph glyph-name=".notdef" horiz-adv-x="696" 
d="M151 0v701h394v-701h-394zM196 662v-623h304v623h-304z" />
    <glyph glyph-name="space" unicode=" " horiz-adv-x="257" 
 />
    <glyph glyph-name="exclam" unicode="!" horiz-adv-x="282" 
d="M167 700v-260c0 -69 -3 -140 -8 -213h-37c-5 64 -7 135 -7 213v260h52zM176 31l-1 -2c0 -10 -3 -18 -9 -25s-14 -10 -24 -10c-11 0 -19 4 -25 11s-9 16 -9 26s3 18 9 25s15 10 26 10c10 0 18 -3 24 -10s9 -15 9 -25z" />
    <glyph glyph-name="quotedbl" unicode="&#x22;" horiz-adv-x="310" 
d="M211 488c-3 72 -4 143 -4 212h45c0 -69 -1 -140 -4 -212h-37zM62 488c-3 72 -4 143 -4 212h45c0 -60 -1 -131 -3 -212h-38z" />
    <glyph glyph-name="numbersign" unicode="#" horiz-adv-x="628" 
d="M342 0l43 194h-209l-43 -194h-42l43 194h-104v40h113l46 204h-104v40h113l43 193h42l-43 -193h209l43 193h42l-43 -193h107v-40h-116l-46 -204h107v-40h-116l-43 -194h-42zM394 234l46 204h-209l-46 -204h209z" />
    <glyph glyph-name="dollar" unicode="$" horiz-adv-x="534" 
d="M425 657l-13 -45c-52 15 -102 23 -150 23c-49 0 -87 -11 -114 -32s-40 -52 -40 -93c0 -40 12 -69 36 -88s64 -38 121 -57c35 -11 63 -21 83 -29s42 -20 65 -35s40 -34 50 -56s15 -48 15 -79c0 -59 -18 -102 -54 -130s-82 -44 -139 -48v-113h-46v112
c-67 3 -126 15 -177 37l11 41c64 -23 125 -35 182 -35c117 0 175 45 175 135c0 19 -3 37 -10 53s-15 29 -24 38s-23 19 -43 29s-36 17 -49 22s-34 12 -63 21c-62 20 -107 43 -136 69s-43 65 -43 117c0 51 17 91 51 120s78 45 131 48v102h46v-102c45 -2 90 -10 135 -25z" />
    <glyph glyph-name="percent" unicode="%" horiz-adv-x="817" 
d="M345 518c0 -50 -13 -90 -40 -120s-63 -45 -108 -45c-43 0 -78 15 -105 45s-40 70 -40 120c0 49 13 89 40 119s62 45 105 45c45 0 81 -15 108 -45s40 -70 40 -119zM97 518l-2 1c0 -39 9 -70 26 -93s42 -34 75 -34c34 0 60 11 77 33s26 53 26 93c0 39 -8 70 -25 93
s-42 34 -76 34c-33 0 -58 -11 -75 -34s-26 -54 -26 -93zM548 672h44l-327 -671h-43zM762 155h-1c0 -50 -13 -90 -39 -120s-61 -45 -106 -45c-44 0 -79 15 -106 45s-40 70 -40 120c0 49 13 89 40 119s62 45 106 45s79 -15 106 -45s40 -70 40 -119zM513 155h-2
c0 -39 9 -70 26 -93s42 -34 75 -34c34 0 60 11 77 34s26 54 26 93s-8 70 -25 93s-42 34 -76 34c-33 0 -58 -11 -75 -34s-26 -54 -26 -93z" />
    <glyph glyph-name="ampersand" unicode="&#x26;" horiz-adv-x="692" 
d="M202 551l-1 -2c0 -51 24 -104 73 -159c57 19 101 42 131 69s45 61 45 102c0 31 -11 57 -33 78s-53 31 -93 31c-36 0 -65 -11 -88 -32s-34 -50 -34 -87zM611 -2l-101 96c-59 -71 -137 -107 -234 -107c-67 0 -120 18 -160 53s-60 82 -60 141c0 92 57 157 171 195
c-50 60 -75 118 -75 174c0 49 16 88 48 117s73 44 124 44s93 -14 125 -41s48 -63 48 -108c0 -91 -65 -158 -196 -202c12 -13 32 -32 59 -58l148 -143c26 45 44 98 53 158h45c-12 -73 -35 -136 -68 -189l134 -130h-61zM276 30h1c87 0 155 31 205 93l-156 150
c-41 41 -65 65 -72 73c-49 -17 -86 -37 -112 -61s-39 -58 -39 -103s16 -82 47 -110s73 -42 126 -42z" />
    <glyph glyph-name="quotesingle" unicode="'" horiz-adv-x="162" 
d="M62 488c-3 72 -4 143 -4 212h45c0 -60 -1 -131 -3 -212h-38z" />
    <glyph glyph-name="parenleft" unicode="(" horiz-adv-x="272" 
d="M239 761c-85 -135 -127 -286 -127 -453c0 -166 42 -317 127 -452h-48c-85 130 -128 281 -128 452c0 172 43 323 128 453h48z" />
    <glyph glyph-name="parenright" unicode=")" horiz-adv-x="272" 
d="M160 308c0 167 -42 318 -127 453h48c85 -130 128 -281 128 -453c0 -171 -43 -322 -128 -452h-48c85 135 127 286 127 452z" />
    <glyph glyph-name="asterisk" unicode="*" horiz-adv-x="390" 
d="M174 725h42c0 -50 -1 -95 -3 -135c29 12 71 27 126 45l12 -38c-53 -17 -95 -30 -127 -39c17 -17 47 -50 89 -99l-32 -26c-41 50 -70 86 -86 108c-25 -34 -54 -70 -87 -108l-32 27c45 51 75 84 89 98c-30 8 -72 21 -127 39l12 38c55 -17 98 -32 128 -45
c-3 35 -4 80 -4 135z" />
    <glyph glyph-name="plus" unicode="+" horiz-adv-x="497" 
d="M35 322v42h191v192h46v-192h190v-42h-190v-198h-46v198h-191z" />
    <glyph glyph-name="comma" unicode="," horiz-adv-x="190" 
d="M77 78h48c-4 -74 -23 -149 -56 -225h-34c23 67 37 142 42 225z" />
    <glyph glyph-name="hyphen" unicode="-" horiz-adv-x="311" 
d="M40 292v42h231v-42h-231z" />
    <glyph glyph-name="period" unicode="." horiz-adv-x="190" 
d="M96 -7l-1 -3c-11 0 -20 4 -27 11s-10 16 -10 27s3 20 10 27s16 10 27 10s20 -3 26 -10s9 -15 9 -25c0 -11 -3 -20 -9 -27s-14 -10 -25 -10z" />
    <glyph glyph-name="slash" unicode="/" horiz-adv-x="414" 
d="M328 755h47l-289 -810h-47z" />
    <glyph glyph-name="zero" unicode="0" horiz-adv-x="610" 
d="M305 -12l1 -2c-83 0 -143 32 -181 95s-57 147 -57 252c0 50 4 95 12 136s21 78 39 110s43 57 74 75s68 27 111 27c83 0 143 -32 180 -95s56 -147 56 -252c0 -51 -4 -96 -12 -136s-21 -76 -39 -108s-42 -57 -73 -75s-68 -27 -111 -27zM306 29c125 0 188 101 188 304
s-63 305 -188 305s-188 -102 -188 -305s63 -304 188 -304z" />
    <glyph glyph-name="one" unicode="1" horiz-adv-x="345" 
d="M46 538l-22 39c55 36 115 68 180 95h44v-671h-47v621c-51 -23 -103 -51 -155 -84z" />
    <glyph glyph-name="two" unicode="2" horiz-adv-x="492" 
d="M31 0v41l134 133c72 71 124 130 157 177s49 98 49 152c0 43 -13 77 -39 101s-62 36 -108 36c-55 0 -107 -19 -156 -58l-22 35c56 44 116 66 180 66c61 0 109 -16 143 -49s51 -76 51 -129c0 -61 -19 -118 -57 -172s-95 -117 -170 -189l-105 -102h364v-42h-421z" />
    <glyph glyph-name="three" unicode="3" 
d="M35 28l15 38c43 -25 95 -38 155 -38c54 0 96 14 127 42s46 67 46 117c0 91 -59 137 -176 137h-69v42h62c53 0 93 14 120 41s41 62 41 105c0 41 -14 73 -41 96s-62 34 -105 34c-53 0 -100 -15 -140 -45l-24 33c46 36 101 54 166 54c57 0 104 -15 140 -45s54 -71 54 -124
c0 -83 -37 -138 -110 -165c88 -23 132 -77 132 -163c0 -63 -19 -112 -58 -147s-93 -52 -162 -52c-68 0 -126 13 -173 40z" />
    <glyph glyph-name="four" unicode="4" horiz-adv-x="577" 
d="M437 211h101v-42h-101v-169h-47v169h-352v38c101 175 216 330 344 465h55v-461zM395 627v-1c-64 -75 -119 -143 -165 -205s-93 -132 -142 -210h302v284c0 23 2 67 5 132z" />
    <glyph glyph-name="five" unicode="5" horiz-adv-x="509" 
d="M413 629l-268 2l-24 -235c31 6 66 9 104 9c73 0 130 -17 170 -52s60 -85 60 -150c0 -63 -21 -114 -62 -154s-98 -60 -171 -60c-65 0 -124 13 -177 38l18 41c51 -24 104 -36 159 -36c59 0 104 16 136 47s48 72 48 123c0 105 -66 158 -199 158c-31 0 -75 -5 -132 -15
l31 326h307v-42z" />
    <glyph glyph-name="six" unicode="6" horiz-adv-x="565" 
d="M439 670l-14 -45c-31 7 -61 10 -89 10c-37 0 -69 -8 -97 -23s-50 -36 -67 -63s-30 -56 -39 -88s-15 -67 -18 -106c56 38 119 57 188 57c65 0 116 -18 152 -54s54 -84 54 -145c0 -69 -19 -124 -57 -166s-88 -63 -151 -63c-77 0 -136 30 -176 89s-60 134 -60 224
c0 49 5 96 15 140s25 85 45 123s49 68 86 90s80 33 129 33c40 0 73 -4 99 -13zM298 26l-3 -2c52 0 92 17 119 52s41 80 41 135c0 49 -14 87 -41 115s-69 42 -125 42c-28 0 -59 -6 -92 -17s-62 -25 -87 -42v-15c0 -49 6 -93 18 -132s33 -71 62 -97s65 -39 108 -39z" />
    <glyph glyph-name="seven" unicode="7" horiz-adv-x="449" 
d="M175 0h-47c31 117 66 222 104 315s85 198 142 314h-342v42h389v-39c-41 -89 -72 -157 -93 -204s-46 -109 -75 -187s-55 -158 -78 -241z" />
    <glyph glyph-name="eight" unicode="8" horiz-adv-x="587" 
d="M524 168c0 -55 -22 -99 -66 -132s-99 -49 -166 -49c-65 0 -119 16 -163 48s-66 77 -66 134c0 79 46 137 137 174c-77 38 -115 92 -115 163c0 53 20 96 60 128s89 48 147 48c61 0 111 -17 150 -51s58 -76 58 -127c0 -74 -38 -131 -115 -172c47 -17 82 -38 105 -64
s34 -59 34 -100zM293 358v-2c4 -1 11 -3 21 -5s18 -4 23 -5c39 19 68 41 87 66s29 55 29 90c0 41 -15 74 -45 100s-68 39 -115 39c-46 0 -84 -12 -114 -36s-45 -56 -45 -97c0 -39 15 -71 45 -96s68 -43 114 -54zM293 28l-1 -1c52 0 96 12 131 36s53 58 53 101
c0 19 -3 35 -10 49s-15 26 -25 36s-25 19 -44 28s-38 16 -56 21s-42 11 -71 18c-11 3 -19 5 -24 7c-90 -34 -135 -86 -135 -155c0 -45 18 -80 54 -104s79 -36 128 -36z" />
    <glyph glyph-name="nine" unicode="9" horiz-adv-x="553" 
d="M266 291l1 -1c72 0 134 21 185 63c-1 38 -4 73 -10 104s-15 61 -28 90s-32 52 -57 68s-54 24 -88 24c-52 0 -93 -17 -122 -52s-44 -78 -44 -130c0 -49 13 -89 39 -120s67 -46 124 -46zM93 6l8 42c44 -11 83 -17 116 -17c149 0 227 93 234 278c-52 -41 -116 -62 -192 -62
c-66 0 -117 20 -152 59s-53 90 -53 153c0 69 20 124 60 164s92 60 155 60c34 0 65 -6 92 -19s49 -30 66 -51s31 -46 42 -76s19 -61 24 -93s7 -66 7 -102c0 -237 -94 -355 -282 -355c-44 0 -86 6 -125 19z" />
    <glyph glyph-name="colon" unicode=":" horiz-adv-x="229" 
d="M151 30v-1c0 -11 -3 -20 -9 -27s-15 -10 -26 -10s-20 4 -27 11s-10 16 -10 27s3 20 10 27s16 10 27 10s20 -3 26 -10s9 -16 9 -27zM151 466v-1c0 -11 -3 -20 -9 -27s-15 -10 -26 -10s-20 4 -27 11s-10 16 -10 27s3 20 10 27s16 10 27 10s20 -3 26 -10s9 -16 9 -27z" />
    <glyph glyph-name="semicolon" unicode=";" horiz-adv-x="229" 
d="M151 467v-1c0 -11 -3 -20 -9 -27s-15 -10 -26 -10s-20 4 -27 11s-10 16 -10 27s3 20 10 27s16 10 27 10s20 -3 26 -10s9 -16 9 -27zM96 77h47c-4 -74 -23 -149 -56 -225h-34c25 71 39 146 43 225z" />
    <glyph glyph-name="less" unicode="&#x3c;" horiz-adv-x="497" 
d="M462 132l-427 186v49l427 187v-49l-373 -162l373 -161v-50z" />
    <glyph glyph-name="equal" unicode="=" horiz-adv-x="497" 
d="M35 231v43h427v-43h-427zM35 411v42h427v-42h-427z" />
    <glyph glyph-name="greater" unicode="&#x3e;" horiz-adv-x="497" 
d="M35 132v50l373 161l-373 162v49l427 -187v-49z" />
    <glyph glyph-name="question" unicode="?" horiz-adv-x="435" 
d="M188 65l-1 -2c10 0 18 -3 24 -10s9 -15 9 -25s-3 -18 -9 -25s-14 -10 -24 -10c-11 0 -19 4 -25 11s-9 16 -9 26s3 18 9 25s15 10 26 10zM39 636l-12 38c49 21 100 32 152 32c59 0 107 -14 143 -43s54 -69 54 -120c0 -36 -7 -65 -21 -88s-35 -47 -62 -72
c-21 -19 -35 -33 -43 -41s-17 -22 -27 -41s-15 -39 -15 -60v-20h-44v22c0 25 5 48 14 69s18 37 27 48s22 25 39 42c18 16 32 29 41 39s18 24 27 43s14 39 14 61c0 38 -13 68 -39 89s-63 32 -110 32c-43 0 -89 -10 -138 -30z" />
    <glyph glyph-name="at" unicode="@" horiz-adv-x="925" 
d="M320 186l-1 -1c0 -49 10 -88 31 -116s52 -42 94 -42c45 0 85 17 121 52c-9 25 -11 61 -6 108l20 179c-30 11 -64 16 -101 16c-49 0 -88 -18 -116 -53s-42 -83 -42 -143zM479 587l-2 -4c-111 0 -201 -37 -271 -112s-105 -171 -105 -288c0 -113 33 -202 99 -268
s154 -99 264 -99c68 0 146 13 235 40l9 -39c-86 -28 -168 -42 -245 -42c-121 0 -219 36 -294 108s-112 172 -112 299c0 59 10 115 29 168s46 100 81 141s80 73 134 97s114 36 179 36c114 0 207 -33 278 -99s107 -153 107 -260c0 -83 -14 -151 -42 -203s-73 -78 -136 -78
c-53 0 -90 20 -111 60c-37 -40 -83 -60 -138 -60c-57 0 -99 19 -126 57s-40 85 -40 142c0 65 18 121 53 167s86 69 153 69c50 0 98 -11 145 -33l-23 -215c-5 -49 -1 -85 13 -109s39 -36 76 -36c87 0 130 80 130 241c0 97 -31 175 -93 233s-144 87 -247 87z" />
    <glyph glyph-name="A" unicode="A" horiz-adv-x="636" 
d="M318 653c-47 -106 -98 -235 -153 -387h306c-55 152 -106 281 -153 387zM559 0l-1 -1c-21 69 -45 144 -72 224h-336c-27 -80 -51 -155 -72 -224h-49c89 277 177 510 265 700h50c93 -201 181 -434 264 -699h-49z" />
    <glyph glyph-name="B" unicode="B" horiz-adv-x="611" 
d="M272 0l-168 1v700h137c88 0 156 -13 204 -40s72 -73 72 -138c0 -83 -33 -137 -98 -162c37 -10 67 -29 91 -57s36 -66 36 -115c0 -70 -23 -119 -70 -147s-115 -42 -204 -42zM151 336v-292h118c76 0 133 10 170 30s56 59 56 116c0 97 -61 146 -184 146h-160zM151 658v-282
h161c103 0 155 48 155 145c0 53 -19 89 -57 108s-94 29 -169 29h-90z" />
    <glyph glyph-name="C" unicode="C" horiz-adv-x="600" 
d="M379 -12l2 -1c-101 0 -178 32 -232 95s-81 149 -81 258c0 111 26 201 77 269s127 102 228 102c57 0 114 -11 171 -34l-13 -43c-58 22 -111 33 -158 33c-44 0 -83 -9 -116 -26s-60 -41 -80 -71s-35 -64 -45 -103s-15 -81 -15 -126c0 -94 22 -169 66 -225s110 -84 197 -84
c51 0 103 12 157 36l11 -42c-51 -25 -107 -38 -169 -38z" />
    <glyph glyph-name="D" unicode="D" horiz-adv-x="686" 
d="M578 350l2 1c0 92 -24 166 -72 222s-120 84 -217 84h-137v-614h137c95 0 167 28 215 85s72 131 72 222zM108 1v699h184c109 0 193 -31 251 -94s87 -148 87 -255s-29 -192 -88 -255s-142 -95 -250 -95h-184z" />
    <glyph glyph-name="E" unicode="E" horiz-adv-x="562" 
d="M504 43v-43h-398v700h398v-43h-351v-274h301v-43h-301v-297h351z" />
    <glyph glyph-name="F" unicode="F" horiz-adv-x="538" 
d="M153 0h-47v700h388v-43h-341v-295h282v-43h-282v-319z" />
    <glyph glyph-name="G" unicode="G" horiz-adv-x="678" 
d="M601 29h1c-57 -27 -120 -41 -189 -41c-112 0 -198 33 -257 98s-89 153 -89 264c0 105 28 192 84 260s136 102 239 102c72 0 137 -14 195 -42l-13 -42c-57 27 -117 40 -180 40c-89 0 -157 -30 -204 -91s-70 -137 -70 -228c0 -95 25 -172 76 -230s124 -87 220 -87
c51 0 98 8 141 24v256h-165v42h211v-325z" />
    <glyph glyph-name="H" unicode="H" horiz-adv-x="719" 
d="M613 0h-48v340h-412v-340h-47v700h47v-317h412v317h48v-700z" />
    <glyph glyph-name="I" unicode="I" horiz-adv-x="259" 
d="M106 0v700h47v-700h-47z" />
    <glyph glyph-name="J" unicode="J" horiz-adv-x="259" 
d="M37 -126v1c46 83 69 173 69 270v555h47v-556c0 -109 -25 -207 -75 -293z" />
    <glyph glyph-name="K" unicode="K" horiz-adv-x="621" 
d="M543 700l-2 1c-13 -68 -36 -129 -70 -183s-81 -104 -142 -150l260 -368h-59l-239 341c-36 -25 -82 -52 -139 -81v-260h-47v700h47v-391c105 56 184 114 238 174s89 132 106 217h47z" />
    <glyph glyph-name="L" unicode="L" horiz-adv-x="545" 
d="M106 0v700h47v-657h349v-43h-396z" />
    <glyph glyph-name="M" unicode="M" horiz-adv-x="891" 
d="M735 700l51 -1v-700h-47v511c0 30 1 63 2 99c-69 -161 -160 -330 -273 -507h-45c-111 174 -202 343 -274 508c2 -28 3 -61 3 -100v-511h-46v700h50c62 -153 159 -337 291 -551c126 205 222 389 288 552z" />
    <glyph glyph-name="N" unicode="N" horiz-adv-x="719" 
d="M152 0h-46v700h46c107 -188 247 -399 419 -632c-3 22 -4 54 -4 96v536h47v-700h-47c-99 133 -180 246 -244 339s-122 187 -174 283c2 -64 3 -100 3 -109v-513z" />
    <glyph glyph-name="O" unicode="O" horiz-adv-x="708" 
d="M641 350h-2c0 -107 -24 -194 -72 -261s-119 -101 -214 -101s-166 34 -214 101s-72 154 -72 261s24 194 72 261s120 101 215 101s167 -34 215 -101s72 -154 72 -261zM115 350l1 -1c0 -60 8 -113 23 -159s41 -84 78 -114s82 -45 136 -45s99 15 136 45s63 68 78 114
s23 99 23 159s-8 113 -23 159s-41 84 -78 114s-82 45 -136 45c-81 0 -141 -30 -180 -89s-58 -135 -58 -228z" />
    <glyph glyph-name="P" unicode="P" horiz-adv-x="609" 
d="M106 0v700h154c185 0 278 -73 278 -218s-93 -218 -278 -218h-107v-264h-47zM489 482l-1 2c0 64 -20 109 -60 135s-96 39 -169 39h-107v-350h107c73 0 130 13 170 39s60 71 60 135z" />
    <glyph glyph-name="Q" unicode="Q" horiz-adv-x="708" 
d="M613 -163h-1c-22 -4 -42 -6 -61 -6c-47 0 -87 14 -119 41s-52 66 -60 117c-4 -1 -10 -1 -19 -1c-95 0 -166 34 -214 101s-72 154 -72 261s24 194 72 261s120 101 215 101s167 -34 215 -101s72 -154 72 -261c0 -93 -19 -172 -56 -237s-93 -105 -167 -120
c6 -39 22 -69 47 -89s55 -30 90 -30c18 0 35 2 51 6zM116 350l1 -1c0 -60 8 -113 23 -159s41 -84 78 -114s82 -45 136 -45s99 15 136 45s63 68 78 114s23 99 23 159s-8 113 -23 159s-41 84 -78 114s-82 45 -136 45c-81 0 -141 -30 -180 -89s-58 -135 -58 -228z" />
    <glyph glyph-name="R" unicode="R" horiz-adv-x="614" 
d="M259 657h-106v-309h106c71 0 125 12 161 37s54 65 54 120s-18 94 -54 117s-90 35 -161 35zM572 0l-59 2l-131 209c-23 36 -44 61 -63 75s-44 21 -75 21h-91v-306h-47v700h153c176 0 264 -65 264 -194c0 -59 -17 -104 -52 -136s-79 -50 -132 -53c14 -5 27 -14 40 -27
s29 -34 48 -63z" />
    <glyph glyph-name="S" unicode="S" horiz-adv-x="543" 
d="M57 25l7 45c75 -25 139 -38 192 -38c58 0 103 12 135 35s48 58 48 105c0 25 -4 47 -13 65s-23 34 -42 47s-38 24 -57 32s-45 17 -78 27c-64 20 -111 44 -141 73s-45 69 -45 121c0 57 20 100 59 130s92 45 159 45c55 0 108 -9 159 -28l-10 -41c-56 17 -105 25 -147 25
c-115 0 -172 -43 -172 -130c0 -42 13 -73 38 -94s66 -40 122 -58c37 -11 66 -21 87 -30s43 -21 66 -37s40 -36 51 -60s16 -52 16 -85c0 -64 -22 -111 -66 -141s-99 -45 -166 -45c-76 0 -143 12 -202 37z" />
    <glyph glyph-name="T" unicode="T" horiz-adv-x="550" 
d="M251 0v657h-222v43h492v-43h-222v-657h-48z" />
    <glyph glyph-name="U" unicode="U" horiz-adv-x="699" 
d="M101 267l-3 432h47v-432c0 -81 17 -140 50 -178s84 -57 152 -57c69 0 120 19 153 57s49 98 49 179v432h48v-433c0 -97 -20 -168 -61 -213s-103 -67 -187 -67s-146 22 -187 67s-61 116 -61 213z" />
    <glyph glyph-name="V" unicode="V" horiz-adv-x="601" 
d="M327 0l-53 1c-103 225 -185 458 -246 699h49c57 -231 132 -448 224 -652c92 207 166 424 223 651h49c-61 -241 -143 -474 -246 -699z" />
    <glyph glyph-name="W" unicode="W" horiz-adv-x="957" 
d="M687 44l-1 -2c84 213 147 432 188 657h48c-27 -134 -57 -255 -90 -363s-73 -220 -121 -337h-52c-43 102 -78 201 -105 296s-53 204 -78 327c-24 -123 -50 -232 -77 -327s-62 -193 -105 -295h-52c-48 115 -88 226 -120 334s-62 230 -90 367h49c47 -237 110 -456 189 -656
c82 213 143 432 182 656h52c42 -231 103 -450 183 -657z" />
    <glyph glyph-name="X" unicode="X" horiz-adv-x="585" 
d="M503 0l-217 329c-92 -121 -161 -231 -208 -329h-51c50 110 129 231 236 364l-221 336h55l202 -305c91 110 155 212 193 305h51c-43 -105 -117 -218 -222 -339l238 -361h-56z" />
    <glyph glyph-name="Y" unicode="Y" horiz-adv-x="569" 
d="M261 0l1 304c-56 71 -103 137 -141 198s-72 127 -103 198h52c49 -115 121 -235 216 -360c93 121 164 241 214 360h51c-59 -136 -140 -268 -242 -396v-304h-48z" />
    <glyph glyph-name="Z" unicode="Z" horiz-adv-x="555" 
d="M497 664l-1 1c-50 -110 -105 -211 -165 -304s-136 -199 -229 -318h410v-43h-468v37c192 249 327 456 404 620h-394v43h443v-36z" />
    <glyph glyph-name="bracketleft" unicode="[" horiz-adv-x="254" 
d="M78 -144v905h137v-42h-90v-821h90v-42h-137z" />
    <glyph glyph-name="backslash" unicode="\" horiz-adv-x="414" 
d="M328 -55l-289 810h47l289 -810h-47z" />
    <glyph glyph-name="bracketright" unicode="]" horiz-adv-x="254" 
d="M39 761h136v-905h-136v42h89v821h-89v42z" />
    <glyph glyph-name="asciicircum" unicode="^" horiz-adv-x="498" 
d="M393 355l-144 297l-144 -297h-49l170 345h46l170 -345h-49z" />
    <glyph glyph-name="underscore" unicode="_" horiz-adv-x="484" 
d="M20 -79v41h444v-41h-444z" />
    <glyph glyph-name="grave" unicode="`" 
d="M247 570l-99 134h54l91 -134h-46z" />
    <glyph glyph-name="a" unicode="a" horiz-adv-x="519" 
d="M243 29v1c57 0 103 11 138 33v167c-44 11 -87 16 -129 16c-98 0 -147 -37 -147 -112c0 -34 12 -60 36 -78s58 -27 102 -27zM428 37l-3 2c-51 -32 -113 -48 -186 -48c-59 0 -104 13 -136 39s-48 61 -48 105c0 52 18 90 54 114s82 36 139 36c43 0 87 -5 132 -15v68
c0 89 -47 134 -141 134c-47 0 -92 -9 -135 -27l-13 41c43 19 93 28 150 28c125 0 187 -59 187 -177v-300z" />
    <glyph glyph-name="b" unicode="b" horiz-adv-x="573" 
d="M511 262c0 -85 -21 -152 -64 -201s-102 -73 -178 -73c-72 0 -128 11 -168 32v700l47 3v-247c34 25 77 37 129 37c72 0 129 -21 171 -64s63 -105 63 -187zM148 50v-2c29 -13 69 -19 121 -19c62 0 110 20 143 61s50 98 50 171c0 69 -16 121 -49 156s-79 53 -138 53
c-24 0 -48 -4 -72 -12s-42 -18 -55 -30v-378z" />
    <glyph glyph-name="c" unicode="c" horiz-adv-x="488" 
d="M299 513c51 0 98 -10 141 -29l-12 -40c-45 18 -88 27 -129 27c-61 0 -108 -20 -140 -60s-48 -94 -48 -163c0 -71 17 -125 51 -162s84 -55 151 -55c41 0 82 10 122 30l12 -40c-41 -22 -86 -33 -136 -33c-80 0 -141 22 -184 67s-64 109 -64 192c0 81 21 146 62 194
s99 72 174 72z" />
    <glyph glyph-name="d" unicode="d" horiz-adv-x="572" 
d="M471 32c-43 -29 -98 -44 -165 -44c-74 0 -133 23 -177 68s-66 108 -66 188c0 83 22 149 66 197s108 72 191 72c36 0 71 -7 104 -20v227l47 3v-691zM111 243h-1c0 -65 18 -117 53 -155s82 -57 141 -57c53 0 93 9 120 28v388c-34 16 -68 24 -103 24
c-68 0 -120 -20 -156 -60s-54 -96 -54 -168z" />
    <glyph glyph-name="e" unicode="e" horiz-adv-x="548" 
d="M473 65l11 -38c-49 -24 -105 -36 -168 -36c-79 0 -141 23 -186 68s-68 110 -68 195c0 77 20 140 60 188s95 72 165 72c64 0 113 -20 148 -61s52 -92 52 -154c0 -18 -1 -36 -3 -54h-374c1 -71 20 -124 57 -160s88 -54 152 -54c51 0 102 11 154 34zM287 474h-2
c-52 0 -93 -17 -123 -51s-47 -80 -52 -137h327c1 5 1 12 1 21c0 47 -12 87 -37 119s-63 48 -114 48z" />
    <glyph glyph-name="f" unicode="f" horiz-adv-x="321" 
d="M29 501h77v70c0 107 45 160 135 160c24 0 49 -4 74 -11l-10 -40c-25 6 -45 9 -60 9c-33 0 -56 -10 -70 -30s-21 -49 -21 -88v-70h144v-41h-144v-460h-47v460h-78v41z" />
    <glyph glyph-name="g" unicode="g" horiz-adv-x="563" 
d="M467 -14v-1c0 -59 -17 -103 -52 -133s-84 -45 -147 -45c-57 0 -109 9 -156 26l11 42c49 -17 97 -25 144 -25c51 0 89 12 114 36s38 57 38 98v73c-35 -25 -80 -38 -135 -38c-69 0 -123 21 -163 63s-60 101 -60 177c0 79 22 141 65 186s102 68 176 68c67 0 122 -13 165 -40
v-487zM111 260l-1 -1c0 -63 16 -112 48 -147s76 -53 131 -53c52 0 96 13 131 40v346c-36 16 -76 24 -119 24c-59 0 -105 -18 -139 -55s-51 -88 -51 -154z" />
    <glyph glyph-name="h" unicode="h" horiz-adv-x="588" 
d="M148 0h-46v720l47 3v-253c49 29 103 43 162 43c61 0 107 -16 139 -47s48 -74 48 -129v-337h-47v334c0 43 -12 77 -36 101s-60 36 -108 36c-58 0 -111 -15 -159 -44v-427z" />
    <glyph glyph-name="i" unicode="i" horiz-adv-x="248" 
d="M148 501v-501h-47v501h47zM125 620l-1 -3c-11 0 -20 4 -27 11s-10 16 -10 27c0 10 3 19 10 26s16 11 27 11s20 -3 26 -10s9 -15 9 -25c0 -11 -3 -20 -9 -27s-14 -10 -25 -10z" />
    <glyph glyph-name="j" unicode="j" horiz-adv-x="248" 
d="M148 -31h-1c0 -40 -8 -72 -24 -96s-42 -43 -79 -58l-16 40c26 13 45 28 56 44s17 40 17 71v531h47v-532zM159 657l-1 -3c0 -11 -3 -20 -9 -27s-14 -10 -25 -10s-20 4 -27 11s-10 16 -10 27c0 10 3 19 10 26s16 11 27 11s20 -3 26 -10s9 -15 9 -25z" />
    <glyph glyph-name="k" unicode="k" horiz-adv-x="522" 
d="M450 501h-2c-14 -92 -65 -173 -152 -242l189 -259h-56l-168 233c-35 -25 -73 -49 -114 -72v-161h-47v720l47 3v-515c82 49 143 94 182 136s64 94 75 157h46z" />
    <glyph glyph-name="l" unicode="l" horiz-adv-x="280" 
d="M143 723v-593c0 -35 5 -60 15 -76s29 -24 56 -24c9 0 18 1 28 3l5 -40c-11 -3 -23 -5 -36 -5c-77 0 -115 47 -115 140v592z" />
    <glyph glyph-name="m" unicode="m" horiz-adv-x="897" 
d="M806 0h-49v334c0 41 -11 74 -33 99s-56 38 -103 38c-58 0 -112 -17 -163 -52c11 -24 16 -52 16 -85v-334h-47v334c0 41 -11 74 -32 99s-55 38 -102 38c-57 0 -107 -13 -150 -39v-432h-47v461c63 35 129 52 198 52c64 0 111 -19 142 -56c60 37 122 56 185 56
s110 -16 140 -48s45 -75 45 -128v-337z" />
    <glyph glyph-name="n" unicode="n" horiz-adv-x="584" 
d="M143 0l-47 -1v461c65 35 134 52 207 52c63 0 111 -15 143 -46s48 -74 48 -129v-337h-47v334c0 42 -12 75 -36 100s-60 37 -108 37c-61 0 -114 -13 -160 -39v-432z" />
    <glyph glyph-name="o" unicode="o" horiz-adv-x="564" 
d="M503 251v-1c0 -79 -19 -143 -58 -191s-93 -72 -163 -72c-69 0 -123 24 -162 72s-58 112 -58 191s19 143 58 191s93 72 162 72c70 0 124 -24 163 -72s58 -111 58 -190zM111 250h-2c0 -68 15 -122 44 -161s72 -59 128 -59c57 0 100 20 128 59s42 93 42 161s-14 122 -42 161
s-71 59 -128 59c-56 0 -98 -20 -127 -59s-43 -93 -43 -161z" />
    <glyph glyph-name="p" unicode="p" horiz-adv-x="566" 
d="M504 265c0 -85 -19 -152 -58 -202s-98 -75 -177 -75c-45 0 -87 10 -126 29v-201h-47v649c58 32 119 48 182 48c75 0 131 -23 169 -68s57 -105 57 -180zM143 64l1 -1c41 -22 82 -33 122 -33c62 0 109 20 141 60s48 98 48 173c0 60 -15 110 -45 149s-74 59 -133 59
c-50 0 -95 -11 -134 -34v-373z" />
    <glyph glyph-name="q" unicode="q" horiz-adv-x="566" 
d="M470 -184h-45v219c-33 -31 -80 -47 -141 -47c-67 0 -121 23 -161 69s-60 109 -60 188c0 84 22 150 65 197s102 71 177 71c67 0 122 -13 165 -39v-658zM113 246l-1 -2c0 -65 16 -117 47 -156s75 -58 131 -58c55 0 100 16 134 48v369c-36 15 -75 23 -117 23
c-60 0 -107 -19 -142 -58s-52 -94 -52 -166z" />
    <glyph glyph-name="r" unicode="r" horiz-adv-x="374" 
d="M101 460c59 35 129 53 210 53c13 0 28 -1 44 -3l-7 -43c-10 3 -22 4 -36 4c-64 0 -119 -13 -164 -40v-431h-47v460z" />
    <glyph glyph-name="s" unicode="s" horiz-adv-x="429" 
d="M353 490l-11 -42c-47 15 -89 22 -125 22c-80 0 -120 -31 -120 -93c0 -16 3 -30 9 -42s16 -22 30 -30s26 -14 36 -18s25 -9 46 -16c59 -18 102 -37 129 -58s40 -51 40 -90c0 -45 -16 -79 -49 -102s-76 -34 -129 -34c-29 0 -60 3 -92 9s-55 13 -70 20l10 42
c53 -19 104 -28 152 -28c40 0 72 8 95 24s35 39 35 69c0 27 -11 48 -33 63s-58 30 -108 45c-46 15 -82 33 -108 54s-39 52 -39 92c0 44 15 78 44 101s70 35 123 35s98 -8 135 -23z" />
    <glyph glyph-name="t" unicode="t" horiz-adv-x="333" 
d="M308 -1l-1 1c-23 -7 -46 -11 -69 -11c-91 0 -136 49 -136 147v325h-78v41h78v122l47 4v-126h145v-41h-145v-325c0 -38 8 -65 23 -81s38 -24 68 -24c24 0 46 3 65 9z" />
    <glyph glyph-name="u" unicode="u" horiz-adv-x="575" 
d="M479 41l1 -1c-69 -35 -140 -53 -213 -53c-60 0 -104 15 -133 45s-43 71 -43 124v345h47v-343c0 -85 43 -127 129 -127c61 0 116 13 165 39v431h47v-460z" />
    <glyph glyph-name="v" unicode="v" horiz-adv-x="515" 
d="M90 501l-2 1c13 -81 33 -157 60 -229s63 -148 108 -228c91 163 147 315 168 457h48c-14 -88 -36 -171 -67 -249s-72 -162 -123 -253h-51c-51 89 -92 173 -122 251s-52 161 -66 250h47z" />
    <glyph glyph-name="w" unicode="w" horiz-adv-x="785" 
d="M398 501h2c21 -146 70 -298 147 -457c41 83 74 160 98 231s41 146 51 226h47c-13 -88 -33 -171 -61 -249s-65 -162 -111 -252h-49c-61 121 -105 228 -132 321c-28 -101 -71 -208 -128 -321h-49c-46 89 -83 173 -110 251s-47 161 -60 250h47c21 -147 71 -299 149 -457
c63 127 107 246 131 357c-7 33 -13 66 -18 100h46z" />
    <glyph glyph-name="x" unicode="x" horiz-adv-x="482" 
d="M38 0v-2c17 51 38 96 63 134s61 82 108 131c-73 79 -127 158 -163 236h51c30 -61 78 -130 144 -207c75 76 122 145 141 208h48c-23 -77 -77 -156 -162 -237c70 -79 130 -167 179 -263h-52c-44 87 -97 165 -159 235c-40 -44 -72 -83 -96 -118s-42 -74 -55 -117h-47z" />
    <glyph glyph-name="y" unicode="y" horiz-adv-x="506" 
d="M286 5h-1c-58 -102 -133 -165 -224 -188l-11 42c77 19 139 68 186 147c-102 159 -166 324 -193 495h47c24 -147 81 -298 172 -454c43 79 78 154 104 225s46 147 59 229h47c-24 -154 -86 -319 -186 -496z" />
    <glyph glyph-name="z" unicode="z" horiz-adv-x="455" 
d="M53 501h359v-34c-77 -135 -183 -277 -318 -426h331v-41h-391v35c141 153 249 295 324 425h-305v41z" />
    <glyph glyph-name="braceleft" unicode="{" horiz-adv-x="291" 
d="M29 329l-2 -2c37 0 62 8 75 24s19 47 19 92c0 22 -2 55 -5 100s-5 79 -5 102c0 37 8 66 25 87s42 32 75 32c17 0 30 -1 40 -2v-39h-26c-25 0 -42 -6 -52 -18s-15 -33 -15 -64c0 -21 2 -54 5 -99s5 -78 5 -100c0 -39 -5 -69 -15 -90s-27 -36 -51 -45c24 -9 41 -24 51 -45
s15 -51 15 -90c0 -22 -2 -55 -5 -99s-5 -77 -5 -99c0 -30 5 -51 15 -63s27 -18 52 -18h26v-39c-15 -2 -28 -3 -39 -3c-66 0 -99 40 -99 119c0 23 2 57 5 102s5 78 5 99c0 45 -6 76 -19 92s-38 24 -75 24v42z" />
    <glyph glyph-name="bar" unicode="|" horiz-adv-x="257" 
d="M106 -217v971h45v-971h-45z" />
    <glyph glyph-name="braceright" unicode="}" horiz-adv-x="291" 
d="M168 445l-1 -1c0 -45 6 -75 19 -91s38 -24 75 -24v-42c-37 0 -62 -8 -75 -24s-19 -46 -19 -91c0 -21 2 -54 5 -99s5 -79 5 -102c0 -79 -33 -119 -99 -119c-12 0 -25 1 -40 3v39h26c25 0 42 6 52 18s15 33 15 63c0 22 -2 55 -5 99s-5 77 -5 99c0 39 5 69 15 90
s27 36 51 45c-24 9 -41 24 -51 45s-15 51 -15 90c0 22 2 55 5 100s5 78 5 99c0 31 -5 52 -15 64s-27 18 -52 18h-26v39c10 1 23 2 40 2c33 0 58 -10 75 -31s25 -50 25 -87c0 -23 -2 -57 -5 -102s-5 -78 -5 -100z" />
    <glyph glyph-name="asciitilde" unicode="~" horiz-adv-x="497" 
d="M341 336v-2c36 0 66 22 89 66l33 -17c-27 -62 -67 -93 -120 -93c-29 0 -61 9 -97 28s-65 28 -86 28c-43 0 -74 -22 -93 -65l-33 17c9 29 25 52 47 69s48 25 77 25c28 0 60 -9 96 -28s65 -28 87 -28z" />
    <glyph glyph-name="uni00A0" unicode="&#xa0;" horiz-adv-x="257" 
 />
    <glyph glyph-name="exclamdown" unicode="&#xa1;" horiz-adv-x="282" 
d="M116 -192v260c0 77 2 148 7 213h37c5 -74 8 -145 8 -214v-259h-52zM107 478h-1c0 10 3 18 9 25s14 10 24 10c11 0 20 -3 26 -10s9 -15 9 -25s-3 -18 -9 -25s-14 -10 -25 -10c-10 0 -18 3 -24 10s-9 15 -9 25z" />
    <glyph glyph-name="cent" unicode="&#xa2;" horiz-adv-x="513" 
d="M62 251l-3 -2c0 77 19 139 57 185s91 72 160 77v111h46v-111c45 -2 86 -10 123 -23l-11 -40c-46 15 -91 23 -134 23c-62 0 -109 -19 -141 -58s-48 -93 -48 -162c0 -70 17 -124 51 -163s82 -58 145 -58c53 0 99 8 138 24l10 -40c-36 -15 -79 -24 -130 -26v-112h-45v113
c-69 5 -123 31 -161 77s-57 108 -57 185z" />
    <glyph glyph-name="sterling" unicode="&#xa3;" horiz-adv-x="552" 
d="M522 0l-386 -1v332h-100v42h100v117c0 58 15 105 46 140s79 53 144 53c53 0 109 -11 167 -34l-13 -39c-59 20 -110 30 -153 30c-97 0 -145 -50 -145 -149v-117h172v-42h-172v-290h340v-42z" />
    <glyph glyph-name="currency" unicode="&#xa4;" horiz-adv-x="570" 
d="M127 352c0 -47 15 -85 44 -114s67 -44 114 -44s85 15 113 44s42 67 42 114s-14 85 -42 114s-66 43 -114 43c-47 0 -85 -14 -114 -43s-43 -67 -43 -114zM482 128l-69 68c-36 -27 -79 -41 -128 -41s-91 14 -127 41l-69 -68l-31 31l68 68c-27 34 -40 76 -40 125
c0 50 14 92 41 125l-69 68l31 32l69 -69c35 27 77 40 127 40s92 -13 127 -40l70 69l30 -32l-69 -68c27 -33 41 -75 41 -125c0 -49 -13 -91 -40 -125l68 -68z" />
    <glyph glyph-name="yen" unicode="&#xa5;" horiz-adv-x="619" 
d="M69 189v40h217v76c-22 27 -34 42 -35 44h-182v40h153c-71 98 -130 201 -177 308h51c48 -112 119 -230 214 -354c93 122 164 240 213 354h52c-45 -104 -104 -207 -177 -308h150v-40h-180l-35 -46v-74h215v-40h-215v-189h-47v189h-217z" />
    <glyph glyph-name="brokenbar" unicode="&#xa6;" horiz-adv-x="257" 
d="M106 340v412h45v-412h-45zM106 -217v416h45v-416h-45z" />
    <glyph glyph-name="section" unicode="&#xa7;" horiz-adv-x="588" 
d="M275 163l-1 -1c61 -21 103 -39 126 -53c51 34 76 76 76 127c0 41 -21 74 -64 99c-20 11 -64 29 -131 53c-37 14 -68 29 -93 45c-51 -32 -77 -74 -77 -126c0 -37 13 -65 38 -84s67 -39 126 -60zM266 -173l-1 -3c-65 0 -121 11 -169 32l11 42c49 -20 101 -30 157 -30
c106 0 159 38 159 114c0 39 -19 69 -56 90c-16 9 -55 25 -117 47c-67 23 -115 48 -145 75s-45 63 -45 109c0 34 9 64 27 90s41 47 68 62c-29 28 -44 63 -44 105c0 49 18 86 54 111s81 38 134 38c51 0 103 -8 157 -25l-10 -41c-53 15 -102 22 -147 22c-43 0 -77 -9 -102 -27
s-38 -43 -38 -76c0 -32 12 -58 37 -79s61 -40 108 -57c33 -11 57 -20 73 -26s35 -15 58 -27s40 -24 50 -35s19 -25 27 -42s12 -37 12 -59c0 -32 -8 -62 -25 -89s-39 -48 -66 -63c27 -25 40 -58 40 -99c0 -54 -20 -94 -60 -120s-89 -39 -147 -39z" />
    <glyph glyph-name="dieresis" unicode="&#xa8;" 
d="M206 636v-3c0 -11 -3 -20 -9 -27s-15 -10 -26 -10s-20 4 -26 11s-9 16 -9 27c0 10 3 19 9 26s15 11 26 11s20 -3 26 -10s9 -15 9 -25zM362 633v-3c0 -11 -3 -20 -9 -27s-14 -10 -25 -10c-12 0 -21 4 -27 11s-9 16 -9 27c0 10 3 19 9 26s15 11 27 11c11 0 19 -3 25 -10
s9 -15 9 -25z" />
    <glyph glyph-name="copyright" unicode="&#xa9;" horiz-adv-x="824" 
d="M420 547l-2 -1c36 0 71 -7 106 -20l-10 -35c-32 11 -63 16 -92 16c-42 0 -77 -12 -104 -37s-41 -65 -41 -120s14 -95 41 -120s61 -37 102 -37c34 0 66 5 95 16l10 -36c-36 -13 -71 -20 -106 -20c-51 0 -94 16 -130 48s-54 82 -54 149s18 117 54 149s80 48 131 48zM89 349
v-1c0 -97 29 -175 87 -234s136 -88 234 -88c97 0 175 30 233 89s87 137 87 234s-29 175 -87 234s-136 89 -233 89c-98 0 -176 -30 -234 -89s-87 -137 -87 -234zM774 348h-1c0 -108 -33 -195 -100 -262s-155 -100 -264 -100s-197 33 -264 100s-100 154 -100 262
s34 195 101 262s155 100 264 100s197 -33 264 -100s100 -154 100 -262z" />
    <glyph glyph-name="ordfeminine" unicode="&#xaa;" horiz-adv-x="346" 
d="M72 629l-9 36c37 13 71 19 102 19c88 0 132 -39 132 -118v-192h-2c-41 -27 -86 -40 -135 -40c-39 0 -69 9 -90 27s-31 43 -31 75s12 56 35 72s53 24 90 24c29 0 60 -3 93 -9v41c0 29 -8 50 -23 63s-38 19 -69 19s-62 -6 -93 -17zM161 370h-1c39 0 71 7 96 22v97
c-29 6 -59 9 -91 9c-57 0 -86 -21 -86 -62c0 -44 27 -66 82 -66z" />
    <glyph glyph-name="guillemotleft" unicode="&#xab;" horiz-adv-x="552" 
d="M218 64l-1 1c-60 53 -124 120 -193 201c65 77 129 145 193 203h60c-70 -65 -135 -133 -194 -203c57 -67 122 -134 195 -202h-60zM447 65l-1 1c-60 53 -124 120 -193 201c65 77 129 145 193 203h60c-70 -65 -135 -133 -194 -203c57 -67 122 -134 195 -202h-60z" />
    <glyph glyph-name="logicalnot" unicode="&#xac;" horiz-adv-x="497" 
d="M35 325v43h427v-231h-46v188h-381z" />
    <glyph glyph-name="uni00AD" unicode="&#xad;" horiz-adv-x="311" 
 />
    <glyph glyph-name="registered" unicode="&#xae;" horiz-adv-x="568" 
d="M482 473h-2c0 64 -18 114 -54 150s-84 54 -145 54s-109 -18 -144 -54s-52 -86 -52 -150c0 -65 18 -115 53 -151s83 -54 144 -54s110 18 146 54s54 86 54 151zM47 473l-3 -2c0 71 22 129 65 173s100 66 170 66s127 -22 171 -66s66 -101 66 -172s-22 -128 -66 -172
s-101 -66 -170 -66c-70 0 -126 22 -169 66s-64 102 -64 173zM200 355v241h72c64 0 96 -25 96 -75c0 -34 -17 -57 -50 -68c14 -29 36 -62 66 -98h-44c-23 29 -43 60 -59 92h-8h-39v-92h-34zM272 567h-38v-91h38c41 0 61 15 61 45c0 31 -20 46 -61 46z" />
    <glyph glyph-name="macron" unicode="&#xaf;" 
d="M120 607v40h254v-40h-254z" />
    <glyph glyph-name="degree" unicode="&#xb0;" horiz-adv-x="331" 
d="M30 576l-1 -1c0 41 13 74 38 99s58 38 99 38s74 -12 99 -37s37 -58 37 -99s-12 -74 -37 -99s-58 -37 -99 -37s-74 12 -99 37s-37 58 -37 99zM165 674h-1c-29 0 -52 -9 -70 -27s-27 -42 -27 -73s9 -55 27 -72s41 -26 70 -26s52 9 69 26s26 41 26 72s-8 55 -25 73
s-40 27 -69 27z" />
    <glyph glyph-name="plusminus" unicode="&#xb1;" horiz-adv-x="497" 
d="M35 33v42h427v-42h-427zM35 335v43h191v178h46v-178h190v-43h-190v-184h-46v184h-191z" />
    <glyph glyph-name="twosuperior" unicode="&#xb2;" horiz-adv-x="315" 
d="M47 366l-1 35l34 28c52 42 88 75 108 99s30 50 30 77c0 45 -24 68 -73 68c-28 0 -55 -10 -82 -31l-19 32c34 25 69 38 105 38c34 0 61 -9 82 -27s31 -43 31 -76c0 -31 -11 -61 -34 -90s-63 -66 -120 -112l-6 -5h180v-36h-235z" />
    <glyph glyph-name="threesuperior" unicode="&#xb3;" horiz-adv-x="315" 
d="M51 380l12 36c30 -13 59 -20 87 -20c53 0 80 21 80 64s-25 64 -75 64h-46v34h33c49 0 73 21 73 62c0 36 -24 54 -71 54c-21 0 -44 -7 -68 -20l-19 32c27 17 57 26 90 26c35 0 62 -8 82 -24s30 -38 30 -66c0 -39 -19 -65 -56 -78c47 -10 71 -38 71 -85
c0 -67 -40 -101 -121 -101c-39 0 -73 7 -102 22z" />
    <glyph glyph-name="acute" unicode="&#xb4;" 
d="M256 704h54l-99 -134h-46z" />
    <glyph glyph-name="uni00B5" unicode="&#xb5;" horiz-adv-x="584" 
d="M147 -184h-44v685h47v-353c0 -37 10 -66 30 -87s50 -31 90 -31c60 0 116 21 167 62v409h47v-501h-46v53c-49 -43 -107 -65 -174 -65c-51 0 -91 14 -120 41l3 -147v-66z" />
    <glyph glyph-name="paragraph" unicode="&#xb6;" horiz-adv-x="596" 
d="M273 700h218v-700h-43v664h-133v-664h-42v282c-61 0 -112 18 -153 53s-62 87 -62 156s21 121 62 156s92 53 153 53z" />
    <glyph glyph-name="periodcentered" unicode="&#xb7;" 
d="M52 355l-1 -2c0 10 3 18 9 24s15 9 26 9c10 0 18 -3 24 -9s9 -14 9 -24s-3 -18 -9 -25s-14 -10 -24 -10c-11 0 -19 4 -25 11s-9 16 -9 26z" />
    <glyph glyph-name="cedilla" unicode="&#xb8;" 
d="M157 -205l6 34c17 -4 33 -6 48 -6c46 0 69 15 69 45c0 28 -26 43 -79 45l-9 24l21 63h38l-20 -57c61 -5 92 -30 92 -76c0 -26 -10 -46 -30 -59s-47 -20 -80 -20c-20 0 -39 2 -56 7z" />
    <glyph glyph-name="onesuperior" unicode="&#xb9;" horiz-adv-x="315" 
d="M87 614l-17 34c28 19 63 38 105 57h37v-338h-42v295c-29 -15 -57 -31 -83 -48z" />
    <glyph glyph-name="ordmasculine" unicode="&#xba;" horiz-adv-x="376" 
d="M337 507h-2c0 -49 -12 -90 -36 -124s-61 -51 -112 -51s-88 17 -112 51s-36 75 -36 124s12 91 36 125s62 51 113 51s89 -17 113 -51s36 -76 36 -125zM79 507v-1c0 -43 9 -77 27 -102s45 -37 80 -37s62 12 80 37s27 59 27 102s-9 77 -27 102s-45 38 -80 38s-62 -12 -80 -37
s-27 -59 -27 -102z" />
    <glyph glyph-name="guillemotright" unicode="&#xbb;" horiz-adv-x="552" 
d="M334 64l-61 -1c73 68 138 135 195 202c-59 70 -124 138 -194 203h60c64 -58 128 -126 193 -203c-69 -81 -133 -148 -193 -201zM103 63l-61 1c77 73 142 140 195 202c-55 65 -120 133 -194 203h60c61 -55 125 -123 193 -204c-73 -85 -137 -152 -193 -202z" />
    <glyph glyph-name="onequarter" unicode="&#xbc;" horiz-adv-x="789" 
d="M87 614l-17 34c28 19 63 38 105 57h37v-338h-42v295c-29 -15 -57 -31 -83 -48zM571 702h46l-388 -700h-46zM467 69l1 31c49 85 108 165 177 240h41v-236h53v-35h-53v-67h-41v67h-178zM646 190c0 41 1 78 4 110c-58 -71 -106 -136 -143 -196h139v86z" />
    <glyph glyph-name="onehalf" unicode="&#xbd;" horiz-adv-x="789" 
d="M87 614l-17 34c28 19 63 38 105 57h37v-338h-42v295c-29 -15 -57 -31 -83 -48zM539 702h46l-388 -700h-46zM494 2l-1 37l34 27c52 43 88 76 108 100s30 50 30 77c0 45 -24 68 -73 68c-27 0 -54 -10 -82 -31l-19 32c34 25 69 38 105 38c34 0 61 -9 82 -27s31 -44 31 -78
c0 -31 -11 -61 -34 -90s-63 -66 -120 -112l-6 -5h180v-36h-235z" />
    <glyph glyph-name="threequarters" unicode="&#xbe;" horiz-adv-x="789" 
d="M51 380l12 36c30 -13 59 -20 87 -20c53 0 80 21 80 64s-25 64 -75 64h-46v34h33c49 0 73 21 73 62c0 36 -24 54 -71 54c-21 0 -44 -7 -68 -20l-19 32c27 17 57 26 90 26c35 0 62 -8 82 -24s30 -38 30 -66c0 -39 -19 -65 -56 -78c47 -10 71 -38 71 -85
c0 -67 -40 -101 -121 -101c-39 0 -73 7 -102 22zM586 700h46l-388 -700h-46zM466 67l1 31c49 85 108 165 177 240h41v-236h53v-35h-53v-67h-41v67h-178zM645 188c0 41 1 78 4 110c-58 -71 -106 -136 -143 -196h139v86z" />
    <glyph glyph-name="questiondown" unicode="&#xbf;" horiz-adv-x="435" 
d="M246 443h-1c-10 0 -18 3 -24 10s-9 15 -9 25s3 18 9 25s14 10 24 10c11 0 20 -3 26 -10s9 -15 9 -25s-3 -18 -9 -25s-14 -10 -25 -10zM405 -172h-4c-49 -21 -100 -32 -152 -32c-59 0 -106 14 -142 43s-54 69 -54 120c0 36 7 66 21 89s35 47 62 72c21 19 35 33 43 41
s17 22 27 41s15 39 15 60v20h44v-23c0 -25 -5 -48 -14 -69s-18 -36 -27 -46s-22 -24 -40 -41s-31 -30 -40 -39s-18 -23 -27 -42s-13 -39 -13 -61c0 -39 13 -69 39 -90s63 -31 110 -31c45 0 92 10 141 29z" />
    <glyph glyph-name="Agrave" unicode="&#xc0;" horiz-adv-x="636" 
d="M318 653c-47 -106 -98 -235 -153 -387h306c-55 152 -106 281 -153 387zM559 0l-1 -1c-21 69 -45 144 -72 224h-336c-27 -80 -51 -155 -72 -224h-49c89 277 177 510 265 700h50c93 -201 181 -434 264 -699h-49zM297 767l-99 134h54l91 -134h-46z" />
    <glyph glyph-name="Aacute" unicode="&#xc1;" horiz-adv-x="636" 
d="M318 653c-47 -106 -98 -235 -153 -387h306c-55 152 -106 281 -153 387zM559 0l-1 -1c-21 69 -45 144 -72 224h-336c-27 -80 -51 -155 -72 -224h-49c89 277 177 510 265 700h50c93 -201 181 -434 264 -699h-49zM387 901h54l-99 -134h-46z" />
    <glyph glyph-name="Acircumflex" unicode="&#xc2;" horiz-adv-x="636" 
d="M318 653c-47 -106 -98 -235 -153 -387h306c-55 152 -106 281 -153 387zM559 0l-1 -1c-21 69 -45 144 -72 224h-336c-27 -80 -51 -155 -72 -224h-49c89 277 177 510 265 700h50c93 -201 181 -434 264 -699h-49zM404 767l-87 106l-87 -106h-50l108 134h59l107 -134h-50z
" />
    <glyph glyph-name="Atilde" unicode="&#xc3;" horiz-adv-x="636" 
d="M318 653c-47 -106 -98 -235 -153 -387h306c-55 152 -106 281 -153 387zM559 0l-1 -1c-21 69 -45 144 -72 224h-336c-27 -80 -51 -155 -72 -224h-49c89 277 177 510 265 700h50c93 -201 181 -434 264 -699h-49zM386 820l-2 -2c11 0 19 3 24 9s9 13 11 21s3 20 4 35h39
c-1 -31 -7 -56 -17 -75s-29 -29 -56 -29c-21 0 -45 10 -73 29s-49 29 -64 29s-26 -5 -32 -14s-10 -23 -11 -41h-39c2 64 28 96 79 96c21 0 46 -10 75 -29s50 -29 62 -29z" />
    <glyph glyph-name="Adieresis" unicode="&#xc4;" horiz-adv-x="636" 
d="M318 653c-47 -106 -98 -235 -153 -387h306c-55 152 -106 281 -153 387zM559 0l-1 -1c-21 69 -45 144 -72 224h-336c-27 -80 -51 -155 -72 -224h-49c89 277 177 510 265 700h50c93 -201 181 -434 264 -699h-49zM274 833v-3c0 -11 -3 -20 -9 -27s-15 -10 -26 -10
s-20 4 -26 11s-9 16 -9 27c0 10 3 19 9 26s15 11 26 11s20 -3 26 -10s9 -15 9 -25zM430 830v-3c0 -11 -3 -20 -9 -27s-14 -10 -25 -10c-12 0 -21 4 -27 11s-9 16 -9 27c0 10 3 19 9 26s15 11 27 11c11 0 19 -3 25 -10s9 -15 9 -25z" />
    <glyph glyph-name="Aring" unicode="&#xc5;" horiz-adv-x="636" 
d="M559 0l-2 -1c-21 69 -45 144 -72 224h-336c-27 -80 -51 -155 -72 -224h-49c89 277 177 510 264 699c-21 5 -38 16 -51 33s-19 37 -19 60c0 28 9 51 27 69s41 27 69 27s51 -9 69 -27s27 -41 27 -69c0 -23 -6 -43 -19 -60s-30 -28 -51 -33c93 -201 181 -434 264 -698h-49z
M316 850h-2c-19 0 -33 -6 -43 -17s-15 -25 -15 -42s5 -32 15 -44s25 -18 44 -18s34 6 44 18s15 27 15 44s-5 31 -15 42s-24 17 -43 17zM314 652c-47 -106 -98 -235 -153 -387h306c-55 152 -106 281 -153 387z" />
    <glyph glyph-name="AE" unicode="&#xc6;" horiz-adv-x="883" 
d="M825 43v-43h-379v224h-257c-45 -81 -85 -156 -120 -224h-50c120 239 257 472 411 700h395v-43h-332v-274h282v-43h-282v-297h332zM446 266v387c-86 -135 -164 -264 -233 -387h233z" />
    <glyph glyph-name="Ccedilla" unicode="&#xc7;" horiz-adv-x="600" 
d="M379 -12l-12 -2l-16 -45c61 -5 92 -30 92 -76c0 -26 -10 -46 -30 -59s-47 -20 -80 -20c-20 0 -39 2 -56 7l7 34c17 -4 33 -6 48 -6c47 0 70 15 70 45c0 28 -27 43 -80 45l-9 24l18 54c-85 10 -150 46 -195 108s-68 143 -68 243c0 111 26 201 77 269s127 102 228 102
c57 0 114 -11 171 -34l-13 -43c-58 22 -111 33 -158 33c-44 0 -83 -9 -116 -26s-60 -41 -80 -71s-35 -64 -45 -103s-15 -81 -15 -126c0 -94 22 -169 66 -225s110 -84 197 -84c51 0 103 12 157 36l11 -42c-51 -25 -107 -38 -169 -38z" />
    <glyph glyph-name="Egrave" unicode="&#xc8;" horiz-adv-x="562" 
d="M504 43v-43h-398v700h398v-43h-351v-274h301v-43h-301v-297h351zM288 768l-99 134h54l91 -134h-46z" />
    <glyph glyph-name="Eacute" unicode="&#xc9;" horiz-adv-x="562" 
d="M504 43v-43h-398v700h398v-43h-351v-274h301v-43h-301v-297h351zM378 902h54l-99 -134h-46z" />
    <glyph glyph-name="Ecircumflex" unicode="&#xca;" horiz-adv-x="562" 
d="M504 43v-43h-398v700h398v-43h-351v-274h301v-43h-301v-297h351zM394 768l-87 106l-87 -106h-50l108 134h59l107 -134h-50z" />
    <glyph glyph-name="Edieresis" unicode="&#xcb;" horiz-adv-x="562" 
d="M504 43v-43h-398v700h398v-43h-351v-274h301v-43h-301v-297h351zM264 834v-3c0 -11 -3 -20 -9 -27s-15 -10 -26 -10s-20 4 -26 11s-9 16 -9 27c0 10 3 19 9 26s15 11 26 11s20 -3 26 -10s9 -15 9 -25zM420 831v-3c0 -11 -3 -20 -9 -27s-14 -10 -25 -10
c-12 0 -21 4 -27 11s-9 16 -9 27c0 10 3 19 9 26s15 11 27 11c11 0 19 -3 25 -10s9 -15 9 -25z" />
    <glyph glyph-name="Igrave" unicode="&#xcc;" horiz-adv-x="259" 
d="M106 0v700h47v-700h-47zM110 768l-99 134h54l91 -134h-46z" />
    <glyph glyph-name="Iacute" unicode="&#xcd;" horiz-adv-x="259" 
d="M106 0v700h47v-700h-47zM200 902h54l-99 -134h-46z" />
    <glyph glyph-name="Icircumflex" unicode="&#xce;" horiz-adv-x="259" 
d="M106 0v700h47v-700h-47zM217 768l-87 106l-87 -106h-50l108 134h59l107 -134h-50z" />
    <glyph glyph-name="Idieresis" unicode="&#xcf;" horiz-adv-x="259" 
d="M106 0v700h47v-700h-47zM87 834v-3c0 -11 -3 -20 -9 -27s-15 -10 -26 -10s-20 4 -26 11s-9 16 -9 27c0 10 3 19 9 26s15 11 26 11s20 -3 26 -10s9 -15 9 -25zM243 831v-3c0 -11 -3 -20 -9 -27s-14 -10 -25 -10c-12 0 -21 4 -27 11s-9 16 -9 27c0 10 3 19 9 26
s15 11 27 11c11 0 19 -3 25 -10s9 -15 9 -25z" />
    <glyph glyph-name="Eth" unicode="&#xd0;" horiz-adv-x="687" 
d="M579 350l2 1c0 92 -24 166 -72 222s-120 84 -217 84h-137v-275h151v-43h-151v-296h137c95 0 167 28 215 85s72 131 72 222zM108 1v339h-79v43h79v318h185c108 0 191 -32 250 -95s88 -148 88 -255s-29 -192 -88 -255s-142 -95 -250 -95h-185z" />
    <glyph glyph-name="Ntilde" unicode="&#xd1;" horiz-adv-x="719" 
d="M152 0h-46v700h46c107 -188 247 -399 419 -632c-3 22 -4 54 -4 96v536h47v-700h-47c-99 133 -180 246 -244 339s-122 187 -174 283c2 -64 3 -100 3 -109v-513zM429 821l-2 -2c11 0 19 3 24 9s9 13 11 21s3 20 4 35h39c-1 -31 -7 -56 -17 -75s-29 -29 -56 -29
c-21 0 -45 10 -73 29s-49 29 -64 29s-26 -5 -32 -14s-10 -23 -11 -41h-39c2 64 28 96 79 96c21 0 46 -10 75 -29s50 -29 62 -29z" />
    <glyph glyph-name="Ograve" unicode="&#xd2;" horiz-adv-x="708" 
d="M641 350h-2c0 -107 -24 -194 -72 -261s-119 -101 -214 -101s-166 34 -214 101s-72 154 -72 261s24 194 72 261s120 101 215 101s167 -34 215 -101s72 -154 72 -261zM115 350l1 -1c0 -60 8 -113 23 -159s41 -84 78 -114s82 -45 136 -45s99 15 136 45s63 68 78 114
s23 99 23 159s-8 113 -23 159s-41 84 -78 114s-82 45 -136 45c-81 0 -141 -30 -180 -89s-58 -135 -58 -228zM333 767l-99 134h54l91 -134h-46z" />
    <glyph glyph-name="Oacute" unicode="&#xd3;" horiz-adv-x="708" 
d="M641 350h-2c0 -107 -24 -194 -72 -261s-119 -101 -214 -101s-166 34 -214 101s-72 154 -72 261s24 194 72 261s120 101 215 101s167 -34 215 -101s72 -154 72 -261zM115 350l1 -1c0 -60 8 -113 23 -159s41 -84 78 -114s82 -45 136 -45s99 15 136 45s63 68 78 114
s23 99 23 159s-8 113 -23 159s-41 84 -78 114s-82 45 -136 45c-81 0 -141 -30 -180 -89s-58 -135 -58 -228zM423 901h54l-99 -134h-46z" />
    <glyph glyph-name="Ocircumflex" unicode="&#xd4;" horiz-adv-x="708" 
d="M641 350h-2c0 -107 -24 -194 -72 -261s-119 -101 -214 -101s-166 34 -214 101s-72 154 -72 261s24 194 72 261s120 101 215 101s167 -34 215 -101s72 -154 72 -261zM115 350l1 -1c0 -60 8 -113 23 -159s41 -84 78 -114s82 -45 136 -45s99 15 136 45s63 68 78 114
s23 99 23 159s-8 113 -23 159s-41 84 -78 114s-82 45 -136 45c-81 0 -141 -30 -180 -89s-58 -135 -58 -228zM440 767l-87 106l-87 -106h-50l108 134h59l107 -134h-50z" />
    <glyph glyph-name="Otilde" unicode="&#xd5;" horiz-adv-x="708" 
d="M641 350h-2c0 -107 -24 -194 -72 -261s-119 -101 -214 -101s-166 34 -214 101s-72 154 -72 261s24 194 72 261s120 101 215 101s167 -34 215 -101s72 -154 72 -261zM115 350l1 -1c0 -60 8 -113 23 -159s41 -84 78 -114s82 -45 136 -45s99 15 136 45s63 68 78 114
s23 99 23 159s-8 113 -23 159s-41 84 -78 114s-82 45 -136 45c-81 0 -141 -30 -180 -89s-58 -135 -58 -228zM422 820l-2 -2c11 0 19 3 24 9s9 13 11 21s3 20 4 35h39c-1 -31 -7 -56 -17 -75s-29 -29 -56 -29c-21 0 -45 10 -73 29s-49 29 -64 29s-26 -5 -32 -14
s-10 -23 -11 -41h-39c2 64 28 96 79 96c21 0 46 -10 75 -29s50 -29 62 -29z" />
    <glyph glyph-name="Odieresis" unicode="&#xd6;" horiz-adv-x="708" 
d="M641 350h-2c0 -107 -24 -194 -72 -261s-119 -101 -214 -101s-166 34 -214 101s-72 154 -72 261s24 194 72 261s120 101 215 101s167 -34 215 -101s72 -154 72 -261zM115 350l1 -1c0 -60 8 -113 23 -159s41 -84 78 -114s82 -45 136 -45s99 15 136 45s63 68 78 114
s23 99 23 159s-8 113 -23 159s-41 84 -78 114s-82 45 -136 45c-81 0 -141 -30 -180 -89s-58 -135 -58 -228zM310 833v-3c0 -11 -3 -20 -9 -27s-15 -10 -26 -10s-20 4 -26 11s-9 16 -9 27c0 10 3 19 9 26s15 11 26 11s20 -3 26 -10s9 -15 9 -25zM466 830v-3
c0 -11 -3 -20 -9 -27s-14 -10 -25 -10c-12 0 -21 4 -27 11s-9 16 -9 27c0 10 3 19 9 26s15 11 27 11c11 0 19 -3 25 -10s9 -15 9 -25z" />
    <glyph glyph-name="multiply" unicode="&#xd7;" horiz-adv-x="497" 
d="M405 157l-156 156l-157 -156l-30 29l157 157l-157 156l30 30l157 -156l156 156l30 -30l-157 -156l157 -157z" />
    <glyph glyph-name="Oslash" unicode="&#xd8;" horiz-adv-x="691" 
d="M591 700l45 1l-67 -91c47 -64 71 -150 71 -259c0 -107 -24 -194 -72 -261s-119 -101 -214 -101c-78 0 -142 25 -191 74l-46 -62h-47l68 91c-47 65 -71 151 -71 258s24 194 72 261s120 101 215 101c79 0 143 -25 191 -74zM116 351h1c0 -89 17 -162 51 -219l348 467
c-41 46 -95 69 -162 69c-81 0 -141 -30 -180 -89s-58 -135 -58 -228zM354 33v-1c54 0 99 15 136 45s63 68 78 114s23 99 23 159c0 91 -17 164 -52 219l-347 -467c41 -46 95 -69 162 -69z" />
    <glyph glyph-name="Ugrave" unicode="&#xd9;" horiz-adv-x="699" 
d="M101 267l-3 432h47v-432c0 -81 17 -140 50 -178s84 -57 152 -57c69 0 120 19 153 57s49 98 49 179v432h48v-433c0 -97 -20 -168 -61 -213s-103 -67 -187 -67s-146 22 -187 67s-61 116 -61 213zM327 767l-99 134h54l91 -134h-46z" />
    <glyph glyph-name="Uacute" unicode="&#xda;" horiz-adv-x="699" 
d="M101 267l-3 432h47v-432c0 -81 17 -140 50 -178s84 -57 152 -57c69 0 120 19 153 57s49 98 49 179v432h48v-433c0 -97 -20 -168 -61 -213s-103 -67 -187 -67s-146 22 -187 67s-61 116 -61 213zM417 901h54l-99 -134h-46z" />
    <glyph glyph-name="Ucircumflex" unicode="&#xdb;" horiz-adv-x="699" 
d="M101 267l-3 432h47v-432c0 -81 17 -140 50 -178s84 -57 152 -57c69 0 120 19 153 57s49 98 49 179v432h48v-433c0 -97 -20 -168 -61 -213s-103 -67 -187 -67s-146 22 -187 67s-61 116 -61 213zM433 767l-87 106l-87 -106h-50l108 134h59l107 -134h-50z" />
    <glyph glyph-name="Udieresis" unicode="&#xdc;" horiz-adv-x="699" 
d="M101 267l-3 432h47v-432c0 -81 17 -140 50 -178s84 -57 152 -57c69 0 120 19 153 57s49 98 49 179v432h48v-433c0 -97 -20 -168 -61 -213s-103 -67 -187 -67s-146 22 -187 67s-61 116 -61 213zM303 833v-3c0 -11 -3 -20 -9 -27s-15 -10 -26 -10s-20 4 -26 11s-9 16 -9 27
c0 10 3 19 9 26s15 11 26 11s20 -3 26 -10s9 -15 9 -25zM459 830v-3c0 -11 -3 -20 -9 -27s-14 -10 -25 -10c-12 0 -21 4 -27 11s-9 16 -9 27c0 10 3 19 9 26s15 11 27 11c11 0 19 -3 25 -10s9 -15 9 -25z" />
    <glyph glyph-name="Yacute" unicode="&#xdd;" horiz-adv-x="569" 
d="M261 0l1 304c-56 71 -103 137 -141 198s-72 127 -103 198h52c49 -115 121 -235 216 -360c93 121 164 241 214 360h51c-59 -136 -140 -268 -242 -396v-304h-48zM357 904h54l-99 -134h-46z" />
    <glyph glyph-name="Thorn" unicode="&#xde;" horiz-adv-x="591" 
d="M106 0v700h47v-127h107c185 0 278 -73 278 -218s-93 -218 -278 -218h-107v-137h-47zM489 355l-1 1c0 64 -20 109 -60 135s-96 39 -169 39h-107v-351h107c73 0 130 13 170 40s60 72 60 136z" />
    <glyph glyph-name="germandbls" unicode="&#xdf;" horiz-adv-x="594" 
d="M100 521l2 -1c0 67 17 119 50 156s78 55 135 55c55 0 97 -13 125 -39s42 -62 42 -107c0 -33 -12 -69 -35 -108s-35 -67 -35 -83c0 -14 6 -27 17 -40s25 -25 41 -37s32 -25 48 -39s30 -32 41 -54s17 -46 17 -72c0 -52 -18 -92 -55 -120s-85 -42 -144 -42
c-26 0 -60 4 -103 12l6 42c31 -7 63 -11 96 -11c47 0 84 10 110 30s39 50 39 89c0 29 -8 55 -25 77s-36 39 -56 51s-39 28 -56 47s-25 40 -25 63s11 54 34 93s34 72 34 99c0 71 -39 107 -118 107c-92 0 -138 -56 -138 -168v-521h-47v521z" />
    <glyph glyph-name="agrave" unicode="&#xe0;" horiz-adv-x="519" 
d="M243 29v1c57 0 103 11 138 33v167c-44 11 -87 16 -129 16c-98 0 -147 -37 -147 -112c0 -34 12 -60 36 -78s58 -27 102 -27zM428 37l-3 2c-51 -32 -113 -48 -186 -48c-59 0 -104 13 -136 39s-48 61 -48 105c0 52 18 90 54 114s82 36 139 36c43 0 87 -5 132 -15v68
c0 89 -47 134 -141 134c-47 0 -92 -9 -135 -27l-13 41c43 19 93 28 150 28c125 0 187 -59 187 -177v-300zM231 587l-99 134h54l91 -134h-46z" />
    <glyph glyph-name="aacute" unicode="&#xe1;" horiz-adv-x="519" 
d="M243 29v1c57 0 103 11 138 33v167c-44 11 -87 16 -129 16c-98 0 -147 -37 -147 -112c0 -34 12 -60 36 -78s58 -27 102 -27zM428 37l-3 2c-51 -32 -113 -48 -186 -48c-59 0 -104 13 -136 39s-48 61 -48 105c0 52 18 90 54 114s82 36 139 36c43 0 87 -5 132 -15v68
c0 89 -47 134 -141 134c-47 0 -92 -9 -135 -27l-13 41c43 19 93 28 150 28c125 0 187 -59 187 -177v-300zM321 721h54l-99 -134h-46z" />
    <glyph glyph-name="acircumflex" unicode="&#xe2;" horiz-adv-x="519" 
d="M243 29v1c57 0 103 11 138 33v167c-44 11 -87 16 -129 16c-98 0 -147 -37 -147 -112c0 -34 12 -60 36 -78s58 -27 102 -27zM428 37l-3 2c-51 -32 -113 -48 -186 -48c-59 0 -104 13 -136 39s-48 61 -48 105c0 52 18 90 54 114s82 36 139 36c43 0 87 -5 132 -15v68
c0 89 -47 134 -141 134c-47 0 -92 -9 -135 -27l-13 41c43 19 93 28 150 28c125 0 187 -59 187 -177v-300zM337 587l-87 106l-87 -106h-50l108 134h59l107 -134h-50z" />
    <glyph glyph-name="atilde" unicode="&#xe3;" horiz-adv-x="519" 
d="M243 29v1c57 0 103 11 138 33v167c-44 11 -87 16 -129 16c-98 0 -147 -37 -147 -112c0 -34 12 -60 36 -78s58 -27 102 -27zM428 37l-3 2c-51 -32 -113 -48 -186 -48c-59 0 -104 13 -136 39s-48 61 -48 105c0 52 18 90 54 114s82 36 139 36c43 0 87 -5 132 -15v68
c0 89 -47 134 -141 134c-47 0 -92 -9 -135 -27l-13 41c43 19 93 28 150 28c125 0 187 -59 187 -177v-300zM319 640l-2 -2c11 0 19 3 24 9s9 13 11 21s3 20 4 35h39c-1 -31 -7 -56 -17 -75s-29 -29 -56 -29c-21 0 -45 10 -73 29s-49 29 -64 29s-26 -5 -32 -14
s-10 -23 -11 -41h-39c2 64 28 96 79 96c21 0 46 -10 75 -29s50 -29 62 -29z" />
    <glyph glyph-name="adieresis" unicode="&#xe4;" horiz-adv-x="519" 
d="M243 29v1c57 0 103 11 138 33v167c-44 11 -87 16 -129 16c-98 0 -147 -37 -147 -112c0 -34 12 -60 36 -78s58 -27 102 -27zM428 37l-3 2c-51 -32 -113 -48 -186 -48c-59 0 -104 13 -136 39s-48 61 -48 105c0 52 18 90 54 114s82 36 139 36c43 0 87 -5 132 -15v68
c0 89 -47 134 -141 134c-47 0 -92 -9 -135 -27l-13 41c43 19 93 28 150 28c125 0 187 -59 187 -177v-300zM207 653v-3c0 -11 -3 -20 -9 -27s-15 -10 -26 -10s-20 4 -26 11s-9 16 -9 27c0 10 3 19 9 26s15 11 26 11s20 -3 26 -10s9 -15 9 -25zM363 650v-3
c0 -11 -3 -20 -9 -27s-14 -10 -25 -10c-12 0 -21 4 -27 11s-9 16 -9 27c0 10 3 19 9 26s15 11 27 11c11 0 19 -3 25 -10s9 -15 9 -25z" />
    <glyph glyph-name="aring" unicode="&#xe5;" horiz-adv-x="519" 
d="M243 29v1c57 0 103 11 138 33v167c-44 11 -87 16 -129 16c-98 0 -147 -37 -147 -112c0 -34 12 -60 36 -78s58 -27 102 -27zM428 37l-3 2c-51 -32 -113 -48 -186 -48c-59 0 -104 13 -136 39s-48 61 -48 105c0 52 18 90 54 114s82 36 139 36c43 0 87 -5 132 -15v68
c0 89 -47 134 -141 134c-47 0 -92 -9 -135 -27l-13 41c43 19 93 28 150 28c125 0 187 -59 187 -177v-300zM154 667h2c0 27 9 50 27 68s41 27 68 27s50 -9 68 -27s27 -41 27 -68c0 -28 -9 -51 -27 -69s-41 -27 -69 -27s-51 9 -69 27s-27 41 -27 69zM311 667h-2
c0 17 -5 31 -15 42s-24 17 -43 17s-33 -6 -43 -17s-15 -25 -15 -42s5 -32 15 -44s25 -18 44 -18s34 6 44 18s15 27 15 44z" />
    <glyph glyph-name="ae" unicode="&#xe6;" horiz-adv-x="867" 
d="M605 471l-2 -1c-51 0 -92 -17 -122 -51s-47 -80 -52 -137h327v22c0 47 -12 87 -37 119s-63 48 -114 48zM239 28l-2 -1c72 0 131 22 177 66c-21 37 -33 83 -36 139c-45 11 -89 16 -132 16c-46 0 -81 -8 -106 -24s-37 -44 -37 -84c0 -37 12 -65 35 -84s57 -28 101 -28z
M799 22c-50 -24 -106 -36 -168 -36c-84 0 -148 25 -192 75c-57 -50 -125 -75 -204 -75c-59 0 -104 14 -136 42s-48 65 -48 111c0 98 63 148 189 149c44 0 89 -5 135 -16v63c0 42 -11 75 -34 99s-58 36 -106 36c-41 0 -85 -8 -133 -24l-10 41c50 17 98 25 144 25
c100 0 158 -43 175 -129c43 86 106 129 189 129c65 0 115 -20 150 -61s52 -92 52 -154c0 -18 -1 -36 -3 -54h-374c1 -71 20 -124 57 -160s87 -54 151 -54c51 0 103 11 155 34z" />
    <glyph glyph-name="ccedilla" unicode="&#xe7;" horiz-adv-x="488" 
d="M299 513v1c51 0 98 -10 141 -29l-12 -40c-45 18 -88 27 -129 27c-61 0 -108 -20 -140 -60s-48 -94 -48 -163c0 -71 17 -125 51 -162s84 -55 151 -55c41 0 82 10 122 30l12 -40c-41 -22 -86 -33 -136 -33h-7l-16 -45c61 -5 91 -30 91 -76c0 -26 -10 -46 -30 -59
s-46 -20 -79 -20c-21 0 -40 2 -57 7l7 34c17 -4 33 -6 48 -6c47 0 70 15 70 45c0 28 -26 43 -79 45l-10 24l19 54c-66 7 -117 33 -152 77s-53 103 -53 178c0 81 21 146 62 194s99 72 174 72z" />
    <glyph glyph-name="egrave" unicode="&#xe8;" horiz-adv-x="548" 
d="M473 65l11 -38c-49 -24 -105 -36 -168 -36c-79 0 -141 23 -186 68s-68 110 -68 195c0 77 20 140 60 188s95 72 165 72c64 0 113 -20 148 -61s52 -92 52 -154c0 -18 -1 -36 -3 -54h-374c1 -71 20 -124 57 -160s88 -54 152 -54c51 0 102 11 154 34zM287 474h-2
c-52 0 -93 -17 -123 -51s-47 -80 -52 -137h327c1 5 1 12 1 21c0 47 -12 87 -37 119s-63 48 -114 48zM263 587l-99 134h54l91 -134h-46z" />
    <glyph glyph-name="eacute" unicode="&#xe9;" horiz-adv-x="548" 
d="M473 65l11 -38c-49 -24 -105 -36 -168 -36c-79 0 -141 23 -186 68s-68 110 -68 195c0 77 20 140 60 188s95 72 165 72c64 0 113 -20 148 -61s52 -92 52 -154c0 -18 -1 -36 -3 -54h-374c1 -71 20 -124 57 -160s88 -54 152 -54c51 0 102 11 154 34zM287 474h-2
c-52 0 -93 -17 -123 -51s-47 -80 -52 -137h327c1 5 1 12 1 21c0 47 -12 87 -37 119s-63 48 -114 48zM353 721h54l-99 -134h-46z" />
    <glyph glyph-name="ecircumflex" unicode="&#xea;" horiz-adv-x="548" 
d="M473 65l11 -38c-49 -24 -105 -36 -168 -36c-79 0 -141 23 -186 68s-68 110 -68 195c0 77 20 140 60 188s95 72 165 72c64 0 113 -20 148 -61s52 -92 52 -154c0 -18 -1 -36 -3 -54h-374c1 -71 20 -124 57 -160s88 -54 152 -54c51 0 102 11 154 34zM287 474h-2
c-52 0 -93 -17 -123 -51s-47 -80 -52 -137h327c1 5 1 12 1 21c0 47 -12 87 -37 119s-63 48 -114 48zM370 587l-87 106l-87 -106h-50l108 134h59l107 -134h-50z" />
    <glyph glyph-name="edieresis" unicode="&#xeb;" horiz-adv-x="548" 
d="M473 65l11 -38c-49 -24 -105 -36 -168 -36c-79 0 -141 23 -186 68s-68 110 -68 195c0 77 20 140 60 188s95 72 165 72c64 0 113 -20 148 -61s52 -92 52 -154c0 -18 -1 -36 -3 -54h-374c1 -71 20 -124 57 -160s88 -54 152 -54c51 0 102 11 154 34zM287 474h-2
c-52 0 -93 -17 -123 -51s-47 -80 -52 -137h327c1 5 1 12 1 21c0 47 -12 87 -37 119s-63 48 -114 48zM240 653v-3c0 -11 -3 -20 -9 -27s-15 -10 -26 -10s-20 4 -26 11s-9 16 -9 27c0 10 3 19 9 26s15 11 26 11s20 -3 26 -10s9 -15 9 -25zM396 650v-3c0 -11 -3 -20 -9 -27
s-14 -10 -25 -10c-12 0 -21 4 -27 11s-9 16 -9 27c0 10 3 19 9 26s15 11 27 11c11 0 19 -3 25 -10s9 -15 9 -25z" />
    <glyph glyph-name="igrave" unicode="&#xec;" horiz-adv-x="248" 
d="M148 501v-501h-47v501h47zM106 584l-99 134h54l91 -134h-46z" />
    <glyph glyph-name="iacute" unicode="&#xed;" horiz-adv-x="248" 
d="M148 501v-501h-47v501h47zM196 718h54l-99 -134h-46z" />
    <glyph glyph-name="icircumflex" unicode="&#xee;" horiz-adv-x="248" 
d="M148 501v-501h-47v501h47zM213 584l-87 106l-87 -106h-50l108 134h59l107 -134h-50z" />
    <glyph glyph-name="idieresis" unicode="&#xef;" horiz-adv-x="248" 
d="M148 501v-501h-47v501h47zM83 650v-3c0 -11 -3 -20 -9 -27s-15 -10 -26 -10s-20 4 -26 11s-9 16 -9 27c0 10 3 19 9 26s15 11 26 11s20 -3 26 -10s9 -15 9 -25zM239 647v-3c0 -11 -3 -20 -9 -27s-14 -10 -25 -10c-12 0 -21 4 -27 11s-9 16 -9 27c0 10 3 19 9 26
s15 11 27 11c11 0 19 -3 25 -10s9 -15 9 -25z" />
    <glyph glyph-name="eth" unicode="&#xf0;" horiz-adv-x="535" 
d="M133 681l10 40c55 -9 106 -30 153 -63l85 73l24 -28l-79 -68c46 -41 82 -92 108 -153s39 -125 39 -192c0 -93 -18 -167 -55 -221s-93 -81 -168 -81c-59 0 -107 21 -145 63s-57 98 -57 168c0 63 19 116 57 158s89 63 152 63c60 0 113 -16 159 -49c-21 87 -62 158 -124 212
l-101 -86l-23 29l94 81c-39 27 -82 45 -129 54zM246 32l-1 -2c64 0 110 23 137 68s41 109 41 192c0 18 -1 36 -3 53c-53 37 -107 56 -162 56s-96 -17 -124 -51s-42 -77 -42 -128c0 -53 13 -98 40 -134s65 -54 114 -54z" />
    <glyph glyph-name="ntilde" unicode="&#xf1;" horiz-adv-x="584" 
d="M143 0l-47 -1v461c65 35 134 52 207 52c63 0 111 -15 143 -46s48 -74 48 -129v-337h-47v334c0 42 -12 75 -36 100s-60 37 -108 37c-61 0 -114 -13 -160 -39v-432zM363 636l-2 -2c11 0 19 3 24 9s9 13 11 21s3 20 4 35h39c-1 -31 -7 -56 -17 -75s-29 -29 -56 -29
c-21 0 -45 10 -73 29s-49 29 -64 29s-26 -5 -32 -14s-10 -23 -11 -41h-39c2 64 28 96 79 96c21 0 46 -10 75 -29s50 -29 62 -29z" />
    <glyph glyph-name="ograve" unicode="&#xf2;" horiz-adv-x="564" 
d="M503 251v-1c0 -79 -19 -143 -58 -191s-93 -72 -163 -72c-69 0 -123 24 -162 72s-58 112 -58 191s19 143 58 191s93 72 162 72c70 0 124 -24 163 -72s58 -111 58 -190zM111 250h-2c0 -68 15 -122 44 -161s72 -59 128 -59c57 0 100 20 128 59s42 93 42 161s-14 122 -42 161
s-71 59 -128 59c-56 0 -98 -20 -127 -59s-43 -93 -43 -161zM261 583l-99 134h54l91 -134h-46z" />
    <glyph glyph-name="oacute" unicode="&#xf3;" horiz-adv-x="564" 
d="M503 251v-1c0 -79 -19 -143 -58 -191s-93 -72 -163 -72c-69 0 -123 24 -162 72s-58 112 -58 191s19 143 58 191s93 72 162 72c70 0 124 -24 163 -72s58 -111 58 -190zM111 250h-2c0 -68 15 -122 44 -161s72 -59 128 -59c57 0 100 20 128 59s42 93 42 161s-14 122 -42 161
s-71 59 -128 59c-56 0 -98 -20 -127 -59s-43 -93 -43 -161zM351 717h54l-99 -134h-46z" />
    <glyph glyph-name="ocircumflex" unicode="&#xf4;" horiz-adv-x="564" 
d="M503 251v-1c0 -79 -19 -143 -58 -191s-93 -72 -163 -72c-69 0 -123 24 -162 72s-58 112 -58 191s19 143 58 191s93 72 162 72c70 0 124 -24 163 -72s58 -111 58 -190zM111 250h-2c0 -68 15 -122 44 -161s72 -59 128 -59c57 0 100 20 128 59s42 93 42 161s-14 122 -42 161
s-71 59 -128 59c-56 0 -98 -20 -127 -59s-43 -93 -43 -161zM368 583l-87 106l-87 -106h-50l108 134h59l107 -134h-50z" />
    <glyph glyph-name="otilde" unicode="&#xf5;" horiz-adv-x="564" 
d="M503 251v-1c0 -79 -19 -143 -58 -191s-93 -72 -163 -72c-69 0 -123 24 -162 72s-58 112 -58 191s19 143 58 191s93 72 162 72c70 0 124 -24 163 -72s58 -111 58 -190zM111 250h-2c0 -68 15 -122 44 -161s72 -59 128 -59c57 0 100 20 128 59s42 93 42 161s-14 122 -42 161
s-71 59 -128 59c-56 0 -98 -20 -127 -59s-43 -93 -43 -161zM350 636l-2 -2c11 0 19 3 24 9s9 13 11 21s3 20 4 35h39c-1 -31 -7 -56 -17 -75s-29 -29 -56 -29c-21 0 -45 10 -73 29s-49 29 -64 29s-26 -5 -32 -14s-10 -23 -11 -41h-39c2 64 28 96 79 96c21 0 46 -10 75 -29
s50 -29 62 -29z" />
    <glyph glyph-name="odieresis" unicode="&#xf6;" horiz-adv-x="564" 
d="M503 251v-1c0 -79 -19 -143 -58 -191s-93 -72 -163 -72c-69 0 -123 24 -162 72s-58 112 -58 191s19 143 58 191s93 72 162 72c70 0 124 -24 163 -72s58 -111 58 -190zM111 250h-2c0 -68 15 -122 44 -161s72 -59 128 -59c57 0 100 20 128 59s42 93 42 161s-14 122 -42 161
s-71 59 -128 59c-56 0 -98 -20 -127 -59s-43 -93 -43 -161zM238 649v-3c0 -11 -3 -20 -9 -27s-15 -10 -26 -10s-20 4 -26 11s-9 16 -9 27c0 10 3 19 9 26s15 11 26 11s20 -3 26 -10s9 -15 9 -25zM394 646v-3c0 -11 -3 -20 -9 -27s-14 -10 -25 -10c-12 0 -21 4 -27 11
s-9 16 -9 27c0 10 3 19 9 26s15 11 27 11c11 0 19 -3 25 -10s9 -15 9 -25z" />
    <glyph glyph-name="divide" unicode="&#xf7;" horiz-adv-x="497" 
d="M215 174c0 9 3 17 9 24s14 10 24 10s18 -3 24 -10s9 -15 9 -24c0 -10 -3 -18 -9 -25s-14 -10 -24 -10s-18 3 -24 10s-9 15 -9 25zM215 507c0 9 3 17 9 24s14 10 24 10s18 -3 24 -10s9 -15 9 -24c0 -10 -3 -18 -9 -25s-14 -10 -24 -10s-18 3 -24 10s-9 15 -9 25zM35 322
v42h427v-42h-427z" />
    <glyph glyph-name="oslash" unicode="&#xf8;" horiz-adv-x="568" 
d="M460 501l41 -1l-53 -67c35 -47 53 -108 53 -183c0 -79 -19 -143 -58 -191s-93 -72 -163 -72c-57 0 -104 17 -141 51l-31 -39h-43l51 64c-37 47 -55 109 -55 187c0 79 19 143 58 191s93 72 162 72c59 0 108 -18 147 -53zM109 250l-2 1c0 -61 12 -111 35 -150l254 323
c-29 31 -68 46 -117 46c-56 0 -98 -20 -127 -59s-43 -93 -43 -161zM278 31h1c57 0 100 20 128 59s42 93 42 161c0 61 -11 109 -32 145l-253 -321c28 -29 66 -44 114 -44z" />
    <glyph glyph-name="ugrave" unicode="&#xf9;" horiz-adv-x="575" 
d="M479 41l1 -1c-69 -35 -140 -53 -213 -53c-60 0 -104 15 -133 45s-43 71 -43 124v345h47v-343c0 -85 43 -127 129 -127c61 0 116 13 165 39v431h47v-460zM273 583l-99 134h54l91 -134h-46z" />
    <glyph glyph-name="uacute" unicode="&#xfa;" horiz-adv-x="575" 
d="M479 41l1 -1c-69 -35 -140 -53 -213 -53c-60 0 -104 15 -133 45s-43 71 -43 124v345h47v-343c0 -85 43 -127 129 -127c61 0 116 13 165 39v431h47v-460zM363 717h54l-99 -134h-46z" />
    <glyph glyph-name="ucircumflex" unicode="&#xfb;" horiz-adv-x="575" 
d="M479 41l1 -1c-69 -35 -140 -53 -213 -53c-60 0 -104 15 -133 45s-43 71 -43 124v345h47v-343c0 -85 43 -127 129 -127c61 0 116 13 165 39v431h47v-460zM379 583l-87 106l-87 -106h-50l108 134h59l107 -134h-50z" />
    <glyph glyph-name="udieresis" unicode="&#xfc;" horiz-adv-x="575" 
d="M479 41l1 -1c-69 -35 -140 -53 -213 -53c-60 0 -104 15 -133 45s-43 71 -43 124v345h47v-343c0 -85 43 -127 129 -127c61 0 116 13 165 39v431h47v-460zM249 649v-3c0 -11 -3 -20 -9 -27s-15 -10 -26 -10s-20 4 -26 11s-9 16 -9 27c0 10 3 19 9 26s15 11 26 11
s20 -3 26 -10s9 -15 9 -25zM405 646v-3c0 -11 -3 -20 -9 -27s-14 -10 -25 -10c-12 0 -21 4 -27 11s-9 16 -9 27c0 10 3 19 9 26s15 11 27 11c11 0 19 -3 25 -10s9 -15 9 -25z" />
    <glyph glyph-name="yacute" unicode="&#xfd;" horiz-adv-x="506" 
d="M286 5h-1c-58 -102 -133 -165 -224 -188l-11 42c77 19 139 68 186 147c-102 159 -166 324 -193 495h47c24 -147 81 -298 172 -454c43 79 78 154 104 225s46 147 59 229h47c-24 -154 -86 -319 -186 -496zM331 718h54l-99 -134h-46z" />
    <glyph glyph-name="thorn" unicode="&#xfe;" horiz-adv-x="573" 
d="M148 -184h-46v904l47 3v-239c43 19 88 29 135 29c74 0 130 -23 168 -68s57 -105 57 -180c0 -85 -19 -152 -58 -202s-99 -75 -180 -75c-43 0 -84 9 -123 28v-200zM149 64l-1 -1c40 -22 81 -33 122 -33c62 0 109 20 141 60s48 98 48 173c0 60 -15 110 -45 149
s-74 59 -133 59c-49 0 -93 -11 -132 -34v-373z" />
    <glyph glyph-name="ydieresis" unicode="&#xff;" horiz-adv-x="506" 
d="M286 5h-1c-58 -102 -133 -165 -224 -188l-11 42c77 19 139 68 186 147c-102 159 -166 324 -193 495h47c24 -147 81 -298 172 -454c43 79 78 154 104 225s46 147 59 229h47c-24 -154 -86 -319 -186 -496zM218 650v-3c0 -11 -3 -20 -9 -27s-15 -10 -26 -10s-20 4 -26 11
s-9 16 -9 27c0 10 3 19 9 26s15 11 26 11s20 -3 26 -10s9 -15 9 -25zM374 647v-3c0 -11 -3 -20 -9 -27s-14 -10 -25 -10c-12 0 -21 4 -27 11s-9 16 -9 27c0 10 3 19 9 26s15 11 27 11c11 0 19 -3 25 -10s9 -15 9 -25z" />
    <glyph glyph-name="Amacron" unicode="&#x100;" horiz-adv-x="636" 
d="M318 653c-47 -106 -98 -235 -153 -387h306c-55 152 -106 281 -153 387zM559 0l-1 -1c-21 69 -45 144 -72 224h-336c-27 -80 -51 -155 -72 -224h-49c89 277 177 510 265 700h50c93 -201 181 -434 264 -699h-49zM190 804v40h254v-40h-254z" />
    <glyph glyph-name="amacron" unicode="&#x101;" horiz-adv-x="519" 
d="M243 29v1c57 0 103 11 138 33v167c-44 11 -87 16 -129 16c-98 0 -147 -37 -147 -112c0 -34 12 -60 36 -78s58 -27 102 -27zM428 37l-3 2c-51 -32 -113 -48 -186 -48c-59 0 -104 13 -136 39s-48 61 -48 105c0 52 18 90 54 114s82 36 139 36c43 0 87 -5 132 -15v68
c0 89 -47 134 -141 134c-47 0 -92 -9 -135 -27l-13 41c43 19 93 28 150 28c125 0 187 -59 187 -177v-300zM123 624v40h254v-40h-254z" />
    <glyph glyph-name="Abreve" unicode="&#x102;" horiz-adv-x="636" 
d="M318 653c-47 -106 -98 -235 -153 -387h306c-55 152 -106 281 -153 387zM559 0l-1 -1c-21 69 -45 144 -72 224h-336c-27 -80 -51 -155 -72 -224h-49c89 277 177 510 265 700h50c93 -201 181 -434 264 -699h-49zM453 887h-1c-3 -37 -16 -65 -40 -85s-56 -30 -96 -30
c-39 0 -71 10 -95 30s-37 48 -40 85h42c7 -50 38 -75 94 -75s87 25 94 75h42z" />
    <glyph glyph-name="abreve" unicode="&#x103;" horiz-adv-x="519" 
d="M243 29v1c57 0 103 11 138 33v167c-44 11 -87 16 -129 16c-98 0 -147 -37 -147 -112c0 -34 12 -60 36 -78s58 -27 102 -27zM428 37l-3 2c-51 -32 -113 -48 -186 -48c-59 0 -104 13 -136 39s-48 61 -48 105c0 52 18 90 54 114s82 36 139 36c43 0 87 -5 132 -15v68
c0 89 -47 134 -141 134c-47 0 -92 -9 -135 -27l-13 41c43 19 93 28 150 28c125 0 187 -59 187 -177v-300zM386 707h-1c-3 -37 -16 -65 -40 -85s-56 -30 -96 -30c-39 0 -71 10 -95 30s-37 48 -40 85h42c7 -50 38 -75 94 -75s87 25 94 75h42z" />
    <glyph glyph-name="Aogonek" unicode="&#x104;" horiz-adv-x="636" 
d="M318 653c-47 -106 -98 -235 -153 -387h306c-55 152 -106 281 -153 387zM619 -179l-1 -1c-22 -9 -45 -14 -70 -14c-27 0 -49 7 -66 20s-26 32 -26 56c0 40 34 80 101 121c-19 63 -43 137 -72 221h-336c-27 -80 -51 -155 -72 -224h-49c89 277 177 510 265 700h50
c93 -201 181 -434 264 -699h-2c-24 -16 -42 -28 -54 -37s-23 -20 -34 -34s-16 -27 -16 -39c0 -31 19 -46 58 -46c20 0 37 3 52 10z" />
    <glyph glyph-name="aogonek" unicode="&#x105;" horiz-adv-x="519" 
d="M441 -179h-3c-23 -9 -47 -14 -72 -14c-26 0 -48 7 -65 20s-26 32 -26 56c0 39 21 79 62 119c-30 -9 -63 -13 -100 -13c-59 0 -104 13 -136 39s-48 61 -48 105c0 52 18 90 54 114s82 36 139 36c43 0 87 -5 132 -15v68c0 89 -47 134 -141 134c-47 0 -92 -9 -135 -27l-13 41
c43 19 93 28 150 28c125 0 187 -59 187 -177v-300c-25 -22 -43 -38 -54 -49s-22 -25 -33 -43s-17 -35 -17 -52c0 -31 19 -46 58 -46c20 0 37 3 52 10zM102 133v1c0 -34 12 -60 36 -78s58 -27 102 -27c57 0 103 11 138 33v167c-44 11 -87 16 -129 16
c-98 0 -147 -37 -147 -112z" />
    <glyph glyph-name="Cacute" unicode="&#x106;" horiz-adv-x="600" 
d="M379 -12l2 -1c-101 0 -178 32 -232 95s-81 149 -81 258c0 111 26 201 77 269s127 102 228 102c57 0 114 -11 171 -34l-13 -43c-58 22 -111 33 -158 33c-44 0 -83 -9 -116 -26s-60 -41 -80 -71s-35 -64 -45 -103s-15 -81 -15 -126c0 -94 22 -169 66 -225s110 -84 197 -84
c51 0 103 12 157 36l11 -42c-51 -25 -107 -38 -169 -38zM429 901h54l-99 -134h-46z" />
    <glyph glyph-name="cacute" unicode="&#x107;" horiz-adv-x="488" 
d="M299 513c51 0 98 -10 141 -29l-12 -40c-45 18 -88 27 -129 27c-61 0 -108 -20 -140 -60s-48 -94 -48 -163c0 -71 17 -125 51 -162s84 -55 151 -55c41 0 82 10 122 30l12 -40c-41 -22 -86 -33 -136 -33c-80 0 -141 22 -184 67s-64 109 -64 192c0 81 21 146 62 194
s99 72 174 72zM359 718h54l-99 -134h-46z" />
    <glyph glyph-name="Ccircumflex" unicode="&#x108;" horiz-adv-x="600" 
d="M379 -12l2 -1c-101 0 -178 32 -232 95s-81 149 -81 258c0 111 26 201 77 269s127 102 228 102c57 0 114 -11 171 -34l-13 -43c-58 22 -111 33 -158 33c-44 0 -83 -9 -116 -26s-60 -41 -80 -71s-35 -64 -45 -103s-15 -81 -15 -126c0 -94 22 -169 66 -225s110 -84 197 -84
c51 0 103 12 157 36l11 -42c-51 -25 -107 -38 -169 -38zM446 767l-87 106l-87 -106h-50l108 134h59l107 -134h-50z" />
    <glyph glyph-name="ccircumflex" unicode="&#x109;" horiz-adv-x="488" 
d="M299 513c51 0 98 -10 141 -29l-12 -40c-45 18 -88 27 -129 27c-61 0 -108 -20 -140 -60s-48 -94 -48 -163c0 -71 17 -125 51 -162s84 -55 151 -55c41 0 82 10 122 30l12 -40c-41 -22 -86 -33 -136 -33c-80 0 -141 22 -184 67s-64 109 -64 192c0 81 21 146 62 194
s99 72 174 72zM375 584l-87 106l-87 -106h-50l108 134h59l107 -134h-50z" />
    <glyph glyph-name="Cdotaccent" unicode="&#x10a;" horiz-adv-x="600" 
d="M379 -12l2 -1c-101 0 -178 32 -232 95s-81 149 -81 258c0 111 26 201 77 269s127 102 228 102c57 0 114 -11 171 -34l-13 -43c-58 22 -111 33 -158 33c-44 0 -83 -9 -116 -26s-60 -41 -80 -71s-35 -64 -45 -103s-15 -81 -15 -126c0 -94 22 -169 66 -225s110 -84 197 -84
c51 0 103 12 157 36l11 -42c-51 -25 -107 -38 -169 -38zM322 834v-2c0 10 3 19 10 26s16 11 27 11s20 -3 26 -10s9 -15 9 -25c0 -11 -3 -20 -9 -27s-15 -11 -26 -11s-20 4 -27 11s-10 16 -10 27z" />
    <glyph glyph-name="cdotaccent" unicode="&#x10b;" horiz-adv-x="488" 
d="M299 513c51 0 98 -10 141 -29l-12 -40c-45 18 -88 27 -129 27c-61 0 -108 -20 -140 -60s-48 -94 -48 -163c0 -71 17 -125 51 -162s84 -55 151 -55c41 0 82 10 122 30l12 -40c-41 -22 -86 -33 -136 -33c-80 0 -141 22 -184 67s-64 109 -64 192c0 81 21 146 62 194
s99 72 174 72zM251 651v-2c0 10 3 19 10 26s16 11 27 11s20 -3 26 -10s9 -15 9 -25c0 -11 -3 -20 -9 -27s-15 -11 -26 -11s-20 4 -27 11s-10 16 -10 27z" />
    <glyph glyph-name="Ccaron" unicode="&#x10c;" horiz-adv-x="600" 
d="M379 -12l2 -1c-101 0 -178 32 -232 95s-81 149 -81 258c0 111 26 201 77 269s127 102 228 102c57 0 114 -11 171 -34l-13 -43c-58 22 -111 33 -158 33c-44 0 -83 -9 -116 -26s-60 -41 -80 -71s-35 -64 -45 -103s-15 -81 -15 -126c0 -94 22 -169 66 -225s110 -84 197 -84
c51 0 103 12 157 36l11 -42c-51 -25 -107 -38 -169 -38zM273 901l86 -104l86 104h51l-108 -134h-58l-108 134h51z" />
    <glyph glyph-name="ccaron" unicode="&#x10d;" horiz-adv-x="488" 
d="M299 513c51 0 98 -10 141 -29l-12 -40c-45 18 -88 27 -129 27c-61 0 -108 -20 -140 -60s-48 -94 -48 -163c0 -71 17 -125 51 -162s84 -55 151 -55c41 0 82 10 122 30l12 -40c-41 -22 -86 -33 -136 -33c-80 0 -141 22 -184 67s-64 109 -64 192c0 81 21 146 62 194
s99 72 174 72zM202 718l86 -104l86 104h51l-108 -134h-58l-108 134h51z" />
    <glyph glyph-name="Dcaron" unicode="&#x10e;" horiz-adv-x="686" 
d="M578 350l2 1c0 92 -24 166 -72 222s-120 84 -217 84h-137v-614h137c95 0 167 28 215 85s72 131 72 222zM108 1v699h184c109 0 193 -31 251 -94s87 -148 87 -255s-29 -192 -88 -255s-142 -95 -250 -95h-184zM232 902l86 -104l86 104h51l-108 -134h-58l-108 134h51z" />
    <glyph glyph-name="dcaron" unicode="&#x10f;" horiz-adv-x="572" 
d="M471 32c-43 -29 -98 -44 -165 -44c-74 0 -133 23 -177 68s-66 108 -66 188c0 83 22 149 66 197s108 72 191 72c36 0 71 -7 104 -20v227l47 3v-691zM111 243h-1c0 -65 18 -117 53 -155s82 -57 141 -57c53 0 93 9 120 28v388c-34 16 -68 24 -103 24
c-68 0 -120 -20 -156 -60s-54 -96 -54 -168zM575 719h44c-5 -63 -22 -121 -51 -174h-35c22 47 36 105 42 174z" />
    <glyph glyph-name="Dcroat" unicode="&#x110;" horiz-adv-x="687" 
d="M579 350l2 1c0 92 -24 166 -72 222s-120 84 -217 84h-137v-275h151v-43h-151v-296h137c95 0 167 28 215 85s72 131 72 222zM108 1v339h-79v43h79v318h185c108 0 191 -32 250 -95s88 -148 88 -255s-29 -192 -88 -255s-142 -95 -250 -95h-185z" />
    <glyph glyph-name="dcroat" unicode="&#x111;" horiz-adv-x="572" 
d="M247 635h177v85l47 3v-88h77v-39h-77v-564c-43 -29 -98 -44 -165 -44c-74 0 -133 23 -177 68s-66 108 -66 188c0 83 22 149 66 197s108 72 191 72c36 0 71 -7 104 -20v103h-177v39zM111 243h-1c0 -65 18 -117 53 -155s82 -57 141 -57c53 0 93 9 120 28v388
c-34 16 -68 24 -103 24c-68 0 -120 -20 -156 -60s-54 -96 -54 -168z" />
    <glyph glyph-name="Emacron" unicode="&#x112;" horiz-adv-x="562" 
d="M504 43v-43h-398v700h398v-43h-351v-274h301v-43h-301v-297h351zM180 805v40h254v-40h-254z" />
    <glyph glyph-name="emacron" unicode="&#x113;" horiz-adv-x="548" 
d="M473 65l11 -38c-49 -24 -105 -36 -168 -36c-79 0 -141 23 -186 68s-68 110 -68 195c0 77 20 140 60 188s95 72 165 72c64 0 113 -20 148 -61s52 -92 52 -154c0 -18 -1 -36 -3 -54h-374c1 -71 20 -124 57 -160s88 -54 152 -54c51 0 102 11 154 34zM287 474h-2
c-52 0 -93 -17 -123 -51s-47 -80 -52 -137h327c1 5 1 12 1 21c0 47 -12 87 -37 119s-63 48 -114 48zM156 624v40h254v-40h-254z" />
    <glyph glyph-name="Ebreve" unicode="&#x114;" horiz-adv-x="562" 
d="M504 43v-43h-398v700h398v-43h-351v-274h301v-43h-301v-297h351zM443 888h-1c-3 -37 -16 -65 -40 -85s-56 -30 -96 -30c-39 0 -71 10 -95 30s-37 48 -40 85h42c7 -50 38 -75 94 -75s87 25 94 75h42z" />
    <glyph glyph-name="ebreve" unicode="&#x115;" horiz-adv-x="548" 
d="M473 65l11 -38c-49 -24 -105 -36 -168 -36c-79 0 -141 23 -186 68s-68 110 -68 195c0 77 20 140 60 188s95 72 165 72c64 0 113 -20 148 -61s52 -92 52 -154c0 -18 -1 -36 -3 -54h-374c1 -71 20 -124 57 -160s88 -54 152 -54c51 0 102 11 154 34zM287 474h-2
c-52 0 -93 -17 -123 -51s-47 -80 -52 -137h327c1 5 1 12 1 21c0 47 -12 87 -37 119s-63 48 -114 48zM419 707h-1c-3 -37 -16 -65 -40 -85s-56 -30 -96 -30c-39 0 -71 10 -95 30s-37 48 -40 85h42c7 -50 38 -75 94 -75s87 25 94 75h42z" />
    <glyph glyph-name="Edotaccent" unicode="&#x116;" horiz-adv-x="562" 
d="M504 43v-43h-398v700h398v-43h-351v-274h301v-43h-301v-297h351zM270 835v-2c0 10 3 19 10 26s16 11 27 11s20 -3 26 -10s9 -15 9 -25c0 -11 -3 -20 -9 -27s-15 -11 -26 -11s-20 4 -27 11s-10 16 -10 27z" />
    <glyph glyph-name="edotaccent" unicode="&#x117;" horiz-adv-x="548" 
d="M473 65l11 -38c-49 -24 -105 -36 -168 -36c-79 0 -141 23 -186 68s-68 110 -68 195c0 77 20 140 60 188s95 72 165 72c64 0 113 -20 148 -61s52 -92 52 -154c0 -18 -1 -36 -3 -54h-374c1 -71 20 -124 57 -160s88 -54 152 -54c51 0 102 11 154 34zM287 474h-2
c-52 0 -93 -17 -123 -51s-47 -80 -52 -137h327c1 5 1 12 1 21c0 47 -12 87 -37 119s-63 48 -114 48zM245 654v-2c0 10 3 19 10 26s16 11 27 11s20 -3 26 -10s9 -15 9 -25c0 -11 -3 -20 -9 -27s-15 -11 -26 -11s-20 4 -27 11s-10 16 -10 27z" />
    <glyph glyph-name="Eogonek" unicode="&#x118;" horiz-adv-x="562" 
d="M517 -179v-2c-23 -9 -47 -14 -72 -14c-26 0 -48 7 -65 20s-26 32 -26 56c0 39 32 78 95 117h-344v700h398v-43h-351v-274h301v-43h-301v-297h351v-43c-24 -15 -42 -27 -54 -36s-24 -20 -35 -33s-16 -26 -16 -38c0 -31 19 -46 58 -46c20 0 37 3 52 10z" />
    <glyph glyph-name="eogonek" unicode="&#x119;" horiz-adv-x="548" 
d="M287 471h-2c-52 0 -93 -17 -123 -51s-47 -80 -52 -137h327c1 5 1 12 1 21c0 47 -12 87 -37 119s-63 48 -114 48zM399 -179l-1 3c-22 -9 -45 -14 -70 -14c-27 0 -49 7 -66 20s-26 32 -26 56c0 35 26 70 78 105c-79 0 -141 23 -186 68s-68 110 -68 195c0 77 20 140 60 188
s95 72 165 72c64 0 113 -20 148 -61s52 -92 52 -154c0 -18 -1 -36 -3 -54h-374c1 -71 20 -124 57 -160s88 -54 152 -54c51 0 102 11 154 34l11 -41c-32 -16 -68 -27 -109 -32c-31 -20 -54 -38 -69 -53s-23 -31 -23 -48c0 -31 19 -46 58 -46c19 0 36 3 51 10z" />
    <glyph glyph-name="Ecaron" unicode="&#x11a;" horiz-adv-x="562" 
d="M504 43v-43h-398v700h398v-43h-351v-274h301v-43h-301v-297h351zM394 768l-87 106l-87 -106h-50l108 134h59l107 -134h-50z" />
    <glyph glyph-name="ecaron" unicode="&#x11b;" horiz-adv-x="548" 
d="M473 65l11 -38c-49 -24 -105 -36 -168 -36c-79 0 -141 23 -186 68s-68 110 -68 195c0 77 20 140 60 188s95 72 165 72c64 0 113 -20 148 -61s52 -92 52 -154c0 -18 -1 -36 -3 -54h-374c1 -71 20 -124 57 -160s88 -54 152 -54c51 0 102 11 154 34zM287 474h-2
c-52 0 -93 -17 -123 -51s-47 -80 -52 -137h327c1 5 1 12 1 21c0 47 -12 87 -37 119s-63 48 -114 48zM197 721l86 -104l86 104h51l-108 -134h-58l-108 134h51z" />
    <glyph glyph-name="Gcircumflex" unicode="&#x11c;" horiz-adv-x="678" 
d="M601 29h1c-57 -27 -120 -41 -189 -41c-112 0 -198 33 -257 98s-89 153 -89 264c0 105 28 192 84 260s136 102 239 102c72 0 137 -14 195 -42l-13 -42c-57 27 -117 40 -180 40c-89 0 -157 -30 -204 -91s-70 -137 -70 -228c0 -95 25 -172 76 -230s124 -87 220 -87
c51 0 98 8 141 24v256h-165v42h211v-325zM460 768l-87 106l-87 -106h-50l108 134h59l107 -134h-50z" />
    <glyph glyph-name="gcircumflex" unicode="&#x11d;" horiz-adv-x="563" 
d="M467 -14v-1c0 -59 -17 -103 -52 -133s-84 -45 -147 -45c-57 0 -109 9 -156 26l11 42c49 -17 97 -25 144 -25c51 0 89 12 114 36s38 57 38 98v73c-35 -25 -80 -38 -135 -38c-69 0 -123 21 -163 63s-60 101 -60 177c0 79 22 141 65 186s102 68 176 68c67 0 122 -13 165 -40
v-487zM111 260l-1 -1c0 -63 16 -112 48 -147s76 -53 131 -53c52 0 96 13 131 40v346c-36 16 -76 24 -119 24c-59 0 -105 -18 -139 -55s-51 -88 -51 -154zM372 582l-87 106l-87 -106h-50l108 134h59l107 -134h-50z" />
    <glyph glyph-name="Gbreve" unicode="&#x11e;" horiz-adv-x="678" 
d="M601 29h1c-57 -27 -120 -41 -189 -41c-112 0 -198 33 -257 98s-89 153 -89 264c0 105 28 192 84 260s136 102 239 102c72 0 137 -14 195 -42l-13 -42c-57 27 -117 40 -180 40c-89 0 -157 -30 -204 -91s-70 -137 -70 -228c0 -95 25 -172 76 -230s124 -87 220 -87
c51 0 98 8 141 24v256h-165v42h211v-325zM509 888h-1c-3 -37 -16 -65 -40 -85s-56 -30 -96 -30c-39 0 -71 10 -95 30s-37 48 -40 85h42c7 -50 38 -75 94 -75s87 25 94 75h42z" />
    <glyph glyph-name="gbreve" unicode="&#x11f;" horiz-adv-x="563" 
d="M467 -14v-1c0 -59 -17 -103 -52 -133s-84 -45 -147 -45c-57 0 -109 9 -156 26l11 42c49 -17 97 -25 144 -25c51 0 89 12 114 36s38 57 38 98v73c-35 -25 -80 -38 -135 -38c-69 0 -123 21 -163 63s-60 101 -60 177c0 79 22 141 65 186s102 68 176 68c67 0 122 -13 165 -40
v-487zM111 260l-1 -1c0 -63 16 -112 48 -147s76 -53 131 -53c52 0 96 13 131 40v346c-36 16 -76 24 -119 24c-59 0 -105 -18 -139 -55s-51 -88 -51 -154zM421 702h-1c-3 -37 -16 -65 -40 -85s-56 -30 -96 -30c-39 0 -71 10 -95 30s-37 48 -40 85h42c7 -50 38 -75 94 -75
s87 25 94 75h42z" />
    <glyph glyph-name="Gdotaccent" unicode="&#x120;" horiz-adv-x="678" 
d="M601 29h1c-57 -27 -120 -41 -189 -41c-112 0 -198 33 -257 98s-89 153 -89 264c0 105 28 192 84 260s136 102 239 102c72 0 137 -14 195 -42l-13 -42c-57 27 -117 40 -180 40c-89 0 -157 -30 -204 -91s-70 -137 -70 -228c0 -95 25 -172 76 -230s124 -87 220 -87
c51 0 98 8 141 24v256h-165v42h211v-325zM336 835v-2c0 10 3 19 10 26s16 11 27 11s20 -3 26 -10s9 -15 9 -25c0 -11 -3 -20 -9 -27s-15 -11 -26 -11s-20 4 -27 11s-10 16 -10 27z" />
    <glyph glyph-name="gdotaccent" unicode="&#x121;" horiz-adv-x="563" 
d="M467 -14v-1c0 -59 -17 -103 -52 -133s-84 -45 -147 -45c-57 0 -109 9 -156 26l11 42c49 -17 97 -25 144 -25c51 0 89 12 114 36s38 57 38 98v73c-35 -25 -80 -38 -135 -38c-69 0 -123 21 -163 63s-60 101 -60 177c0 79 22 141 65 186s102 68 176 68c67 0 122 -13 165 -40
v-487zM111 260l-1 -1c0 -63 16 -112 48 -147s76 -53 131 -53c52 0 96 13 131 40v346c-36 16 -76 24 -119 24c-59 0 -105 -18 -139 -55s-51 -88 -51 -154zM248 649v-2c0 10 3 19 10 26s16 11 27 11s20 -3 26 -10s9 -15 9 -25c0 -11 -3 -20 -9 -27s-15 -11 -26 -11
s-20 4 -27 11s-10 16 -10 27z" />
    <glyph glyph-name="uni0122" unicode="&#x122;" horiz-adv-x="678" 
d="M601 29h1c-57 -27 -120 -41 -189 -41c-112 0 -198 33 -257 98s-89 153 -89 264c0 105 28 192 84 260s136 102 239 102c72 0 137 -14 195 -42l-13 -42c-57 27 -117 40 -180 40c-89 0 -157 -30 -204 -91s-70 -137 -70 -228c0 -95 25 -172 76 -230s124 -87 220 -87
c51 0 98 8 141 24v256h-165v42h211v-325zM394 -59l45 1c-3 -53 -17 -103 -43 -151h-35c19 41 30 91 33 150z" />
    <glyph glyph-name="uni0123" unicode="&#x123;" horiz-adv-x="563" 
d="M467 -14v-1c0 -59 -17 -103 -52 -133s-84 -45 -147 -45c-57 0 -109 9 -156 26l11 42c49 -17 97 -25 144 -25c51 0 89 12 114 36s38 57 38 98v73c-35 -25 -80 -38 -135 -38c-69 0 -123 21 -163 63s-60 101 -60 177c0 79 22 141 65 186s102 68 176 68c67 0 122 -13 165 -40
v-487zM111 260l-1 -1c0 -63 16 -112 48 -147s76 -53 131 -53c52 0 96 13 131 40v346c-36 16 -76 24 -119 24c-59 0 -105 -18 -139 -55s-51 -88 -51 -154zM307 582l-44 -1c6 59 22 107 48 144h35c-19 -33 -32 -81 -39 -143z" />
    <glyph glyph-name="Hcircumflex" unicode="&#x124;" horiz-adv-x="719" 
d="M613 0h-48v340h-412v-340h-47v700h47v-317h412v317h48v-700zM443 768l-87 106l-87 -106h-50l108 134h59l107 -134h-50z" />
    <glyph glyph-name="hcircumflex" unicode="&#x125;" horiz-adv-x="588" 
d="M148 0h-46v720l47 3v-253c49 29 103 43 162 43c61 0 107 -16 139 -47s48 -74 48 -129v-337h-47v334c0 43 -12 77 -36 101s-60 36 -108 36c-58 0 -111 -15 -159 -44v-427zM326 806l-87 106l-87 -106h-50l108 134h59l107 -134h-50z" />
    <glyph glyph-name="Hbar" unicode="&#x126;" horiz-adv-x="720" 
d="M566 0v340h-412v-340h-48v514h-79v42h79v144h48v-144h412v144h48v-144h79v-42h-79v-514h-48zM566 383v131h-412v-131h412z" />
    <glyph glyph-name="hbar" unicode="&#x127;" horiz-adv-x="588" 
d="M148 470l2 2c49 29 103 43 162 43c60 0 106 -16 138 -48s48 -75 48 -130v-336h-47v333c0 43 -12 77 -36 101s-60 36 -108 36c-58 0 -111 -15 -159 -44v-427h-47v596h-79v39h79v85l47 3v-88h176v-39h-176v-126z" />
    <glyph glyph-name="Itilde" unicode="&#x128;" horiz-adv-x="259" 
d="M106 0v700h47v-700h-47zM199 821l-2 -2c11 0 19 3 24 9s9 13 11 21s3 20 4 35h39c-1 -31 -7 -56 -17 -75s-29 -29 -56 -29c-21 0 -45 10 -73 29s-49 29 -64 29s-26 -5 -32 -14s-10 -23 -11 -41h-39c2 64 28 96 79 96c21 0 46 -10 75 -29s50 -29 62 -29z" />
    <glyph glyph-name="itilde" unicode="&#x129;" horiz-adv-x="248" 
d="M148 501v-501h-47v501h47zM195 637l-2 -2c11 0 19 3 24 9s9 13 11 21s3 20 4 35h39c-1 -31 -7 -56 -17 -75s-29 -29 -56 -29c-21 0 -45 10 -73 29s-49 29 -64 29s-26 -5 -32 -14s-10 -23 -11 -41h-39c2 64 28 96 79 96c21 0 46 -10 75 -29s50 -29 62 -29z" />
    <glyph glyph-name="Imacron" unicode="&#x12a;" horiz-adv-x="259" 
d="M106 0v700h47v-700h-47zM3 805v40h254v-40h-254z" />
    <glyph glyph-name="imacron" unicode="&#x12b;" horiz-adv-x="248" 
d="M148 501v-501h-47v501h47zM-1 621v40h254v-40h-254z" />
    <glyph glyph-name="Ibreve" unicode="&#x12c;" horiz-adv-x="259" 
d="M106 0v700h47v-700h-47zM266 888h-1c-3 -37 -16 -65 -40 -85s-56 -30 -96 -30c-39 0 -71 10 -95 30s-37 48 -40 85h42c7 -50 38 -75 94 -75s87 25 94 75h42z" />
    <glyph glyph-name="ibreve" unicode="&#x12d;" horiz-adv-x="248" 
d="M148 501v-501h-47v501h47zM262 704h-1c-3 -37 -16 -65 -40 -85s-56 -30 -96 -30c-39 0 -71 10 -95 30s-37 48 -40 85h42c7 -50 38 -75 94 -75s87 25 94 75h42z" />
    <glyph glyph-name="Iogonek" unicode="&#x12e;" horiz-adv-x="259" 
d="M165 -179l-1 -1c-22 -9 -45 -14 -70 -14c-27 0 -49 7 -66 20s-26 32 -26 56c0 41 34 82 103 123v696h47v-700h-1c-24 -16 -42 -28 -54 -37s-23 -20 -34 -34s-16 -27 -16 -39c0 -31 19 -46 58 -46c20 0 37 3 52 10z" />
    <glyph glyph-name="iogonek" unicode="&#x12f;" horiz-adv-x="248" 
d="M125 620l-1 -3c-11 0 -20 4 -27 11s-10 16 -10 27c0 10 3 19 10 26s16 11 27 11s20 -3 26 -10s9 -15 9 -25c0 -11 -3 -20 -9 -27s-14 -10 -25 -10zM159 -182l-1 -1c-22 -9 -45 -14 -70 -14c-27 0 -49 7 -66 20s-26 32 -26 56c0 41 34 82 103 123v497h47v-501h-1
c-24 -16 -42 -28 -54 -37s-23 -20 -34 -34s-16 -27 -16 -39c0 -31 19 -46 58 -46c20 0 37 3 52 10z" />
    <glyph glyph-name="Idotaccent" unicode="&#x130;" horiz-adv-x="259" 
d="M106 0v700h47v-700h-47zM93 835v-2c0 10 3 19 10 26s16 11 27 11s20 -3 26 -10s9 -15 9 -25c0 -11 -3 -20 -9 -27s-15 -11 -26 -11s-20 4 -27 11s-10 16 -10 27z" />
    <glyph glyph-name="dotlessi" unicode="&#x131;" horiz-adv-x="248" 
d="M148 501v-501h-47v501h47z" />
    <glyph glyph-name="IJ" unicode="&#x132;" horiz-adv-x="518" 
d="M106 0v700h47v-700h-47zM296 -126v1c46 83 69 173 69 270v555h47v-556c0 -109 -25 -207 -75 -293z" />
    <glyph glyph-name="ij" unicode="&#x133;" horiz-adv-x="496" 
d="M148 501v-501h-47v501h47zM125 620l-1 -3c-11 0 -20 4 -27 11s-10 16 -10 27c0 10 3 19 10 26s16 11 27 11s20 -3 26 -10s9 -15 9 -25c0 -11 -3 -20 -9 -27s-14 -10 -25 -10zM395 -34h-1c0 -40 -8 -72 -24 -96s-42 -43 -79 -58l-16 40c26 13 45 28 56 44s17 40 17 71v531
h47v-532zM406 654l-1 -3c0 -11 -3 -20 -9 -27s-14 -10 -25 -10s-20 4 -27 11s-10 16 -10 27c0 10 3 19 10 26s16 11 27 11s20 -3 26 -10s9 -15 9 -25z" />
    <glyph glyph-name="Jcircumflex" unicode="&#x134;" horiz-adv-x="259" 
d="M37 -126v1c46 83 69 173 69 270v555h47v-556c0 -109 -25 -207 -75 -293zM217 769l-87 106l-87 -106h-50l108 134h59l107 -134h-50z" />
    <glyph glyph-name="jcircumflex" unicode="&#x135;" horiz-adv-x="248" 
d="M29 -145h-1c26 13 45 28 56 44s17 40 17 71v531h47v-532c0 -40 -8 -72 -24 -96s-42 -43 -79 -58zM210 584l-87 106l-87 -106h-50l108 134h59l107 -134h-50z" />
    <glyph glyph-name="uni0136" unicode="&#x136;" horiz-adv-x="621" 
d="M543 700l-2 1c-13 -68 -36 -129 -70 -183s-81 -104 -142 -150l260 -368h-59l-239 341c-36 -25 -82 -52 -139 -81v-260h-47v700h47v-391c105 56 184 114 238 174s89 132 106 217h47zM309 -58l45 1c-3 -53 -17 -103 -43 -151h-35c19 41 30 91 33 150z" />
    <glyph glyph-name="uni0137" unicode="&#x137;" horiz-adv-x="522" 
d="M450 501h-2c-14 -92 -65 -173 -152 -242l189 -259h-56l-168 233c-35 -25 -73 -49 -114 -72v-161h-47v720l47 3v-515c82 49 143 94 182 136s64 94 75 157h46zM253 -59l45 1c-3 -53 -17 -103 -43 -151h-35c19 41 30 91 33 150z" />
    <glyph glyph-name="Lacute" unicode="&#x139;" horiz-adv-x="545" 
d="M106 0v700h47v-657h349v-43h-396zM200 902h54l-99 -134h-46z" />
    <glyph glyph-name="lacute" unicode="&#x13a;" horiz-adv-x="280" 
d="M143 723v-593c0 -35 5 -60 15 -76s29 -24 56 -24c9 0 18 1 28 3l5 -40c-11 -3 -23 -5 -36 -5c-77 0 -115 47 -115 140v592zM190 933h54l-99 -134h-46z" />
    <glyph glyph-name="uni013B" unicode="&#x13b;" horiz-adv-x="545" 
d="M106 0v700h47v-657h349v-43h-396zM272 -59l45 1c-3 -53 -17 -103 -43 -151h-35c19 41 30 91 33 150z" />
    <glyph glyph-name="uni013C" unicode="&#x13c;" horiz-adv-x="280" 
d="M143 723v-593c0 -35 5 -60 15 -76s29 -24 56 -24c9 0 18 1 28 3l5 -40c-11 -3 -23 -5 -36 -5c-77 0 -115 47 -115 140v592zM137 -58l45 1c-3 -53 -17 -103 -43 -151h-35c19 41 30 91 33 150z" />
    <glyph glyph-name="Lcaron" unicode="&#x13d;" horiz-adv-x="545" 
d="M106 0v700h47v-657h349v-43h-396zM312 700h44c-5 -63 -22 -121 -51 -174h-35c22 47 36 105 42 174z" />
    <glyph glyph-name="lcaron" unicode="&#x13e;" horiz-adv-x="280" 
d="M143 723v-593c0 -35 5 -60 15 -76s29 -24 56 -24c9 0 18 1 28 3l5 -40c-11 -3 -23 -5 -36 -5c-77 0 -115 47 -115 140v592zM248 720h44c-5 -63 -22 -121 -51 -174h-35c22 47 36 105 42 174z" />
    <glyph glyph-name="Ldot" unicode="&#x13f;" horiz-adv-x="545" 
d="M106 0v700h47v-657h349v-43h-396zM367 365l-1 -2c0 10 3 18 9 24s15 9 26 9c10 0 18 -3 24 -9s9 -14 9 -24s-3 -18 -9 -25s-14 -10 -24 -10c-11 0 -19 4 -25 11s-9 16 -9 26z" />
    <glyph glyph-name="ldot" unicode="&#x140;" horiz-adv-x="290" 
d="M143 723v-593c0 -35 5 -60 15 -76s29 -24 56 -24c9 0 18 1 28 3l5 -40c-11 -3 -23 -5 -36 -5c-77 0 -115 47 -115 140v592zM230 356l-1 -2c0 10 3 18 9 24s15 9 26 9c10 0 18 -3 24 -9s9 -14 9 -24s-3 -18 -9 -25s-14 -10 -24 -10c-11 0 -19 4 -25 11s-9 16 -9 26z" />
    <glyph glyph-name="Lslash" unicode="&#x141;" horiz-adv-x="559" 
d="M106 0v320l-92 -38v44l92 38v336h47v-316l143 59v-44l-143 -59v-297h349v-43h-396z" />
    <glyph glyph-name="lslash" unicode="&#x142;" horiz-adv-x="280" 
d="M25 314v44l71 32v331l47 3v-312l100 45v-43l-100 -45v-239c0 -35 5 -60 15 -76s29 -24 56 -24c9 0 18 1 28 3l5 -40c-11 -3 -23 -5 -36 -5c-77 0 -115 47 -115 140v218z" />
    <glyph glyph-name="Nacute" unicode="&#x143;" horiz-adv-x="719" 
d="M152 0h-46v700h46c107 -188 247 -399 419 -632c-3 22 -4 54 -4 96v536h47v-700h-47c-99 133 -180 246 -244 339s-122 187 -174 283c2 -64 3 -100 3 -109v-513zM431 902h54l-99 -134h-46z" />
    <glyph glyph-name="nacute" unicode="&#x144;" horiz-adv-x="584" 
d="M143 0l-47 -1v461c65 35 134 52 207 52c63 0 111 -15 143 -46s48 -74 48 -129v-337h-47v334c0 42 -12 75 -36 100s-60 37 -108 37c-61 0 -114 -13 -160 -39v-432zM364 717h54l-99 -134h-46z" />
    <glyph glyph-name="uni0145" unicode="&#x145;" horiz-adv-x="719" 
d="M152 0h-46v700h46c107 -188 247 -399 419 -632c-3 22 -4 54 -4 96v536h47v-700h-47c-99 133 -180 246 -244 339s-122 187 -174 283c2 -64 3 -100 3 -109v-513zM339 -59l45 1c-3 -53 -17 -103 -43 -151h-35c19 41 30 91 33 150z" />
    <glyph glyph-name="uni0146" unicode="&#x146;" horiz-adv-x="584" 
d="M143 0l-47 -1v461c65 35 134 52 207 52c63 0 111 -15 143 -46s48 -74 48 -129v-337h-47v334c0 42 -12 75 -36 100s-60 37 -108 37c-61 0 -114 -13 -160 -39v-432zM273 -60l45 1c-3 -53 -17 -103 -43 -151h-35c19 41 30 91 33 150z" />
    <glyph glyph-name="Ncaron" unicode="&#x147;" horiz-adv-x="719" 
d="M152 0h-46v700h46c107 -188 247 -399 419 -632c-3 22 -4 54 -4 96v536h47v-700h-47c-99 133 -180 246 -244 339s-122 187 -174 283c2 -64 3 -100 3 -109v-513zM274 902l86 -104l86 104h51l-108 -134h-58l-108 134h51z" />
    <glyph glyph-name="ncaron" unicode="&#x148;" horiz-adv-x="584" 
d="M143 0l-47 -1v461c65 35 134 52 207 52c63 0 111 -15 143 -46s48 -74 48 -129v-337h-47v334c0 42 -12 75 -36 100s-60 37 -108 37c-61 0 -114 -13 -160 -39v-432zM208 717l86 -104l86 104h51l-108 -134h-58l-108 134h51z" />
    <glyph glyph-name="Omacron" unicode="&#x14c;" horiz-adv-x="708" 
d="M641 350h-2c0 -107 -24 -194 -72 -261s-119 -101 -214 -101s-166 34 -214 101s-72 154 -72 261s24 194 72 261s120 101 215 101s167 -34 215 -101s72 -154 72 -261zM115 350l1 -1c0 -60 8 -113 23 -159s41 -84 78 -114s82 -45 136 -45s99 15 136 45s63 68 78 114
s23 99 23 159s-8 113 -23 159s-41 84 -78 114s-82 45 -136 45c-81 0 -141 -30 -180 -89s-58 -135 -58 -228zM226 804v40h254v-40h-254z" />
    <glyph glyph-name="omacron" unicode="&#x14d;" horiz-adv-x="564" 
d="M503 251v-1c0 -79 -19 -143 -58 -191s-93 -72 -163 -72c-69 0 -123 24 -162 72s-58 112 -58 191s19 143 58 191s93 72 162 72c70 0 124 -24 163 -72s58 -111 58 -190zM111 250h-2c0 -68 15 -122 44 -161s72 -59 128 -59c57 0 100 20 128 59s42 93 42 161s-14 122 -42 161
s-71 59 -128 59c-56 0 -98 -20 -127 -59s-43 -93 -43 -161zM154 620v40h254v-40h-254z" />
    <glyph glyph-name="Obreve" unicode="&#x14e;" horiz-adv-x="708" 
d="M641 350h-2c0 -107 -24 -194 -72 -261s-119 -101 -214 -101s-166 34 -214 101s-72 154 -72 261s24 194 72 261s120 101 215 101s167 -34 215 -101s72 -154 72 -261zM115 350l1 -1c0 -60 8 -113 23 -159s41 -84 78 -114s82 -45 136 -45s99 15 136 45s63 68 78 114
s23 99 23 159s-8 113 -23 159s-41 84 -78 114s-82 45 -136 45c-81 0 -141 -30 -180 -89s-58 -135 -58 -228zM489 887h-1c-3 -37 -16 -65 -40 -85s-56 -30 -96 -30c-39 0 -71 10 -95 30s-37 48 -40 85h42c7 -50 38 -75 94 -75s87 25 94 75h42z" />
    <glyph glyph-name="obreve" unicode="&#x14f;" horiz-adv-x="564" 
d="M503 251v-1c0 -79 -19 -143 -58 -191s-93 -72 -163 -72c-69 0 -123 24 -162 72s-58 112 -58 191s19 143 58 191s93 72 162 72c70 0 124 -24 163 -72s58 -111 58 -190zM111 250h-2c0 -68 15 -122 44 -161s72 -59 128 -59c57 0 100 20 128 59s42 93 42 161s-14 122 -42 161
s-71 59 -128 59c-56 0 -98 -20 -127 -59s-43 -93 -43 -161zM417 703h-1c-3 -37 -16 -65 -40 -85s-56 -30 -96 -30c-39 0 -71 10 -95 30s-37 48 -40 85h42c7 -50 38 -75 94 -75s87 25 94 75h42z" />
    <glyph glyph-name="Ohungarumlaut" unicode="&#x150;" horiz-adv-x="708" 
d="M641 350h-2c0 -107 -24 -194 -72 -261s-119 -101 -214 -101s-166 34 -214 101s-72 154 -72 261s24 194 72 261s120 101 215 101s167 -34 215 -101s72 -154 72 -261zM115 350l1 -1c0 -60 8 -113 23 -159s41 -84 78 -114s82 -45 136 -45s99 15 136 45s63 68 78 114
s23 99 23 159s-8 113 -23 159s-41 84 -78 114s-82 45 -136 45c-81 0 -141 -30 -180 -89s-58 -135 -58 -228zM482 901h54l-98 -134h-47zM344 901h54l-98 -134h-46z" />
    <glyph glyph-name="ohungarumlaut" unicode="&#x151;" horiz-adv-x="564" 
d="M503 251v-1c0 -79 -19 -143 -58 -191s-93 -72 -163 -72c-69 0 -123 24 -162 72s-58 112 -58 191s19 143 58 191s93 72 162 72c70 0 124 -24 163 -72s58 -111 58 -190zM111 250h-2c0 -68 15 -122 44 -161s72 -59 128 -59c57 0 100 20 128 59s42 93 42 161s-14 122 -42 161
s-71 59 -128 59c-56 0 -98 -20 -127 -59s-43 -93 -43 -161zM410 717h54l-98 -134h-47zM272 717h54l-98 -134h-46z" />
    <glyph glyph-name="OE" unicode="&#x152;" horiz-adv-x="1046" 
d="M988 43v-42h-397v144c-45 -104 -125 -156 -239 -156c-94 0 -165 34 -213 101s-72 154 -72 261c0 51 6 98 17 141s28 81 50 114s52 59 89 78s80 28 129 28c114 0 194 -52 239 -156v144h397v-43h-350v-274h301v-43h-301v-297h350zM117 351l-1 -3c0 -60 8 -113 23 -159
s41 -84 78 -114s82 -45 136 -45c80 0 140 30 179 89s59 136 59 230s-19 171 -58 230s-98 89 -178 89c-81 0 -141 -30 -180 -89s-58 -135 -58 -228z" />
    <glyph glyph-name="oe" unicode="&#x153;" horiz-adv-x="939" 
d="M111 251h-2c0 -68 15 -122 44 -161s72 -59 128 -59c57 0 100 20 129 59s43 93 43 161s-14 122 -43 161s-72 59 -129 59c-56 0 -98 -20 -127 -59s-43 -93 -43 -161zM676 471v-1c-52 0 -93 -17 -124 -51s-49 -80 -54 -137h330v22c0 46 -13 85 -38 118s-63 49 -114 49z
M873 23c-49 -24 -104 -36 -166 -36c-114 0 -191 48 -230 144c-36 -96 -102 -144 -198 -144c-69 0 -123 24 -162 72s-58 112 -58 191s19 143 58 191s93 72 162 72c96 0 162 -48 197 -143c38 95 105 143 200 143c64 0 113 -20 148 -61s52 -92 52 -154c0 -18 -1 -36 -3 -54
h-373c1 -71 20 -124 57 -160s87 -54 151 -54c51 0 102 11 154 34z" />
    <glyph glyph-name="Racute" unicode="&#x154;" horiz-adv-x="614" 
d="M259 657h-106v-309h106c71 0 125 12 161 37s54 65 54 120s-18 94 -54 117s-90 35 -161 35zM572 0l-59 2l-131 209c-23 36 -44 61 -63 75s-44 21 -75 21h-91v-306h-47v700h153c176 0 264 -65 264 -194c0 -59 -17 -104 -52 -136s-79 -50 -132 -53c14 -5 27 -14 40 -27
s29 -34 48 -63zM346 904h54l-99 -134h-46z" />
    <glyph glyph-name="racute" unicode="&#x155;" horiz-adv-x="374" 
d="M101 460c59 35 129 53 210 53c13 0 28 -1 44 -3l-7 -43c-10 3 -22 4 -36 4c-64 0 -119 -13 -164 -40v-431h-47v460zM288 718h54l-99 -134h-46z" />
    <glyph glyph-name="uni0156" unicode="&#x156;" horiz-adv-x="614" 
d="M259 657h-106v-309h106c71 0 125 12 161 37s54 65 54 120s-18 94 -54 117s-90 35 -161 35zM572 0l-59 2l-131 209c-23 36 -44 61 -63 75s-44 21 -75 21h-91v-306h-47v700h153c176 0 264 -65 264 -194c0 -59 -17 -104 -52 -136s-79 -50 -132 -53c14 -5 27 -14 40 -27
s29 -34 48 -63zM296 -57l45 1c-3 -53 -17 -103 -43 -151h-35c19 41 30 91 33 150z" />
    <glyph glyph-name="uni0157" unicode="&#x157;" horiz-adv-x="374" 
d="M101 460c59 35 129 53 210 53c13 0 28 -1 44 -3l-7 -43c-10 3 -22 4 -36 4c-64 0 -119 -13 -164 -40v-431h-47v460zM106 -59l45 1c-3 -53 -17 -103 -43 -151h-35c19 41 30 91 33 150z" />
    <glyph glyph-name="Rcaron" unicode="&#x158;" horiz-adv-x="614" 
d="M259 657h-106v-309h106c71 0 125 12 161 37s54 65 54 120s-18 94 -54 117s-90 35 -161 35zM572 0l-59 2l-131 209c-23 36 -44 61 -63 75s-44 21 -75 21h-91v-306h-47v700h153c176 0 264 -65 264 -194c0 -59 -17 -104 -52 -136s-79 -50 -132 -53c14 -5 27 -14 40 -27
s29 -34 48 -63zM189 904l86 -104l86 104h51l-108 -134h-58l-108 134h51z" />
    <glyph glyph-name="rcaron" unicode="&#x159;" horiz-adv-x="374" 
d="M101 460c59 35 129 53 210 53c13 0 28 -1 44 -3l-7 -43c-10 3 -22 4 -36 4c-64 0 -119 -13 -164 -40v-431h-47v460zM131 718l86 -104l86 104h51l-108 -134h-58l-108 134h51z" />
    <glyph glyph-name="Sacute" unicode="&#x15a;" horiz-adv-x="543" 
d="M57 25l7 45c75 -25 139 -38 192 -38c58 0 103 12 135 35s48 58 48 105c0 25 -4 47 -13 65s-23 34 -42 47s-38 24 -57 32s-45 17 -78 27c-64 20 -111 44 -141 73s-45 69 -45 121c0 57 20 100 59 130s92 45 159 45c55 0 108 -9 159 -28l-10 -41c-56 17 -105 25 -147 25
c-115 0 -172 -43 -172 -130c0 -42 13 -73 38 -94s66 -40 122 -58c37 -11 66 -21 87 -30s43 -21 66 -37s40 -36 51 -60s16 -52 16 -85c0 -64 -22 -111 -66 -141s-99 -45 -166 -45c-76 0 -143 12 -202 37zM338 902h54l-99 -134h-46z" />
    <glyph glyph-name="sacute" unicode="&#x15b;" horiz-adv-x="429" 
d="M353 490l-11 -42c-47 15 -89 22 -125 22c-80 0 -120 -31 -120 -93c0 -16 3 -30 9 -42s16 -22 30 -30s26 -14 36 -18s25 -9 46 -16c59 -18 102 -37 129 -58s40 -51 40 -90c0 -45 -16 -79 -49 -102s-76 -34 -129 -34c-29 0 -60 3 -92 9s-55 13 -70 20l10 42
c53 -19 104 -28 152 -28c40 0 72 8 95 24s35 39 35 69c0 27 -11 48 -33 63s-58 30 -108 45c-46 15 -82 33 -108 54s-39 52 -39 92c0 44 15 78 44 101s70 35 123 35s98 -8 135 -23zM279 717h54l-99 -134h-46z" />
    <glyph glyph-name="Scircumflex" unicode="&#x15c;" horiz-adv-x="543" 
d="M57 25l7 45c75 -25 139 -38 192 -38c58 0 103 12 135 35s48 58 48 105c0 25 -4 47 -13 65s-23 34 -42 47s-38 24 -57 32s-45 17 -78 27c-64 20 -111 44 -141 73s-45 69 -45 121c0 57 20 100 59 130s92 45 159 45c55 0 108 -9 159 -28l-10 -41c-56 17 -105 25 -147 25
c-115 0 -172 -43 -172 -130c0 -42 13 -73 38 -94s66 -40 122 -58c37 -11 66 -21 87 -30s43 -21 66 -37s40 -36 51 -60s16 -52 16 -85c0 -64 -22 -111 -66 -141s-99 -45 -166 -45c-76 0 -143 12 -202 37zM354 768l-87 106l-87 -106h-50l108 134h59l107 -134h-50z" />
    <glyph glyph-name="scircumflex" unicode="&#x15d;" horiz-adv-x="429" 
d="M353 490l-11 -42c-47 15 -89 22 -125 22c-80 0 -120 -31 -120 -93c0 -16 3 -30 9 -42s16 -22 30 -30s26 -14 36 -18s25 -9 46 -16c59 -18 102 -37 129 -58s40 -51 40 -90c0 -45 -16 -79 -49 -102s-76 -34 -129 -34c-29 0 -60 3 -92 9s-55 13 -70 20l10 42
c53 -19 104 -28 152 -28c40 0 72 8 95 24s35 39 35 69c0 27 -11 48 -33 63s-58 30 -108 45c-46 15 -82 33 -108 54s-39 52 -39 92c0 44 15 78 44 101s70 35 123 35s98 -8 135 -23zM296 583l-87 106l-87 -106h-50l108 134h59l107 -134h-50z" />
    <glyph glyph-name="uni015E" unicode="&#x15e;" horiz-adv-x="543" 
d="M57 25l5 44c75 -25 139 -38 192 -38c58 0 103 12 135 35s48 58 48 105c0 25 -4 47 -13 65s-23 34 -42 47s-38 24 -57 32s-45 17 -78 27c-64 20 -111 44 -141 73s-45 69 -45 121c0 57 20 100 59 130s92 45 159 45c54 0 107 -9 160 -28l-9 -42c-54 17 -103 26 -148 26
c-115 0 -172 -43 -172 -130c0 -42 13 -73 38 -94s66 -40 122 -58c37 -11 66 -21 87 -30s43 -21 66 -37s40 -36 51 -60s16 -52 16 -85c0 -60 -19 -105 -58 -135s-89 -46 -150 -49l-16 -46c61 -5 92 -30 92 -76c0 -26 -10 -46 -30 -59s-47 -20 -80 -20c-20 0 -39 2 -56 7l7 34
c17 -4 33 -6 48 -6c46 0 69 15 69 45c0 28 -26 43 -79 45l-9 24l17 51c-72 2 -135 14 -188 37z" />
    <glyph glyph-name="uni015F" unicode="&#x15f;" horiz-adv-x="429" 
d="M353 490l-8 -43c-55 15 -97 22 -125 22c-39 0 -69 -6 -90 -18s-31 -34 -31 -65c0 -27 8 -47 25 -60s47 -27 91 -42c61 -21 105 -42 132 -63s40 -53 40 -96c0 -44 -15 -77 -45 -100s-69 -36 -118 -39l-16 -45c61 -5 91 -30 91 -76c0 -26 -10 -46 -30 -59s-46 -20 -79 -20
c-21 0 -40 2 -57 7l7 34c17 -4 33 -6 48 -6c47 0 70 15 70 45c0 28 -26 43 -79 45l-10 24l18 51c-46 3 -93 12 -140 28l9 43c53 -19 104 -28 153 -28c41 0 73 8 96 24s34 40 34 72c0 31 -11 55 -34 71s-62 33 -117 51c-47 15 -82 33 -104 53s-33 49 -33 86
c0 85 56 127 167 127c37 0 82 -8 135 -23z" />
    <glyph glyph-name="Scaron" unicode="&#x160;" horiz-adv-x="543" 
d="M57 25l7 45c75 -25 139 -38 192 -38c58 0 103 12 135 35s48 58 48 105c0 25 -4 47 -13 65s-23 34 -42 47s-38 24 -57 32s-45 17 -78 27c-64 20 -111 44 -141 73s-45 69 -45 121c0 57 20 100 59 130s92 45 159 45c55 0 108 -9 159 -28l-10 -41c-56 17 -105 25 -147 25
c-115 0 -172 -43 -172 -130c0 -42 13 -73 38 -94s66 -40 122 -58c37 -11 66 -21 87 -30s43 -21 66 -37s40 -36 51 -60s16 -52 16 -85c0 -64 -22 -111 -66 -141s-99 -45 -166 -45c-76 0 -143 12 -202 37zM181 902l86 -104l86 104h51l-108 -134h-58l-108 134h51z" />
    <glyph glyph-name="scaron" unicode="&#x161;" horiz-adv-x="429" 
d="M353 490l-11 -42c-47 15 -89 22 -125 22c-80 0 -120 -31 -120 -93c0 -16 3 -30 9 -42s16 -22 30 -30s26 -14 36 -18s25 -9 46 -16c59 -18 102 -37 129 -58s40 -51 40 -90c0 -45 -16 -79 -49 -102s-76 -34 -129 -34c-29 0 -60 3 -92 9s-55 13 -70 20l10 42
c53 -19 104 -28 152 -28c40 0 72 8 95 24s35 39 35 69c0 27 -11 48 -33 63s-58 30 -108 45c-46 15 -82 33 -108 54s-39 52 -39 92c0 44 15 78 44 101s70 35 123 35s98 -8 135 -23zM123 717l86 -104l86 104h51l-108 -134h-58l-108 134h51z" />
    <glyph glyph-name="uni0162" unicode="&#x162;" horiz-adv-x="550" 
d="M251 0l-1 657h-222v43h492v-43h-222v-657h-7l-20 -57c61 -5 92 -30 92 -76c0 -26 -10 -46 -30 -59s-47 -20 -80 -20c-20 0 -39 2 -56 7l7 34c17 -4 33 -6 48 -6c46 0 69 15 69 45c0 28 -26 43 -79 45l-9 24l21 63h-3z" />
    <glyph glyph-name="uni0163" unicode="&#x163;" horiz-adv-x="333" 
d="M80 -205l4 35c17 -4 33 -6 48 -6c46 0 69 15 69 45c0 28 -26 43 -79 45l-9 24l27 81c-27 24 -41 63 -41 117v325h-78v41h78v122l47 4v-126h145v-41h-145v-325c0 -38 8 -65 23 -81s38 -24 68 -24c24 0 46 3 65 9l3 -41c-23 -7 -46 -11 -69 -11c-25 0 -46 4 -63 11l-19 -56
c61 -5 92 -30 92 -76c0 -26 -10 -46 -30 -59s-47 -20 -80 -20c-20 0 -39 2 -56 7z" />
    <glyph glyph-name="Tcaron" unicode="&#x164;" horiz-adv-x="550" 
d="M251 0v657h-222v43h492v-43h-222v-657h-48zM188 902l86 -104l86 104h51l-108 -134h-58l-108 134h51z" />
    <glyph glyph-name="tcaron" unicode="&#x165;" horiz-adv-x="333" 
d="M308 -1l-1 1c-23 -7 -46 -11 -69 -11c-91 0 -136 49 -136 147v325h-78v41h78v122l47 4v-126h145v-41h-145v-325c0 -38 8 -65 23 -81s38 -24 68 -24c24 0 46 3 65 9zM242 735h44c-5 -63 -22 -121 -51 -174h-35c22 47 36 105 42 174z" />
    <glyph glyph-name="Tbar" unicode="&#x166;" horiz-adv-x="550" 
d="M251 0v348h-144v43h144v266h-222v43h492v-43h-222v-266h144v-43h-144v-348h-48z" />
    <glyph glyph-name="tbar" unicode="&#x167;" horiz-adv-x="333" 
d="M294 501l-2 -40h-145v-130h145v-41h-145v-138c0 -44 8 -75 23 -93s39 -27 71 -27c23 0 44 3 63 9l3 -42c-23 -7 -47 -11 -72 -11c-89 0 -133 54 -133 163v138h-78v41h78v130h-78v41h78v122l47 4v-126h145z" />
    <glyph glyph-name="Utilde" unicode="&#x168;" horiz-adv-x="699" 
d="M101 267l-3 432h47v-432c0 -81 17 -140 50 -178s84 -57 152 -57c69 0 120 19 153 57s49 98 49 179v432h48v-433c0 -97 -20 -168 -61 -213s-103 -67 -187 -67s-146 22 -187 67s-61 116 -61 213zM415 820l-2 -2c11 0 19 3 24 9s9 13 11 21s3 20 4 35h39
c-1 -31 -7 -56 -17 -75s-29 -29 -56 -29c-21 0 -45 10 -73 29s-49 29 -64 29s-26 -5 -32 -14s-10 -23 -11 -41h-39c2 64 28 96 79 96c21 0 46 -10 75 -29s50 -29 62 -29z" />
    <glyph glyph-name="utilde" unicode="&#x169;" horiz-adv-x="575" 
d="M479 41l1 -1c-69 -35 -140 -53 -213 -53c-60 0 -104 15 -133 45s-43 71 -43 124v345h47v-343c0 -85 43 -127 129 -127c61 0 116 13 165 39v431h47v-460zM361 636l-2 -2c11 0 19 3 24 9s9 13 11 21s3 20 4 35h39c-1 -31 -7 -56 -17 -75s-29 -29 -56 -29
c-21 0 -45 10 -73 29s-49 29 -64 29s-26 -5 -32 -14s-10 -23 -11 -41h-39c2 64 28 96 79 96c21 0 46 -10 75 -29s50 -29 62 -29z" />
    <glyph glyph-name="Umacron" unicode="&#x16a;" horiz-adv-x="699" 
d="M101 267l-3 432h47v-432c0 -81 17 -140 50 -178s84 -57 152 -57c69 0 120 19 153 57s49 98 49 179v432h48v-433c0 -97 -20 -168 -61 -213s-103 -67 -187 -67s-146 22 -187 67s-61 116 -61 213zM219 804v40h254v-40h-254z" />
    <glyph glyph-name="umacron" unicode="&#x16b;" horiz-adv-x="575" 
d="M479 41l1 -1c-69 -35 -140 -53 -213 -53c-60 0 -104 15 -133 45s-43 71 -43 124v345h47v-343c0 -85 43 -127 129 -127c61 0 116 13 165 39v431h47v-460zM165 620v40h254v-40h-254z" />
    <glyph glyph-name="Ubreve" unicode="&#x16c;" horiz-adv-x="699" 
d="M101 267l-3 432h47v-432c0 -81 17 -140 50 -178s84 -57 152 -57c69 0 120 19 153 57s49 98 49 179v432h48v-433c0 -97 -20 -168 -61 -213s-103 -67 -187 -67s-146 22 -187 67s-61 116 -61 213zM482 887h-1c-3 -37 -16 -65 -40 -85s-56 -30 -96 -30c-39 0 -71 10 -95 30
s-37 48 -40 85h42c7 -50 38 -75 94 -75s87 25 94 75h42z" />
    <glyph glyph-name="ubreve" unicode="&#x16d;" horiz-adv-x="575" 
d="M479 41l1 -1c-69 -35 -140 -53 -213 -53c-60 0 -104 15 -133 45s-43 71 -43 124v345h47v-343c0 -85 43 -127 129 -127c61 0 116 13 165 39v431h47v-460zM428 703h-1c-3 -37 -16 -65 -40 -85s-56 -30 -96 -30c-39 0 -71 10 -95 30s-37 48 -40 85h42c7 -50 38 -75 94 -75
s87 25 94 75h42z" />
    <glyph glyph-name="Uring" unicode="&#x16e;" horiz-adv-x="699" 
d="M101 267l-3 432h47v-432c0 -81 17 -140 50 -178s84 -57 152 -57c69 0 120 19 153 57s49 98 49 179v432h48v-433c0 -97 -20 -168 -61 -213s-103 -67 -187 -67s-146 22 -187 67s-61 116 -61 213zM250 847h2c0 27 9 50 27 68s41 27 68 27s50 -9 68 -27s27 -41 27 -68
c0 -28 -9 -51 -27 -69s-41 -27 -69 -27s-51 9 -69 27s-27 41 -27 69zM407 847h-2c0 17 -5 31 -15 42s-24 17 -43 17s-33 -6 -43 -17s-15 -25 -15 -42s5 -32 15 -44s25 -18 44 -18s34 6 44 18s15 27 15 44z" />
    <glyph glyph-name="uring" unicode="&#x16f;" horiz-adv-x="575" 
d="M479 41l1 -1c-69 -35 -140 -53 -213 -53c-60 0 -104 15 -133 45s-43 71 -43 124v345h47v-343c0 -85 43 -127 129 -127c61 0 116 13 165 39v431h47v-460zM196 663h2c0 27 9 50 27 68s41 27 68 27s50 -9 68 -27s27 -41 27 -68c0 -28 -9 -51 -27 -69s-41 -27 -69 -27
s-51 9 -69 27s-27 41 -27 69zM353 663h-2c0 17 -5 31 -15 42s-24 17 -43 17s-33 -6 -43 -17s-15 -25 -15 -42s5 -32 15 -44s25 -18 44 -18s34 6 44 18s15 27 15 44z" />
    <glyph glyph-name="Uhungarumlaut" unicode="&#x170;" horiz-adv-x="699" 
d="M101 267l-3 432h47v-432c0 -81 17 -140 50 -178s84 -57 152 -57c69 0 120 19 153 57s49 98 49 179v432h48v-433c0 -97 -20 -168 -61 -213s-103 -67 -187 -67s-146 22 -187 67s-61 116 -61 213zM475 901h54l-98 -134h-47zM337 901h54l-98 -134h-46z" />
    <glyph glyph-name="uhungarumlaut" unicode="&#x171;" horiz-adv-x="575" 
d="M479 41l1 -1c-69 -35 -140 -53 -213 -53c-60 0 -104 15 -133 45s-43 71 -43 124v345h47v-343c0 -85 43 -127 129 -127c61 0 116 13 165 39v431h47v-460zM421 717h54l-98 -134h-47zM283 717h54l-98 -134h-46z" />
    <glyph glyph-name="Uogonek" unicode="&#x172;" horiz-adv-x="699" 
d="M101 267l-2 432h47v-432c0 -81 17 -140 50 -178s84 -57 152 -57c69 0 120 19 153 57s49 98 49 179v432h48v-433c0 -159 -58 -250 -175 -273c-33 -21 -57 -39 -73 -55s-24 -32 -24 -49c0 -31 19 -46 58 -46c20 0 37 3 52 10l9 -34c-23 -9 -47 -14 -72 -14
c-26 0 -48 7 -65 20s-26 32 -26 56c0 35 26 70 77 105h-10c-84 0 -146 22 -187 67s-61 116 -61 213z" />
    <glyph glyph-name="uogonek" unicode="&#x173;" horiz-adv-x="575" 
d="M479 41c-35 -31 -61 -58 -79 -81s-27 -46 -27 -70c0 -31 19 -46 58 -46c20 0 37 3 52 10l9 -34c-23 -9 -47 -14 -72 -14c-26 0 -48 7 -65 20s-26 32 -26 56c0 41 21 82 64 123c-41 -12 -83 -18 -126 -18c-60 0 -104 15 -133 45s-43 71 -43 124v345h47v-343
c0 -85 43 -127 129 -127c61 0 116 13 165 39v431h47v-460z" />
    <glyph glyph-name="Wcircumflex" unicode="&#x174;" horiz-adv-x="957" 
d="M687 44l-1 -2c84 213 147 432 188 657h48c-27 -134 -57 -255 -90 -363s-73 -220 -121 -337h-52c-43 102 -78 201 -105 296s-53 204 -78 327c-24 -123 -50 -232 -77 -327s-62 -193 -105 -295h-52c-48 115 -88 226 -120 334s-62 230 -90 367h49c47 -237 110 -456 189 -656
c82 213 143 432 182 656h52c42 -231 103 -450 183 -657zM564 766l-87 106l-87 -106h-50l108 134h59l107 -134h-50z" />
    <glyph glyph-name="wcircumflex" unicode="&#x175;" horiz-adv-x="785" 
d="M398 501h2c21 -146 70 -298 147 -457c41 83 74 160 98 231s41 146 51 226h47c-13 -88 -33 -171 -61 -249s-65 -162 -111 -252h-49c-61 121 -105 228 -132 321c-28 -101 -71 -208 -128 -321h-49c-46 89 -83 173 -110 251s-47 161 -60 250h47c21 -147 71 -299 149 -457
c63 127 107 246 131 357c-7 33 -13 66 -18 100h46zM469 584l-87 106l-87 -106h-50l108 134h59l107 -134h-50z" />
    <glyph glyph-name="Ycircumflex" unicode="&#x176;" horiz-adv-x="569" 
d="M261 0l1 304c-56 71 -103 137 -141 198s-72 127 -103 198h52c49 -115 121 -235 216 -360c93 121 164 241 214 360h51c-59 -136 -140 -268 -242 -396v-304h-48zM373 770l-87 106l-87 -106h-50l108 134h59l107 -134h-50z" />
    <glyph glyph-name="ycircumflex" unicode="&#x177;" horiz-adv-x="506" 
d="M286 5h-1c-58 -102 -133 -165 -224 -188l-11 42c77 19 139 68 186 147c-102 159 -166 324 -193 495h47c24 -147 81 -298 172 -454c43 79 78 154 104 225s46 147 59 229h47c-24 -154 -86 -319 -186 -496zM348 584l-87 106l-87 -106h-50l108 134h59l107 -134h-50z" />
    <glyph glyph-name="Ydieresis" unicode="&#x178;" horiz-adv-x="569" 
d="M261 0l1 304c-56 71 -103 137 -141 198s-72 127 -103 198h52c49 -115 121 -235 216 -360c93 121 164 241 214 360h51c-59 -136 -140 -268 -242 -396v-304h-48zM243 836v-3c0 -11 -3 -20 -9 -27s-15 -10 -26 -10s-20 4 -26 11s-9 16 -9 27c0 10 3 19 9 26s15 11 26 11
s20 -3 26 -10s9 -15 9 -25zM399 833v-3c0 -11 -3 -20 -9 -27s-14 -10 -25 -10c-12 0 -21 4 -27 11s-9 16 -9 27c0 10 3 19 9 26s15 11 27 11c11 0 19 -3 25 -10s9 -15 9 -25z" />
    <glyph glyph-name="Zacute" unicode="&#x179;" horiz-adv-x="555" 
d="M497 664l-1 1c-50 -110 -105 -211 -165 -304s-136 -199 -229 -318h410v-43h-468v37c192 249 327 456 404 620h-394v43h443v-36zM343 903h54l-99 -134h-46z" />
    <glyph glyph-name="zacute" unicode="&#x17a;" horiz-adv-x="455" 
d="M53 501h359v-34c-77 -135 -183 -277 -318 -426h331v-41h-391v35c141 153 249 295 324 425h-305v41zM301 718h54l-99 -134h-46z" />
    <glyph glyph-name="Zdotaccent" unicode="&#x17b;" horiz-adv-x="555" 
d="M497 664l-1 1c-50 -110 -105 -211 -165 -304s-136 -199 -229 -318h410v-43h-468v37c192 249 327 456 404 620h-394v43h443v-36zM235 836v-2c0 10 3 19 10 26s16 11 27 11s20 -3 26 -10s9 -15 9 -25c0 -11 -3 -20 -9 -27s-15 -11 -26 -11s-20 4 -27 11s-10 16 -10 27z" />
    <glyph glyph-name="zdotaccent" unicode="&#x17c;" horiz-adv-x="455" 
d="M53 501h359v-34c-77 -135 -183 -277 -318 -426h331v-41h-391v35c141 153 249 295 324 425h-305v41zM193 651v-2c0 10 3 19 10 26s16 11 27 11s20 -3 26 -10s9 -15 9 -25c0 -11 -3 -20 -9 -27s-15 -11 -26 -11s-20 4 -27 11s-10 16 -10 27z" />
    <glyph glyph-name="Zcaron" unicode="&#x17d;" horiz-adv-x="555" 
d="M497 664l-1 1c-50 -110 -105 -211 -165 -304s-136 -199 -229 -318h410v-43h-468v37c192 249 327 456 404 620h-394v43h443v-36zM186 903l86 -104l86 104h51l-108 -134h-58l-108 134h51z" />
    <glyph glyph-name="zcaron" unicode="&#x17e;" horiz-adv-x="455" 
d="M53 501h359v-34c-77 -135 -183 -277 -318 -426h331v-41h-391v35c141 153 249 295 324 425h-305v41zM145 718l86 -104l86 104h51l-108 -134h-58l-108 134h51z" />
    <glyph glyph-name="florin" unicode="&#x192;" horiz-adv-x="406" 
d="M79 501h76v70c0 107 45 160 135 160c24 0 49 -4 74 -11l-10 -40c-25 6 -45 9 -60 9c-33 0 -56 -10 -70 -30s-21 -49 -21 -88v-70h144v-41h-144v-492c0 -107 -45 -161 -135 -161c-24 0 -49 4 -74 12l11 40c25 -6 45 -9 60 -9c33 0 57 10 71 30s21 49 21 87v493h-78v41z
" />
    <glyph glyph-name="uni0218" unicode="&#x218;" horiz-adv-x="543" 
d="M57 25l7 45c75 -25 139 -38 192 -38c58 0 103 12 135 35s48 58 48 105c0 25 -4 47 -13 65s-23 34 -42 47s-38 24 -57 32s-45 17 -78 27c-64 20 -111 44 -141 73s-45 69 -45 121c0 57 20 100 59 130s92 45 159 45c55 0 108 -9 159 -28l-10 -41c-56 17 -105 25 -147 25
c-115 0 -172 -43 -172 -130c0 -42 13 -73 38 -94s66 -40 122 -58c37 -11 66 -21 87 -30s43 -21 66 -37s40 -36 51 -60s16 -52 16 -85c0 -64 -22 -111 -66 -141s-99 -45 -166 -45c-76 0 -143 12 -202 37zM259 -59l45 1c-3 -53 -17 -103 -43 -151h-35c19 41 30 91 33 150z" />
    <glyph glyph-name="uni0219" unicode="&#x219;" horiz-adv-x="429" 
d="M353 490l-11 -42c-47 15 -89 22 -125 22c-80 0 -120 -31 -120 -93c0 -16 3 -30 9 -42s16 -22 30 -30s26 -14 36 -18s25 -9 46 -16c59 -18 102 -37 129 -58s40 -51 40 -90c0 -45 -16 -79 -49 -102s-76 -34 -129 -34c-29 0 -60 3 -92 9s-55 13 -70 20l10 42
c53 -19 104 -28 152 -28c40 0 72 8 95 24s35 39 35 69c0 27 -11 48 -33 63s-58 30 -108 45c-46 15 -82 33 -108 54s-39 52 -39 92c0 44 15 78 44 101s70 35 123 35s98 -8 135 -23zM202 -60l45 1c-3 -53 -17 -103 -43 -151h-35c19 41 30 91 33 150z" />
    <glyph glyph-name="uni021A" unicode="&#x21a;" horiz-adv-x="550" 
d="M251 0v657h-222v43h492v-43h-222v-657h-48zM254 -59l45 1c-3 -53 -17 -103 -43 -151h-35c19 41 30 91 33 150z" />
    <glyph glyph-name="uni021B" unicode="&#x21b;" horiz-adv-x="333" 
d="M308 -1l-1 1c-23 -7 -46 -11 -69 -11c-91 0 -136 49 -136 147v325h-78v41h78v122l47 4v-126h145v-41h-145v-325c0 -38 8 -65 23 -81s38 -24 68 -24c24 0 46 3 65 9zM150 -58l45 1c-3 -53 -17 -103 -43 -151h-35c19 41 30 91 33 150z" />
    <glyph glyph-name="uni0237" unicode="&#x237;" horiz-adv-x="248" 
d="M29 -145h-1c26 13 45 28 56 44s17 40 17 71v531h47v-532c0 -40 -8 -72 -24 -96s-42 -43 -79 -58z" />
    <glyph glyph-name="circumflex" unicode="&#x2c6;" 
d="M336 570l-87 106l-87 -106h-50l108 134h59l107 -134h-50z" />
    <glyph glyph-name="caron" unicode="&#x2c7;" 
d="M155 704l86 -104l86 104h51l-108 -134h-58l-108 134h51z" />
    <glyph glyph-name="breve" unicode="&#x2d8;" 
d="M386 690h-1c-3 -37 -16 -65 -40 -85s-56 -30 -96 -30c-39 0 -71 10 -95 30s-37 48 -40 85h42c7 -50 38 -75 94 -75s87 25 94 75h42z" />
    <glyph glyph-name="dotaccent" unicode="&#x2d9;" 
d="M212 637v-2c0 10 3 19 10 26s16 11 27 11s20 -3 26 -10s9 -15 9 -25c0 -11 -3 -20 -9 -27s-15 -11 -26 -11s-20 4 -27 11s-10 16 -10 27z" />
    <glyph glyph-name="ring" unicode="&#x2da;" 
d="M153 650h2c0 27 9 50 27 68s41 27 68 27s50 -9 68 -27s27 -41 27 -68c0 -28 -9 -51 -27 -69s-41 -27 -69 -27s-51 9 -69 27s-27 41 -27 69zM310 650h-2c0 17 -5 31 -15 42s-24 17 -43 17s-33 -6 -43 -17s-15 -25 -15 -42s5 -32 15 -44s25 -18 44 -18s34 6 44 18
s15 27 15 44z" />
    <glyph glyph-name="ogonek" unicode="&#x2db;" 
d="M292 -179v-3c-23 -9 -47 -14 -72 -14c-26 0 -48 7 -65 20s-26 32 -26 56c0 41 34 82 103 123l46 -5c-24 -15 -42 -27 -54 -36s-24 -20 -35 -33s-16 -26 -16 -38c0 -31 19 -46 58 -46c20 0 37 3 52 10z" />
    <glyph glyph-name="tilde" unicode="&#x2dc;" 
d="M317 623l-2 -2c11 0 19 3 24 9s9 13 11 21s3 20 4 35h39c-1 -31 -7 -56 -17 -75s-29 -29 -56 -29c-21 0 -45 10 -73 29s-49 29 -64 29s-26 -5 -32 -14s-10 -23 -11 -41h-39c2 64 28 96 79 96c21 0 46 -10 75 -29s50 -29 62 -29z" />
    <glyph glyph-name="hungarumlaut" unicode="&#x2dd;" 
d="M337 704h54l-98 -134h-47zM199 704h54l-98 -134h-46z" />
    <glyph glyph-name="uni0326" unicode="&#x326;" horiz-adv-x="0" 
d="M-21 -59l45 1c-3 -53 -17 -103 -43 -151h-35c19 41 30 91 33 150z" />
    <glyph glyph-name="pi" unicode="&#x3c0;" horiz-adv-x="640" 
d="M605 -2l1 -1c-21 -7 -45 -10 -72 -10c-81 0 -121 53 -121 160v312h-221v-460h-47v460h-120v41h575v-41h-140v-311c0 -43 7 -73 20 -90s33 -26 60 -26c21 0 42 3 63 8z" />
    <glyph glyph-name="Wgrave" unicode="&#x1e80;" horiz-adv-x="957" 
d="M687 44l-1 -2c84 213 147 432 188 657h48c-27 -134 -57 -255 -90 -363s-73 -220 -121 -337h-52c-43 102 -78 201 -105 296s-53 204 -78 327c-24 -123 -50 -232 -77 -327s-62 -193 -105 -295h-52c-48 115 -88 226 -120 334s-62 230 -90 367h49c47 -237 110 -456 189 -656
c82 213 143 432 182 656h52c42 -231 103 -450 183 -657zM457 766l-99 134h54l91 -134h-46z" />
    <glyph glyph-name="wgrave" unicode="&#x1e81;" horiz-adv-x="785" 
d="M398 501h2c21 -146 70 -298 147 -457c41 83 74 160 98 231s41 146 51 226h47c-13 -88 -33 -171 -61 -249s-65 -162 -111 -252h-49c-61 121 -105 228 -132 321c-28 -101 -71 -208 -128 -321h-49c-46 89 -83 173 -110 251s-47 161 -60 250h47c21 -147 71 -299 149 -457
c63 127 107 246 131 357c-7 33 -13 66 -18 100h46zM363 584l-99 134h54l91 -134h-46z" />
    <glyph glyph-name="Wacute" unicode="&#x1e82;" horiz-adv-x="957" 
d="M687 44l-1 -2c84 213 147 432 188 657h48c-27 -134 -57 -255 -90 -363s-73 -220 -121 -337h-52c-43 102 -78 201 -105 296s-53 204 -78 327c-24 -123 -50 -232 -77 -327s-62 -193 -105 -295h-52c-48 115 -88 226 -120 334s-62 230 -90 367h49c47 -237 110 -456 189 -656
c82 213 143 432 182 656h52c42 -231 103 -450 183 -657zM547 900h54l-99 -134h-46z" />
    <glyph glyph-name="wacute" unicode="&#x1e83;" horiz-adv-x="785" 
d="M398 501h2c21 -146 70 -298 147 -457c41 83 74 160 98 231s41 146 51 226h47c-13 -88 -33 -171 -61 -249s-65 -162 -111 -252h-49c-61 121 -105 228 -132 321c-28 -101 -71 -208 -128 -321h-49c-46 89 -83 173 -110 251s-47 161 -60 250h47c21 -147 71 -299 149 -457
c63 127 107 246 131 357c-7 33 -13 66 -18 100h46zM453 718h54l-99 -134h-46z" />
    <glyph glyph-name="Wdieresis" unicode="&#x1e84;" horiz-adv-x="957" 
d="M687 44l-1 -2c84 213 147 432 188 657h48c-27 -134 -57 -255 -90 -363s-73 -220 -121 -337h-52c-43 102 -78 201 -105 296s-53 204 -78 327c-24 -123 -50 -232 -77 -327s-62 -193 -105 -295h-52c-48 115 -88 226 -120 334s-62 230 -90 367h49c47 -237 110 -456 189 -656
c82 213 143 432 182 656h52c42 -231 103 -450 183 -657zM434 832v-3c0 -11 -3 -20 -9 -27s-15 -10 -26 -10s-20 4 -26 11s-9 16 -9 27c0 10 3 19 9 26s15 11 26 11s20 -3 26 -10s9 -15 9 -25zM590 829v-3c0 -11 -3 -20 -9 -27s-14 -10 -25 -10c-12 0 -21 4 -27 11
s-9 16 -9 27c0 10 3 19 9 26s15 11 27 11c11 0 19 -3 25 -10s9 -15 9 -25z" />
    <glyph glyph-name="wdieresis" unicode="&#x1e85;" horiz-adv-x="785" 
d="M398 501h2c21 -146 70 -298 147 -457c41 83 74 160 98 231s41 146 51 226h47c-13 -88 -33 -171 -61 -249s-65 -162 -111 -252h-49c-61 121 -105 228 -132 321c-28 -101 -71 -208 -128 -321h-49c-46 89 -83 173 -110 251s-47 161 -60 250h47c21 -147 71 -299 149 -457
c63 127 107 246 131 357c-7 33 -13 66 -18 100h46zM339 650v-3c0 -11 -3 -20 -9 -27s-15 -10 -26 -10s-20 4 -26 11s-9 16 -9 27c0 10 3 19 9 26s15 11 26 11s20 -3 26 -10s9 -15 9 -25zM495 647v-3c0 -11 -3 -20 -9 -27s-14 -10 -25 -10c-12 0 -21 4 -27 11s-9 16 -9 27
c0 10 3 19 9 26s15 11 27 11c11 0 19 -3 25 -10s9 -15 9 -25z" />
    <glyph glyph-name="Ygrave" unicode="&#x1ef2;" horiz-adv-x="569" 
d="M261 0l1 304c-56 71 -103 137 -141 198s-72 127 -103 198h52c49 -115 121 -235 216 -360c93 121 164 241 214 360h51c-59 -136 -140 -268 -242 -396v-304h-48zM267 770l-99 134h54l91 -134h-46z" />
    <glyph glyph-name="ygrave" unicode="&#x1ef3;" horiz-adv-x="506" 
d="M286 5h-1c-58 -102 -133 -165 -224 -188l-11 42c77 19 139 68 186 147c-102 159 -166 324 -193 495h47c24 -147 81 -298 172 -454c43 79 78 154 104 225s46 147 59 229h47c-24 -154 -86 -319 -186 -496zM241 584l-99 134h54l91 -134h-46z" />
    <glyph glyph-name="endash" unicode="&#x2013;" 
d="M39 293v42h422v-42h-422z" />
    <glyph glyph-name="emdash" unicode="&#x2014;" horiz-adv-x="1000" 
d="M39 293v42h922v-42h-922z" />
    <glyph glyph-name="quoteleft" unicode="&#x2018;" horiz-adv-x="180" 
d="M101 515h-47c5 71 26 139 64 205h34c-29 -61 -46 -129 -51 -205z" />
    <glyph glyph-name="quoteright" unicode="&#x2019;" horiz-adv-x="180" 
d="M94 720l46 1c-4 -69 -25 -137 -64 -205h-33c27 57 44 125 51 204z" />
    <glyph glyph-name="quotesinglbase" unicode="&#x201a;" horiz-adv-x="180" 
d="M78 78h47c-5 -71 -26 -140 -64 -206h-34c29 61 46 130 51 206z" />
    <glyph glyph-name="quotedblleft" unicode="&#x201c;" horiz-adv-x="336" 
d="M257 515l-46 -1c4 71 25 139 64 205h33c-27 -57 -44 -125 -51 -204zM101 514h-47c5 71 26 139 64 205h34c-29 -61 -46 -129 -51 -205z" />
    <glyph glyph-name="quotedblright" unicode="&#x201d;" horiz-adv-x="336" 
d="M94 720l46 1c-4 -69 -25 -137 -64 -205h-33c27 57 44 125 51 204zM250 721l46 1c-4 -71 -25 -139 -64 -205h-33c27 57 44 125 51 204z" />
    <glyph glyph-name="quotedblbase" unicode="&#x201e;" horiz-adv-x="336" 
d="M78 78h47c-5 -71 -26 -140 -64 -206h-34c29 61 46 130 51 206zM234 78h47c-5 -71 -26 -140 -64 -206h-34c29 59 46 128 51 206z" />
    <glyph glyph-name="dagger" unicode="&#x2020;" horiz-adv-x="555" 
d="M58 436l1 42c2 0 69 -1 201 -3c-3 76 -4 135 -4 178c0 20 1 49 2 88h41c1 -39 2 -68 2 -88c0 -43 -1 -102 -4 -178c130 2 197 3 200 3v-42c-47 0 -114 1 -201 2c3 -77 4 -137 4 -179v-459h-45v459c0 41 1 101 4 180c-66 -2 -133 -3 -201 -3z" />
    <glyph glyph-name="daggerdbl" unicode="&#x2021;" horiz-adv-x="555" 
d="M58 436v43c2 0 69 -1 201 -3c-3 76 -4 135 -4 178c0 20 1 49 2 88h41c1 -39 2 -68 2 -88c0 -43 -1 -102 -4 -178c130 2 197 3 200 3v-42c-47 0 -114 1 -201 2c3 -75 4 -131 4 -168c0 -26 -1 -58 -2 -96s-2 -62 -2 -73c87 1 154 2 201 2v-41c-3 0 -70 1 -200 3
c3 -76 4 -135 4 -178c0 -22 -1 -52 -2 -91h-41c-1 39 -2 69 -2 91c0 43 1 102 4 178c-132 -2 -199 -3 -201 -3v41c68 0 135 -1 201 -3c0 11 -1 36 -2 74s-2 70 -2 96c0 36 1 92 4 168c-66 -2 -133 -3 -201 -3z" />
    <glyph glyph-name="bullet" unicode="&#x2022;" horiz-adv-x="241" 
d="M190 352v-1c0 -21 -6 -38 -18 -52s-29 -21 -50 -21c-22 0 -39 7 -52 21s-19 32 -19 53c0 20 6 37 19 50s30 20 52 20c21 0 38 -7 50 -20s18 -30 18 -50z" />
    <glyph glyph-name="ellipsis" unicode="&#x2026;" horiz-adv-x="631" 
d="M60 30v-1c0 11 3 20 10 27s16 10 27 10s20 -3 26 -10s9 -16 9 -27s-3 -20 -9 -27s-15 -10 -26 -10s-20 4 -27 11s-10 16 -10 27zM279 29v-1c0 11 3 20 10 27s16 10 27 10s20 -3 26 -10s9 -16 9 -27s-3 -20 -9 -27s-15 -10 -26 -10s-20 4 -27 11s-10 16 -10 27zM498 28v-1
c0 11 3 20 10 27s16 10 27 10s20 -3 26 -10s9 -16 9 -27s-3 -20 -9 -27s-15 -10 -26 -10s-20 4 -27 11s-10 16 -10 27z" />
    <glyph glyph-name="perthousand" unicode="&#x2030;" horiz-adv-x="1171" 
d="M345 518c0 -50 -13 -90 -40 -120s-63 -45 -108 -45c-43 0 -78 15 -105 45s-40 70 -40 120c0 49 13 89 40 119s62 45 105 45c45 0 81 -15 108 -45s40 -70 40 -119zM97 518l-2 1c0 -39 9 -70 26 -93s42 -34 75 -34c34 0 60 11 77 33s26 53 26 93c0 39 -8 70 -25 93
s-42 34 -76 34c-33 0 -58 -11 -75 -34s-26 -54 -26 -93zM548 672h44l-327 -671h-43zM762 155h-1c0 -50 -13 -90 -39 -120s-61 -45 -106 -45c-44 0 -79 15 -106 45s-40 70 -40 120c0 49 13 89 40 119s62 45 106 45s79 -15 106 -45s40 -70 40 -119zM513 155h-2
c0 -39 9 -70 26 -93s42 -34 75 -34c34 0 60 11 77 34s26 54 26 93s-8 70 -25 93s-42 34 -76 34c-33 0 -58 -11 -75 -34s-26 -54 -26 -93zM1113 155h-2c0 -50 -13 -90 -39 -120s-61 -45 -106 -45c-43 0 -78 15 -105 45s-40 70 -40 120c0 49 14 89 41 119s62 45 105 45
c44 0 79 -15 106 -45s40 -70 40 -119zM864 155h-2c0 -39 9 -70 26 -93s42 -34 75 -34c34 0 60 11 77 34s26 54 26 93s-8 70 -25 93s-42 34 -76 34c-33 0 -58 -11 -75 -34s-26 -54 -26 -93z" />
    <glyph glyph-name="guilsinglleft" unicode="&#x2039;" horiz-adv-x="322" 
d="M218 64l-1 1c-60 53 -124 120 -193 201c65 77 129 145 193 203h60c-70 -65 -135 -133 -194 -203c57 -67 122 -134 195 -202h-60z" />
    <glyph glyph-name="guilsinglright" unicode="&#x203a;" horiz-adv-x="322" 
d="M104 64l-61 1c77 73 142 140 195 202c-55 65 -120 133 -194 203h60c61 -55 125 -123 193 -204c-73 -85 -137 -152 -193 -202z" />
    <glyph glyph-name="fraction" unicode="&#x2044;" horiz-adv-x="105" 
d="M223 700h46l-388 -700h-46z" />
    <glyph glyph-name="zero.superior" unicode="&#x2070;" horiz-adv-x="315" 
d="M296 536l-3 -2c0 -57 -12 -101 -36 -132s-58 -46 -101 -46s-77 16 -102 47s-37 75 -37 132c0 55 13 98 38 129s59 47 102 47s77 -15 102 -46s37 -74 37 -129zM60 534c0 -93 32 -139 95 -139s94 46 94 139c0 91 -31 137 -94 137s-95 -46 -95 -137z" />
    <glyph glyph-name="four.superior" unicode="&#x2074;" horiz-adv-x="315" 
d="M20 433l1 31c49 85 108 165 177 240h41v-236h53v-35h-53v-67h-41v67h-178zM199 555c0 41 1 77 4 109c-58 -71 -106 -136 -143 -196h139v87z" />
    <glyph glyph-name="Euro" unicode="&#x20ac;" horiz-adv-x="615" 
d="M429 -12c-82 0 -148 23 -198 68s-82 108 -96 188h-100v40h94c-1 23 -2 41 -2 54s1 32 2 56h-94v39h100c13 79 44 141 92 185s111 66 190 66c43 0 88 -8 135 -23l-11 -41c-42 14 -83 21 -122 21c-65 0 -117 -18 -157 -55s-66 -88 -79 -153h283l-5 -39h-283
c-2 -18 -3 -37 -3 -56s1 -37 3 -54h276l-5 -40h-265c13 -66 40 -118 81 -156s96 -57 164 -57c39 0 80 6 123 19l9 -41c-43 -14 -87 -21 -132 -21z" />
    <glyph glyph-name="uni20B9" unicode="&#x20b9;" horiz-adv-x="539" 
d="M59 278l1 42h71c71 0 124 12 158 36s51 64 51 120h-281v39h279c-3 32 -12 71 -27 117h-252v39h431v-39h-132c14 -41 23 -80 26 -117h106v-39h-104c0 -132 -85 -198 -255 -198h-12l249 -278h-61z" />
    <glyph glyph-name="uni2113" unicode="&#x2113;" horiz-adv-x="502" 
d="M47 78l-21 37l98 57c-12 45 -18 100 -18 165c0 120 18 213 54 278s85 98 146 98c42 0 75 -15 100 -45s37 -72 37 -127c0 -83 -21 -154 -64 -213s-109 -116 -198 -171l-4 -2c27 -83 78 -124 152 -124c37 0 71 7 102 20v-45c-31 -12 -65 -18 -103 -18
c-91 0 -155 48 -191 143zM154 338h-2c0 -53 4 -100 12 -141c79 47 137 97 174 149s55 115 55 189c0 46 -8 80 -24 102s-37 33 -64 33c-51 0 -89 -30 -114 -91s-37 -141 -37 -241z" />
    <glyph glyph-name="trademark" unicode="&#x2122;" horiz-adv-x="728" 
d="M132 366v299h-116v35h273v-35h-117v-299h-40zM333 700l44 1c28 -65 71 -147 130 -246c47 77 89 159 126 246h44v-334h-38v215l3 56c-33 -77 -72 -150 -116 -220h-35c-53 85 -94 159 -123 222l2 -59v-215h-37v334z" />
    <glyph glyph-name="uni2126" unicode="&#x2126;" horiz-adv-x="708" 
d="M72 0l1 38h124c-86 65 -129 168 -129 309c0 106 24 193 72 260s120 101 215 101s167 -34 215 -101s72 -153 72 -258c0 -69 -11 -130 -33 -183s-54 -95 -96 -126h123v-43h-211v39c53 13 94 49 123 108s44 127 44 204c0 60 -8 113 -23 159s-41 84 -78 114s-82 45 -136 45
c-81 0 -141 -30 -180 -89s-58 -135 -58 -228c0 -77 14 -145 43 -204s70 -94 124 -106v-39h-212z" />
    <glyph glyph-name="estimated" unicode="&#x212e;" horiz-adv-x="707" 
d="M550 276l1 152c0 7 -3 13 -8 18c-51 52 -113 78 -186 78c-75 0 -137 -27 -187 -81c-5 -4 -8 -10 -8 -19v-148c0 -3 1 -4 4 -4h381c2 0 3 1 3 4zM663 258l-496 -1c-3 0 -4 -1 -4 -3v-150c0 -7 2 -13 7 -18c51 -53 114 -80 188 -80c80 0 146 30 197 90h44
c-63 -71 -144 -107 -243 -107c-85 0 -157 27 -217 81s-90 119 -90 195s30 141 90 195s132 81 217 81s157 -27 217 -81s90 -119 90 -195v-7z" />
    <glyph glyph-name="partialdiff" unicode="&#x2202;" horiz-adv-x="554" 
d="M229 -12v-2c-59 0 -104 17 -135 52s-46 83 -46 144c0 91 25 169 75 233s114 96 192 96c49 0 91 -18 126 -54c-20 52 -50 100 -90 144s-86 77 -139 100l65 4c62 -29 115 -74 158 -136s65 -132 65 -211c0 -113 -24 -203 -73 -270s-115 -100 -198 -100zM97 183h-3
c0 -49 12 -87 35 -114s58 -40 105 -40c67 0 120 28 159 85s58 124 58 202c0 102 -47 153 -140 153c-65 0 -117 -28 -156 -85s-58 -124 -58 -201z" />
    <glyph glyph-name="uni2206" unicode="&#x2206;" horiz-adv-x="594" 
d="M20 0v39l253 661h48l253 -661v-39h-554zM524 42l-227 608l-229 -608h456z" />
    <glyph glyph-name="product" unicode="&#x220f;" horiz-adv-x="713" 
d="M675 657h-100v-787h-48v787h-341v-787h-48v787h-100v43h637v-43z" />
    <glyph glyph-name="summation" unicode="&#x2211;" horiz-adv-x="549" 
d="M520 -130h-491v40l294 376l-274 374v40h450v-43h-392l258 -349v-45l-278 -350h433v-43z" />
    <glyph glyph-name="minus" unicode="&#x2212;" horiz-adv-x="497" 
d="M35 322v42h427v-42h-427z" />
    <glyph glyph-name="uni2215" unicode="&#x2215;" horiz-adv-x="105" 
d="M223 700h46l-388 -700h-46z" />
    <glyph glyph-name="radical" unicode="&#x221a;" horiz-adv-x="503" 
d="M193 0l-97 261h-69v43h100l90 -255l212 651h46l-233 -700h-49z" />
    <glyph glyph-name="infinity" unicode="&#x221e;" horiz-adv-x="781" 
d="M39 327v-4c0 50 15 90 45 121s69 46 116 46c41 0 76 -11 104 -34s58 -56 90 -100c31 44 60 77 87 100s61 34 102 34c44 0 81 -15 112 -46s46 -71 46 -120c0 -50 -15 -90 -45 -121s-66 -46 -108 -46s-77 11 -105 34s-58 57 -91 102c-34 -47 -66 -81 -96 -102
s-63 -32 -100 -32c-43 0 -80 15 -111 45s-46 71 -46 123zM200 448h-4c-35 0 -63 -12 -84 -35s-31 -54 -31 -92c0 -37 11 -67 33 -90s49 -34 81 -34c25 0 48 7 70 20s39 27 52 41s30 36 51 65c-16 21 -28 37 -37 48s-21 24 -36 38s-30 24 -45 30s-32 9 -50 9zM413 324l-1 -3
c16 -22 28 -38 36 -48s20 -22 35 -37s30 -25 46 -31s33 -9 52 -9c33 0 60 11 81 34s31 53 31 90c0 39 -10 70 -31 93s-49 34 -84 34c-33 0 -61 -10 -84 -30s-50 -51 -81 -93z" />
    <glyph glyph-name="integral" unicode="&#x222b;" horiz-adv-x="411" 
d="M380 680h-1c-25 6 -45 9 -60 9c-33 0 -56 -10 -70 -30s-21 -49 -21 -88v-602c0 -107 -45 -161 -135 -161c-23 0 -48 4 -74 11l11 41c24 -6 44 -9 60 -9c33 0 57 10 71 30s21 49 21 87v603c0 107 45 160 135 160c23 0 48 -4 74 -11z" />
    <glyph glyph-name="approxequal" unicode="&#x2248;" horiz-adv-x="497" 
d="M463 458c-26 -62 -66 -93 -119 -93c-29 0 -61 9 -97 28s-65 28 -86 28c-43 0 -74 -22 -93 -65l-33 17c9 29 25 52 47 68s48 24 77 24c27 0 59 -9 95 -28s65 -28 87 -28c36 0 66 22 89 66zM463 311v-1c-27 -62 -67 -93 -120 -93c-29 0 -61 10 -97 29s-65 29 -86 29
c-43 0 -74 -22 -93 -65l-33 17c9 29 25 52 47 68s48 24 77 24c27 0 59 -9 95 -28s65 -28 87 -28c37 0 67 22 90 65z" />
    <glyph glyph-name="notequal" unicode="&#x2260;" horiz-adv-x="497" 
d="M347 585h46l-66 -132h135v-42h-156l-68 -137h224v-43h-246l-66 -132h-45l66 132h-136v43h157l68 137h-225v42h246z" />
    <glyph glyph-name="lessequal" unicode="&#x2264;" horiz-adv-x="497" 
d="M35 33v42h427v-42h-427zM462 169l-427 165v49l427 166v-49l-372 -141l372 -141v-49z" />
    <glyph glyph-name="greaterequal" unicode="&#x2265;" horiz-adv-x="497" 
d="M462 33h-427v42h427v-42zM35 169v49l372 141l-372 141v49l427 -166v-49z" />
    <glyph glyph-name="lozenge" unicode="&#x25ca;" horiz-adv-x="482" 
d="M241 40l164 252l-164 253l-165 -253zM216 0l-193 291l193 295h49l194 -295l-194 -291h-49z" />
    <glyph glyph-name=".null" horiz-adv-x="0" 
 />
    <glyph glyph-name="nonmarkingreturn" horiz-adv-x="333" 
 />
    <glyph glyph-name="ITF" horiz-adv-x="1730" 
d="M106 0v700h216v-700h-216zM367 496v204h216v-204h-216zM627 0v700h217v-700h-217zM888 496v204h216v-204h-216zM1148 0v700h217v-700h-217zM1409 496v204h216v-204h-216zM1409 247v205h216v-205h-216z" />
    <glyph glyph-name="caron.alt" 
d="M147 709h44c-5 -63 -22 -121 -51 -174h-35c22 47 36 105 42 174z" />
    <glyph glyph-name="uni0326.alt" horiz-adv-x="0" 
d="M22 570l-44 -1c6 59 22 107 48 144h35c-19 -33 -32 -81 -39 -143z" />
    </font>
</defs>
</svg>
