<?xml version="1.0" standalone="no"?>
<!DOCTYPE svg PUBLIC "-//W3C//DTD SVG 1.1//EN" "http://www.w3.org/Graphics/SVG/1.1/DTD/svg11.dtd" >
<svg>
<metadata>
Created by FontForge 20120731 at Fri Jul  7 16:35:12 2017
 By www-data
Copyright \(c\) 2015 by Indian Type Foundry. All rights reserved.
</metadata>
<defs>
<font id="Diodrum-Semibold" horiz-adv-x="500" >
  <font-face 
    font-family="Diodrum"
    font-weight="600"
    font-stretch="normal"
    units-per-em="1000"
    panose-1="2 0 0 0 0 0 0 0 0 0"
    ascent="794"
    descent="-206"
    x-height="511"
    cap-height="700"
    bbox="-198 -240 1591 995"
    underline-thickness="50"
    underline-position="-50"
    unicode-range="U+0020-FB02"
  />
<missing-glyph horiz-adv-x="740" 
d="M158 0v701h425v-701h-425zM229 635v-569h283v569h-283z" />
    <glyph glyph-name="fi" unicode="fi" horiz-adv-x="594" 
d="M19 511h67v21c0 62 15 111 45 147s74 54 133 54c30 0 58 -4 84 -11l-19 -108c-16 3 -30 4 -42 4c-24 0 -40 -7 -49 -21s-13 -35 -13 -62v-24h302v-511h-137v401h-165v-401h-138v401h-68v110zM379 656h-1c0 23 7 42 21 56s34 21 59 21s45 -7 59 -21s21 -33 21 -56
s-7 -42 -21 -56s-33 -21 -58 -21s-45 7 -59 21s-21 33 -21 56z" />
    <glyph glyph-name="fl" unicode="fl" horiz-adv-x="640" 
d="M19 511h66v22c0 63 18 112 54 147s91 53 164 53c76 0 150 -10 222 -29v-519c0 -55 18 -83 54 -83c10 0 20 1 29 3l10 -109c-25 -5 -48 -8 -69 -8c-107 0 -161 65 -161 195v431c-25 3 -44 4 -57 4c-71 0 -106 -27 -106 -82v-25h102v-110h-102v-401h-138v401h-68v110z" />
    <glyph glyph-name=".notdef" horiz-adv-x="740" 
d="M158 0v701h425v-701h-425zM229 635v-569h283v569h-283z" />
    <glyph glyph-name="space" unicode=" " horiz-adv-x="237" 
 />
    <glyph glyph-name="exclam" unicode="!" horiz-adv-x="321" 
d="M239 700v-176c0 -81 -9 -180 -26 -297h-106c-17 112 -25 211 -25 297v176h157zM240 67v-1c0 -24 -7 -43 -21 -57s-33 -21 -58 -21s-45 7 -59 21s-21 33 -21 57c0 23 7 42 21 56s34 21 59 21s44 -7 58 -21s21 -32 21 -55z" />
    <glyph glyph-name="quotedbl" unicode="&#x22;" horiz-adv-x="410" 
d="M254 447l-3 1c-1 14 -3 34 -5 60s-4 47 -5 63s-2 36 -3 60s-2 47 -2 70h128c0 -29 -1 -57 -3 -85s-4 -59 -7 -93s-5 -59 -6 -76h-94zM59 448l-3 1c-1 14 -3 34 -5 60s-4 47 -5 63s-2 36 -3 60s-2 47 -2 70h128c0 -29 -1 -57 -3 -85s-4 -59 -7 -93s-5 -59 -6 -76h-94z" />
    <glyph glyph-name="numbersign" unicode="#" horiz-adv-x="684" 
d="M338 0l36 162h-144l-36 -162h-114l36 162h-86v104h109l32 139h-90v105h113l36 161h114l-36 -161h144l36 161h115l-36 -161h87v-105h-110l-32 -139h92v-104h-115l-36 -162h-115zM397 266l32 139h-144l-32 -139h144z" />
    <glyph glyph-name="dollar" unicode="$" horiz-adv-x="567" 
d="M471 655l-24 -120c-49 15 -99 22 -150 22c-69 0 -104 -22 -104 -66c0 -22 9 -38 28 -49s58 -26 117 -45c61 -19 107 -44 138 -75s47 -75 47 -133c0 -111 -58 -177 -173 -198v-113h-126v107c-63 4 -121 16 -174 35l22 120c71 -22 135 -33 192 -33c41 0 71 6 90 18
s29 32 29 61c0 25 -11 45 -33 59s-61 29 -117 45c-60 17 -105 41 -135 72s-45 74 -45 129c0 50 16 91 47 123s73 53 126 63v110h126v-108c40 -3 80 -11 119 -24z" />
    <glyph glyph-name="percent" unicode="%" horiz-adv-x="868" 
d="M367 511v-1c0 -55 -15 -98 -45 -129s-70 -46 -120 -46s-90 15 -120 46s-45 74 -45 129c0 53 15 95 46 126s71 47 120 47s89 -15 119 -46s45 -73 45 -126zM144 510c0 -57 19 -85 58 -85c38 0 57 28 57 85c0 56 -19 84 -57 84c-39 0 -58 -28 -58 -84zM561 670h105
l-359 -671h-105zM832 161v-2c0 -54 -15 -96 -45 -127s-70 -46 -120 -46c-49 0 -89 16 -119 47s-45 74 -45 128c0 53 15 95 45 126s70 46 119 46c50 0 90 -15 120 -46s45 -73 45 -126zM609 159c0 -57 19 -85 57 -85c39 0 58 28 58 85c0 56 -19 84 -58 84
c-38 0 -57 -28 -57 -84z" />
    <glyph glyph-name="ampersand" unicode="&#x26;" horiz-adv-x="741" 
d="M258 528l-3 -1c0 -33 15 -67 46 -103c30 13 54 28 71 45s26 38 26 63c0 20 -6 36 -18 48s-30 18 -54 18c-21 0 -38 -6 -50 -18s-18 -29 -18 -52zM557 -1l-58 55c-61 -45 -131 -67 -210 -67c-78 0 -139 18 -184 55s-67 88 -67 153c0 81 47 143 140 186
c-37 49 -55 99 -55 150c0 54 18 98 55 131s86 50 147 50s109 -15 145 -45s54 -69 54 -118c0 -46 -13 -85 -39 -116s-64 -58 -115 -81l125 -124c19 35 33 80 41 135h128c-9 -85 -36 -159 -81 -223l142 -141h-168zM294 106v-4c47 0 87 10 120 31l-134 130l-12 12l-13 13
s-7 8 -10 11c-45 -23 -67 -56 -67 -99c0 -29 11 -52 33 -69s50 -25 83 -25z" />
    <glyph glyph-name="quotesingle" unicode="'" horiz-adv-x="218" 
d="M62 447l-3 1c-1 14 -3 34 -5 60s-4 47 -5 63s-2 36 -3 60s-2 47 -2 70h128c0 -29 -1 -57 -3 -85s-4 -59 -7 -93s-5 -59 -6 -76h-94z" />
    <glyph glyph-name="parenleft" unicode="(" horiz-adv-x="332" 
d="M313 761v2c-40 -69 -71 -139 -93 -210s-33 -152 -33 -243s11 -172 33 -243s53 -141 93 -210h-135c-37 53 -68 119 -93 197s-38 163 -38 255s13 177 38 255s56 144 93 197h135z" />
    <glyph glyph-name="parenright" unicode=")" horiz-adv-x="332" 
d="M146 309l-1 -2c0 91 -11 172 -33 243s-53 141 -92 210h135c37 -53 68 -119 93 -197s38 -163 38 -255s-12 -177 -37 -255s-56 -144 -93 -197h-135c39 69 70 139 92 210s33 152 33 243z" />
    <glyph glyph-name="asterisk" unicode="*" horiz-adv-x="386" 
d="M147 736h94c0 -33 -2 -68 -5 -106c47 19 80 32 99 38l27 -87c-29 -9 -63 -18 -103 -27c28 -31 51 -59 70 -84l-74 -54c-25 33 -46 63 -63 90c-23 -37 -43 -67 -60 -90l-74 55c20 27 43 54 69 82c-38 9 -72 18 -102 28l28 86c37 -12 70 -24 99 -37c-3 38 -5 73 -5 106z
" />
    <glyph glyph-name="plus" unicode="+" horiz-adv-x="543" 
d="M39 282v119h170v174h126v-174h169v-119h-169v-179h-126v179h-170z" />
    <glyph glyph-name="comma" unicode="," horiz-adv-x="257" 
d="M71 135h131c-1 -49 -10 -99 -28 -150s-40 -95 -65 -133h-74c21 91 33 185 36 283z" />
    <glyph glyph-name="hyphen" unicode="-" horiz-adv-x="352" 
d="M40 262v116h272v-116h-272z" />
    <glyph glyph-name="period" unicode="." horiz-adv-x="257" 
d="M129 -11v-2c-26 0 -46 7 -60 21s-21 33 -21 58c0 23 7 42 21 56s34 21 59 21s45 -7 59 -21s21 -32 21 -55c0 -24 -7 -43 -21 -57s-33 -21 -58 -21z" />
    <glyph glyph-name="slash" unicode="/" horiz-adv-x="497" 
d="M327 755h138l-295 -811h-138z" />
    <glyph glyph-name="zero" unicode="0" horiz-adv-x="622" 
d="M312 -12l2 -2c-47 0 -88 9 -123 27s-62 43 -82 75s-35 68 -45 108s-15 85 -15 134s5 94 15 135s25 78 45 111s48 59 83 77s76 27 123 27c61 0 112 -16 152 -49s68 -74 84 -124s24 -108 24 -175c0 -49 -5 -94 -15 -134s-25 -76 -45 -108s-47 -57 -82 -75s-75 -27 -121 -27
zM314 106c79 0 118 75 118 226c0 153 -39 229 -118 229c-81 0 -121 -76 -121 -229c0 -151 40 -226 121 -226z" />
    <glyph glyph-name="one" unicode="1" horiz-adv-x="402" 
d="M67 462l-59 107c59 41 125 75 198 102h125v-671h-141v527c-43 -20 -84 -42 -123 -65z" />
    <glyph glyph-name="two" unicode="2" horiz-adv-x="525" 
d="M35 0v112l105 100c63 59 107 107 133 144s39 75 39 114c0 61 -31 91 -93 91c-41 0 -85 -17 -132 -50l-61 99c58 47 128 71 209 71c70 0 124 -17 162 -52s57 -83 57 -145c0 -60 -20 -118 -60 -174s-95 -115 -164 -177l-16 -14h275v-119h-454z" />
    <glyph glyph-name="three" unicode="3" horiz-adv-x="512" 
d="M32 30l36 109c43 -21 90 -32 141 -32c37 0 66 8 86 24s30 40 30 71c0 30 -11 51 -33 63s-55 18 -100 18h-53v117h38c81 0 122 28 122 84c0 26 -9 45 -27 58s-42 19 -72 19c-40 0 -79 -13 -116 -40l-57 99c55 41 121 61 197 61c69 0 123 -15 161 -46s57 -73 57 -127
c0 -71 -32 -123 -95 -156c81 -29 121 -84 121 -165c0 -65 -23 -114 -68 -148s-105 -51 -179 -51s-137 14 -189 42z" />
    <glyph glyph-name="four" unicode="4" horiz-adv-x="612" 
d="M489 247h97v-116h-98v-131h-133v131h-331v105c83 162 190 311 321 446h144v-435zM364 543v-1c-77 -99 -144 -198 -200 -296h191v102c0 49 3 114 9 195z" />
    <glyph glyph-name="five" unicode="5" horiz-adv-x="538" 
d="M445 552h-243l-10 -124c18 2 37 3 58 3c81 0 143 -19 185 -57s63 -90 63 -156c0 -72 -24 -128 -72 -169s-113 -61 -196 -61c-74 0 -142 16 -203 48l40 110c58 -25 112 -38 162 -38c84 0 126 36 126 108c0 65 -50 98 -150 98c-45 0 -93 -5 -145 -16l35 373h350v-119z" />
    <glyph glyph-name="six" unicode="6" horiz-adv-x="583" 
d="M480 666l-26 -115c-32 7 -61 11 -87 11c-99 0 -157 -58 -174 -174c44 28 94 42 149 42c63 0 113 -19 150 -57s55 -88 55 -149c0 -73 -21 -131 -63 -173s-100 -63 -174 -63c-81 0 -145 30 -192 89s-70 134 -70 225c0 52 6 101 18 146s30 85 54 121s56 64 96 84
s86 30 138 30c50 0 92 -6 126 -17zM310 106l-1 -2c31 0 55 10 71 30s24 46 24 78c0 65 -36 97 -107 97c-33 0 -70 -10 -111 -30c3 -54 15 -96 36 -127s50 -46 88 -46z" />
    <glyph glyph-name="seven" unicode="7" horiz-adv-x="488" 
d="M232 0l-150 1c53 193 128 377 225 552h-282v119h432v-105c-107 -217 -182 -406 -225 -567z" />
    <glyph glyph-name="eight" unicode="8" horiz-adv-x="597" 
d="M548 193l1 -1c0 -63 -22 -113 -67 -150s-107 -55 -186 -55c-73 0 -132 17 -178 51s-69 81 -69 141c0 71 32 123 96 157c-53 37 -80 87 -80 151c0 59 22 106 65 142s99 54 167 54c76 0 134 -17 174 -52s60 -80 60 -135c0 -64 -28 -114 -83 -150c67 -37 100 -88 100 -153z
M320 396h1c5 -1 12 -3 21 -6c34 27 51 60 51 98c0 25 -8 45 -25 60s-40 23 -70 23c-27 0 -49 -7 -66 -21s-25 -33 -25 -57c0 -25 9 -45 27 -59s47 -27 86 -38zM303 97l-1 -3c33 0 59 7 78 22s29 36 29 63s-10 47 -31 60s-58 27 -111 42c-1 1 -3 2 -6 3s-5 2 -7 3
c-41 -25 -61 -58 -61 -99c0 -29 10 -51 31 -67s47 -24 79 -24z" />
    <glyph glyph-name="nine" unicode="9" horiz-adv-x="579" 
d="M281 349l-1 -1c42 0 80 9 115 26c-3 125 -42 188 -117 188c-31 0 -56 -10 -74 -30s-27 -48 -27 -84c0 -30 9 -54 26 -72s43 -27 78 -27zM76 8l22 116c38 -11 75 -17 112 -17c57 0 99 13 127 38s46 64 54 117c-40 -23 -86 -34 -137 -34c-70 0 -124 20 -161 60
s-56 93 -56 160c0 70 22 127 66 170s102 65 173 65c85 0 150 -29 194 -88s66 -138 66 -237c0 -57 -5 -107 -16 -150s-28 -82 -52 -116s-57 -60 -99 -78s-92 -27 -151 -27c-53 0 -100 7 -142 21z" />
    <glyph glyph-name="colon" unicode=":" horiz-adv-x="289" 
d="M225 67l1 -2c0 -24 -7 -43 -21 -57s-34 -21 -59 -21c-26 0 -46 7 -60 21s-21 33 -21 58c0 23 7 42 21 56s34 21 59 21s45 -7 59 -21s21 -32 21 -55zM226 435l1 -2c0 -24 -7 -43 -21 -57s-34 -21 -59 -21c-26 0 -46 7 -60 21s-21 33 -21 58c0 23 7 42 21 56s34 21 59 21
s45 -7 59 -21s21 -32 21 -55z" />
    <glyph glyph-name="semicolon" unicode=";" horiz-adv-x="289" 
d="M225 437l1 -2c0 -24 -7 -43 -21 -57s-34 -21 -59 -21c-26 0 -46 7 -60 21s-21 33 -21 58c0 23 7 42 21 56s34 21 59 21s45 -7 59 -21s21 -32 21 -55zM85 133h132c-1 -49 -10 -99 -28 -150s-40 -95 -65 -133h-75c21 95 33 189 36 283z" />
    <glyph glyph-name="less" unicode="&#x3c;" horiz-adv-x="543" 
d="M504 103l-465 172v133l465 172v-137l-311 -102l311 -102v-136z" />
    <glyph glyph-name="equal" unicode="=" horiz-adv-x="543" 
d="M39 188v119h465v-119h-465zM39 376v118h465v-118h-465z" />
    <glyph glyph-name="greater" unicode="&#x3e;" horiz-adv-x="543" 
d="M39 103v136l311 102l-311 102v137l465 -172v-133z" />
    <glyph glyph-name="question" unicode="?" horiz-adv-x="455" 
d="M190 143l-1 -1c25 0 45 -7 59 -21s21 -32 21 -55c0 -24 -7 -43 -21 -57s-33 -21 -58 -21s-45 7 -59 21s-21 33 -21 57c0 23 7 42 21 56s34 21 59 21zM46 559l-33 120c53 23 108 34 165 34c76 0 135 -17 176 -51s62 -81 62 -140c0 -57 -23 -106 -69 -147
c-6 -6 -17 -16 -33 -30s-28 -25 -35 -32s-14 -17 -21 -31s-10 -28 -10 -43v-10h-127v32c0 49 22 92 66 129c3 3 9 8 17 14s14 11 18 14s9 8 15 14s11 11 14 15s6 9 10 15s7 13 8 20s2 14 2 21c0 55 -35 82 -105 82c-33 0 -73 -9 -120 -26z" />
    <glyph glyph-name="at" unicode="@" horiz-adv-x="957" 
d="M392 188c0 -30 7 -54 21 -71s34 -26 61 -26c23 0 45 6 66 17c-7 28 -8 60 -3 96l13 103c-18 4 -36 6 -54 6c-32 0 -57 -11 -76 -33s-28 -53 -28 -92zM489 531l-3 -4c-99 0 -178 -31 -238 -94s-90 -146 -90 -249c0 -105 30 -184 90 -237s140 -79 239 -79
c69 0 141 11 216 32l16 -101c-74 -26 -153 -39 -236 -39c-139 0 -248 38 -327 114s-118 180 -118 311c0 61 10 118 30 172s48 102 85 144s85 75 143 100s123 37 195 37c130 0 233 -34 309 -103s114 -157 114 -264c0 -85 -17 -153 -52 -205s-87 -78 -157 -78
c-58 0 -101 19 -129 57c-35 -38 -78 -57 -129 -57c-56 0 -99 18 -129 54s-45 84 -45 144c0 67 20 122 59 164s93 63 161 63c58 0 117 -11 177 -33l-22 -203c-7 -59 15 -89 66 -89c28 0 49 17 62 51s20 77 20 130c0 83 -27 147 -82 193s-130 69 -225 69z" />
    <glyph glyph-name="A" unicode="A" horiz-adv-x="666" 
d="M333 548c-24 -52 -55 -143 -94 -272h187c-40 134 -71 225 -93 272zM504 0l-42 153h-258c-14 -47 -28 -98 -42 -154h-147c80 293 161 526 243 700h149c85 -179 166 -412 244 -699h-147z" />
    <glyph glyph-name="B" unicode="B" horiz-adv-x="607" 
d="M309 0l-239 1v700h216c81 0 144 -15 190 -46s69 -76 69 -135c0 -65 -26 -113 -77 -145c69 -32 103 -88 103 -167c0 -69 -23 -121 -69 -156s-110 -52 -193 -52zM209 302l1 -178h86c44 0 77 7 99 20s33 35 33 66c0 61 -40 92 -121 92h-98zM210 580v-169h103
c60 0 90 29 90 88c0 54 -38 81 -115 81h-78z" />
    <glyph glyph-name="C" unicode="C" horiz-adv-x="585" 
d="M372 -12l-2 1c-105 0 -186 32 -243 96s-86 151 -86 260c0 111 29 200 87 267s141 100 249 100c57 0 113 -12 169 -36l-32 -121c-59 21 -104 31 -135 31c-125 0 -188 -80 -188 -240c0 -155 62 -232 187 -232c47 0 96 13 147 39l28 -123c-53 -28 -113 -42 -181 -42z" />
    <glyph glyph-name="D" unicode="D" horiz-adv-x="691" 
d="M506 352c0 151 -68 226 -204 226h-87v-456h87c136 0 204 77 204 230zM72 0l-2 699h234c106 0 191 -31 254 -93s95 -147 95 -254c0 -109 -32 -195 -95 -258s-147 -94 -252 -94h-234z" />
    <glyph glyph-name="E" unicode="E" horiz-adv-x="553" 
d="M508 122v-122h-436v700h436v-122h-293v-162h250v-122h-250v-172h293z" />
    <glyph glyph-name="F" unicode="F" horiz-adv-x="536" 
d="M215 0h-143v700h426v-122h-283v-190h238v-122h-238v-266z" />
    <glyph glyph-name="G" unicode="G" horiz-adv-x="663" 
d="M609 43l-2 1c-71 -37 -145 -55 -221 -55c-108 0 -192 32 -253 96s-91 150 -91 257c0 111 31 200 94 268s149 102 258 102c71 0 134 -12 190 -36l-32 -120c-49 20 -101 30 -156 30c-67 0 -118 -21 -153 -64s-52 -103 -52 -180c0 -72 17 -128 52 -168s85 -60 151 -60
c28 0 56 3 85 10v155h-115v118h245v-354z" />
    <glyph glyph-name="H" unicode="H" horiz-adv-x="708" 
d="M636 0h-143v295h-278v-295h-143v700h143v-283h278v283h143v-700z" />
    <glyph glyph-name="I" unicode="I" horiz-adv-x="287" 
d="M72 0v700h143v-700h-143z" />
    <glyph glyph-name="J" unicode="J" horiz-adv-x="287" 
d="M-1 -102v-1c49 77 73 165 73 265v537h143v-545c0 -127 -31 -234 -92 -321z" />
    <glyph glyph-name="K" unicode="K" horiz-adv-x="647" 
d="M599 700l1 1c-30 -136 -97 -250 -200 -343l241 -357h-164l-183 278c-21 -14 -47 -29 -78 -46v-232h-143v700h143v-325c131 81 211 189 240 324h143z" />
    <glyph glyph-name="L" unicode="L" horiz-adv-x="532" 
d="M72 0v700h143v-578h283v-122h-426z" />
    <glyph glyph-name="M" unicode="M" horiz-adv-x="884" 
d="M665 700h147v-700h-131v334c0 47 2 90 7 128c-55 -118 -118 -232 -189 -341h-112c-75 117 -139 231 -191 342c5 -41 8 -84 8 -129v-334h-132v700h147c63 -154 138 -299 224 -436c82 130 156 275 222 436z" />
    <glyph glyph-name="N" unicode="N" horiz-adv-x="715" 
d="M204 0l-133 3v700h138c85 -165 187 -332 305 -501c-3 24 -4 53 -4 87v413h132v-700h-139c-67 89 -123 167 -168 234s-90 142 -135 225c3 -35 4 -75 4 -120v-341z" />
    <glyph glyph-name="O" unicode="O" horiz-adv-x="719" 
d="M676 350l-1 -2c0 -109 -28 -196 -84 -262s-133 -99 -232 -99s-176 33 -232 99s-84 154 -84 263s28 197 84 263s134 99 233 99s176 -33 232 -99s84 -153 84 -262zM190 348c0 -73 14 -131 43 -173s71 -63 126 -63s97 21 126 63s43 100 43 173s-14 131 -43 173
s-71 63 -126 63s-97 -21 -126 -63s-43 -100 -43 -173z" />
    <glyph glyph-name="P" unicode="P" horiz-adv-x="608" 
d="M72 0l1 701h213c87 0 156 -21 206 -63s75 -101 75 -178s-25 -136 -75 -177s-119 -62 -207 -62h-70v-221h-143zM421 461c0 43 -12 73 -35 91s-57 27 -102 27h-67v-236h67c45 0 79 9 102 27s35 48 35 91z" />
    <glyph glyph-name="Q" unicode="Q" horiz-adv-x="719" 
d="M651 -156l-3 -1c-24 -4 -48 -6 -73 -6c-55 0 -101 13 -138 38s-63 62 -78 111h-1c-99 0 -176 33 -232 99s-84 154 -84 263s28 197 84 263s134 99 233 99s176 -33 232 -99s84 -153 84 -262c0 -81 -16 -151 -49 -210s-79 -101 -138 -126c19 -36 51 -54 96 -54
c23 0 42 2 57 5zM188 349c0 -73 14 -131 43 -173s71 -63 126 -63s97 21 126 63s43 100 43 173s-14 131 -43 173s-71 63 -126 63s-97 -21 -126 -63s-43 -100 -43 -173z" />
    <glyph glyph-name="R" unicode="R" horiz-adv-x="624" 
d="M271 578h-55v-198h55c91 0 136 33 136 100c0 36 -11 61 -34 76s-57 22 -102 22zM600 0l-155 -1l-95 198c-11 22 -24 38 -38 48s-32 15 -54 15h-43v-260h-144v700h206c87 0 155 -18 204 -54s73 -87 73 -154c0 -101 -46 -163 -139 -187c30 -13 58 -44 83 -93z" />
    <glyph glyph-name="S" unicode="S" horiz-adv-x="536" 
d="M37 29l25 120c66 -25 127 -38 184 -38c77 0 116 27 116 80c0 29 -10 51 -30 65s-55 29 -106 46c-62 21 -109 47 -141 78s-48 74 -48 129c0 64 21 114 63 149s101 53 178 53c71 0 134 -12 188 -36l-28 -119c-53 21 -103 31 -151 31c-70 0 -105 -24 -105 -73
c0 -25 8 -44 24 -57s46 -27 89 -42c34 -12 62 -23 84 -33s44 -24 65 -41s37 -38 47 -62s15 -53 15 -86c0 -65 -23 -115 -69 -151s-107 -54 -184 -54c-85 0 -157 14 -216 41z" />
    <glyph glyph-name="T" unicode="T" horiz-adv-x="560" 
d="M208 0v578h-186v122h515v-122h-186v-578h-143z" />
    <glyph glyph-name="U" unicode="U" horiz-adv-x="689" 
d="M67 278l1 422h143v-412c0 -116 45 -174 135 -174c89 0 134 58 134 174v412h143v-422c0 -94 -24 -166 -71 -216s-116 -75 -206 -75s-159 25 -207 75s-72 122 -72 216z" />
    <glyph glyph-name="V" unicode="V" horiz-adv-x="655" 
d="M408 0l-161 -2c-48 99 -92 211 -133 335s-74 246 -99 366h148c51 -234 106 -422 164 -563c58 139 113 327 165 564h148c-25 -120 -58 -242 -99 -366s-85 -235 -133 -334z" />
    <glyph glyph-name="W" unicode="W" horiz-adv-x="992" 
d="M699 135h-1c21 63 44 148 69 255s44 211 58 312h146c-47 -288 -110 -521 -189 -700h-157c-50 127 -93 272 -130 436c-40 -172 -84 -317 -131 -436h-157c-39 94 -75 204 -108 330s-59 249 -78 369h145c15 -102 35 -206 59 -313s47 -191 68 -252c26 70 52 157 79 261
s47 206 60 305h128c14 -101 34 -204 61 -309s53 -191 78 -258z" />
    <glyph glyph-name="X" unicode="X" horiz-adv-x="647" 
d="M477 0l-178 273c-54 -80 -101 -171 -142 -272h-150c45 113 120 238 225 374l-213 326h163l160 -244c61 86 105 167 132 244h150c-43 -109 -115 -224 -217 -345l233 -356h-163z" />
    <glyph glyph-name="Y" unicode="Y" horiz-adv-x="617" 
d="M237 0l1 279c-114 163 -191 303 -232 420h147c37 -99 89 -200 156 -303c65 99 117 200 156 304h147c-44 -121 -121 -261 -232 -420v-280h-143z" />
    <glyph glyph-name="Z" unicode="Z" horiz-adv-x="564" 
d="M512 593c-68 -152 -169 -309 -302 -471h324v-122h-497v109c154 185 262 341 325 469h-314v122h464v-107z" />
    <glyph glyph-name="bracketleft" unicode="[" horiz-adv-x="325" 
d="M65 -144v905h231v-119h-96v-667h96v-119h-231z" />
    <glyph glyph-name="backslash" unicode="\" horiz-adv-x="497" 
d="M327 -56l-295 811h138l295 -811h-138z" />
    <glyph glyph-name="bracketright" unicode="]" horiz-adv-x="325" 
d="M29 761h231v-905h-231v119h95v667h-95v119z" />
    <glyph glyph-name="asciicircum" unicode="^" horiz-adv-x="550" 
d="M368 338l-93 216l-93 -216h-138l164 362h134l164 -362h-138z" />
    <glyph glyph-name="underscore" unicode="_" horiz-adv-x="515" 
d="M20 -128v103h475v-103h-475z" />
    <glyph glyph-name="grave" unicode="`" 
d="M209 567l-117 163h149l89 -163h-121z" />
    <glyph glyph-name="a" unicode="a" horiz-adv-x="517" 
d="M253 87h2c29 0 52 5 69 14v107c-25 5 -49 8 -72 8c-55 0 -82 -22 -82 -65s28 -64 83 -64zM459 32h-1c-57 -29 -130 -44 -218 -44c-66 0 -117 15 -153 44s-54 67 -54 114c0 49 18 87 55 115s86 42 147 43c26 0 56 -3 89 -8v24c0 60 -34 90 -102 90c-49 0 -93 -8 -132 -24
l-25 108c48 20 106 30 173 30c73 0 128 -18 165 -55s56 -90 56 -159v-278z" />
    <glyph glyph-name="b" unicode="b" horiz-adv-x="577" 
d="M538 263h-1c0 -85 -24 -152 -72 -201s-112 -74 -193 -74c-92 0 -161 12 -206 36v693l138 7v-213c21 8 46 12 75 12c78 0 141 -23 188 -69s71 -110 71 -191zM204 112c18 -7 39 -10 62 -10c87 0 131 52 131 156c0 101 -43 151 -130 151c-19 0 -40 -5 -63 -15v-282z" />
    <glyph glyph-name="c" unicode="c" horiz-adv-x="474" 
d="M292 523l2 -1c57 0 107 -10 150 -30l-26 -109c-39 17 -77 25 -113 25c-40 0 -71 -13 -93 -40s-33 -64 -33 -111c0 -104 44 -156 132 -156c35 0 72 9 111 26l22 -111c-39 -19 -87 -29 -144 -29c-83 0 -147 24 -193 72s-69 113 -69 195s23 147 68 196s107 73 186 73z" />
    <glyph glyph-name="d" unicode="d" horiz-adv-x="576" 
d="M509 29l-2 2c-58 -27 -124 -41 -199 -41c-85 0 -151 23 -199 69s-72 109 -72 189c0 83 25 150 75 200s116 75 198 75c19 0 40 -2 62 -7v201l137 7v-695zM177 255l-1 -1c0 -49 12 -86 35 -112s55 -39 96 -39c26 0 47 4 63 13v284c-20 7 -38 10 -54 10
c-45 0 -79 -13 -103 -39s-36 -65 -36 -116z" />
    <glyph glyph-name="e" unicode="e" horiz-adv-x="541" 
d="M462 133l20 -109c-50 -23 -108 -34 -175 -34c-81 0 -146 24 -196 72s-75 113 -75 195c0 79 23 143 69 192s106 74 179 74c65 0 118 -21 158 -63s60 -97 60 -164c0 -24 -1 -49 -4 -76h-316c13 -77 60 -116 141 -116c47 0 93 10 139 29zM284 415h-1c-29 0 -52 -10 -70 -29
s-29 -46 -34 -80h190v12c0 29 -7 52 -22 70s-36 27 -63 27z" />
    <glyph glyph-name="f" unicode="f" horiz-adv-x="371" 
d="M19 511h67v21c0 62 16 111 47 147s76 54 135 54c32 0 66 -4 102 -13l-22 -108c-21 4 -39 6 -54 6c-46 0 -69 -28 -69 -83v-24h117v-110h-117v-401h-138v401h-68v110z" />
    <glyph glyph-name="g" unicode="g" horiz-adv-x="574" 
d="M508 32l-2 -2c0 -70 -22 -124 -67 -163s-107 -58 -186 -58c-66 0 -124 10 -175 31l29 109c41 -17 87 -25 138 -25c39 0 70 8 92 24s33 39 33 69v23c-31 -12 -62 -18 -93 -18c-75 0 -133 21 -175 63s-63 101 -63 176c0 80 25 144 74 191s114 71 195 71
c73 0 140 -13 200 -40v-451zM177 271c0 -42 11 -75 32 -99s51 -36 89 -36c24 0 48 6 72 17v243c-23 7 -44 11 -63 11c-41 0 -73 -12 -96 -37s-34 -58 -34 -99z" />
    <glyph glyph-name="h" unicode="h" horiz-adv-x="584" 
d="M205 0h-138v718l138 7v-222c28 13 62 20 103 20c66 0 118 -18 157 -54s58 -86 58 -151v-318h-138v307c0 67 -33 101 -99 101c-27 0 -54 -6 -81 -19v-389z" />
    <glyph glyph-name="i" unicode="i" horiz-adv-x="272" 
d="M205 511v-511h-138v511h138zM136 579c-25 0 -45 7 -59 21s-21 33 -21 56s7 42 21 56s34 21 59 21s44 -7 58 -21s21 -33 21 -56s-7 -42 -21 -56s-33 -21 -58 -21z" />
    <glyph glyph-name="j" unicode="j" horiz-adv-x="272" 
d="M205 32h2c0 -55 -13 -100 -39 -135s-68 -62 -126 -81l-40 113c23 12 40 26 50 42s15 39 15 68v472h138v-479zM217 656c0 -23 -7 -42 -21 -56s-33 -21 -58 -21s-45 7 -59 21s-21 33 -21 56s7 42 21 56s34 21 59 21s44 -7 58 -21s21 -33 21 -56z" />
    <glyph glyph-name="k" unicode="k" horiz-adv-x="546" 
d="M498 511h-1c-3 -82 -45 -161 -127 -238l166 -273h-150l-115 195c-23 -17 -45 -32 -66 -45v-150h-138v717l138 7v-441c89 57 141 133 156 228h137z" />
    <glyph glyph-name="l" unicode="l" horiz-adv-x="309" 
d="M200 725l-2 -540c0 -55 18 -83 54 -83c11 0 21 1 30 3l10 -109c-25 -5 -48 -8 -69 -8c-107 0 -161 65 -161 195v534z" />
    <glyph glyph-name="m" unicode="m" horiz-adv-x="877" 
d="M816 0l-138 -1v308c0 67 -30 101 -90 101c-33 0 -64 -8 -93 -24c8 -27 12 -58 12 -93v-291h-134v308c0 34 -7 59 -21 76s-37 25 -68 25c-28 0 -55 -6 -81 -18v-391h-137v479c67 29 142 44 225 44c59 0 106 -14 141 -41c55 27 109 41 163 41c71 0 126 -18 164 -54
s57 -86 57 -151v-318z" />
    <glyph glyph-name="n" unicode="n" horiz-adv-x="582" 
d="M203 0h-137v479c69 29 144 44 226 44c73 0 130 -18 170 -53s60 -86 60 -152v-318h-138v308c0 67 -31 101 -93 101c-33 0 -62 -6 -88 -18v-391z" />
    <glyph glyph-name="o" unicode="o" horiz-adv-x="575" 
d="M537 256l-1 -1c0 -81 -22 -146 -67 -195s-106 -73 -183 -73s-138 25 -183 74s-67 114 -67 195s23 146 68 195s106 73 183 73s138 -24 183 -73s67 -114 67 -195zM178 255l-1 -2c0 -48 10 -86 29 -113s46 -41 81 -41s62 14 81 41s28 65 28 113s-9 86 -28 113s-46 41 -81 41
s-62 -14 -81 -41s-28 -64 -28 -111z" />
    <glyph glyph-name="p" unicode="p" horiz-adv-x="575" 
d="M536 263h-1c0 -83 -22 -149 -66 -199s-105 -75 -182 -75c-32 0 -60 4 -84 13v-190h-137v667c63 29 132 43 208 43c81 0 145 -23 192 -69s70 -109 70 -190zM202 116c22 -9 43 -14 64 -14c86 0 129 52 129 157c0 100 -43 150 -129 150c-20 0 -41 -4 -64 -13v-280z" />
    <glyph glyph-name="q" unicode="q" horiz-adv-x="575" 
d="M509 -187l-139 -2v196c-28 -14 -59 -21 -94 -21c-73 0 -131 24 -174 71s-64 110 -64 189c0 85 24 152 72 202s113 75 194 75c75 0 143 -13 205 -40v-670zM178 252l1 -1c0 -48 11 -85 33 -112s54 -40 95 -40c23 0 44 6 63 18v279c-21 7 -41 10 -59 10
c-43 0 -76 -13 -99 -40s-34 -65 -34 -114z" />
    <glyph glyph-name="r" unicode="r" horiz-adv-x="379" 
d="M67 479c59 29 129 44 210 44c36 0 66 -3 90 -9l-20 -113c-15 5 -35 8 -59 8c-31 0 -59 -6 -83 -17v-392h-138v479z" />
    <glyph glyph-name="s" unicode="s" horiz-adv-x="440" 
d="M393 494l-13 -113c-59 18 -105 27 -138 27c-47 0 -70 -14 -70 -41c0 -14 6 -24 17 -31s33 -15 66 -24c61 -17 105 -37 131 -61s39 -58 39 -103c0 -52 -19 -92 -57 -120s-89 -42 -152 -42c-70 0 -130 11 -181 33l19 113c55 -21 108 -32 159 -32c23 0 42 4 56 12
s21 19 21 33c0 15 -7 27 -21 35s-43 18 -87 31c-49 13 -86 31 -111 55s-37 57 -37 99c0 51 17 90 51 117s82 41 143 41s116 -10 165 -29z" />
    <glyph glyph-name="t" unicode="t" horiz-adv-x="367" 
d="M349 -3c-24 -6 -53 -9 -87 -9c-120 0 -180 66 -180 197v216h-68v110h68v111l138 7v-118h111v-110h-111v-214c0 -57 23 -85 69 -85c18 0 36 2 53 6z" />
    <glyph glyph-name="u" unicode="u" horiz-adv-x="579" 
d="M514 32l1 -1c-71 -29 -147 -44 -228 -44s-139 19 -174 56s-52 90 -52 159v309h137v-309c0 -67 30 -100 91 -100c33 0 62 6 87 18v391h138v-479z" />
    <glyph glyph-name="v" unicode="v" horiz-adv-x="540" 
d="M165 511h-1c9 -147 44 -280 105 -400c31 61 56 123 74 185s29 134 33 215h138c-10 -100 -27 -187 -52 -262s-63 -158 -115 -249h-153c-55 92 -95 175 -120 250s-41 162 -48 261h139z" />
    <glyph glyph-name="w" unicode="w" horiz-adv-x="806" 
d="M458 511l-2 1c9 -148 39 -283 90 -404c57 117 89 252 95 404h137c-9 -102 -25 -190 -48 -265s-59 -157 -109 -246h-138c-38 74 -67 138 -88 193c-22 -69 -49 -133 -81 -192h-133c-53 87 -90 167 -111 241s-36 164 -45 271h136c9 -151 41 -286 96 -405
c45 85 73 182 85 291c-5 35 -9 72 -12 111h128z" />
    <glyph glyph-name="x" unicode="x" horiz-adv-x="523" 
d="M20 0l-1 -2c23 97 74 186 152 268c-38 42 -69 82 -93 119s-43 79 -57 125h149c12 -42 46 -99 101 -170c45 67 70 124 76 171h140c-23 -94 -71 -179 -144 -254c74 -83 128 -169 162 -257h-149c-19 50 -57 112 -114 186c-48 -69 -77 -131 -88 -186h-134z" />
    <glyph glyph-name="y" unicode="y" horiz-adv-x="517" 
d="M352 44l-3 -1c-77 -135 -173 -212 -288 -231l-22 117c31 5 62 17 93 35s54 40 69 65c-56 76 -98 151 -126 226s-46 160 -53 255h139c5 -134 43 -259 113 -376c27 57 47 113 60 169s22 125 26 208h137c-12 -161 -60 -317 -145 -467z" />
    <glyph glyph-name="z" unicode="z" horiz-adv-x="465" 
d="M42 511l381 -1v-93c-59 -110 -133 -213 -222 -308h237v-110h-407v93c112 115 193 218 243 309h-232v110z" />
    <glyph glyph-name="braceleft" unicode="{" horiz-adv-x="351" 
d="M22 367l-1 -4c34 0 57 6 70 19s19 35 19 67c0 13 -2 37 -5 72s-5 62 -5 81c0 48 13 87 40 116s64 44 112 44c25 0 48 -2 70 -5v-105h-26c-24 0 -41 -5 -50 -16s-14 -28 -14 -52c0 -13 2 -36 5 -69s5 -56 5 -70c0 -69 -29 -115 -86 -137c57 -21 86 -66 86 -135
c0 -14 -2 -37 -5 -70s-5 -56 -5 -70c0 -24 5 -41 14 -52s26 -16 50 -16h26v-104c-17 -3 -41 -5 -72 -5c-47 0 -84 15 -110 44s-39 67 -39 114c0 19 2 46 5 81s5 59 5 72c0 32 -6 54 -19 67s-36 19 -70 19v114z" />
    <glyph glyph-name="bar" unicode="|" horiz-adv-x="283" 
d="M72 -237v1011h139v-1011h-139z" />
    <glyph glyph-name="braceright" unicode="}" horiz-adv-x="351" 
d="M240 453l-1 -6c0 -32 7 -54 20 -67s36 -19 69 -19v-114c-33 0 -56 -6 -69 -19s-19 -35 -19 -67c0 -13 2 -37 5 -72s5 -62 5 -81c0 -47 -13 -85 -39 -114s-63 -43 -110 -43c-31 0 -55 2 -71 5v104h26c23 0 40 6 50 17s15 29 15 53c0 14 -2 38 -5 71s-5 57 -5 71
c0 69 29 114 86 135c-57 22 -86 68 -86 137c0 14 2 38 5 71s5 56 5 69c0 24 -5 42 -15 53s-26 17 -49 17h-26v105c21 3 44 5 69 5c48 0 85 -14 111 -43s39 -67 39 -115c0 -19 -2 -46 -5 -81s-5 -59 -5 -72z" />
    <glyph glyph-name="asciitilde" unicode="~" horiz-adv-x="543" 
d="M353 383l-1 -2c35 0 60 16 74 49l77 -49c-7 -41 -21 -73 -43 -95s-50 -33 -84 -33c-31 0 -64 8 -100 23s-65 23 -88 23c-34 0 -58 -15 -73 -44l-78 53c9 37 25 66 49 87s53 32 86 32c27 0 58 -7 94 -22s65 -22 87 -22z" />
    <glyph glyph-name="uni00A0" unicode="&#xa0;" horiz-adv-x="237" 
 />
    <glyph glyph-name="exclamdown" unicode="&#xa1;" horiz-adv-x="321" 
d="M82 -187v176c0 81 9 180 26 297h106c17 -112 25 -211 25 -297v-176h-157zM81 446v-1c0 24 7 43 21 57s33 21 58 21s45 -7 59 -21s21 -33 21 -57c0 -23 -7 -41 -21 -55s-34 -21 -59 -21s-44 7 -58 21s-21 33 -21 56z" />
    <glyph glyph-name="cent" unicode="&#xa2;" horiz-adv-x="495" 
d="M42 255l2 -2c0 67 16 124 48 170s76 76 133 90v112h126v-105c43 -4 79 -12 108 -23l-26 -109c-36 13 -73 20 -110 20c-91 0 -137 -50 -137 -150c0 -105 46 -157 137 -157c41 0 79 7 114 21l22 -111c-25 -11 -61 -18 -108 -21v-107h-126v114c-58 15 -103 45 -135 90
s-48 101 -48 168z" />
    <glyph glyph-name="sterling" unicode="&#xa3;" horiz-adv-x="562" 
d="M529 0l-415 -1v288h-90v114h90v53c0 70 18 126 55 167s91 62 163 62c70 0 131 -12 184 -35l-37 -111c-46 15 -89 23 -128 23c-65 0 -98 -35 -98 -105v-53h144v-114h-144v-168h276v-120z" />
    <glyph glyph-name="currency" unicode="&#xa4;" horiz-adv-x="648" 
d="M203 352h-2c0 -37 11 -67 33 -90s52 -34 89 -34s66 11 87 34s32 53 32 90s-10 67 -31 89s-50 33 -87 33s-66 -11 -88 -33s-33 -52 -33 -89zM523 81l-78 76c-37 -21 -78 -31 -123 -31c-47 0 -88 10 -124 30l-76 -74l-79 82l75 72c-19 33 -29 72 -29 117c0 43 10 82 29 117
l-75 73l79 82l78 -76c35 19 76 29 122 29s86 -10 121 -29l80 76l78 -82l-77 -74c19 -33 29 -72 29 -117c0 -43 -9 -82 -28 -116l76 -73z" />
    <glyph glyph-name="yen" unicode="&#xa5;" horiz-adv-x="666" 
d="M62 147l-2 99h202v44c-6 8 -14 20 -25 36h-177v99h112c-48 79 -92 163 -133 253h146c37 -94 86 -187 147 -278c61 91 110 184 147 278h146c-41 -90 -85 -174 -133 -253h111v-99h-175l-26 -36v-44h201v-99h-201v-147h-138v147h-202z" />
    <glyph glyph-name="brokenbar" unicode="&#xa6;" horiz-adv-x="283" 
d="M72 341v432h139v-432h-139zM72 -237v434h139v-434h-139z" />
    <glyph glyph-name="section" unicode="&#xa7;" horiz-adv-x="599" 
d="M323 184l2 -2c26 -10 43 -17 50 -20c26 21 39 47 39 77c0 23 -9 41 -28 54s-58 31 -117 54c-26 11 -40 17 -42 18c-25 -20 -38 -45 -38 -75c0 -24 9 -42 26 -55s53 -30 108 -51zM279 -185l-2 -1c-73 0 -135 12 -186 36l25 112c50 -17 101 -25 152 -25c62 0 93 18 93 53
c0 19 -8 33 -23 43s-47 24 -96 42c-68 25 -118 52 -150 81s-48 68 -48 117c0 68 30 119 89 152c-26 29 -39 65 -39 108c0 57 21 101 63 131s96 45 161 45c70 0 131 -11 182 -34l-25 -112c-51 15 -100 23 -148 23c-59 0 -88 -17 -88 -50c0 -18 8 -33 24 -44s45 -25 88 -41
c71 -25 123 -52 157 -80s51 -67 51 -118c0 -68 -30 -119 -89 -152c25 -29 38 -65 38 -108c0 -59 -22 -103 -65 -133s-98 -45 -164 -45z" />
    <glyph glyph-name="dieresis" unicode="&#xa8;" 
d="M224 643v-2c0 -21 -7 -38 -21 -51s-32 -20 -55 -20s-41 7 -54 20s-20 31 -20 53c0 21 7 38 20 51s31 20 54 20s41 -7 55 -20s21 -30 21 -51zM425 641l-1 -1c0 -22 -6 -39 -19 -52s-31 -19 -54 -19s-41 7 -55 20s-21 30 -21 51s7 38 21 51s32 20 55 20s41 -6 54 -19
s20 -30 20 -51z" />
    <glyph glyph-name="copyright" unicode="&#xa9;" horiz-adv-x="820" 
d="M421 540v-1c33 0 66 -6 98 -17l-15 -83c-29 8 -53 12 -72 12c-65 0 -97 -33 -97 -100c0 -66 32 -99 96 -99c25 0 49 4 73 11l15 -83c-34 -11 -67 -17 -98 -17c-54 0 -98 16 -133 48s-52 79 -52 141c0 63 17 110 52 141s79 47 133 47zM128 349l-1 -1
c0 -85 25 -153 75 -204s119 -76 207 -76s157 26 207 77s75 119 75 204c0 84 -25 152 -75 203s-119 77 -207 77c-87 0 -156 -26 -206 -77s-75 -119 -75 -203zM784 348h-3c0 -109 -34 -197 -102 -263s-158 -99 -271 -99s-204 33 -273 99s-103 154 -103 263s34 197 103 263
s160 99 273 99s204 -33 273 -99s103 -154 103 -263z" />
    <glyph glyph-name="ordfeminine" unicode="&#xaa;" horiz-adv-x="342" 
d="M68 594l-15 72c31 11 64 17 99 17c99 0 148 -41 148 -124v-179h-2c-44 -23 -91 -34 -140 -34c-39 0 -69 9 -91 27s-33 43 -33 74s11 56 33 74s50 27 85 27c25 0 46 -2 63 -6v12c0 20 -5 34 -15 42s-27 12 -52 12s-52 -5 -80 -14zM170 413c16 0 32 2 47 6v65
c-13 3 -28 5 -45 5c-33 0 -50 -13 -50 -38s16 -38 48 -38z" />
    <glyph glyph-name="guillemotleft" unicode="&#xab;" horiz-adv-x="662" 
d="M186 66c-65 69 -120 142 -165 219c44 75 99 148 165 219h167c-61 -63 -119 -136 -174 -219c57 -85 115 -158 174 -219h-167zM462 66c-64 66 -119 139 -165 219c46 79 101 152 165 219h167c-65 -67 -123 -140 -174 -219c53 -81 111 -154 174 -219h-167z" />
    <glyph glyph-name="logicalnot" unicode="&#xac;" horiz-adv-x="543" 
d="M39 313v118h465v-295h-126v177h-339z" />
    <glyph glyph-name="uni00AD" unicode="&#xad;" horiz-adv-x="352" 
 />
    <glyph glyph-name="registered" unicode="&#xae;" horiz-adv-x="552" 
d="M461 473l-1 -1c0 61 -16 108 -48 141s-77 50 -136 50s-105 -16 -137 -49s-48 -80 -48 -141s16 -108 48 -141s78 -49 137 -49s105 16 137 49s48 80 48 141zM34 472l-1 -1c0 73 22 131 66 174s103 65 176 65s131 -22 175 -65s66 -101 66 -174s-22 -131 -66 -174
s-102 -64 -175 -64s-131 22 -175 65s-66 101 -66 174zM187 353l2 244h84c32 0 56 -7 72 -21s24 -34 24 -59c0 -35 -16 -59 -47 -71c15 -29 36 -60 63 -93h-63c-22 28 -40 56 -54 85h-28v-85h-53zM273 552h-31v-71h31c31 0 46 12 46 35c0 24 -15 36 -46 36z" />
    <glyph glyph-name="macron" unicode="&#xaf;" 
d="M91 589v106h314v-106h-314z" />
    <glyph glyph-name="degree" unicode="&#xb0;" horiz-adv-x="349" 
d="M30 572v-1c0 42 13 76 40 102s62 39 105 39s78 -13 104 -39s39 -60 39 -102c0 -43 -13 -77 -39 -103s-61 -39 -104 -39s-78 13 -105 39s-40 61 -40 104zM175 633v-1c-17 0 -31 -5 -42 -16s-16 -26 -16 -45c0 -20 5 -35 16 -46s25 -16 42 -16c37 0 56 21 56 62
c0 20 -5 35 -15 46s-24 16 -41 16z" />
    <glyph glyph-name="plusminus" unicode="&#xb1;" horiz-adv-x="543" 
d="M39 16v119h465v-119h-465zM39 323v118h170v134h126v-134h169v-118h-169v-139h-126v139h-170z" />
    <glyph glyph-name="twosuperior" unicode="&#xb2;" horiz-adv-x="352" 
d="M51 360l-4 79l42 33c41 31 68 54 81 68s19 29 19 46c0 25 -15 38 -46 38c-21 0 -42 -8 -64 -24l-40 75c35 26 80 39 135 39c37 0 68 -9 93 -28s37 -45 37 -78c0 -29 -9 -56 -27 -81s-47 -53 -87 -84h129v-83h-268z" />
    <glyph glyph-name="threesuperior" unicode="&#xb3;" horiz-adv-x="352" 
d="M49 370l22 81c28 -9 54 -14 77 -14c37 0 56 11 56 34s-17 34 -51 34h-38v61h22c18 0 31 2 39 7s12 14 12 27c0 20 -16 30 -47 30c-20 0 -41 -5 -62 -16l-31 75c35 16 72 24 110 24c93 0 139 -30 139 -91c0 -37 -17 -64 -51 -81c44 -14 66 -41 66 -82
c0 -37 -14 -64 -42 -81s-64 -26 -109 -26c-46 0 -83 6 -112 18z" />
    <glyph glyph-name="acute" unicode="&#xb4;" 
d="M217 730h149l-117 -163h-121z" />
    <glyph glyph-name="uni00B5" unicode="&#xb5;" horiz-adv-x="583" 
d="M200 -184h-133v695h138v-316c0 -30 6 -52 18 -67s32 -22 60 -22c32 0 64 9 96 27v378h137v-511h-134v49c-39 -41 -84 -61 -135 -61c-19 0 -35 2 -48 5l1 -115v-62z" />
    <glyph glyph-name="paragraph" unicode="&#xb6;" horiz-adv-x="605" 
d="M258 700l275 -2v-700h-96v620h-83v-620h-96v289c-63 0 -116 18 -158 53s-63 86 -63 152c0 67 21 118 63 154s95 54 158 54z" />
    <glyph glyph-name="periodcentered" unicode="&#xb7;" 
d="M40 384l-2 -1c0 23 7 42 21 56s34 21 59 21s45 -7 59 -21s21 -32 21 -55c0 -24 -7 -43 -21 -57s-33 -21 -58 -21s-44 7 -58 21s-21 33 -21 57z" />
    <glyph glyph-name="cedilla" unicode="&#xb8;" 
d="M142 -227l17 72c16 -4 32 -6 47 -6c33 0 50 10 50 31s-19 32 -57 33l-15 40l19 55h82l-18 -44c29 -3 52 -12 69 -26s26 -34 26 -60c0 -35 -14 -61 -42 -78s-63 -26 -106 -26c-27 0 -51 3 -72 9z" />
    <glyph glyph-name="onesuperior" unicode="&#xb9;" horiz-adv-x="352" 
d="M85 561l-42 79c35 23 75 44 120 63h101v-344h-109v241c-22 -11 -45 -24 -70 -39z" />
    <glyph glyph-name="ordmasculine" unicode="&#xba;" horiz-adv-x="373" 
d="M344 516l-1 -1c0 -49 -14 -90 -42 -122s-66 -48 -115 -48s-88 16 -116 48s-42 73 -42 122c0 48 14 88 42 120s67 48 116 48s88 -16 116 -47s42 -71 42 -120zM123 515c0 -61 21 -92 63 -92c41 0 62 31 62 92s-21 92 -62 92c-42 0 -63 -31 -63 -92z" />
    <glyph glyph-name="guillemotright" unicode="&#xbb;" horiz-adv-x="662" 
d="M476 66h-167c63 65 121 138 174 219c-51 79 -109 152 -174 219h167c67 -70 122 -143 165 -219c-44 -77 -99 -150 -165 -219zM200 66h-166c61 63 119 136 174 219c-53 79 -111 152 -174 219h166c65 -69 120 -142 165 -219c-45 -79 -100 -152 -165 -219z" />
    <glyph glyph-name="onequarter" unicode="&#xbc;" horiz-adv-x="828" 
d="M85 561l-42 79c35 23 75 44 120 63h101v-344h-109v241c-22 -11 -45 -24 -70 -39zM571 698h111l-394 -700h-112zM489 55v65c44 79 103 153 176 222h99v-212h43v-75h-43v-57h-96v57h-179zM668 131l-1 -1c0 47 1 89 4 126c-35 -41 -66 -83 -93 -125h90z" />
    <glyph glyph-name="onehalf" unicode="&#xbd;" horiz-adv-x="828" 
d="M85 561l-42 79c35 23 75 44 120 63h101v-344h-109v241c-22 -11 -45 -24 -70 -39zM541 698h112l-395 -700h-112zM519 -2l-1 75l43 33c41 32 68 55 80 69s18 29 18 46c0 25 -15 38 -46 38c-20 0 -41 -8 -64 -24l-39 75c35 26 79 39 132 39c37 0 68 -9 93 -28s37 -45 37 -78
c0 -29 -9 -56 -27 -80s-47 -52 -87 -83h129v-82h-268z" />
    <glyph glyph-name="threequarters" unicode="&#xbe;" horiz-adv-x="828" 
d="M49 370l22 81c28 -9 54 -14 77 -14c37 0 56 11 56 34s-17 34 -51 34h-38v61h22c18 0 31 2 39 7s12 14 12 27c0 20 -16 30 -47 30c-20 0 -41 -5 -62 -16l-31 75c35 16 72 24 110 24c93 0 139 -30 139 -91c0 -37 -17 -64 -51 -81c44 -14 66 -41 66 -82
c0 -37 -14 -64 -42 -81s-64 -26 -109 -26c-46 0 -83 6 -112 18zM578 701h112l-395 -700h-111zM491 58v65c44 79 103 153 176 222h99v-212h43v-75h-43v-57h-96v57h-179zM670 134l-1 -1c0 47 1 89 4 126c-35 -41 -66 -83 -93 -125h90z" />
    <glyph glyph-name="questiondown" unicode="&#xbf;" horiz-adv-x="455" 
d="M265 370l-2 -1c-25 0 -44 7 -58 21s-21 33 -21 56c0 24 7 43 21 57s34 21 59 21s45 -7 59 -21s21 -33 21 -57c0 -23 -7 -41 -21 -55s-33 -21 -58 -21zM434 -166l4 -1c-54 -23 -109 -34 -164 -34c-76 0 -135 17 -177 51s-63 81 -63 140c0 57 23 106 70 147
c6 6 17 16 33 30s28 25 35 32s14 18 21 32s11 28 11 43v10h127v-32c0 -49 -22 -92 -66 -129c-3 -2 -11 -8 -24 -18s-21 -17 -25 -21s-10 -10 -18 -19s-13 -18 -15 -27s-3 -19 -3 -30c0 -54 35 -81 106 -81c35 0 75 8 120 25z" />
    <glyph glyph-name="Agrave" unicode="&#xc0;" horiz-adv-x="666" 
d="M333 548c-24 -52 -55 -143 -94 -272h187c-40 134 -71 225 -93 272zM504 0l-42 153h-258c-14 -47 -28 -98 -42 -154h-147c80 293 161 526 243 700h149c85 -179 166 -412 244 -699h-147zM278 751l-117 163h149l89 -163h-121z" />
    <glyph glyph-name="Aacute" unicode="&#xc1;" horiz-adv-x="666" 
d="M333 548c-24 -52 -55 -143 -94 -272h187c-40 134 -71 225 -93 272zM504 0l-42 153h-258c-14 -47 -28 -98 -42 -154h-147c80 293 161 526 243 700h149c85 -179 166 -412 244 -699h-147zM360 914h149l-117 -163h-121z" />
    <glyph glyph-name="Acircumflex" unicode="&#xc2;" horiz-adv-x="666" 
d="M333 548c-24 -52 -55 -143 -94 -272h187c-40 134 -71 225 -93 272zM504 0l-42 153h-258c-14 -47 -28 -98 -42 -154h-147c80 293 161 526 243 700h149c85 -179 166 -412 244 -699h-147zM391 751l-58 84l-58 -84h-133l122 163h139l122 -163h-134z" />
    <glyph glyph-name="Atilde" unicode="&#xc3;" horiz-adv-x="666" 
d="M333 548c-24 -52 -55 -143 -94 -272h187c-40 134 -71 225 -93 272zM504 0l-42 153h-258c-14 -47 -28 -98 -42 -154h-147c80 293 161 526 243 700h149c85 -179 166 -412 244 -699h-147zM388 863c19 0 29 15 29 45h92c-1 -41 -9 -76 -25 -105s-40 -43 -73 -43
c-20 0 -43 6 -70 18s-47 18 -60 18c-22 0 -34 -13 -35 -39h-92c1 45 11 80 29 105s43 37 76 37c21 0 45 -6 72 -18s46 -18 57 -18z" />
    <glyph glyph-name="Adieresis" unicode="&#xc4;" horiz-adv-x="666" 
d="M333 548c-24 -52 -55 -143 -94 -272h187c-40 134 -71 225 -93 272zM504 0l-42 153h-258c-14 -47 -28 -98 -42 -154h-147c80 293 161 526 243 700h149c85 -179 166 -412 244 -699h-147zM306 827v-2c0 -21 -7 -38 -21 -51s-32 -20 -55 -20s-41 7 -54 20s-20 31 -20 53
c0 21 7 38 20 51s31 20 54 20s41 -7 55 -20s21 -30 21 -51zM507 825l-1 -1c0 -22 -6 -39 -19 -52s-31 -19 -54 -19s-41 7 -55 20s-21 30 -21 51s7 38 21 51s32 20 55 20s41 -6 54 -19s20 -30 20 -51z" />
    <glyph glyph-name="Aring" unicode="&#xc5;" horiz-adv-x="666" 
d="M504 0l-43 153h-258c-14 -47 -28 -98 -42 -154h-147c80 293 161 526 242 699c-35 24 -52 58 -52 103c0 37 12 67 36 90s55 35 92 35s68 -12 92 -35s36 -53 36 -90c0 -46 -17 -80 -52 -103c83 -176 164 -409 243 -698h-147zM332 846c-14 0 -25 -4 -33 -13s-12 -20 -12 -33
s4 -24 12 -33s19 -13 33 -13s25 4 32 13s11 20 11 33s-4 24 -11 33s-18 13 -32 13zM332 547c-24 -52 -55 -143 -94 -272h187c-40 134 -71 225 -93 272z" />
    <glyph glyph-name="AE" unicode="&#xc6;" horiz-adv-x="919" 
d="M874 122v-122h-424v154h-224c-20 -41 -43 -92 -70 -154h-147c96 235 224 468 383 700h482v-122h-281v-162h238v-122h-238v-172h281zM450 276v290c-61 -102 -115 -199 -162 -290h162z" />
    <glyph glyph-name="Ccedilla" unicode="&#xc7;" horiz-adv-x="585" 
d="M240 -227l16 71c16 -4 32 -6 47 -6c33 0 50 10 50 31s-19 32 -57 33l-15 40l17 49c-82 15 -145 53 -189 115s-66 141 -66 237c0 111 29 200 87 267s141 100 249 100c57 0 113 -12 169 -36l-32 -121c-59 21 -104 31 -135 31c-125 0 -188 -80 -188 -240
c0 -155 62 -232 187 -232c47 0 96 13 147 39l28 -123c-53 -28 -112 -42 -177 -42l-13 -32c29 -3 52 -12 69 -26s26 -34 26 -60c0 -35 -14 -61 -42 -78s-63 -26 -106 -26c-27 0 -51 3 -72 9z" />
    <glyph glyph-name="Egrave" unicode="&#xc8;" horiz-adv-x="553" 
d="M508 122v-122h-436v700h436v-122h-293v-162h250v-122h-250v-172h293zM240 752l-117 163h149l89 -163h-121z" />
    <glyph glyph-name="Eacute" unicode="&#xc9;" horiz-adv-x="553" 
d="M508 122v-122h-436v700h436v-122h-293v-162h250v-122h-250v-172h293zM322 915h149l-117 -163h-121z" />
    <glyph glyph-name="Ecircumflex" unicode="&#xca;" horiz-adv-x="553" 
d="M508 122v-122h-436v700h436v-122h-293v-162h250v-122h-250v-172h293zM352 752l-58 84l-58 -84h-133l122 163h139l122 -163h-134z" />
    <glyph glyph-name="Edieresis" unicode="&#xcb;" horiz-adv-x="553" 
d="M508 122v-122h-436v700h436v-122h-293v-162h250v-122h-250v-172h293zM268 828v-2c0 -21 -7 -38 -21 -51s-32 -20 -55 -20s-41 7 -54 20s-20 31 -20 53c0 21 7 38 20 51s31 20 54 20s41 -7 55 -20s21 -30 21 -51zM469 826l-1 -1c0 -22 -6 -39 -19 -52s-31 -19 -54 -19
s-41 7 -55 20s-21 30 -21 51s7 38 21 51s32 20 55 20s41 -6 54 -19s20 -30 20 -51z" />
    <glyph glyph-name="Igrave" unicode="&#xcc;" horiz-adv-x="287" 
d="M72 0v700h143v-700h-143zM89 752l-117 163h149l89 -163h-121z" />
    <glyph glyph-name="Iacute" unicode="&#xcd;" horiz-adv-x="287" 
d="M72 0v700h143v-700h-143zM171 915h149l-117 -163h-121z" />
    <glyph glyph-name="Icircumflex" unicode="&#xce;" horiz-adv-x="287" 
d="M72 0v700h143v-700h-143zM202 752l-58 84l-58 -84h-133l122 163h139l122 -163h-134z" />
    <glyph glyph-name="Idieresis" unicode="&#xcf;" horiz-adv-x="287" 
d="M72 0v700h143v-700h-143zM117 828v-2c0 -21 -7 -38 -21 -51s-32 -20 -55 -20s-41 7 -54 20s-20 31 -20 53c0 21 7 38 20 51s31 20 54 20s41 -7 55 -20s21 -30 21 -51zM318 826l-1 -1c0 -22 -6 -39 -19 -52s-31 -19 -54 -19s-41 7 -55 20s-21 30 -21 51s7 38 21 51
s32 20 55 20s41 -6 54 -19s20 -30 20 -51z" />
    <glyph glyph-name="Eth" unicode="&#xd0;" horiz-adv-x="699" 
d="M514 352c0 151 -68 226 -204 226h-87v-159h120v-122h-120v-175h87c136 0 204 77 204 230zM80 0l-1 296h-73v122h73v281h234c105 0 189 -31 252 -93s95 -147 95 -254c0 -109 -31 -195 -94 -258s-147 -94 -252 -94h-234z" />
    <glyph glyph-name="Ntilde" unicode="&#xd1;" horiz-adv-x="715" 
d="M204 0l-133 3v700h138c85 -165 187 -332 305 -501c-3 24 -4 53 -4 87v413h132v-700h-139c-67 89 -123 167 -168 234s-90 142 -135 225c3 -35 4 -75 4 -120v-341zM418 867c19 0 29 15 29 45h92c-1 -41 -9 -76 -25 -105s-40 -43 -73 -43c-20 0 -43 6 -70 18s-47 18 -60 18
c-22 0 -34 -13 -35 -39h-92c1 45 11 80 29 105s43 37 76 37c21 0 45 -6 72 -18s46 -18 57 -18z" />
    <glyph glyph-name="Ograve" unicode="&#xd2;" horiz-adv-x="719" 
d="M676 350l-1 -2c0 -109 -28 -196 -84 -262s-133 -99 -232 -99s-176 33 -232 99s-84 154 -84 263s28 197 84 263s134 99 233 99s176 -33 232 -99s84 -153 84 -262zM190 348c0 -73 14 -131 43 -173s71 -63 126 -63s97 21 126 63s43 100 43 173s-14 131 -43 173
s-71 63 -126 63s-97 -21 -126 -63s-43 -100 -43 -173zM304 750l-117 163h149l89 -163h-121z" />
    <glyph glyph-name="Oacute" unicode="&#xd3;" horiz-adv-x="719" 
d="M676 350l-1 -2c0 -109 -28 -196 -84 -262s-133 -99 -232 -99s-176 33 -232 99s-84 154 -84 263s28 197 84 263s134 99 233 99s176 -33 232 -99s84 -153 84 -262zM190 348c0 -73 14 -131 43 -173s71 -63 126 -63s97 21 126 63s43 100 43 173s-14 131 -43 173
s-71 63 -126 63s-97 -21 -126 -63s-43 -100 -43 -173zM386 913h149l-117 -163h-121z" />
    <glyph glyph-name="Ocircumflex" unicode="&#xd4;" horiz-adv-x="719" 
d="M676 350l-1 -2c0 -109 -28 -196 -84 -262s-133 -99 -232 -99s-176 33 -232 99s-84 154 -84 263s28 197 84 263s134 99 233 99s176 -33 232 -99s84 -153 84 -262zM190 348c0 -73 14 -131 43 -173s71 -63 126 -63s97 21 126 63s43 100 43 173s-14 131 -43 173
s-71 63 -126 63s-97 -21 -126 -63s-43 -100 -43 -173zM417 750l-58 84l-58 -84h-133l122 163h139l122 -163h-134z" />
    <glyph glyph-name="Otilde" unicode="&#xd5;" horiz-adv-x="719" 
d="M676 350l-1 -2c0 -109 -28 -196 -84 -262s-133 -99 -232 -99s-176 33 -232 99s-84 154 -84 263s28 197 84 263s134 99 233 99s176 -33 232 -99s84 -153 84 -262zM190 348c0 -73 14 -131 43 -173s71 -63 126 -63s97 21 126 63s43 100 43 173s-14 131 -43 173
s-71 63 -126 63s-97 -21 -126 -63s-43 -100 -43 -173zM414 862c19 0 29 15 29 45h92c-1 -41 -9 -76 -25 -105s-40 -43 -73 -43c-20 0 -43 6 -70 18s-47 18 -60 18c-22 0 -34 -13 -35 -39h-92c1 45 11 80 29 105s43 37 76 37c21 0 45 -6 72 -18s46 -18 57 -18z" />
    <glyph glyph-name="Odieresis" unicode="&#xd6;" horiz-adv-x="719" 
d="M676 350l-1 -2c0 -109 -28 -196 -84 -262s-133 -99 -232 -99s-176 33 -232 99s-84 154 -84 263s28 197 84 263s134 99 233 99s176 -33 232 -99s84 -153 84 -262zM190 348c0 -73 14 -131 43 -173s71 -63 126 -63s97 21 126 63s43 100 43 173s-14 131 -43 173
s-71 63 -126 63s-97 -21 -126 -63s-43 -100 -43 -173zM332 826v-2c0 -21 -7 -38 -21 -51s-32 -20 -55 -20s-41 7 -54 20s-20 31 -20 53c0 21 7 38 20 51s31 20 54 20s41 -7 55 -20s21 -30 21 -51zM533 824l-1 -1c0 -22 -6 -39 -19 -52s-31 -19 -54 -19s-41 7 -55 20
s-21 30 -21 51s7 38 21 51s32 20 55 20s41 -6 54 -19s20 -30 20 -51z" />
    <glyph glyph-name="multiply" unicode="&#xd7;" horiz-adv-x="543" 
d="M409 119l-138 138l-138 -138l-84 84l138 139l-138 138l84 84l138 -138l138 138l85 -84l-138 -138l138 -139z" />
    <glyph glyph-name="Oslash" unicode="&#xd8;" horiz-adv-x="715" 
d="M565 700l112 -1l-75 -101c49 -65 73 -148 73 -249c0 -109 -28 -196 -84 -262s-133 -99 -232 -99c-68 0 -127 17 -177 50l-28 -38h-114l76 101c-49 65 -74 148 -74 249c0 109 28 197 84 263s134 99 233 99c69 0 128 -17 177 -50zM190 349c0 -49 6 -91 19 -125l246 329
c-25 21 -57 32 -96 32c-55 0 -97 -21 -126 -63s-43 -100 -43 -173zM359 113l-1 1c55 0 97 21 126 63s43 100 43 173c0 49 -6 90 -19 123l-245 -329c26 -21 58 -31 96 -31z" />
    <glyph glyph-name="Ugrave" unicode="&#xd9;" horiz-adv-x="689" 
d="M67 278l1 422h143v-412c0 -116 45 -174 135 -174c89 0 134 58 134 174v412h143v-422c0 -94 -24 -166 -71 -216s-116 -75 -206 -75s-159 25 -207 75s-72 122 -72 216zM291 752l-117 163h149l89 -163h-121z" />
    <glyph glyph-name="Uacute" unicode="&#xda;" horiz-adv-x="689" 
d="M67 278l1 422h143v-412c0 -116 45 -174 135 -174c89 0 134 58 134 174v412h143v-422c0 -94 -24 -166 -71 -216s-116 -75 -206 -75s-159 25 -207 75s-72 122 -72 216zM374 915h149l-117 -163h-121z" />
    <glyph glyph-name="Ucircumflex" unicode="&#xdb;" horiz-adv-x="689" 
d="M67 278l1 422h143v-412c0 -116 45 -174 135 -174c89 0 134 58 134 174v412h143v-422c0 -94 -24 -166 -71 -216s-116 -75 -206 -75s-159 25 -207 75s-72 122 -72 216zM404 752l-58 84l-58 -84h-133l122 163h139l122 -163h-134z" />
    <glyph glyph-name="Udieresis" unicode="&#xdc;" horiz-adv-x="689" 
d="M67 278l1 422h143v-412c0 -116 45 -174 135 -174c89 0 134 58 134 174v412h143v-422c0 -94 -24 -166 -71 -216s-116 -75 -206 -75s-159 25 -207 75s-72 122 -72 216zM320 828v-2c0 -21 -7 -38 -21 -51s-32 -20 -55 -20s-41 7 -54 20s-20 31 -20 53c0 21 7 38 20 51
s31 20 54 20s41 -7 55 -20s21 -30 21 -51zM521 826l-1 -1c0 -22 -6 -39 -19 -52s-31 -19 -54 -19s-41 7 -55 20s-21 30 -21 51s7 38 21 51s32 20 55 20s41 -6 54 -19s20 -30 20 -51z" />
    <glyph glyph-name="Yacute" unicode="&#xdd;" horiz-adv-x="617" 
d="M237 0l1 279c-114 163 -191 303 -232 420h147c37 -99 89 -200 156 -303c65 99 117 200 156 304h147c-44 -121 -121 -261 -232 -420v-280h-143zM340 914h149l-117 -163h-121z" />
    <glyph glyph-name="Thorn" unicode="&#xde;" horiz-adv-x="607" 
d="M72 0l1 702h143v-107h70c87 0 156 -21 206 -63s75 -101 75 -178s-25 -136 -75 -178s-119 -63 -207 -63h-70v-113h-143zM421 355c0 43 -12 73 -35 91s-57 27 -102 27h-67v-236h67c45 0 79 9 102 27s35 48 35 91z" />
    <glyph glyph-name="germandbls" unicode="&#xdf;" horiz-adv-x="609" 
d="M63 502v-1c0 69 20 125 60 168s95 64 166 64c67 0 120 -15 158 -46s57 -70 57 -118c0 -29 -5 -55 -16 -77s-21 -41 -31 -57s-15 -30 -15 -43c0 -11 5 -22 15 -33s22 -22 36 -33s28 -23 42 -36s26 -29 36 -49s15 -42 15 -67c0 -57 -21 -102 -63 -136s-100 -51 -174 -51
c-23 0 -53 3 -90 9l15 112c23 -5 46 -7 69 -7c67 0 101 25 101 75c0 19 -7 37 -22 54s-31 31 -48 42s-33 27 -48 47s-22 42 -22 67c0 27 10 57 30 90s30 58 30 75c0 22 -6 39 -19 50s-31 17 -54 17c-60 0 -90 -39 -90 -116v-502h-138v502z" />
    <glyph glyph-name="agrave" unicode="&#xe0;" horiz-adv-x="517" 
d="M253 87h2c29 0 52 5 69 14v107c-25 5 -49 8 -72 8c-55 0 -82 -22 -82 -65s28 -64 83 -64zM459 32h-1c-57 -29 -130 -44 -218 -44c-66 0 -117 15 -153 44s-54 67 -54 114c0 49 18 87 55 115s86 42 147 43c26 0 56 -3 89 -8v24c0 60 -34 90 -102 90c-49 0 -93 -8 -132 -24
l-25 108c48 20 106 30 173 30c73 0 128 -18 165 -55s56 -90 56 -159v-278zM195 571l-117 163h149l89 -163h-121z" />
    <glyph glyph-name="aacute" unicode="&#xe1;" horiz-adv-x="517" 
d="M253 87h2c29 0 52 5 69 14v107c-25 5 -49 8 -72 8c-55 0 -82 -22 -82 -65s28 -64 83 -64zM459 32h-1c-57 -29 -130 -44 -218 -44c-66 0 -117 15 -153 44s-54 67 -54 114c0 49 18 87 55 115s86 42 147 43c26 0 56 -3 89 -8v24c0 60 -34 90 -102 90c-49 0 -93 -8 -132 -24
l-25 108c48 20 106 30 173 30c73 0 128 -18 165 -55s56 -90 56 -159v-278zM278 734h149l-117 -163h-121z" />
    <glyph glyph-name="acircumflex" unicode="&#xe2;" horiz-adv-x="517" 
d="M253 87h2c29 0 52 5 69 14v107c-25 5 -49 8 -72 8c-55 0 -82 -22 -82 -65s28 -64 83 -64zM459 32h-1c-57 -29 -130 -44 -218 -44c-66 0 -117 15 -153 44s-54 67 -54 114c0 49 18 87 55 115s86 42 147 43c26 0 56 -3 89 -8v24c0 60 -34 90 -102 90c-49 0 -93 -8 -132 -24
l-25 108c48 20 106 30 173 30c73 0 128 -18 165 -55s56 -90 56 -159v-278zM308 571l-58 84l-58 -84h-133l122 163h139l122 -163h-134z" />
    <glyph glyph-name="atilde" unicode="&#xe3;" horiz-adv-x="517" 
d="M253 87h2c29 0 52 5 69 14v107c-25 5 -49 8 -72 8c-55 0 -82 -22 -82 -65s28 -64 83 -64zM459 32h-1c-57 -29 -130 -44 -218 -44c-66 0 -117 15 -153 44s-54 67 -54 114c0 49 18 87 55 115s86 42 147 43c26 0 56 -3 89 -8v24c0 60 -34 90 -102 90c-49 0 -93 -8 -132 -24
l-25 108c48 20 106 30 173 30c73 0 128 -18 165 -55s56 -90 56 -159v-278zM306 683c19 0 29 15 29 45h92c-1 -41 -9 -76 -25 -105s-40 -43 -73 -43c-20 0 -43 6 -70 18s-47 18 -60 18c-22 0 -34 -13 -35 -39h-92c1 45 11 80 29 105s43 37 76 37c21 0 45 -6 72 -18
s46 -18 57 -18z" />
    <glyph glyph-name="adieresis" unicode="&#xe4;" horiz-adv-x="517" 
d="M253 87h2c29 0 52 5 69 14v107c-25 5 -49 8 -72 8c-55 0 -82 -22 -82 -65s28 -64 83 -64zM459 32h-1c-57 -29 -130 -44 -218 -44c-66 0 -117 15 -153 44s-54 67 -54 114c0 49 18 87 55 115s86 42 147 43c26 0 56 -3 89 -8v24c0 60 -34 90 -102 90c-49 0 -93 -8 -132 -24
l-25 108c48 20 106 30 173 30c73 0 128 -18 165 -55s56 -90 56 -159v-278zM224 647v-2c0 -21 -7 -38 -21 -51s-32 -20 -55 -20s-41 7 -54 20s-20 31 -20 53c0 21 7 38 20 51s31 20 54 20s41 -7 55 -20s21 -30 21 -51zM425 645l-1 -1c0 -22 -6 -39 -19 -52s-31 -19 -54 -19
s-41 7 -55 20s-21 30 -21 51s7 38 21 51s32 20 55 20s41 -6 54 -19s20 -30 20 -51z" />
    <glyph glyph-name="aring" unicode="&#xe5;" horiz-adv-x="517" 
d="M253 87h2c29 0 52 5 69 14v107c-25 5 -49 8 -72 8c-55 0 -82 -22 -82 -65s28 -64 83 -64zM459 32h-1c-57 -29 -130 -44 -218 -44c-66 0 -117 15 -153 44s-54 67 -54 114c0 49 18 87 55 115s86 42 147 43c26 0 56 -3 89 -8v24c0 60 -34 90 -102 90c-49 0 -93 -8 -132 -24
l-25 108c48 20 106 30 173 30c73 0 128 -18 165 -55s56 -90 56 -159v-278zM123 690l-1 -1c0 37 12 67 36 90s55 35 92 35s68 -12 92 -35s36 -53 36 -90s-12 -67 -36 -90s-54 -34 -91 -34s-68 12 -92 35s-36 53 -36 90zM293 689c0 13 -4 24 -11 33s-18 13 -32 13
s-25 -4 -33 -13s-12 -20 -12 -33s4 -24 12 -33s19 -13 33 -13s25 4 32 13s11 20 11 33z" />
    <glyph glyph-name="ae" unicode="&#xe6;" horiz-adv-x="819" 
d="M564 413c-29 0 -53 -9 -71 -28s-29 -46 -34 -81h190v11c0 29 -7 53 -22 71s-36 27 -63 27zM252 87c37 0 71 10 102 30c-15 29 -24 60 -28 93c-35 5 -60 8 -75 8c-54 0 -81 -22 -81 -65c0 -44 27 -66 82 -66zM762 22h-1c-51 -23 -109 -34 -175 -34c-65 0 -121 18 -168 54
c-54 -36 -111 -54 -172 -54c-69 0 -122 14 -159 42s-55 67 -55 116s18 87 54 115s84 42 145 43c20 0 51 -3 92 -8v22c0 61 -34 91 -102 91c-47 0 -92 -8 -134 -23l-24 108c61 19 119 29 174 29c73 0 128 -26 164 -78c44 52 98 78 163 78s117 -21 157 -63s60 -97 60 -164
c0 -24 -1 -49 -4 -76h-316c11 -77 58 -116 140 -116c47 0 93 10 139 29z" />
    <glyph glyph-name="ccedilla" unicode="&#xe7;" horiz-adv-x="474" 
d="M292 523l1 -3c57 0 107 -10 150 -30l-26 -109c-39 17 -77 25 -113 25c-40 0 -71 -13 -93 -40s-33 -64 -33 -111c0 -104 44 -156 132 -156c35 0 72 9 111 26l22 -111c-33 -17 -76 -27 -129 -29l-13 -32c29 -3 53 -12 71 -26s27 -34 27 -60c0 -35 -14 -61 -42 -78
s-63 -26 -106 -26c-28 0 -52 3 -73 9l16 74c16 -4 32 -6 47 -6c34 0 51 10 51 31s-19 32 -57 33l-15 40l17 49c-63 11 -112 40 -147 86s-52 104 -52 175c0 82 23 147 68 196s107 73 186 73z" />
    <glyph glyph-name="egrave" unicode="&#xe8;" horiz-adv-x="541" 
d="M462 133l20 -109c-50 -23 -108 -34 -175 -34c-81 0 -146 24 -196 72s-75 113 -75 195c0 79 23 143 69 192s106 74 179 74c65 0 118 -21 158 -63s60 -97 60 -164c0 -24 -1 -49 -4 -76h-316c13 -77 60 -116 141 -116c47 0 93 10 139 29zM284 415h-1c-29 0 -52 -10 -70 -29
s-29 -46 -34 -80h190v12c0 29 -7 52 -22 70s-36 27 -63 27zM225 573l-117 163h149l89 -163h-121z" />
    <glyph glyph-name="eacute" unicode="&#xe9;" horiz-adv-x="541" 
d="M462 133l20 -109c-50 -23 -108 -34 -175 -34c-81 0 -146 24 -196 72s-75 113 -75 195c0 79 23 143 69 192s106 74 179 74c65 0 118 -21 158 -63s60 -97 60 -164c0 -24 -1 -49 -4 -76h-316c13 -77 60 -116 141 -116c47 0 93 10 139 29zM284 415h-1c-29 0 -52 -10 -70 -29
s-29 -46 -34 -80h190v12c0 29 -7 52 -22 70s-36 27 -63 27zM307 736h149l-117 -163h-121z" />
    <glyph glyph-name="ecircumflex" unicode="&#xea;" horiz-adv-x="541" 
d="M462 133l20 -109c-50 -23 -108 -34 -175 -34c-81 0 -146 24 -196 72s-75 113 -75 195c0 79 23 143 69 192s106 74 179 74c65 0 118 -21 158 -63s60 -97 60 -164c0 -24 -1 -49 -4 -76h-316c13 -77 60 -116 141 -116c47 0 93 10 139 29zM284 415h-1c-29 0 -52 -10 -70 -29
s-29 -46 -34 -80h190v12c0 29 -7 52 -22 70s-36 27 -63 27zM338 573l-58 84l-58 -84h-133l122 163h139l122 -163h-134z" />
    <glyph glyph-name="edieresis" unicode="&#xeb;" horiz-adv-x="541" 
d="M462 133l20 -109c-50 -23 -108 -34 -175 -34c-81 0 -146 24 -196 72s-75 113 -75 195c0 79 23 143 69 192s106 74 179 74c65 0 118 -21 158 -63s60 -97 60 -164c0 -24 -1 -49 -4 -76h-316c13 -77 60 -116 141 -116c47 0 93 10 139 29zM284 415h-1c-29 0 -52 -10 -70 -29
s-29 -46 -34 -80h190v12c0 29 -7 52 -22 70s-36 27 -63 27zM253 649v-2c0 -21 -7 -38 -21 -51s-32 -20 -55 -20s-41 7 -54 20s-20 31 -20 53c0 21 7 38 20 51s31 20 54 20s41 -7 55 -20s21 -30 21 -51zM454 647l-1 -1c0 -22 -6 -39 -19 -52s-31 -19 -54 -19s-41 7 -55 20
s-21 30 -21 51s7 38 21 51s32 20 55 20s41 -6 54 -19s20 -30 20 -51z" />
    <glyph glyph-name="igrave" unicode="&#xec;" horiz-adv-x="272" 
d="M205 511v-511h-138v511h138zM83 571l-117 163h149l89 -163h-121z" />
    <glyph glyph-name="iacute" unicode="&#xed;" horiz-adv-x="272" 
d="M205 511v-511h-138v511h138zM166 734h149l-117 -163h-121z" />
    <glyph glyph-name="icircumflex" unicode="&#xee;" horiz-adv-x="272" 
d="M205 511v-511h-138v511h138zM196 571l-58 84l-58 -84h-133l122 163h139l122 -163h-134z" />
    <glyph glyph-name="idieresis" unicode="&#xef;" horiz-adv-x="272" 
d="M205 511v-511h-138v511h138zM112 647v-2c0 -21 -7 -38 -21 -51s-32 -20 -55 -20s-41 7 -54 20s-20 31 -20 53c0 21 7 38 20 51s31 20 54 20s41 -7 55 -20s21 -30 21 -51zM313 645l-1 -1c0 -22 -6 -39 -19 -52s-31 -19 -54 -19s-41 7 -55 20s-21 30 -21 51s7 38 21 51
s32 20 55 20s41 -6 54 -19s20 -30 20 -51z" />
    <glyph glyph-name="eth" unicode="&#xf0;" horiz-adv-x="550" 
d="M107 619l30 105c56 -9 108 -26 155 -51l71 66l46 -50l-58 -54c52 -39 92 -88 119 -147s41 -122 41 -190c0 -95 -21 -170 -63 -226s-104 -84 -187 -84c-68 0 -123 22 -166 65s-64 99 -64 168c0 64 19 117 57 159s91 63 158 63c43 0 83 -11 120 -34
c-20 59 -53 107 -100 143l-78 -72l-45 50l63 59c-33 15 -66 25 -99 30zM258 103v-2c43 0 74 16 93 48s29 81 29 146v15c-35 18 -71 27 -108 27c-35 0 -62 -11 -81 -33s-28 -49 -28 -82s9 -61 26 -84s40 -35 69 -35z" />
    <glyph glyph-name="ntilde" unicode="&#xf1;" horiz-adv-x="582" 
d="M203 0h-137v479c69 29 144 44 226 44c73 0 130 -18 170 -53s60 -86 60 -152v-318h-138v308c0 67 -31 101 -93 101c-33 0 -62 -6 -88 -18v-391zM349 683c19 0 29 15 29 45h92c-1 -41 -9 -76 -25 -105s-40 -43 -73 -43c-20 0 -43 6 -70 18s-47 18 -60 18
c-22 0 -34 -13 -35 -39h-92c1 45 11 80 29 105s43 37 76 37c21 0 45 -6 72 -18s46 -18 57 -18z" />
    <glyph glyph-name="ograve" unicode="&#xf2;" horiz-adv-x="575" 
d="M537 256l-1 -1c0 -81 -22 -146 -67 -195s-106 -73 -183 -73s-138 25 -183 74s-67 114 -67 195s23 146 68 195s106 73 183 73s138 -24 183 -73s67 -114 67 -195zM178 255l-1 -2c0 -48 10 -86 29 -113s46 -41 81 -41s62 14 81 41s28 65 28 113s-9 86 -28 113s-46 41 -81 41
s-62 -14 -81 -41s-28 -64 -28 -111zM231 568l-117 163h149l89 -163h-121z" />
    <glyph glyph-name="oacute" unicode="&#xf3;" horiz-adv-x="575" 
d="M537 256l-1 -1c0 -81 -22 -146 -67 -195s-106 -73 -183 -73s-138 25 -183 74s-67 114 -67 195s23 146 68 195s106 73 183 73s138 -24 183 -73s67 -114 67 -195zM178 255l-1 -2c0 -48 10 -86 29 -113s46 -41 81 -41s62 14 81 41s28 65 28 113s-9 86 -28 113s-46 41 -81 41
s-62 -14 -81 -41s-28 -64 -28 -111zM314 731h149l-117 -163h-121z" />
    <glyph glyph-name="ocircumflex" unicode="&#xf4;" horiz-adv-x="575" 
d="M537 256l-1 -1c0 -81 -22 -146 -67 -195s-106 -73 -183 -73s-138 25 -183 74s-67 114 -67 195s23 146 68 195s106 73 183 73s138 -24 183 -73s67 -114 67 -195zM178 255l-1 -2c0 -48 10 -86 29 -113s46 -41 81 -41s62 14 81 41s28 65 28 113s-9 86 -28 113s-46 41 -81 41
s-62 -14 -81 -41s-28 -64 -28 -111zM344 568l-58 84l-58 -84h-133l122 163h139l122 -163h-134z" />
    <glyph glyph-name="otilde" unicode="&#xf5;" horiz-adv-x="575" 
d="M537 256l-1 -1c0 -81 -22 -146 -67 -195s-106 -73 -183 -73s-138 25 -183 74s-67 114 -67 195s23 146 68 195s106 73 183 73s138 -24 183 -73s67 -114 67 -195zM178 255l-1 -2c0 -48 10 -86 29 -113s46 -41 81 -41s62 14 81 41s28 65 28 113s-9 86 -28 113s-46 41 -81 41
s-62 -14 -81 -41s-28 -64 -28 -111zM342 680c19 0 29 15 29 45h92c-1 -41 -9 -76 -25 -105s-40 -43 -73 -43c-20 0 -43 6 -70 18s-47 18 -60 18c-22 0 -34 -13 -35 -39h-92c1 45 11 80 29 105s43 37 76 37c21 0 45 -6 72 -18s46 -18 57 -18z" />
    <glyph glyph-name="odieresis" unicode="&#xf6;" horiz-adv-x="575" 
d="M537 256l-1 -1c0 -81 -22 -146 -67 -195s-106 -73 -183 -73s-138 25 -183 74s-67 114 -67 195s23 146 68 195s106 73 183 73s138 -24 183 -73s67 -114 67 -195zM178 255l-1 -2c0 -48 10 -86 29 -113s46 -41 81 -41s62 14 81 41s28 65 28 113s-9 86 -28 113s-46 41 -81 41
s-62 -14 -81 -41s-28 -64 -28 -111zM260 644v-2c0 -21 -7 -38 -21 -51s-32 -20 -55 -20s-41 7 -54 20s-20 31 -20 53c0 21 7 38 20 51s31 20 54 20s41 -7 55 -20s21 -30 21 -51zM461 642l-1 -1c0 -22 -6 -39 -19 -52s-31 -19 -54 -19s-41 7 -55 20s-21 30 -21 51s7 38 21 51
s32 20 55 20s41 -6 54 -19s20 -30 20 -51z" />
    <glyph glyph-name="divide" unicode="&#xf7;" horiz-adv-x="543" 
d="M198 152h-2c0 21 7 38 20 51s31 19 54 19s41 -6 54 -19s20 -30 20 -51c0 -22 -6 -39 -19 -52s-31 -19 -54 -19s-41 6 -54 19s-19 30 -19 52zM196 530l-2 -1c0 21 7 38 20 51s31 20 54 20s41 -6 54 -19s20 -30 20 -51c0 -22 -6 -39 -19 -52s-31 -19 -54 -19s-41 6 -54 19
s-19 30 -19 52zM35 281v119h465v-119h-465z" />
    <glyph glyph-name="oslash" unicode="&#xf8;" horiz-adv-x="576" 
d="M447 511l91 -2l-57 -72c38 -47 57 -108 57 -183c0 -81 -22 -146 -67 -195s-106 -73 -183 -73c-53 0 -99 12 -138 37l-20 -25h-90l57 71c-39 49 -59 111 -59 186c0 81 23 146 68 195s106 73 183 73c53 0 99 -12 138 -37zM180 254v-1c0 -27 3 -50 9 -70l162 203
c-17 13 -38 20 -62 20c-35 0 -62 -14 -81 -41s-28 -64 -28 -111zM289 99c35 0 62 14 81 41s28 65 28 113c0 24 -3 47 -8 68l-161 -202c17 -13 37 -20 60 -20z" />
    <glyph glyph-name="ugrave" unicode="&#xf9;" horiz-adv-x="579" 
d="M514 32l1 -1c-71 -29 -147 -44 -228 -44s-139 19 -174 56s-52 90 -52 159v309h137v-309c0 -67 30 -100 91 -100c33 0 62 6 87 18v391h138v-479zM234 570l-117 163h149l89 -163h-121z" />
    <glyph glyph-name="uacute" unicode="&#xfa;" horiz-adv-x="579" 
d="M514 32l1 -1c-71 -29 -147 -44 -228 -44s-139 19 -174 56s-52 90 -52 159v309h137v-309c0 -67 30 -100 91 -100c33 0 62 6 87 18v391h138v-479zM317 733h149l-117 -163h-121z" />
    <glyph glyph-name="ucircumflex" unicode="&#xfb;" horiz-adv-x="579" 
d="M514 32l1 -1c-71 -29 -147 -44 -228 -44s-139 19 -174 56s-52 90 -52 159v309h137v-309c0 -67 30 -100 91 -100c33 0 62 6 87 18v391h138v-479zM347 570l-58 84l-58 -84h-133l122 163h139l122 -163h-134z" />
    <glyph glyph-name="udieresis" unicode="&#xfc;" horiz-adv-x="579" 
d="M514 32l1 -1c-71 -29 -147 -44 -228 -44s-139 19 -174 56s-52 90 -52 159v309h137v-309c0 -67 30 -100 91 -100c33 0 62 6 87 18v391h138v-479zM263 646v-2c0 -21 -7 -38 -21 -51s-32 -20 -55 -20s-41 7 -54 20s-20 31 -20 53c0 21 7 38 20 51s31 20 54 20s41 -7 55 -20
s21 -30 21 -51zM464 644l-1 -1c0 -22 -6 -39 -19 -52s-31 -19 -54 -19s-41 7 -55 20s-21 30 -21 51s7 38 21 51s32 20 55 20s41 -6 54 -19s20 -30 20 -51z" />
    <glyph glyph-name="yacute" unicode="&#xfd;" horiz-adv-x="517" 
d="M352 44l-3 -1c-77 -135 -173 -212 -288 -231l-22 117c31 5 62 17 93 35s54 40 69 65c-56 76 -98 151 -126 226s-46 160 -53 255h139c5 -134 43 -259 113 -376c27 57 47 113 60 169s22 125 26 208h137c-12 -161 -60 -317 -145 -467zM292 733h149l-117 -163h-121z" />
    <glyph glyph-name="thorn" unicode="&#xfe;" horiz-adv-x="577" 
d="M205 -187h-138v904l138 7v-211c19 7 45 10 77 10c79 0 141 -23 187 -70s69 -110 69 -190c0 -85 -23 -152 -70 -201s-112 -74 -195 -74c-18 0 -41 3 -68 9v-184zM205 116h-1c21 -9 42 -14 63 -14c87 0 130 52 130 157c0 100 -42 150 -127 150c-21 0 -43 -4 -65 -13v-280z
" />
    <glyph glyph-name="ydieresis" unicode="&#xff;" horiz-adv-x="517" 
d="M352 44l-3 -1c-77 -135 -173 -212 -288 -231l-22 117c31 5 62 17 93 35s54 40 69 65c-56 76 -98 151 -126 226s-46 160 -53 255h139c5 -134 43 -259 113 -376c27 57 47 113 60 169s22 125 26 208h137c-12 -161 -60 -317 -145 -467zM238 646v-2c0 -21 -7 -38 -21 -51
s-32 -20 -55 -20s-41 7 -54 20s-20 31 -20 53c0 21 7 38 20 51s31 20 54 20s41 -7 55 -20s21 -30 21 -51zM439 644l-1 -1c0 -22 -6 -39 -19 -52s-31 -19 -54 -19s-41 7 -55 20s-21 30 -21 51s7 38 21 51s32 20 55 20s41 -6 54 -19s20 -30 20 -51z" />
    <glyph glyph-name="Amacron" unicode="&#x100;" horiz-adv-x="666" 
d="M333 548c-24 -52 -55 -143 -94 -272h187c-40 134 -71 225 -93 272zM504 0l-42 153h-258c-14 -47 -28 -98 -42 -154h-147c80 293 161 526 243 700h149c85 -179 166 -412 244 -699h-147zM176 773v106h314v-106h-314z" />
    <glyph glyph-name="amacron" unicode="&#x101;" horiz-adv-x="517" 
d="M253 87h2c29 0 52 5 69 14v107c-25 5 -49 8 -72 8c-55 0 -82 -22 -82 -65s28 -64 83 -64zM459 32h-1c-57 -29 -130 -44 -218 -44c-66 0 -117 15 -153 44s-54 67 -54 114c0 49 18 87 55 115s86 42 147 43c26 0 56 -3 89 -8v24c0 60 -34 90 -102 90c-49 0 -93 -8 -132 -24
l-25 108c48 20 106 30 173 30c73 0 128 -18 165 -55s56 -90 56 -159v-278zM94 593v106h314v-106h-314z" />
    <glyph glyph-name="Abreve" unicode="&#x102;" horiz-adv-x="666" 
d="M333 548c-24 -52 -55 -143 -94 -272h187c-40 134 -71 225 -93 272zM504 0l-42 153h-258c-14 -47 -28 -98 -42 -154h-147c80 293 161 526 243 700h149c85 -179 166 -412 244 -699h-147zM511 903l2 -1c-6 -47 -24 -84 -53 -111s-71 -40 -125 -40c-105 0 -165 51 -180 152
h115c6 -38 27 -57 64 -57c21 0 36 5 45 15s15 24 18 42h114z" />
    <glyph glyph-name="abreve" unicode="&#x103;" horiz-adv-x="517" 
d="M253 87h2c29 0 52 5 69 14v107c-25 5 -49 8 -72 8c-55 0 -82 -22 -82 -65s28 -64 83 -64zM459 32h-1c-57 -29 -130 -44 -218 -44c-66 0 -117 15 -153 44s-54 67 -54 114c0 49 18 87 55 115s86 42 147 43c26 0 56 -3 89 -8v24c0 60 -34 90 -102 90c-49 0 -93 -8 -132 -24
l-25 108c48 20 106 30 173 30c73 0 128 -18 165 -55s56 -90 56 -159v-278zM429 723l2 -1c-6 -47 -24 -84 -53 -111s-71 -40 -125 -40c-105 0 -165 51 -180 152h115c6 -38 27 -57 64 -57c21 0 36 5 45 15s15 24 18 42h114z" />
    <glyph glyph-name="Aogonek" unicode="&#x104;" horiz-adv-x="666" 
d="M333 548c-24 -52 -55 -143 -94 -272h187c-40 134 -71 225 -93 272zM645 -208l-2 -1c-28 -11 -58 -16 -90 -16c-39 0 -69 9 -91 27s-33 43 -33 74c0 43 25 85 74 126l-42 152h-258c-14 -47 -28 -98 -42 -154h-147c80 293 161 526 243 700h149c85 -179 166 -412 244 -699
h-13c-63 -33 -94 -67 -94 -102c0 -23 14 -35 42 -35c15 0 30 3 45 10z" />
    <glyph glyph-name="aogonek" unicode="&#x105;" horiz-adv-x="517" 
d="M463 -208l-3 -1c-27 -11 -57 -16 -90 -16c-39 0 -69 9 -91 27s-33 43 -33 74c0 37 18 76 54 117c-21 -3 -42 -5 -63 -5c-66 0 -117 15 -153 44s-54 67 -54 114c0 49 18 87 55 115s86 42 147 43c26 0 56 -3 89 -8v24c0 60 -34 90 -102 90c-49 0 -93 -8 -132 -24l-25 108
c48 20 106 30 173 30c73 0 128 -18 165 -55s56 -90 56 -159v-279c-63 -44 -95 -88 -95 -132c0 -23 14 -35 42 -35c15 0 30 3 45 10zM167 150h2c0 -43 28 -64 83 -64c29 0 52 5 69 14v107c-25 5 -49 8 -72 8c-55 0 -82 -22 -82 -65z" />
    <glyph glyph-name="Cacute" unicode="&#x106;" horiz-adv-x="585" 
d="M372 -12l-2 1c-105 0 -186 32 -243 96s-86 151 -86 260c0 111 29 200 87 267s141 100 249 100c57 0 113 -12 169 -36l-32 -121c-59 21 -104 31 -135 31c-125 0 -188 -80 -188 -240c0 -155 62 -232 187 -232c47 0 96 13 147 39l28 -123c-53 -28 -113 -42 -181 -42z
M374 916h149l-117 -163h-121z" />
    <glyph glyph-name="cacute" unicode="&#x107;" horiz-adv-x="474" 
d="M292 523l2 -1c57 0 107 -10 150 -30l-26 -109c-39 17 -77 25 -113 25c-40 0 -71 -13 -93 -40s-33 -64 -33 -111c0 -104 44 -156 132 -156c35 0 72 9 111 26l22 -111c-39 -19 -87 -29 -144 -29c-83 0 -147 24 -193 72s-69 113 -69 195s23 147 68 196s107 73 186 73z
M312 733h149l-117 -163h-121z" />
    <glyph glyph-name="Ccircumflex" unicode="&#x108;" horiz-adv-x="585" 
d="M372 -12l-2 1c-105 0 -186 32 -243 96s-86 151 -86 260c0 111 29 200 87 267s141 100 249 100c57 0 113 -12 169 -36l-32 -121c-59 21 -104 31 -135 31c-125 0 -188 -80 -188 -240c0 -155 62 -232 187 -232c47 0 96 13 147 39l28 -123c-53 -28 -113 -42 -181 -42z
M405 753l-58 84l-58 -84h-133l122 163h139l122 -163h-134z" />
    <glyph glyph-name="ccircumflex" unicode="&#x109;" horiz-adv-x="474" 
d="M292 523l2 -1c57 0 107 -10 150 -30l-26 -109c-39 17 -77 25 -113 25c-40 0 -71 -13 -93 -40s-33 -64 -33 -111c0 -104 44 -156 132 -156c35 0 72 9 111 26l22 -111c-39 -19 -87 -29 -144 -29c-83 0 -147 24 -193 72s-69 113 -69 195s23 147 68 196s107 73 186 73z
M343 570l-58 84l-58 -84h-133l122 163h139l122 -163h-134z" />
    <glyph glyph-name="Cdotaccent" unicode="&#x10a;" horiz-adv-x="585" 
d="M372 -12l-2 1c-105 0 -186 32 -243 96s-86 151 -86 260c0 111 29 200 87 267s141 100 249 100c57 0 113 -12 169 -36l-32 -121c-59 21 -104 31 -135 31c-125 0 -188 -80 -188 -240c0 -155 62 -232 187 -232c47 0 96 13 147 39l28 -123c-53 -28 -113 -42 -181 -42z
M266 837h-1c0 23 7 42 21 56s34 21 59 21s45 -7 59 -21s21 -33 21 -56c0 -24 -7 -43 -21 -57s-33 -21 -58 -21s-45 7 -59 21s-21 33 -21 57z" />
    <glyph glyph-name="cdotaccent" unicode="&#x10b;" horiz-adv-x="474" 
d="M292 523l2 -1c57 0 107 -10 150 -30l-26 -109c-39 17 -77 25 -113 25c-40 0 -71 -13 -93 -40s-33 -64 -33 -111c0 -104 44 -156 132 -156c35 0 72 9 111 26l22 -111c-39 -19 -87 -29 -144 -29c-83 0 -147 24 -193 72s-69 113 -69 195s23 147 68 196s107 73 186 73z
M204 654h-1c0 23 7 42 21 56s34 21 59 21s45 -7 59 -21s21 -33 21 -56c0 -24 -7 -43 -21 -57s-33 -21 -58 -21s-45 7 -59 21s-21 33 -21 57z" />
    <glyph glyph-name="Ccaron" unicode="&#x10c;" horiz-adv-x="585" 
d="M372 -12l-2 1c-105 0 -186 32 -243 96s-86 151 -86 260c0 111 29 200 87 267s141 100 249 100c57 0 113 -12 169 -36l-32 -121c-59 21 -104 31 -135 31c-125 0 -188 -80 -188 -240c0 -155 62 -232 187 -232c47 0 96 13 147 39l28 -123c-53 -28 -113 -42 -181 -42z
M289 916l58 -83l58 83h134l-122 -163h-139l-122 163h133z" />
    <glyph glyph-name="ccaron" unicode="&#x10d;" horiz-adv-x="474" 
d="M292 523l2 -1c57 0 107 -10 150 -30l-26 -109c-39 17 -77 25 -113 25c-40 0 -71 -13 -93 -40s-33 -64 -33 -111c0 -104 44 -156 132 -156c35 0 72 9 111 26l22 -111c-39 -19 -87 -29 -144 -29c-83 0 -147 24 -193 72s-69 113 -69 195s23 147 68 196s107 73 186 73z
M227 733l58 -83l58 83h134l-122 -163h-139l-122 163h133z" />
    <glyph glyph-name="Dcaron" unicode="&#x10e;" horiz-adv-x="691" 
d="M506 352c0 151 -68 226 -204 226h-87v-456h87c136 0 204 77 204 230zM72 0l-2 699h234c106 0 191 -31 254 -93s95 -147 95 -254c0 -109 -32 -195 -95 -258s-147 -94 -252 -94h-234zM256 914l58 -83l58 83h134l-122 -163h-139l-122 163h133z" />
    <glyph glyph-name="dcaron" unicode="&#x10f;" horiz-adv-x="576" 
d="M509 29l-2 2c-58 -27 -124 -41 -199 -41c-85 0 -151 23 -199 69s-72 109 -72 189c0 83 25 150 75 200s116 75 198 75c19 0 40 -2 62 -7v201l137 7v-695zM177 255l-1 -1c0 -49 12 -86 35 -112s55 -39 96 -39c26 0 47 4 63 13v284c-20 7 -38 10 -54 10
c-45 0 -79 -13 -103 -39s-36 -65 -36 -116zM586 721h122c-7 -89 -34 -164 -80 -225h-84c25 69 39 144 42 225z" />
    <glyph glyph-name="Dcroat" unicode="&#x110;" horiz-adv-x="699" 
d="M514 352c0 151 -68 226 -204 226h-87v-159h120v-122h-120v-175h87c136 0 204 77 204 230zM80 0l-1 296h-73v122h73v281h234c105 0 189 -31 252 -93s95 -147 95 -254c0 -109 -31 -195 -94 -258s-147 -94 -252 -94h-234z" />
    <glyph glyph-name="dcroat" unicode="&#x111;" horiz-adv-x="576" 
d="M212 658l158 2v59l137 7v-66h58v-88h-58v-541c-58 -27 -124 -41 -199 -41c-85 0 -151 23 -199 69s-72 109 -72 189c0 83 25 150 75 200s116 75 198 75c19 0 40 -2 62 -7v54h-160v88zM177 255l-1 -1c0 -49 12 -86 35 -112s55 -39 96 -39c26 0 47 4 63 13v284
c-20 7 -38 10 -54 10c-45 0 -79 -13 -103 -39s-36 -65 -36 -116z" />
    <glyph glyph-name="Emacron" unicode="&#x112;" horiz-adv-x="553" 
d="M508 122v-122h-436v700h436v-122h-293v-162h250v-122h-250v-172h293zM138 774v106h314v-106h-314z" />
    <glyph glyph-name="emacron" unicode="&#x113;" horiz-adv-x="541" 
d="M462 133l20 -109c-50 -23 -108 -34 -175 -34c-81 0 -146 24 -196 72s-75 113 -75 195c0 79 23 143 69 192s106 74 179 74c65 0 118 -21 158 -63s60 -97 60 -164c0 -24 -1 -49 -4 -76h-316c13 -77 60 -116 141 -116c47 0 93 10 139 29zM284 415h-1c-29 0 -52 -10 -70 -29
s-29 -46 -34 -80h190v12c0 29 -7 52 -22 70s-36 27 -63 27zM123 595v106h314v-106h-314z" />
    <glyph glyph-name="Ebreve" unicode="&#x114;" horiz-adv-x="553" 
d="M508 122v-122h-436v700h436v-122h-293v-162h250v-122h-250v-172h293zM473 904l2 -1c-6 -47 -24 -84 -53 -111s-71 -40 -125 -40c-105 0 -165 51 -180 152h115c6 -38 27 -57 64 -57c21 0 36 5 45 15s15 24 18 42h114z" />
    <glyph glyph-name="ebreve" unicode="&#x115;" horiz-adv-x="541" 
d="M462 133l20 -109c-50 -23 -108 -34 -175 -34c-81 0 -146 24 -196 72s-75 113 -75 195c0 79 23 143 69 192s106 74 179 74c65 0 118 -21 158 -63s60 -97 60 -164c0 -24 -1 -49 -4 -76h-316c13 -77 60 -116 141 -116c47 0 93 10 139 29zM284 415h-1c-29 0 -52 -10 -70 -29
s-29 -46 -34 -80h190v12c0 29 -7 52 -22 70s-36 27 -63 27zM458 725l2 -1c-6 -47 -24 -84 -53 -111s-71 -40 -125 -40c-105 0 -165 51 -180 152h115c6 -38 27 -57 64 -57c21 0 36 5 45 15s15 24 18 42h114z" />
    <glyph glyph-name="Edotaccent" unicode="&#x116;" horiz-adv-x="553" 
d="M508 122v-122h-436v700h436v-122h-293v-162h250v-122h-250v-172h293zM214 836h-1c0 23 7 42 21 56s34 21 59 21s45 -7 59 -21s21 -33 21 -56c0 -24 -7 -43 -21 -57s-33 -21 -58 -21s-45 7 -59 21s-21 33 -21 57z" />
    <glyph glyph-name="edotaccent" unicode="&#x117;" horiz-adv-x="541" 
d="M462 133l20 -109c-50 -23 -108 -34 -175 -34c-81 0 -146 24 -196 72s-75 113 -75 195c0 79 23 143 69 192s106 74 179 74c65 0 118 -21 158 -63s60 -97 60 -164c0 -24 -1 -49 -4 -76h-316c13 -77 60 -116 141 -116c47 0 93 10 139 29zM284 415h-1c-29 0 -52 -10 -70 -29
s-29 -46 -34 -80h190v12c0 29 -7 52 -22 70s-36 27 -63 27zM199 657h-1c0 23 7 42 21 56s34 21 59 21s45 -7 59 -21s21 -33 21 -56c0 -24 -7 -43 -21 -57s-33 -21 -58 -21s-45 7 -59 21s-21 33 -21 57z" />
    <glyph glyph-name="Eogonek" unicode="&#x118;" horiz-adv-x="553" 
d="M515 -208h-2c-28 -11 -58 -16 -90 -16c-39 0 -69 9 -91 27s-33 43 -33 74c0 43 24 84 72 124h-300v700h436v-122h-293v-162h250v-122h-250v-172h293v-122c-63 -33 -95 -67 -95 -102c0 -23 14 -35 43 -35c15 0 30 3 45 10z" />
    <glyph glyph-name="eogonek" unicode="&#x119;" horiz-adv-x="541" 
d="M286 413h-1c-29 0 -52 -10 -70 -29s-29 -46 -34 -80h190v12c0 29 -7 52 -22 70s-36 27 -63 27zM402 -208l-2 1c-27 -11 -57 -16 -90 -16c-38 0 -68 9 -91 27s-34 43 -34 74c0 38 21 77 64 117c-66 11 -118 40 -156 86s-57 105 -57 177c0 79 23 143 69 192s106 74 179 74
c65 0 118 -21 158 -63s60 -97 60 -164c0 -24 -1 -49 -4 -76h-316c13 -77 60 -116 141 -116c47 0 93 10 139 29l22 -111c-29 -13 -62 -22 -99 -28c-56 -31 -84 -63 -84 -96c0 -23 14 -35 43 -35c14 0 28 3 43 10z" />
    <glyph glyph-name="Ecaron" unicode="&#x11a;" horiz-adv-x="553" 
d="M508 122v-122h-436v700h436v-122h-293v-162h250v-122h-250v-172h293zM352 752l-58 84l-58 -84h-133l122 163h139l122 -163h-134z" />
    <glyph glyph-name="ecaron" unicode="&#x11b;" horiz-adv-x="541" 
d="M462 133l20 -109c-50 -23 -108 -34 -175 -34c-81 0 -146 24 -196 72s-75 113 -75 195c0 79 23 143 69 192s106 74 179 74c65 0 118 -21 158 -63s60 -97 60 -164c0 -24 -1 -49 -4 -76h-316c13 -77 60 -116 141 -116c47 0 93 10 139 29zM284 415h-1c-29 0 -52 -10 -70 -29
s-29 -46 -34 -80h190v12c0 29 -7 52 -22 70s-36 27 -63 27zM221 736l58 -83l58 83h134l-122 -163h-139l-122 163h133z" />
    <glyph glyph-name="Gcircumflex" unicode="&#x11c;" horiz-adv-x="663" 
d="M609 43l-2 1c-71 -37 -145 -55 -221 -55c-108 0 -192 32 -253 96s-91 150 -91 257c0 111 31 200 94 268s149 102 258 102c71 0 134 -12 190 -36l-32 -120c-49 20 -101 30 -156 30c-67 0 -118 -21 -153 -64s-52 -103 -52 -180c0 -72 17 -128 52 -168s85 -60 151 -60
c28 0 56 3 85 10v155h-115v118h245v-354zM418 753l-58 84l-58 -84h-133l122 163h139l122 -163h-134z" />
    <glyph glyph-name="gcircumflex" unicode="&#x11d;" horiz-adv-x="574" 
d="M508 32l-2 -2c0 -70 -22 -124 -67 -163s-107 -58 -186 -58c-66 0 -124 10 -175 31l29 109c41 -17 87 -25 138 -25c39 0 70 8 92 24s33 39 33 69v23c-31 -12 -62 -18 -93 -18c-75 0 -133 21 -175 63s-63 101 -63 176c0 80 25 144 74 191s114 71 195 71
c73 0 140 -13 200 -40v-451zM177 271c0 -42 11 -75 32 -99s51 -36 89 -36c24 0 48 6 72 17v243c-23 7 -44 11 -63 11c-41 0 -73 -12 -96 -37s-34 -58 -34 -99zM360 569l-58 84l-58 -84h-133l122 163h139l122 -163h-134z" />
    <glyph glyph-name="Gbreve" unicode="&#x11e;" horiz-adv-x="663" 
d="M609 43l-2 1c-71 -37 -145 -55 -221 -55c-108 0 -192 32 -253 96s-91 150 -91 257c0 111 31 200 94 268s149 102 258 102c71 0 134 -12 190 -36l-32 -120c-49 20 -101 30 -156 30c-67 0 -118 -21 -153 -64s-52 -103 -52 -180c0 -72 17 -128 52 -168s85 -60 151 -60
c28 0 56 3 85 10v155h-115v118h245v-354zM538 905l2 -1c-6 -47 -24 -84 -53 -111s-71 -40 -125 -40c-105 0 -165 51 -180 152h115c6 -38 27 -57 64 -57c21 0 36 5 45 15s15 24 18 42h114z" />
    <glyph glyph-name="gbreve" unicode="&#x11f;" horiz-adv-x="574" 
d="M508 32l-2 -2c0 -70 -22 -124 -67 -163s-107 -58 -186 -58c-66 0 -124 10 -175 31l29 109c41 -17 87 -25 138 -25c39 0 70 8 92 24s33 39 33 69v23c-31 -12 -62 -18 -93 -18c-75 0 -133 21 -175 63s-63 101 -63 176c0 80 25 144 74 191s114 71 195 71
c73 0 140 -13 200 -40v-451zM177 271c0 -42 11 -75 32 -99s51 -36 89 -36c24 0 48 6 72 17v243c-23 7 -44 11 -63 11c-41 0 -73 -12 -96 -37s-34 -58 -34 -99zM480 721l2 -1c-6 -47 -24 -84 -53 -111s-71 -40 -125 -40c-105 0 -165 51 -180 152h115c6 -38 27 -57 64 -57
c21 0 36 5 45 15s15 24 18 42h114z" />
    <glyph glyph-name="Gdotaccent" unicode="&#x120;" horiz-adv-x="663" 
d="M609 43l-2 1c-71 -37 -145 -55 -221 -55c-108 0 -192 32 -253 96s-91 150 -91 257c0 111 31 200 94 268s149 102 258 102c71 0 134 -12 190 -36l-32 -120c-49 20 -101 30 -156 30c-67 0 -118 -21 -153 -64s-52 -103 -52 -180c0 -72 17 -128 52 -168s85 -60 151 -60
c28 0 56 3 85 10v155h-115v118h245v-354zM279 837h-1c0 23 7 42 21 56s34 21 59 21s45 -7 59 -21s21 -33 21 -56c0 -24 -7 -43 -21 -57s-33 -21 -58 -21s-45 7 -59 21s-21 33 -21 57z" />
    <glyph glyph-name="gdotaccent" unicode="&#x121;" horiz-adv-x="574" 
d="M508 32l-2 -2c0 -70 -22 -124 -67 -163s-107 -58 -186 -58c-66 0 -124 10 -175 31l29 109c41 -17 87 -25 138 -25c39 0 70 8 92 24s33 39 33 69v23c-31 -12 -62 -18 -93 -18c-75 0 -133 21 -175 63s-63 101 -63 176c0 80 25 144 74 191s114 71 195 71
c73 0 140 -13 200 -40v-451zM177 271c0 -42 11 -75 32 -99s51 -36 89 -36c24 0 48 6 72 17v243c-23 7 -44 11 -63 11c-41 0 -73 -12 -96 -37s-34 -58 -34 -99zM221 653h-1c0 23 7 42 21 56s34 21 59 21s45 -7 59 -21s21 -33 21 -56c0 -24 -7 -43 -21 -57s-33 -21 -58 -21
s-45 7 -59 21s-21 33 -21 57z" />
    <glyph glyph-name="uni0122" unicode="&#x122;" horiz-adv-x="663" 
d="M609 43l-2 1c-71 -37 -145 -55 -221 -55c-108 0 -192 32 -253 96s-91 150 -91 257c0 111 31 200 94 268s149 102 258 102c71 0 134 -12 190 -36l-32 -120c-49 20 -101 30 -156 30c-67 0 -118 -21 -153 -64s-52 -103 -52 -180c0 -72 17 -128 52 -168s85 -60 151 -60
c28 0 56 3 85 10v155h-115v118h245v-354zM321 -54h125c-6 -70 -32 -130 -78 -181h-85c25 54 38 114 38 181z" />
    <glyph glyph-name="uni0123" unicode="&#x123;" horiz-adv-x="574" 
d="M508 32l-2 -2c0 -70 -22 -124 -67 -163s-107 -58 -186 -58c-66 0 -124 10 -175 31l29 109c41 -17 87 -25 138 -25c39 0 70 8 92 24s33 39 33 69v23c-31 -12 -62 -18 -93 -18c-75 0 -133 21 -175 63s-63 101 -63 176c0 80 25 144 74 191s114 71 195 71
c73 0 140 -13 200 -40v-451zM177 271c0 -42 11 -75 32 -99s51 -36 89 -36c24 0 48 6 72 17v243c-23 7 -44 11 -63 11c-41 0 -73 -12 -96 -37s-34 -58 -34 -99zM365 576l-120 -1c7 75 34 138 80 189h85c-27 -57 -42 -120 -45 -188z" />
    <glyph glyph-name="Hcircumflex" unicode="&#x124;" horiz-adv-x="708" 
d="M636 0h-143v295h-278v-295h-143v700h143v-283h278v283h143v-700zM411 752l-58 84l-58 -84h-133l122 163h139l122 -163h-134z" />
    <glyph glyph-name="hcircumflex" unicode="&#x125;" horiz-adv-x="584" 
d="M205 0h-138v718l138 7v-222c28 13 62 20 103 20c66 0 118 -18 157 -54s58 -86 58 -151v-318h-138v307c0 67 -33 101 -99 101c-27 0 -54 -6 -81 -19v-389zM319 774l-58 84l-58 -84h-133l122 163h139l122 -163h-134z" />
    <glyph glyph-name="Hbar" unicode="&#x126;" horiz-adv-x="723" 
d="M501 0v295h-278v-295h-143v498h-73v114h73v88h143v-88h278v88h142v-88h73v-114h-73v-498h-142zM501 417v81h-278v-81h278z" />
    <glyph glyph-name="hbar" unicode="&#x127;" horiz-adv-x="584" 
d="M205 503l-1 -1c28 13 62 20 103 20c65 0 117 -19 156 -57s59 -90 59 -156v-310h-138v299c0 35 -8 62 -25 81s-41 29 -73 29c-27 0 -54 -6 -81 -19v-389h-138v570h-65v88h65v60l138 7v-67h152v-88h-152v-67z" />
    <glyph glyph-name="Itilde" unicode="&#x128;" horiz-adv-x="287" 
d="M72 0v700h143v-700h-143zM199 864c19 0 29 15 29 45h92c-1 -41 -9 -76 -25 -105s-40 -43 -73 -43c-20 0 -43 6 -70 18s-47 18 -60 18c-22 0 -34 -13 -35 -39h-92c1 45 11 80 29 105s43 37 76 37c21 0 45 -6 72 -18s46 -18 57 -18z" />
    <glyph glyph-name="itilde" unicode="&#x129;" horiz-adv-x="272" 
d="M205 511v-511h-138v511h138zM194 683c19 0 29 15 29 45h92c-1 -41 -9 -76 -25 -105s-40 -43 -73 -43c-20 0 -43 6 -70 18s-47 18 -60 18c-22 0 -34 -13 -35 -39h-92c1 45 11 80 29 105s43 37 76 37c21 0 45 -6 72 -18s46 -18 57 -18z" />
    <glyph glyph-name="Imacron" unicode="&#x12a;" horiz-adv-x="287" 
d="M72 0v700h143v-700h-143zM-13 774v106h314v-106h-314z" />
    <glyph glyph-name="imacron" unicode="&#x12b;" horiz-adv-x="272" 
d="M205 511v-511h-138v511h138zM-18 593v106h314v-106h-314z" />
    <glyph glyph-name="Ibreve" unicode="&#x12c;" horiz-adv-x="287" 
d="M72 0v700h143v-700h-143zM322 904l2 -1c-6 -47 -24 -84 -53 -111s-71 -40 -125 -40c-105 0 -165 51 -180 152h115c6 -38 27 -57 64 -57c21 0 36 5 45 15s15 24 18 42h114z" />
    <glyph glyph-name="ibreve" unicode="&#x12d;" horiz-adv-x="272" 
d="M205 511v-511h-138v511h138zM317 723l2 -1c-6 -47 -24 -84 -53 -111s-71 -40 -125 -40c-105 0 -165 51 -180 152h115c6 -38 27 -57 64 -57c21 0 36 5 45 15s15 24 18 42h114z" />
    <glyph glyph-name="Iogonek" unicode="&#x12e;" horiz-adv-x="287" 
d="M213 -208l-2 -1c-28 -11 -58 -16 -90 -16c-39 0 -69 9 -91 27s-33 43 -33 74c0 43 25 85 74 126v698h143v-700h-8c-63 -32 -95 -66 -95 -101c0 -23 14 -35 42 -35c15 0 30 3 45 10z" />
    <glyph glyph-name="iogonek" unicode="&#x12f;" horiz-adv-x="272" 
d="M136 579c-25 0 -45 7 -59 21s-21 33 -21 56s7 42 21 56s34 21 59 21s44 -7 58 -21s21 -33 21 -56s-7 -42 -21 -56s-33 -21 -58 -21zM208 -208l-2 -1c-28 -11 -58 -16 -90 -16c-39 0 -69 9 -91 27s-33 43 -33 74c0 43 25 85 74 126v509h138v-511h-3
c-63 -32 -95 -66 -95 -101c0 -23 14 -35 42 -35c15 0 30 3 45 10z" />
    <glyph glyph-name="Idotaccent" unicode="&#x130;" horiz-adv-x="287" 
d="M72 0v700h143v-700h-143zM63 836h-1c0 23 7 42 21 56s34 21 59 21s45 -7 59 -21s21 -33 21 -56c0 -24 -7 -43 -21 -57s-33 -21 -58 -21s-45 7 -59 21s-21 33 -21 57z" />
    <glyph glyph-name="dotlessi" unicode="&#x131;" horiz-adv-x="272" 
d="M205 511v-511h-138v511h138z" />
    <glyph glyph-name="IJ" unicode="&#x132;" horiz-adv-x="574" 
d="M72 0v700h143v-700h-143zM286 -102v-1c49 77 73 165 73 265v537h143v-545c0 -127 -31 -234 -92 -321z" />
    <glyph glyph-name="ij" unicode="&#x133;" horiz-adv-x="543" 
d="M205 511v-511h-138v511h138zM136 579c-25 0 -45 7 -59 21s-21 33 -21 56s7 42 21 56s34 21 59 21s44 -7 58 -21s21 -33 21 -56s-7 -42 -21 -56s-33 -21 -58 -21zM477 32h2c0 -55 -13 -100 -39 -135s-68 -62 -126 -81l-40 113c23 12 40 26 50 42s15 39 15 68v472h138v-479
zM489 656c0 -23 -7 -42 -21 -56s-33 -21 -58 -21s-45 7 -59 21s-21 33 -21 56s7 42 21 56s34 21 59 21s44 -7 58 -21s21 -33 21 -56z" />
    <glyph glyph-name="Jcircumflex" unicode="&#x134;" horiz-adv-x="287" 
d="M-1 -102v-1c49 77 73 165 73 265v537h143v-545c0 -127 -31 -234 -92 -321zM202 751l-58 84l-58 -84h-133l122 163h139l122 -163h-134z" />
    <glyph glyph-name="jcircumflex" unicode="&#x135;" horiz-adv-x="272" 
d="M1 -70h2c23 12 40 26 50 42s15 39 15 68v472h138v-479c0 -55 -13 -100 -39 -135s-68 -62 -126 -81zM196 571l-58 84l-58 -84h-133l122 163h139l122 -163h-134z" />
    <glyph glyph-name="uni0136" unicode="&#x136;" horiz-adv-x="647" 
d="M599 700l1 1c-30 -136 -97 -250 -200 -343l241 -357h-164l-183 278c-21 -14 -47 -29 -78 -46v-232h-143v700h143v-325c131 81 211 189 240 324h143zM277 -54h125c-6 -70 -32 -130 -78 -181h-85c25 54 38 114 38 181z" />
    <glyph glyph-name="uni0137" unicode="&#x137;" horiz-adv-x="546" 
d="M498 511h-1c-3 -82 -45 -161 -127 -238l166 -273h-150l-115 195c-23 -17 -45 -32 -66 -45v-150h-138v717l138 7v-441c89 57 141 133 156 228h137zM231 -55h125c-6 -70 -32 -130 -78 -181h-85c25 54 38 114 38 181z" />
    <glyph glyph-name="Lacute" unicode="&#x139;" horiz-adv-x="532" 
d="M72 0v700h143v-578h283v-122h-426zM168 915h149l-117 -163h-121z" />
    <glyph glyph-name="lacute" unicode="&#x13a;" horiz-adv-x="309" 
d="M200 725l-2 -540c0 -55 18 -83 54 -83c11 0 21 1 30 3l10 -109c-25 -5 -48 -8 -69 -8c-107 0 -161 65 -161 195v534zM159 937h149l-117 -163h-121z" />
    <glyph glyph-name="uni013B" unicode="&#x13b;" horiz-adv-x="532" 
d="M72 0v700h143v-578h283v-122h-426zM215 -55h125c-6 -70 -32 -130 -78 -181h-85c25 54 38 114 38 181z" />
    <glyph glyph-name="uni013C" unicode="&#x13c;" horiz-adv-x="309" 
d="M200 725l-2 -540c0 -55 18 -83 54 -83c11 0 21 1 30 3l10 -109c-25 -5 -48 -8 -69 -8c-107 0 -161 65 -161 195v534zM113 -55h125c-6 -70 -32 -130 -78 -181h-85c25 54 38 114 38 181z" />
    <glyph glyph-name="Lcaron" unicode="&#x13d;" horiz-adv-x="532" 
d="M72 0v700h143v-578h283v-122h-426zM331 700h122c-7 -89 -34 -164 -80 -225h-84c25 69 39 144 42 225z" />
    <glyph glyph-name="lcaron" unicode="&#x13e;" horiz-adv-x="309" 
d="M200 725l-2 -540c0 -55 18 -83 54 -83c11 0 21 1 30 3l10 -109c-25 -5 -48 -8 -69 -8c-107 0 -161 65 -161 195v534zM284 722h122c-7 -89 -34 -164 -80 -225h-84c25 69 39 144 42 225z" />
    <glyph glyph-name="Ldot" unicode="&#x13f;" horiz-adv-x="532" 
d="M72 0v700h143v-578h283v-122h-426zM331 384l-2 -1c0 23 7 42 21 56s34 21 59 21s45 -7 59 -21s21 -32 21 -55c0 -24 -7 -43 -21 -57s-33 -21 -58 -21s-44 7 -58 21s-21 33 -21 57z" />
    <glyph glyph-name="ldot" unicode="&#x140;" horiz-adv-x="398" 
d="M200 725l-2 -540c0 -55 18 -83 54 -83c11 0 21 1 30 3l10 -109c-25 -5 -48 -8 -69 -8c-107 0 -161 65 -161 195v534zM249 384l-2 -1c0 23 7 42 21 56s34 21 59 21s45 -7 59 -21s21 -32 21 -55c0 -24 -7 -43 -21 -57s-33 -21 -58 -21s-44 7 -58 21s-21 33 -21 57z" />
    <glyph glyph-name="Lslash" unicode="&#x141;" horiz-adv-x="535" 
d="M72 0v263l-81 -33v117l81 33v320h143v-262l129 53v-118l-129 -52v-199h283v-122h-426z" />
    <glyph glyph-name="lslash" unicode="&#x142;" horiz-adv-x="309" 
d="M-4 284l-2 106l66 26v301l138 8v-254l92 37v-107l-92 -36v-180c0 -55 18 -83 54 -83c11 0 21 1 30 3l10 -109c-25 -5 -48 -8 -69 -8c-107 0 -161 65 -161 195v127z" />
    <glyph glyph-name="Nacute" unicode="&#x143;" horiz-adv-x="715" 
d="M204 0l-133 3v700h138c85 -165 187 -332 305 -501c-3 24 -4 53 -4 87v413h132v-700h-139c-67 89 -123 167 -168 234s-90 142 -135 225c3 -35 4 -75 4 -120v-341zM390 918h149l-117 -163h-121z" />
    <glyph glyph-name="nacute" unicode="&#x144;" horiz-adv-x="582" 
d="M203 0h-137v479c69 29 144 44 226 44c73 0 130 -18 170 -53s60 -86 60 -152v-318h-138v308c0 67 -31 101 -93 101c-33 0 -62 -6 -88 -18v-391zM321 734h149l-117 -163h-121z" />
    <glyph glyph-name="uni0145" unicode="&#x145;" horiz-adv-x="715" 
d="M204 0l-133 3v700h138c85 -165 187 -332 305 -501c-3 24 -4 53 -4 87v413h132v-700h-139c-67 89 -123 167 -168 234s-90 142 -135 225c3 -35 4 -75 4 -120v-341zM301 -52h125c-6 -70 -32 -130 -78 -181h-85c25 54 38 114 38 181z" />
    <glyph glyph-name="uni0146" unicode="&#x146;" horiz-adv-x="582" 
d="M203 0h-137v479c69 29 144 44 226 44c73 0 130 -18 170 -53s60 -86 60 -152v-318h-138v308c0 67 -31 101 -93 101c-33 0 -62 -6 -88 -18v-391zM231 -55h125c-6 -70 -32 -130 -78 -181h-85c25 54 38 114 38 181z" />
    <glyph glyph-name="Ncaron" unicode="&#x147;" horiz-adv-x="715" 
d="M204 0l-133 3v700h138c85 -165 187 -332 305 -501c-3 24 -4 53 -4 87v413h132v-700h-139c-67 89 -123 167 -168 234s-90 142 -135 225c3 -35 4 -75 4 -120v-341zM304 918l58 -83l58 83h134l-122 -163h-139l-122 163h133z" />
    <glyph glyph-name="ncaron" unicode="&#x148;" horiz-adv-x="582" 
d="M203 0h-137v479c69 29 144 44 226 44c73 0 130 -18 170 -53s60 -86 60 -152v-318h-138v308c0 67 -31 101 -93 101c-33 0 -62 -6 -88 -18v-391zM235 734l58 -83l58 83h134l-122 -163h-139l-122 163h133z" />
    <glyph glyph-name="Omacron" unicode="&#x14c;" horiz-adv-x="719" 
d="M676 350l-1 -2c0 -109 -28 -196 -84 -262s-133 -99 -232 -99s-176 33 -232 99s-84 154 -84 263s28 197 84 263s134 99 233 99s176 -33 232 -99s84 -153 84 -262zM190 348c0 -73 14 -131 43 -173s71 -63 126 -63s97 21 126 63s43 100 43 173s-14 131 -43 173
s-71 63 -126 63s-97 -21 -126 -63s-43 -100 -43 -173zM202 772v106h314v-106h-314z" />
    <glyph glyph-name="omacron" unicode="&#x14d;" horiz-adv-x="575" 
d="M537 256l-1 -1c0 -81 -22 -146 -67 -195s-106 -73 -183 -73s-138 25 -183 74s-67 114 -67 195s23 146 68 195s106 73 183 73s138 -24 183 -73s67 -114 67 -195zM178 255l-1 -2c0 -48 10 -86 29 -113s46 -41 81 -41s62 14 81 41s28 65 28 113s-9 86 -28 113s-46 41 -81 41
s-62 -14 -81 -41s-28 -64 -28 -111zM129 590v106h314v-106h-314z" />
    <glyph glyph-name="Obreve" unicode="&#x14e;" horiz-adv-x="719" 
d="M676 350l-1 -2c0 -109 -28 -196 -84 -262s-133 -99 -232 -99s-176 33 -232 99s-84 154 -84 263s28 197 84 263s134 99 233 99s176 -33 232 -99s84 -153 84 -262zM190 348c0 -73 14 -131 43 -173s71 -63 126 -63s97 21 126 63s43 100 43 173s-14 131 -43 173
s-71 63 -126 63s-97 -21 -126 -63s-43 -100 -43 -173zM537 902l2 -1c-6 -47 -24 -84 -53 -111s-71 -40 -125 -40c-105 0 -165 51 -180 152h115c6 -38 27 -57 64 -57c21 0 36 5 45 15s15 24 18 42h114z" />
    <glyph glyph-name="obreve" unicode="&#x14f;" horiz-adv-x="575" 
d="M537 256l-1 -1c0 -81 -22 -146 -67 -195s-106 -73 -183 -73s-138 25 -183 74s-67 114 -67 195s23 146 68 195s106 73 183 73s138 -24 183 -73s67 -114 67 -195zM178 255l-1 -2c0 -48 10 -86 29 -113s46 -41 81 -41s62 14 81 41s28 65 28 113s-9 86 -28 113s-46 41 -81 41
s-62 -14 -81 -41s-28 -64 -28 -111zM464 720l2 -1c-6 -47 -24 -84 -53 -111s-71 -40 -125 -40c-105 0 -165 51 -180 152h115c6 -38 27 -57 64 -57c21 0 36 5 45 15s15 24 18 42h114z" />
    <glyph glyph-name="Ohungarumlaut" unicode="&#x150;" horiz-adv-x="719" 
d="M676 350l-1 -2c0 -109 -28 -196 -84 -262s-133 -99 -232 -99s-176 33 -232 99s-84 154 -84 263s28 197 84 263s134 99 233 99s176 -33 232 -99s84 -153 84 -262zM190 348c0 -73 14 -131 43 -173s71 -63 126 -63s97 21 126 63s43 100 43 173s-14 131 -43 173
s-71 63 -126 63s-97 -21 -126 -63s-43 -100 -43 -173zM487 913h143l-116 -163h-116zM293 913h143l-117 -163h-115z" />
    <glyph glyph-name="ohungarumlaut" unicode="&#x151;" horiz-adv-x="575" 
d="M537 256l-1 -1c0 -81 -22 -146 -67 -195s-106 -73 -183 -73s-138 25 -183 74s-67 114 -67 195s23 146 68 195s106 73 183 73s138 -24 183 -73s67 -114 67 -195zM178 255l-1 -2c0 -48 10 -86 29 -113s46 -41 81 -41s62 14 81 41s28 65 28 113s-9 86 -28 113s-46 41 -81 41
s-62 -14 -81 -41s-28 -64 -28 -111zM414 731h143l-116 -163h-116zM220 731h143l-117 -163h-115z" />
    <glyph glyph-name="OE" unicode="&#x152;" horiz-adv-x="1005" 
d="M960 122l1 -122h-432v54c-48 -44 -108 -66 -180 -66c-96 0 -171 33 -225 99s-81 154 -81 263s27 197 80 263s128 99 225 99c72 0 132 -22 180 -66v54h432v-122h-293v-162h250v-122h-250v-172h293zM192 350v-1c0 -73 14 -131 43 -173s71 -63 126 -63s97 21 126 63
s43 100 43 174c0 73 -14 131 -43 173s-71 63 -126 63s-97 -21 -126 -63s-43 -100 -43 -173z" />
    <glyph glyph-name="oe" unicode="&#x153;" horiz-adv-x="895" 
d="M179 256l-1 -2c0 -48 10 -86 29 -113s46 -41 81 -41s62 14 81 41s28 65 28 113s-9 86 -28 113s-46 41 -81 41s-62 -14 -81 -41s-28 -64 -28 -111zM639 411h-1c-29 0 -53 -10 -71 -29s-29 -46 -34 -80h191v12c0 29 -7 52 -22 70s-36 27 -63 27zM835 20l1 -1
c-50 -23 -106 -34 -169 -34c-83 0 -150 30 -201 89c-47 -59 -108 -89 -184 -89s-136 24 -180 73s-66 114 -66 195s22 146 66 195s104 73 180 73c74 0 134 -29 181 -87c46 58 104 87 174 87c65 0 117 -21 157 -63s60 -97 60 -164c0 -24 -1 -49 -4 -76h-316
c11 -77 58 -116 141 -116c47 0 93 10 139 29z" />
    <glyph glyph-name="Racute" unicode="&#x154;" horiz-adv-x="624" 
d="M271 578h-55v-198h55c91 0 136 33 136 100c0 36 -11 61 -34 76s-57 22 -102 22zM600 0l-155 -1l-95 198c-11 22 -24 38 -38 48s-32 15 -54 15h-43v-260h-144v700h206c87 0 155 -18 204 -54s73 -87 73 -154c0 -101 -46 -163 -139 -187c30 -13 58 -44 83 -93zM302 914h149
l-117 -163h-121z" />
    <glyph glyph-name="racute" unicode="&#x155;" horiz-adv-x="379" 
d="M67 479c59 29 129 44 210 44c36 0 66 -3 90 -9l-20 -113c-15 5 -35 8 -59 8c-31 0 -59 -6 -83 -17v-392h-138v479zM240 734h149l-117 -163h-121z" />
    <glyph glyph-name="uni0156" unicode="&#x156;" horiz-adv-x="624" 
d="M271 578h-55v-198h55c91 0 136 33 136 100c0 36 -11 61 -34 76s-57 22 -102 22zM600 0l-155 -1l-95 198c-11 22 -24 38 -38 48s-32 15 -54 15h-43v-260h-144v700h206c87 0 155 -18 204 -54s73 -87 73 -154c0 -101 -46 -163 -139 -187c30 -13 58 -44 83 -93zM266 -56h125
c-6 -70 -32 -130 -78 -181h-85c25 54 38 114 38 181z" />
    <glyph glyph-name="uni0157" unicode="&#x157;" horiz-adv-x="379" 
d="M67 479c59 29 129 44 210 44c36 0 66 -3 90 -9l-20 -113c-15 5 -35 8 -59 8c-31 0 -59 -6 -83 -17v-392h-138v479zM69 -55h125c-6 -70 -32 -130 -78 -181h-85c25 54 38 114 38 181z" />
    <glyph glyph-name="Rcaron" unicode="&#x158;" horiz-adv-x="624" 
d="M271 578h-55v-198h55c91 0 136 33 136 100c0 36 -11 61 -34 76s-57 22 -102 22zM600 0l-155 -1l-95 198c-11 22 -24 38 -38 48s-32 15 -54 15h-43v-260h-144v700h206c87 0 155 -18 204 -54s73 -87 73 -154c0 -101 -46 -163 -139 -187c30 -13 58 -44 83 -93zM216 914
l58 -83l58 83h134l-122 -163h-139l-122 163h133z" />
    <glyph glyph-name="rcaron" unicode="&#x159;" horiz-adv-x="379" 
d="M67 479c59 29 129 44 210 44c36 0 66 -3 90 -9l-20 -113c-15 5 -35 8 -59 8c-31 0 -59 -6 -83 -17v-392h-138v479zM154 734l58 -83l58 83h134l-122 -163h-139l-122 163h133z" />
    <glyph glyph-name="Sacute" unicode="&#x15a;" horiz-adv-x="536" 
d="M37 29l25 120c66 -25 127 -38 184 -38c77 0 116 27 116 80c0 29 -10 51 -30 65s-55 29 -106 46c-62 21 -109 47 -141 78s-48 74 -48 129c0 64 21 114 63 149s101 53 178 53c71 0 134 -12 188 -36l-28 -119c-53 21 -103 31 -151 31c-70 0 -105 -24 -105 -73
c0 -25 8 -44 24 -57s46 -27 89 -42c34 -12 62 -23 84 -33s44 -24 65 -41s37 -38 47 -62s15 -53 15 -86c0 -65 -23 -115 -69 -151s-107 -54 -184 -54c-85 0 -157 14 -216 41zM305 914h149l-117 -163h-121z" />
    <glyph glyph-name="sacute" unicode="&#x15b;" horiz-adv-x="440" 
d="M393 494l-13 -113c-59 18 -105 27 -138 27c-47 0 -70 -14 -70 -41c0 -14 6 -24 17 -31s33 -15 66 -24c61 -17 105 -37 131 -61s39 -58 39 -103c0 -52 -19 -92 -57 -120s-89 -42 -152 -42c-70 0 -130 11 -181 33l19 113c55 -21 108 -32 159 -32c23 0 42 4 56 12
s21 19 21 33c0 15 -7 27 -21 35s-43 18 -87 31c-49 13 -86 31 -111 55s-37 57 -37 99c0 51 17 90 51 117s82 41 143 41s116 -10 165 -29zM256 733h149l-117 -163h-121z" />
    <glyph glyph-name="Scircumflex" unicode="&#x15c;" horiz-adv-x="536" 
d="M37 29l25 120c66 -25 127 -38 184 -38c77 0 116 27 116 80c0 29 -10 51 -30 65s-55 29 -106 46c-62 21 -109 47 -141 78s-48 74 -48 129c0 64 21 114 63 149s101 53 178 53c71 0 134 -12 188 -36l-28 -119c-53 21 -103 31 -151 31c-70 0 -105 -24 -105 -73
c0 -25 8 -44 24 -57s46 -27 89 -42c34 -12 62 -23 84 -33s44 -24 65 -41s37 -38 47 -62s15 -53 15 -86c0 -65 -23 -115 -69 -151s-107 -54 -184 -54c-85 0 -157 14 -216 41zM336 751l-58 84l-58 -84h-133l122 163h139l122 -163h-134z" />
    <glyph glyph-name="scircumflex" unicode="&#x15d;" horiz-adv-x="440" 
d="M393 494l-13 -113c-59 18 -105 27 -138 27c-47 0 -70 -14 -70 -41c0 -14 6 -24 17 -31s33 -15 66 -24c61 -17 105 -37 131 -61s39 -58 39 -103c0 -52 -19 -92 -57 -120s-89 -42 -152 -42c-70 0 -130 11 -181 33l19 113c55 -21 108 -32 159 -32c23 0 42 4 56 12
s21 19 21 33c0 15 -7 27 -21 35s-43 18 -87 31c-49 13 -86 31 -111 55s-37 57 -37 99c0 51 17 90 51 117s82 41 143 41s116 -10 165 -29zM287 570l-58 84l-58 -84h-133l122 163h139l122 -163h-134z" />
    <glyph glyph-name="uni015E" unicode="&#x15e;" horiz-adv-x="536" 
d="M37 29l29 117c66 -25 127 -38 184 -38c77 0 116 27 116 80c0 29 -10 51 -30 65s-55 29 -106 46c-63 21 -110 47 -141 78s-47 75 -47 131c0 64 21 114 63 149s101 53 178 53c61 0 123 -12 186 -36l-23 -121c-56 22 -108 33 -155 33c-70 0 -105 -24 -105 -73
c0 -25 8 -44 24 -57s46 -27 89 -42c35 -12 63 -23 84 -33s42 -23 63 -40s37 -38 47 -63s15 -54 15 -87c0 -57 -18 -103 -54 -138s-85 -56 -147 -64l-14 -35c29 -3 52 -12 69 -26s26 -34 26 -60c0 -35 -14 -61 -42 -78s-63 -26 -106 -26c-27 0 -51 3 -72 9l16 74
c16 -4 32 -6 47 -6c33 0 50 10 50 31s-19 32 -56 33l-16 40l15 44c-68 3 -130 16 -187 40z" />
    <glyph glyph-name="uni015F" unicode="&#x15f;" horiz-adv-x="440" 
d="M393 494l-12 -116c-62 18 -108 27 -139 27c-47 0 -70 -13 -70 -38c0 -14 5 -24 15 -31s32 -15 66 -25c61 -17 105 -37 131 -61s39 -59 39 -104c0 -47 -15 -84 -45 -111s-71 -43 -124 -49l-14 -34c29 -3 52 -12 69 -26s26 -34 26 -60c0 -35 -14 -61 -42 -78
s-63 -26 -106 -26c-27 0 -51 3 -72 9l16 74c16 -4 32 -6 47 -6c33 0 50 10 50 31s-19 32 -57 33l-15 40l15 45c-50 4 -96 14 -139 31l19 113c54 -21 107 -32 159 -32s78 15 78 45c0 17 -7 29 -21 37s-43 19 -88 32c-49 13 -85 32 -109 56s-36 57 -36 98c0 50 17 88 51 115
s82 40 143 40c57 0 112 -10 165 -29z" />
    <glyph glyph-name="Scaron" unicode="&#x160;" horiz-adv-x="536" 
d="M37 29l25 120c66 -25 127 -38 184 -38c77 0 116 27 116 80c0 29 -10 51 -30 65s-55 29 -106 46c-62 21 -109 47 -141 78s-48 74 -48 129c0 64 21 114 63 149s101 53 178 53c71 0 134 -12 188 -36l-28 -119c-53 21 -103 31 -151 31c-70 0 -105 -24 -105 -73
c0 -25 8 -44 24 -57s46 -27 89 -42c34 -12 62 -23 84 -33s44 -24 65 -41s37 -38 47 -62s15 -53 15 -86c0 -65 -23 -115 -69 -151s-107 -54 -184 -54c-85 0 -157 14 -216 41zM220 914l58 -83l58 83h134l-122 -163h-139l-122 163h133z" />
    <glyph glyph-name="scaron" unicode="&#x161;" horiz-adv-x="440" 
d="M393 494l-13 -113c-59 18 -105 27 -138 27c-47 0 -70 -14 -70 -41c0 -14 6 -24 17 -31s33 -15 66 -24c61 -17 105 -37 131 -61s39 -58 39 -103c0 -52 -19 -92 -57 -120s-89 -42 -152 -42c-70 0 -130 11 -181 33l19 113c55 -21 108 -32 159 -32c23 0 42 4 56 12
s21 19 21 33c0 15 -7 27 -21 35s-43 18 -87 31c-49 13 -86 31 -111 55s-37 57 -37 99c0 51 17 90 51 117s82 41 143 41s116 -10 165 -29zM170 733l58 -83l58 83h134l-122 -163h-139l-122 163h133z" />
    <glyph glyph-name="uni0162" unicode="&#x162;" horiz-adv-x="560" 
d="M208 0l2 576h-186v122h515v-122h-186v-578h-34l-18 -44c29 -3 52 -12 69 -26s26 -34 26 -60c0 -35 -14 -61 -42 -78s-63 -26 -106 -26c-28 0 -52 3 -73 9l16 74c16 -4 32 -6 47 -6c33 0 50 10 50 31s-19 32 -57 33l-15 40l19 55h-27z" />
    <glyph glyph-name="uni0163" unicode="&#x163;" horiz-adv-x="367" 
d="M87 -227l18 72c16 -4 32 -6 47 -6c33 0 50 10 50 31s-19 32 -56 33l-16 40l25 70c-47 31 -71 88 -71 170v216h-68v110h68v111l138 7v-118h111v-110h-111v-214c0 -57 23 -85 69 -85c18 0 36 2 53 6l7 -111c-24 -6 -53 -9 -87 -9c-10 0 -22 1 -37 2l-14 -34
c29 -3 52 -12 69 -26s26 -34 26 -60c0 -35 -14 -61 -42 -78s-63 -26 -106 -26c-28 0 -52 3 -73 9z" />
    <glyph glyph-name="Tcaron" unicode="&#x164;" horiz-adv-x="560" 
d="M208 0v578h-186v122h515v-122h-186v-578h-143zM219 915l58 -83l58 83h134l-122 -163h-139l-122 163h133z" />
    <glyph glyph-name="tcaron" unicode="&#x165;" horiz-adv-x="367" 
d="M349 -3c-24 -6 -53 -9 -87 -9c-120 0 -180 66 -180 197v216h-68v110h68v111l138 7v-118h111v-110h-111v-214c0 -57 23 -85 69 -85c18 0 36 2 53 6zM292 772h122c-7 -89 -34 -164 -80 -225h-84c25 69 39 144 42 225z" />
    <glyph glyph-name="Tbar" unicode="&#x166;" horiz-adv-x="560" 
d="M208 0v277h-121v121h121v180h-186v122h515v-122h-186v-180h121v-121h-121v-277h-143z" />
    <glyph glyph-name="tbar" unicode="&#x167;" horiz-adv-x="367" 
d="M331 511l-1 -110h-111v-67h111v-110h-111v-33c0 -59 23 -88 69 -88c21 0 39 2 54 5l7 -111c-24 -6 -53 -9 -88 -9c-119 0 -179 67 -179 201v35h-68v110h68v67h-68v110h68v111l138 7v-118h111z" />
    <glyph glyph-name="Utilde" unicode="&#x168;" horiz-adv-x="689" 
d="M67 278l1 422h143v-412c0 -116 45 -174 135 -174c89 0 134 58 134 174v412h143v-422c0 -94 -24 -166 -71 -216s-116 -75 -206 -75s-159 25 -207 75s-72 122 -72 216zM402 864c19 0 29 15 29 45h92c-1 -41 -9 -76 -25 -105s-40 -43 -73 -43c-20 0 -43 6 -70 18
s-47 18 -60 18c-22 0 -34 -13 -35 -39h-92c1 45 11 80 29 105s43 37 76 37c21 0 45 -6 72 -18s46 -18 57 -18z" />
    <glyph glyph-name="utilde" unicode="&#x169;" horiz-adv-x="579" 
d="M514 32l1 -1c-71 -29 -147 -44 -228 -44s-139 19 -174 56s-52 90 -52 159v309h137v-309c0 -67 30 -100 91 -100c33 0 62 6 87 18v391h138v-479zM345 682c19 0 29 15 29 45h92c-1 -41 -9 -76 -25 -105s-40 -43 -73 -43c-20 0 -43 6 -70 18s-47 18 -60 18
c-22 0 -34 -13 -35 -39h-92c1 45 11 80 29 105s43 37 76 37c21 0 45 -6 72 -18s46 -18 57 -18z" />
    <glyph glyph-name="Umacron" unicode="&#x16a;" horiz-adv-x="689" 
d="M67 278l1 422h143v-412c0 -116 45 -174 135 -174c89 0 134 58 134 174v412h143v-422c0 -94 -24 -166 -71 -216s-116 -75 -206 -75s-159 25 -207 75s-72 122 -72 216zM190 774v106h314v-106h-314z" />
    <glyph glyph-name="umacron" unicode="&#x16b;" horiz-adv-x="579" 
d="M514 32l1 -1c-71 -29 -147 -44 -228 -44s-139 19 -174 56s-52 90 -52 159v309h137v-309c0 -67 30 -100 91 -100c33 0 62 6 87 18v391h138v-479zM132 592v106h314v-106h-314z" />
    <glyph glyph-name="Ubreve" unicode="&#x16c;" horiz-adv-x="689" 
d="M67 278l1 422h143v-412c0 -116 45 -174 135 -174c89 0 134 58 134 174v412h143v-422c0 -94 -24 -166 -71 -216s-116 -75 -206 -75s-159 25 -207 75s-72 122 -72 216zM525 904l2 -1c-6 -47 -24 -84 -53 -111s-71 -40 -125 -40c-105 0 -165 51 -180 152h115
c6 -38 27 -57 64 -57c21 0 36 5 45 15s15 24 18 42h114z" />
    <glyph glyph-name="ubreve" unicode="&#x16d;" horiz-adv-x="579" 
d="M514 32l1 -1c-71 -29 -147 -44 -228 -44s-139 19 -174 56s-52 90 -52 159v309h137v-309c0 -67 30 -100 91 -100c33 0 62 6 87 18v391h138v-479zM467 722l2 -1c-6 -47 -24 -84 -53 -111s-71 -40 -125 -40c-105 0 -165 51 -180 152h115c6 -38 27 -57 64 -57
c21 0 36 5 45 15s15 24 18 42h114z" />
    <glyph glyph-name="Uring" unicode="&#x16e;" horiz-adv-x="689" 
d="M67 278l1 422h143v-412c0 -116 45 -174 135 -174c89 0 134 58 134 174v412h143v-422c0 -94 -24 -166 -71 -216s-116 -75 -206 -75s-159 25 -207 75s-72 122 -72 216zM219 871l-1 -1c0 37 12 67 36 90s55 35 92 35s68 -12 92 -35s36 -53 36 -90s-12 -67 -36 -90
s-54 -34 -91 -34s-68 12 -92 35s-36 53 -36 90zM389 870c0 13 -4 24 -11 33s-18 13 -32 13s-25 -4 -33 -13s-12 -20 -12 -33s4 -24 12 -33s19 -13 33 -13s25 4 32 13s11 20 11 33z" />
    <glyph glyph-name="uring" unicode="&#x16f;" horiz-adv-x="579" 
d="M514 32l1 -1c-71 -29 -147 -44 -228 -44s-139 19 -174 56s-52 90 -52 159v309h137v-309c0 -67 30 -100 91 -100c33 0 62 6 87 18v391h138v-479zM161 689l-1 -1c0 37 12 67 36 90s55 35 92 35s68 -12 92 -35s36 -53 36 -90s-12 -67 -36 -90s-54 -34 -91 -34s-68 12 -92 35
s-36 53 -36 90zM331 688c0 13 -4 24 -11 33s-18 13 -32 13s-25 -4 -33 -13s-12 -20 -12 -33s4 -24 12 -33s19 -13 33 -13s25 4 32 13s11 20 11 33z" />
    <glyph glyph-name="Uhungarumlaut" unicode="&#x170;" horiz-adv-x="689" 
d="M67 278l1 422h143v-412c0 -116 45 -174 135 -174c89 0 134 58 134 174v412h143v-422c0 -94 -24 -166 -71 -216s-116 -75 -206 -75s-159 25 -207 75s-72 122 -72 216zM475 915h143l-116 -163h-116zM281 915h143l-117 -163h-115z" />
    <glyph glyph-name="uhungarumlaut" unicode="&#x171;" horiz-adv-x="579" 
d="M514 32l1 -1c-71 -29 -147 -44 -228 -44s-139 19 -174 56s-52 90 -52 159v309h137v-309c0 -67 30 -100 91 -100c33 0 62 6 87 18v391h138v-479zM417 733h143l-116 -163h-116zM223 733h143l-117 -163h-115z" />
    <glyph glyph-name="Uogonek" unicode="&#x172;" horiz-adv-x="689" 
d="M67 278l-1 423h143v-412c0 -116 45 -174 135 -174c89 0 134 58 134 174v412h143v-422c0 -78 -16 -141 -49 -189s-81 -79 -144 -93c-59 -33 -89 -66 -89 -99c0 -23 14 -35 43 -35c15 0 30 3 45 10l15 -82c-28 -11 -58 -16 -90 -16c-39 0 -69 9 -91 27s-33 43 -33 74
c0 39 21 78 62 117c-73 9 -128 38 -166 87s-57 115 -57 198z" />
    <glyph glyph-name="uogonek" unicode="&#x173;" horiz-adv-x="579" 
d="M514 32l-1 -2c-63 -43 -95 -87 -95 -133c0 -23 14 -35 42 -35c15 0 30 3 45 10l15 -82c-28 -11 -58 -16 -90 -16c-39 0 -69 9 -91 27s-33 43 -33 74c0 39 18 78 53 117c-25 -3 -49 -5 -72 -5c-81 0 -139 19 -174 56s-52 90 -52 159v309h137v-309c0 -67 30 -100 91 -100
c33 0 62 6 87 18v391h138v-479z" />
    <glyph glyph-name="Wcircumflex" unicode="&#x174;" horiz-adv-x="992" 
d="M699 135h-1c21 63 44 148 69 255s44 211 58 312h146c-47 -288 -110 -521 -189 -700h-157c-50 127 -93 272 -130 436c-40 -172 -84 -317 -131 -436h-157c-39 94 -75 204 -108 330s-59 249 -78 369h145c15 -102 35 -206 59 -313s47 -191 68 -252c26 70 52 157 79 261
s47 206 60 305h128c14 -101 34 -204 61 -309s53 -191 78 -258zM550 752l-58 84l-58 -84h-133l122 163h139l122 -163h-134z" />
    <glyph glyph-name="wcircumflex" unicode="&#x175;" horiz-adv-x="806" 
d="M458 511l-2 1c9 -148 39 -283 90 -404c57 117 89 252 95 404h137c-9 -102 -25 -190 -48 -265s-59 -157 -109 -246h-138c-38 74 -67 138 -88 193c-22 -69 -49 -133 -81 -192h-133c-53 87 -90 167 -111 241s-36 164 -45 271h136c9 -151 41 -286 96 -405
c45 85 73 182 85 291c-5 35 -9 72 -12 111h128zM455 572l-58 84l-58 -84h-133l122 163h139l122 -163h-134z" />
    <glyph glyph-name="Ycircumflex" unicode="&#x176;" horiz-adv-x="617" 
d="M237 0l1 279c-114 163 -191 303 -232 420h147c37 -99 89 -200 156 -303c65 99 117 200 156 304h147c-44 -121 -121 -261 -232 -420v-280h-143zM370 751l-58 84l-58 -84h-133l122 163h139l122 -163h-134z" />
    <glyph glyph-name="ycircumflex" unicode="&#x177;" horiz-adv-x="517" 
d="M352 44l-3 -1c-77 -135 -173 -212 -288 -231l-22 117c31 5 62 17 93 35s54 40 69 65c-56 76 -98 151 -126 226s-46 160 -53 255h139c5 -134 43 -259 113 -376c27 57 47 113 60 169s22 125 26 208h137c-12 -161 -60 -317 -145 -467zM322 570l-58 84l-58 -84h-133l122 163
h139l122 -163h-134z" />
    <glyph glyph-name="Ydieresis" unicode="&#x178;" horiz-adv-x="617" 
d="M237 0l1 279c-114 163 -191 303 -232 420h147c37 -99 89 -200 156 -303c65 99 117 200 156 304h147c-44 -121 -121 -261 -232 -420v-280h-143zM286 827v-2c0 -21 -7 -38 -21 -51s-32 -20 -55 -20s-41 7 -54 20s-20 31 -20 53c0 21 7 38 20 51s31 20 54 20s41 -7 55 -20
s21 -30 21 -51zM487 825l-1 -1c0 -22 -6 -39 -19 -52s-31 -19 -54 -19s-41 7 -55 20s-21 30 -21 51s7 38 21 51s32 20 55 20s41 -6 54 -19s20 -30 20 -51z" />
    <glyph glyph-name="Zacute" unicode="&#x179;" horiz-adv-x="564" 
d="M512 593c-68 -152 -169 -309 -302 -471h324v-122h-497v109c154 185 262 341 325 469h-314v122h464v-107zM310 915h149l-117 -163h-121z" />
    <glyph glyph-name="zacute" unicode="&#x17a;" horiz-adv-x="465" 
d="M42 511l381 -1v-93c-59 -110 -133 -213 -222 -308h237v-110h-407v93c112 115 193 218 243 309h-232v110zM263 733h149l-117 -163h-121z" />
    <glyph glyph-name="Zdotaccent" unicode="&#x17b;" horiz-adv-x="564" 
d="M512 593c-68 -152 -169 -309 -302 -471h324v-122h-497v109c154 185 262 341 325 469h-314v122h464v-107zM202 836h-1c0 23 7 42 21 56s34 21 59 21s45 -7 59 -21s21 -33 21 -56c0 -24 -7 -43 -21 -57s-33 -21 -58 -21s-45 7 -59 21s-21 33 -21 57z" />
    <glyph glyph-name="zdotaccent" unicode="&#x17c;" horiz-adv-x="465" 
d="M42 511l381 -1v-93c-59 -110 -133 -213 -222 -308h237v-110h-407v93c112 115 193 218 243 309h-232v110zM154 654h-1c0 23 7 42 21 56s34 21 59 21s45 -7 59 -21s21 -33 21 -56c0 -24 -7 -43 -21 -57s-33 -21 -58 -21s-45 7 -59 21s-21 33 -21 57z" />
    <glyph glyph-name="Zcaron" unicode="&#x17d;" horiz-adv-x="564" 
d="M512 593c-68 -152 -169 -309 -302 -471h324v-122h-497v109c154 185 262 341 325 469h-314v122h464v-107zM224 915l58 -83l58 83h134l-122 -163h-139l-122 163h133z" />
    <glyph glyph-name="zcaron" unicode="&#x17e;" horiz-adv-x="465" 
d="M42 511l381 -1v-93c-59 -110 -133 -213 -222 -308h237v-110h-407v93c112 115 193 218 243 309h-232v110zM177 733l58 -83l58 83h134l-122 -163h-139l-122 163h133z" />
    <glyph glyph-name="florin" unicode="&#x192;" horiz-adv-x="466" 
d="M75 511h69v21c0 62 15 111 46 147s76 54 135 54c32 0 66 -4 102 -13l-22 -108c-21 4 -39 6 -54 6c-46 0 -69 -28 -69 -83v-24h118v-110h-118v-390c0 -62 -15 -111 -46 -147s-76 -54 -135 -54c-32 0 -66 4 -102 13l22 107c21 -4 39 -6 54 -6c46 0 69 28 69 84v393h-69v110
z" />
    <glyph glyph-name="uni0218" unicode="&#x218;" horiz-adv-x="536" 
d="M37 29l25 120c66 -25 127 -38 184 -38c77 0 116 27 116 80c0 29 -10 51 -30 65s-55 29 -106 46c-62 21 -109 47 -141 78s-48 74 -48 129c0 64 21 114 63 149s101 53 178 53c71 0 134 -12 188 -36l-28 -119c-53 21 -103 31 -151 31c-70 0 -105 -24 -105 -73
c0 -25 8 -44 24 -57s46 -27 89 -42c34 -12 62 -23 84 -33s44 -24 65 -41s37 -38 47 -62s15 -53 15 -86c0 -65 -23 -115 -69 -151s-107 -54 -184 -54c-85 0 -157 14 -216 41zM216 -56h125c-6 -70 -32 -130 -78 -181h-85c25 54 38 114 38 181z" />
    <glyph glyph-name="uni0219" unicode="&#x219;" horiz-adv-x="440" 
d="M393 494l-13 -113c-59 18 -105 27 -138 27c-47 0 -70 -14 -70 -41c0 -14 6 -24 17 -31s33 -15 66 -24c61 -17 105 -37 131 -61s39 -58 39 -103c0 -52 -19 -92 -57 -120s-89 -42 -152 -42c-70 0 -130 11 -181 33l19 113c55 -21 108 -32 159 -32c23 0 42 4 56 12
s21 19 21 33c0 15 -7 27 -21 35s-43 18 -87 31c-49 13 -86 31 -111 55s-37 57 -37 99c0 51 17 90 51 117s82 41 143 41s116 -10 165 -29zM167 -56h125c-6 -70 -32 -130 -78 -181h-85c25 54 38 114 38 181z" />
    <glyph glyph-name="uni021A" unicode="&#x21a;" horiz-adv-x="560" 
d="M208 0v578h-186v122h515v-122h-186v-578h-143zM220 -55h125c-6 -70 -32 -130 -78 -181h-85c25 54 38 114 38 181z" />
    <glyph glyph-name="uni021B" unicode="&#x21b;" horiz-adv-x="367" 
d="M349 -3c-24 -6 -53 -9 -87 -9c-120 0 -180 66 -180 197v216h-68v110h68v111l138 7v-118h111v-110h-111v-214c0 -57 23 -85 69 -85c18 0 36 2 53 6zM136 -55h125c-6 -70 -32 -130 -78 -181h-85c25 54 38 114 38 181z" />
    <glyph glyph-name="uni0237" unicode="&#x237;" horiz-adv-x="272" 
d="M1 -70h2c23 12 40 26 50 42s15 39 15 68v472h138v-479c0 -55 -13 -100 -39 -135s-68 -62 -126 -81z" />
    <glyph glyph-name="circumflex" unicode="&#x2c6;" 
d="M301 567l-58 84l-58 -84h-133l122 163h139l122 -163h-134z" />
    <glyph glyph-name="caron" unicode="&#x2c7;" 
d="M190 730l58 -83l58 83h134l-122 -163h-139l-122 163h133z" />
    <glyph glyph-name="breve" unicode="&#x2d8;" 
d="M429 719l2 -1c-6 -47 -24 -84 -53 -111s-71 -40 -125 -40c-105 0 -165 51 -180 152h115c6 -38 27 -57 64 -57c21 0 36 5 45 15s15 24 18 42h114z" />
    <glyph glyph-name="dotaccent" unicode="&#x2d9;" 
d="M171 651h-1c0 23 7 42 21 56s34 21 59 21s45 -7 59 -21s21 -33 21 -56c0 -24 -7 -43 -21 -57s-33 -21 -58 -21s-45 7 -59 21s-21 33 -21 57z" />
    <glyph glyph-name="ring" unicode="&#x2da;" 
d="M122 686l-1 -1c0 37 12 67 36 90s55 35 92 35s68 -12 92 -35s36 -53 36 -90s-12 -67 -36 -90s-54 -34 -91 -34s-68 12 -92 35s-36 53 -36 90zM292 685c0 13 -4 24 -11 33s-18 13 -32 13s-25 -4 -33 -13s-12 -20 -12 -33s4 -24 12 -33s19 -13 33 -13s25 4 32 13
s11 20 11 33z" />
    <glyph glyph-name="ogonek" unicode="&#x2db;" 
d="M342 -208l-3 -1c-28 -11 -58 -16 -90 -16c-39 0 -69 9 -91 27s-33 43 -33 74c0 25 9 50 27 74s38 45 61 62l122 -12c-63 -32 -95 -66 -95 -101c0 -23 14 -35 42 -35c15 0 30 3 45 10z" />
    <glyph glyph-name="tilde" unicode="&#x2dc;" 
d="M305 679c19 0 29 15 29 45h92c-1 -41 -9 -76 -25 -105s-40 -43 -73 -43c-20 0 -43 6 -70 18s-47 18 -60 18c-22 0 -34 -13 -35 -39h-92c1 45 11 80 29 105s43 37 76 37c21 0 45 -6 72 -18s46 -18 57 -18z" />
    <glyph glyph-name="hungarumlaut" unicode="&#x2dd;" 
d="M345 730h143l-116 -163h-116zM151 730h143l-117 -163h-115z" />
    <glyph glyph-name="uni0326" unicode="&#x326;" horiz-adv-x="0" 
d="M-62 -55h125c-6 -70 -32 -130 -78 -181h-85c25 54 38 114 38 181z" />
    <glyph glyph-name="pi" unicode="&#x3c0;" horiz-adv-x="638" 
d="M609 -3c-29 -6 -58 -9 -87 -9c-107 0 -160 59 -160 178v235h-128v-401h-138v401h-76v110h584v-110h-104v-231c0 -25 5 -42 15 -52s25 -15 46 -15c11 0 27 2 47 6z" />
    <glyph glyph-name="Wgrave" unicode="&#x1e80;" horiz-adv-x="992" 
d="M699 135h-1c21 63 44 148 69 255s44 211 58 312h146c-47 -288 -110 -521 -189 -700h-157c-50 127 -93 272 -130 436c-40 -172 -84 -317 -131 -436h-157c-39 94 -75 204 -108 330s-59 249 -78 369h145c15 -102 35 -206 59 -313s47 -191 68 -252c26 70 52 157 79 261
s47 206 60 305h128c14 -101 34 -204 61 -309s53 -191 78 -258zM437 752l-117 163h149l89 -163h-121z" />
    <glyph glyph-name="wgrave" unicode="&#x1e81;" horiz-adv-x="806" 
d="M458 511l-2 1c9 -148 39 -283 90 -404c57 117 89 252 95 404h137c-9 -102 -25 -190 -48 -265s-59 -157 -109 -246h-138c-38 74 -67 138 -88 193c-22 -69 -49 -133 -81 -192h-133c-53 87 -90 167 -111 241s-36 164 -45 271h136c9 -151 41 -286 96 -405
c45 85 73 182 85 291c-5 35 -9 72 -12 111h128zM342 572l-117 163h149l89 -163h-121z" />
    <glyph glyph-name="Wacute" unicode="&#x1e82;" horiz-adv-x="992" 
d="M699 135h-1c21 63 44 148 69 255s44 211 58 312h146c-47 -288 -110 -521 -189 -700h-157c-50 127 -93 272 -130 436c-40 -172 -84 -317 -131 -436h-157c-39 94 -75 204 -108 330s-59 249 -78 369h145c15 -102 35 -206 59 -313s47 -191 68 -252c26 70 52 157 79 261
s47 206 60 305h128c14 -101 34 -204 61 -309s53 -191 78 -258zM519 915h149l-117 -163h-121z" />
    <glyph glyph-name="wacute" unicode="&#x1e83;" horiz-adv-x="806" 
d="M458 511l-2 1c9 -148 39 -283 90 -404c57 117 89 252 95 404h137c-9 -102 -25 -190 -48 -265s-59 -157 -109 -246h-138c-38 74 -67 138 -88 193c-22 -69 -49 -133 -81 -192h-133c-53 87 -90 167 -111 241s-36 164 -45 271h136c9 -151 41 -286 96 -405
c45 85 73 182 85 291c-5 35 -9 72 -12 111h128zM425 735h149l-117 -163h-121z" />
    <glyph glyph-name="Wdieresis" unicode="&#x1e84;" horiz-adv-x="992" 
d="M699 135h-1c21 63 44 148 69 255s44 211 58 312h146c-47 -288 -110 -521 -189 -700h-157c-50 127 -93 272 -130 436c-40 -172 -84 -317 -131 -436h-157c-39 94 -75 204 -108 330s-59 249 -78 369h145c15 -102 35 -206 59 -313s47 -191 68 -252c26 70 52 157 79 261
s47 206 60 305h128c14 -101 34 -204 61 -309s53 -191 78 -258zM465 828v-2c0 -21 -7 -38 -21 -51s-32 -20 -55 -20s-41 7 -54 20s-20 31 -20 53c0 21 7 38 20 51s31 20 54 20s41 -7 55 -20s21 -30 21 -51zM666 826l-1 -1c0 -22 -6 -39 -19 -52s-31 -19 -54 -19s-41 7 -55 20
s-21 30 -21 51s7 38 21 51s32 20 55 20s41 -6 54 -19s20 -30 20 -51z" />
    <glyph glyph-name="wdieresis" unicode="&#x1e85;" horiz-adv-x="806" 
d="M458 511l-2 1c9 -148 39 -283 90 -404c57 117 89 252 95 404h137c-9 -102 -25 -190 -48 -265s-59 -157 -109 -246h-138c-38 74 -67 138 -88 193c-22 -69 -49 -133 -81 -192h-133c-53 87 -90 167 -111 241s-36 164 -45 271h136c9 -151 41 -286 96 -405
c45 85 73 182 85 291c-5 35 -9 72 -12 111h128zM371 648v-2c0 -21 -7 -38 -21 -51s-32 -20 -55 -20s-41 7 -54 20s-20 31 -20 53c0 21 7 38 20 51s31 20 54 20s41 -7 55 -20s21 -30 21 -51zM572 646l-1 -1c0 -22 -6 -39 -19 -52s-31 -19 -54 -19s-41 7 -55 20s-21 30 -21 51
s7 38 21 51s32 20 55 20s41 -6 54 -19s20 -30 20 -51z" />
    <glyph glyph-name="Ygrave" unicode="&#x1ef2;" horiz-adv-x="617" 
d="M237 0l1 279c-114 163 -191 303 -232 420h147c37 -99 89 -200 156 -303c65 99 117 200 156 304h147c-44 -121 -121 -261 -232 -420v-280h-143zM258 751l-117 163h149l89 -163h-121z" />
    <glyph glyph-name="ygrave" unicode="&#x1ef3;" horiz-adv-x="517" 
d="M352 44l-3 -1c-77 -135 -173 -212 -288 -231l-22 117c31 5 62 17 93 35s54 40 69 65c-56 76 -98 151 -126 226s-46 160 -53 255h139c5 -134 43 -259 113 -376c27 57 47 113 60 169s22 125 26 208h137c-12 -161 -60 -317 -145 -467zM209 570l-117 163h149l89 -163h-121z
" />
    <glyph glyph-name="endash" unicode="&#x2013;" 
d="M32 274v116h436v-116h-436z" />
    <glyph glyph-name="emdash" unicode="&#x2014;" horiz-adv-x="1000" 
d="M32 274v116h936v-116h-936z" />
    <glyph glyph-name="quoteleft" unicode="&#x2018;" horiz-adv-x="254" 
d="M174 453h-132c1 87 37 176 108 267h75c-33 -88 -50 -177 -51 -267z" />
    <glyph glyph-name="quoteright" unicode="&#x2019;" horiz-adv-x="254" 
d="M83 720h132c-1 -85 -37 -174 -109 -267h-74c32 88 49 177 51 267z" />
    <glyph glyph-name="quotesinglbase" unicode="&#x201a;" horiz-adv-x="254" 
d="M71 135h133c-2 -87 -38 -176 -109 -267h-75c33 88 50 177 51 267z" />
    <glyph glyph-name="quotedblleft" unicode="&#x201c;" horiz-adv-x="458" 
d="M377 453h-132c1 85 37 174 109 267h74c-33 -91 -50 -180 -51 -267zM174 453h-132c1 87 37 176 108 267h75c-33 -88 -50 -177 -51 -267z" />
    <glyph glyph-name="quotedblright" unicode="&#x201d;" horiz-adv-x="458" 
d="M83 720h132c-1 -85 -37 -174 -109 -267h-74c32 88 49 177 51 267zM286 720h132c-1 -85 -37 -174 -109 -267h-74c33 88 50 177 51 267z" />
    <glyph glyph-name="quotedblbase" unicode="&#x201e;" horiz-adv-x="458" 
d="M71 135h133c-2 -87 -38 -176 -109 -267h-75c33 88 50 177 51 267zM275 135h132c-1 -85 -37 -174 -109 -267h-74c32 88 49 177 51 267z" />
    <glyph glyph-name="dagger" unicode="&#x2020;" horiz-adv-x="551" 
d="M45 401l-1 114c24 0 84 -3 179 -10c-7 75 -10 123 -10 143c0 27 2 58 5 93h114c3 -41 4 -72 4 -93c0 -20 -3 -68 -10 -143c95 7 155 10 180 10v-114c-24 0 -84 3 -179 10c7 -77 10 -125 10 -144v-467h-123v467c0 19 3 67 10 144c-95 -7 -155 -10 -179 -10z" />
    <glyph glyph-name="daggerdbl" unicode="&#x2021;" horiz-adv-x="551" 
d="M45 401l-2 114c24 0 84 -3 179 -10c-7 75 -10 123 -10 143c0 27 2 58 5 93h114c3 -41 4 -72 4 -93c0 -20 -3 -68 -10 -143c95 7 155 10 180 10v-114c-24 0 -84 3 -179 10c7 -75 10 -122 10 -141s-3 -67 -10 -144c85 6 145 9 179 9v-113c-25 0 -84 3 -177 10
c6 -88 9 -135 9 -141c0 -21 -1 -52 -4 -93h-114c-3 35 -5 66 -5 93c0 21 3 68 10 141c-95 -7 -155 -10 -179 -10v113c34 0 94 -3 179 -9c-7 77 -10 125 -10 144s3 66 10 141c-95 -7 -155 -10 -179 -10z" />
    <glyph glyph-name="bullet" unicode="&#x2022;" horiz-adv-x="351" 
d="M297 356v-1c0 -37 -11 -66 -32 -88s-51 -33 -89 -33c-39 0 -69 11 -90 33s-32 52 -32 89c0 36 11 65 32 87s51 33 90 33c38 0 68 -11 89 -33s32 -51 32 -87z" />
    <glyph glyph-name="ellipsis" unicode="&#x2026;" horiz-adv-x="839" 
d="M60 67v-2c0 23 7 42 21 56s34 21 59 21s45 -7 59 -21s21 -32 21 -55c0 -24 -7 -43 -21 -57s-34 -21 -59 -21s-45 7 -59 21s-21 33 -21 58zM339 65v-1c0 23 7 42 21 56s34 21 59 21s45 -7 59 -21s21 -32 21 -55c0 -24 -7 -43 -21 -57s-33 -21 -58 -21c-26 0 -46 7 -60 21
s-21 33 -21 57zM619 64l1 -2c0 23 7 42 21 56s34 21 59 21s45 -7 59 -21s21 -32 21 -55c0 -24 -7 -43 -21 -57s-34 -21 -59 -21c-26 0 -46 7 -60 21s-21 33 -21 58z" />
    <glyph glyph-name="perthousand" unicode="&#x2030;" horiz-adv-x="1254" 
d="M367 511v-1c0 -55 -15 -98 -45 -129s-70 -46 -120 -46s-90 15 -120 46s-45 74 -45 129c0 53 15 95 46 126s71 47 120 47s89 -15 119 -46s45 -73 45 -126zM144 510c0 -57 19 -85 58 -85c38 0 57 28 57 85c0 56 -19 84 -57 84c-39 0 -58 -28 -58 -84zM561 670h105
l-359 -671h-105zM832 161v-2c0 -54 -15 -96 -45 -127s-70 -46 -120 -46c-49 0 -89 16 -119 47s-45 74 -45 128c0 53 15 95 45 126s70 46 119 46c50 0 90 -15 120 -46s45 -73 45 -126zM609 159c0 -57 19 -85 57 -85c39 0 58 28 58 85c0 56 -19 84 -58 84
c-38 0 -57 -28 -57 -84zM1218 159v-2c0 -54 -15 -96 -45 -127s-70 -46 -120 -46c-49 0 -89 16 -120 47s-46 74 -46 128c0 53 15 95 46 126s71 46 120 46c50 0 90 -15 120 -46s45 -73 45 -126zM995 157c0 -57 19 -85 58 -85c38 0 57 28 57 85c0 56 -19 84 -57 84
c-39 0 -58 -28 -58 -84z" />
    <glyph glyph-name="guilsinglleft" unicode="&#x2039;" horiz-adv-x="387" 
d="M186 66c-65 69 -120 142 -165 219c44 75 99 148 165 219h167c-61 -63 -119 -136 -174 -219c57 -85 115 -158 174 -219h-167z" />
    <glyph glyph-name="guilsinglright" unicode="&#x203a;" horiz-adv-x="387" 
d="M200 66h-166c61 63 119 136 174 219c-53 79 -111 152 -174 219h166c65 -69 120 -142 165 -219c-45 -79 -100 -152 -165 -219z" />
    <glyph glyph-name="fraction" unicode="&#x2044;" horiz-adv-x="110" 
d="M197 700h111l-395 -700h-111z" />
    <glyph glyph-name="zero.superior" unicode="&#x2070;" horiz-adv-x="352" 
d="M339 533l-1 -1c0 -56 -15 -100 -45 -132s-69 -48 -118 -48s-88 16 -118 48s-45 76 -45 132c0 55 15 99 45 131s70 48 119 48s88 -16 118 -48s45 -75 45 -130zM119 532c0 -61 19 -92 56 -92s55 31 55 92s-18 91 -55 91s-56 -30 -56 -91z" />
    <glyph glyph-name="four.superior" unicode="&#x2074;" horiz-adv-x="352" 
d="M200 492h-1c0 46 1 88 4 125c-35 -41 -66 -83 -93 -125h90zM20 417v65c44 79 103 153 176 222h99v-212h42v-75h-42v-57h-96v57h-179z" />
    <glyph glyph-name="Euro" unicode="&#x20ac;" horiz-adv-x="615" 
d="M433 -12l1 -1c-81 0 -148 19 -201 57s-89 93 -108 164h-94v93h80c-1 7 -1 18 -1 33c0 13 0 23 1 30h-80v93h94c19 73 55 129 107 168s117 58 194 58c56 0 104 -6 145 -19l-28 -114c-37 10 -70 15 -100 15c-89 0 -146 -36 -171 -107h217l-10 -93h-224c-1 -7 -1 -17 -1 -30
c0 -15 0 -26 1 -33h220l-8 -93h-193c27 -69 83 -103 168 -103c40 0 78 5 115 16l22 -112c-38 -15 -87 -22 -146 -22z" />
    <glyph glyph-name="uni20B9" unicode="&#x20b9;" horiz-adv-x="537" 
d="M49 576l1 96h445v-95h-114c9 -21 16 -44 21 -69h93v-95h-88c-7 -108 -69 -173 -186 -196l203 -217h-175l-198 209h-1v106h77c49 0 85 8 108 23s37 40 41 75h-226v95h221c-5 23 -13 46 -24 68h-198z" />
    <glyph glyph-name="uni2113" unicode="&#x2113;" horiz-adv-x="537" 
d="M59 70l-54 99l81 44c-7 37 -11 76 -11 117c0 123 23 217 69 282s103 98 170 98c57 0 101 -16 133 -48s48 -79 48 -141c0 -77 -21 -143 -63 -198s-104 -105 -186 -150l-2 -1c23 -43 63 -64 120 -64c32 0 63 5 92 16v-120c-33 -11 -68 -16 -105 -16
c-102 0 -177 40 -224 119zM215 339l1 1c0 -14 1 -32 2 -53c50 32 86 66 108 102s33 77 33 122c0 53 -16 80 -49 80c-31 0 -55 -23 -71 -69s-24 -107 -24 -183z" />
    <glyph glyph-name="trademark" unicode="&#x2122;" horiz-adv-x="770" 
d="M113 366v260h-90v74h270v-74h-90v-260h-90zM330 700h93c30 -72 64 -137 103 -194c32 49 64 114 97 194h93v-334h-81v154l4 52c-26 -50 -54 -98 -84 -145h-62c-27 42 -56 91 -86 148l4 -55v-154h-81v334z" />
    <glyph glyph-name="uni2126" unicode="&#x2126;" horiz-adv-x="719" 
d="M52 0l2 122h92c-67 69 -101 151 -101 247c0 101 28 184 84 248s134 96 233 96c97 0 174 -32 231 -97s85 -148 85 -249c0 -97 -33 -179 -100 -246h91v-122h-245v112c30 16 55 46 75 89s30 93 30 149c0 73 -14 131 -43 173s-71 63 -126 63s-97 -21 -126 -63
s-43 -100 -43 -173c0 -57 10 -107 30 -150s45 -72 76 -87v-112h-245z" />
    <glyph glyph-name="estimated" unicode="&#x212e;" horiz-adv-x="711" 
d="M550 276l1 152c0 7 -3 13 -8 18c-51 52 -113 78 -186 78c-75 0 -137 -27 -187 -81c-5 -4 -8 -10 -8 -19v-148c0 -3 1 -4 4 -4h381c2 0 3 1 3 4zM663 258l-496 -1c-3 0 -4 -1 -4 -3v-150c0 -7 2 -13 7 -18c51 -53 114 -80 188 -80c80 0 146 30 197 90h44
c-63 -71 -144 -107 -243 -107c-85 0 -157 27 -217 81s-90 119 -90 195s30 141 90 195s132 81 217 81s157 -27 217 -81s90 -119 90 -195v-7z" />
    <glyph glyph-name="partialdiff" unicode="&#x2202;" horiz-adv-x="580" 
d="M249 -12l2 -1c-68 0 -121 20 -158 59s-56 93 -56 162c0 89 26 164 78 224s115 90 190 90c24 0 47 -6 69 -19c-25 40 -57 77 -96 112s-79 62 -120 82l170 10c61 -35 112 -84 152 -146s60 -132 60 -209c0 -111 -26 -199 -78 -265s-123 -99 -213 -99zM178 212v-1
c0 -35 8 -62 23 -81s37 -29 66 -29c40 0 73 20 98 60s38 86 38 137c0 73 -30 110 -89 110c-39 0 -71 -20 -97 -59s-39 -85 -39 -137z" />
    <glyph glyph-name="uni2206" unicode="&#x2206;" horiz-adv-x="665" 
d="M20 0v109l243 591h137l245 -591v-109h-625zM490 120l-158 422l-164 -422h322z" />
    <glyph glyph-name="product" unicode="&#x220f;" horiz-adv-x="759" 
d="M734 578h-100v-708h-143v708h-223v-708h-143v708h-100v122h709v-122z" />
    <glyph glyph-name="summation" unicode="&#x2211;" horiz-adv-x="563" 
d="M544 -130h-525v114l257 308l-236 294v114h474v-122h-295l184 -233v-114l-207 -239h348v-122z" />
    <glyph glyph-name="minus" unicode="&#x2212;" horiz-adv-x="543" 
d="M39 282v119h465v-119h-465z" />
    <glyph glyph-name="uni2215" unicode="&#x2215;" horiz-adv-x="110" 
d="M197 700h111l-395 -700h-111z" />
    <glyph glyph-name="radical" unicode="&#x221a;" horiz-adv-x="530" 
d="M163 0l-84 204h-72v122h159l65 -181l156 555h136l-217 -700h-143z" />
    <glyph glyph-name="infinity" unicode="&#x221e;" horiz-adv-x="838" 
d="M32 323l-5 -2c0 61 18 109 54 144s81 53 135 53c75 0 143 -40 204 -119c29 38 60 67 92 88s69 31 110 31c49 0 92 -18 128 -54s54 -84 54 -144c0 -61 -18 -109 -54 -145s-79 -54 -129 -54c-45 0 -83 10 -115 31s-64 51 -95 90c-31 -42 -61 -72 -91 -91s-66 -28 -107 -28
c-49 0 -91 18 -127 54s-54 85 -54 146zM224 405h-4c-24 0 -43 -8 -57 -23s-21 -36 -21 -63s7 -48 22 -63s35 -22 60 -22c23 0 43 6 60 19s37 34 60 63c-23 31 -43 54 -60 68s-37 21 -60 21zM475 322v-1c21 -30 41 -52 59 -66s39 -21 63 -21c26 0 46 7 60 22s21 36 21 63
c0 28 -7 50 -22 65s-35 23 -60 23c-23 0 -44 -7 -62 -21s-38 -35 -59 -64z" />
    <glyph glyph-name="integral" unicode="&#x222b;" horiz-adv-x="468" 
d="M426 612h-1c-23 4 -41 6 -54 6c-46 0 -69 -28 -69 -83v-524c0 -62 -15 -111 -46 -147s-76 -54 -135 -54c-32 0 -66 4 -102 13l22 108c16 -4 34 -6 54 -6c46 0 69 28 69 83v524c0 62 16 111 47 147s76 54 135 54c31 0 65 -4 102 -13z" />
    <glyph glyph-name="approxequal" unicode="&#x2248;" horiz-adv-x="543" 
d="M504 476l-1 -1c-7 -41 -21 -73 -43 -96s-50 -34 -84 -34c-31 0 -64 8 -100 23s-65 23 -88 23c-35 0 -59 -14 -73 -43l-78 53c9 37 25 66 49 87s53 32 86 32c26 0 57 -7 93 -22s65 -22 88 -22c35 0 60 16 74 49zM503 282h-1c-7 -41 -21 -73 -43 -96s-50 -34 -84 -34
c-31 0 -64 8 -100 23s-65 23 -88 23c-35 0 -59 -15 -73 -44l-78 53c9 37 25 66 49 87s53 32 86 32c26 0 57 -7 93 -22s65 -22 88 -22c35 0 60 16 74 49z" />
    <glyph glyph-name="notequal" unicode="&#x2260;" horiz-adv-x="543" 
d="M330 625h134l-58 -131h98v-118h-150l-31 -69h181v-119h-233l-58 -130h-134l58 130h-98v119h150l31 69h-181v118h233z" />
    <glyph glyph-name="lessequal" unicode="&#x2264;" horiz-adv-x="543" 
d="M39 16v119h465v-119h-465zM504 175l-465 144v133l465 145v-135l-304 -76l304 -77v-134z" />
    <glyph glyph-name="greaterequal" unicode="&#x2265;" horiz-adv-x="543" 
d="M504 16h-465v119h465v-119zM39 175v134l303 77l-303 76v135l465 -145v-133z" />
    <glyph glyph-name="lozenge" unicode="&#x25ca;" horiz-adv-x="519" 
d="M259 111l110 185l-110 186l-109 -186zM190 0l-180 295l180 298h139l180 -298l-180 -295h-139z" />
    <glyph glyph-name=".null" horiz-adv-x="0" 
 />
    <glyph glyph-name="nonmarkingreturn" horiz-adv-x="333" 
 />
    <glyph glyph-name="ITF" horiz-adv-x="1663" 
d="M72 0v700h216v-700h-216zM333 496v204h216v-204h-216zM593 0v700h217v-700h-217zM854 496v204h216v-204h-216zM1114 0v700h217v-700h-217zM1375 496v204h216v-204h-216zM1375 247v205h216v-205h-216z" />
    <glyph glyph-name="caron.alt" 
d="M136 710h122c-7 -89 -34 -164 -80 -225h-84c25 69 39 144 42 225z" />
    <glyph glyph-name="uni0326.alt" horiz-adv-x="0" 
d="M63 574l-120 -1c7 75 34 138 80 189h85c-27 -57 -42 -120 -45 -188z" />
    </font>
</defs>
</svg>
